<?xml version="1.0" encoding="UTF-8" standalone="no"?>
<svg
   xmlns:dc="http://purl.org/dc/elements/1.1/"
   xmlns:cc="http://creativecommons.org/ns#"
   xmlns:rdf="http://www.w3.org/1999/02/22-rdf-syntax-ns#"
   xmlns:svg="http://www.w3.org/2000/svg"
   xmlns="http://www.w3.org/2000/svg"
   xmlns:sodipodi="http://sodipodi.sourceforge.net/DTD/sodipodi-0.dtd"
   xmlns:inkscape="http://www.inkscape.org/namespaces/inkscape"
   width="100%"
   height="100%"
   viewBox="0 0 1280 1150"
   version="1.1"
   xml:space="preserve"
   style="fill-rule:evenodd;clip-rule:evenodd;stroke-linecap:round;stroke-linejoin:round;stroke-miterlimit:1.41421;"
   id="svg113"
   sodipodi:docname="-1268105234.svg"
   inkscape:version="0.92.2 (5c3e80d, 2017-08-06)"><metadata
     id="metadata119"><rdf:RDF><cc:Work
         rdf:about=""><dc:format>image/svg+xml</dc:format><dc:type
           rdf:resource="http://purl.org/dc/dcmitype/StillImage" /></cc:Work></rdf:RDF></metadata><defs
     id="defs117" /><sodipodi:namedview
     pagecolor="#ffffff"
     bordercolor="#666666"
     borderopacity="1"
     objecttolerance="10"
     gridtolerance="10"
     guidetolerance="10"
     inkscape:pageopacity="0"
     inkscape:pageshadow="2"
     inkscape:window-width="877"
     inkscape:window-height="543"
     id="namedview115"
     showgrid="false"
     inkscape:zoom="0.20521739"
     inkscape:cx="640"
     inkscape:cy="575"
     inkscape:window-x="0"
     inkscape:window-y="0"
     inkscape:window-maximized="0"
     inkscape:current-layer="svg113" /><g
     id="Antenne"><path
       d="M596.842,146.048C598.148,134.335 629.626,134.428 631.468,146.048C631.468,146.048 632.361,305.275 631.468,454.318C630.385,635.257 637.612,655.762 637.612,708.667L591.006,708.667C591.098,673.43 595.064,566.875 594.763,454.318C594.366,305.649 596.488,148.735 596.842,146.048"
       style="fill:rgb(70,70,78);stroke-width:0.45px;stroke:rgb(53,52,58);"
       id="path2" /><path
       d="M596.842,146.048C598.148,134.335 629.626,134.428 631.468,146.048C632.004,150.27 630.686,154.042 628.26,158.546C625.819,163.078 623.038,167.23 619.462,170.845C615.315,175.037 613.301,175.612 608.833,170.845C605.538,167.329 602.57,163.212 599.901,158.546C597.855,154.669 596.51,150.594 596.842,146.048"
       style="fill:rgb(81,81,88);stroke-width:0.45px;stroke:rgb(53,52,58);"
       id="path4" /><path
       d="M619.462,666.208L619.462,170.845C615.315,175.037 613.301,175.612 608.833,170.845L608.833,666.208C605.066,681.947 599.707,696.525 591.006,708.667L591.006,764.895L637.612,764.895L637.612,708.667C627.142,695.172 622.264,680.844 619.462,666.208Z"
       style="fill:rgb(53,52,58);stroke-width:0.45px;stroke:rgb(53,52,58);"
       id="path6" /></g><g
     id="Antenne1"
     transform="matrix(1,0,0,1,301.844,1.97283)"><path
       d="M596.842,146.048C598.148,134.335 629.626,134.428 631.468,146.048C631.468,146.048 632.361,305.275 631.468,454.318C630.385,635.257 637.612,655.762 637.612,708.667L591.006,708.667C591.098,673.43 595.064,566.875 594.763,454.318C594.366,305.649 596.488,148.735 596.842,146.048"
       style="fill:rgb(70,70,78);stroke-width:0.45px;stroke:rgb(53,52,58);"
       id="path9" /><path
       d="M596.842,146.048C598.148,134.335 629.626,134.428 631.468,146.048C632.004,150.27 630.686,154.042 628.26,158.546C625.819,163.078 623.038,167.23 619.462,170.845C615.315,175.037 613.301,175.612 608.833,170.845C605.538,167.329 602.57,163.212 599.901,158.546C597.855,154.669 596.51,150.594 596.842,146.048"
       style="fill:rgb(81,81,88);stroke-width:0.45px;stroke:rgb(53,52,58);"
       id="path11" /><path
       d="M619.462,666.208L619.462,170.845C615.315,175.037 613.301,175.612 608.833,170.845L608.833,666.208C605.066,681.947 599.707,696.525 591.006,708.667L591.006,764.895L637.612,764.895L637.612,708.667C627.142,695.172 622.264,680.844 619.462,666.208Z"
       style="fill:rgb(53,52,58);stroke-width:0.45px;stroke:rgb(53,52,58);"
       id="path13" /></g><g
     id="Antenne2"
     transform="matrix(1,0,0,1,-300.491,-3.67987)"><path
       d="M596.842,146.048C598.148,134.335 629.626,134.428 631.468,146.048C631.468,146.048 632.361,305.275 631.468,454.318C630.385,635.257 637.612,655.762 637.612,708.667L591.006,708.667C591.098,673.43 595.064,566.875 594.763,454.318C594.366,305.649 596.488,148.735 596.842,146.048"
       style="fill:rgb(70,70,78);stroke-width:0.45px;stroke:rgb(53,52,58);"
       id="path16" /><path
       d="M596.842,146.048C598.148,134.335 629.626,134.428 631.468,146.048C632.004,150.27 630.686,154.042 628.26,158.546C625.819,163.078 623.038,167.23 619.462,170.845C615.315,175.037 613.301,175.612 608.833,170.845C605.538,167.329 602.57,163.212 599.901,158.546C597.855,154.669 596.51,150.594 596.842,146.048"
       style="fill:rgb(81,81,88);stroke-width:0.45px;stroke:rgb(53,52,58);"
       id="path18" /><path
       d="M619.462,666.208L619.462,170.845C615.315,175.037 613.301,175.612 608.833,170.845L608.833,666.208C605.066,681.947 599.707,696.525 591.006,708.667L591.006,764.895L637.612,764.895L637.612,708.667C627.142,695.172 622.264,680.844 619.462,666.208Z"
       style="fill:rgb(53,52,58);stroke-width:0.45px;stroke:rgb(53,52,58);"
       id="path20" /></g><g
     id="gehäuse"><path
       d="M167.854,986.506C135.67,974.253 100.838,966.525 72.744,953.354L1165.52,953.354C1136.85,965.904 1105.6,974.143 1074.26,986.506C1057.06,992.508 1040.16,1000.07 1022.47,1006.94C997.148,1016.77 982.088,1018.47 950.8,1021.02C950.8,1021.02 897.29,1025.37 871.243,1024.95L382.687,1024.95C348.609,1024.95 317.545,1023.3 285.522,1021.02C254.031,1018.77 242.446,1017.85 215.396,1006.94C198.833,1000.26 186.083,992.985 167.854,986.506Z"
       style="fill:rgb(37,36,42);stroke-width:2px;stroke:black;"
       id="path23" /><g
       id="rillen"><path
         d="M1098.16,977.188C922.741,1009.09 323.926,1011.4 137.535,975.84L154.608,981.488C326.219,1017.54 968.265,1012.54 1086.59,981.488L1098.16,977.188Z"
         style="fill:black;stroke-width:0.35px;stroke:black;"
         id="path25" /><path
         d="M1063.49,991.005C888.071,1015.11 367.198,1018.85 180.809,991.005L192.262,996.404C364.793,1023.66 931.601,1019.41 1049.08,996.404L1063.49,991.005Z"
         style="fill:black;stroke-width:0.35px;stroke:black;"
         id="path27" /><path
         d="M1032.87,1002.58C857.603,1023.68 388.53,1025.71 201.978,1000.92L221.795,1009.32C394.243,1031.8 899.115,1028.01 1016.67,1009.32L1032.87,1002.58Z"
         style="fill:black;stroke-width:0.35px;stroke:black;"
         id="path29" /></g><path
       d="M218.811,743.704C479.599,757.197 748.605,758.917 1029.43,743.704C1056.08,742.26 1082.96,750.615 1104.62,769.5C1138.38,798.948 1173.01,832.802 1194.9,872.523C1212.69,904.783 1217.8,930.316 1165.52,953.354C1123.6,971.829 1074.66,977.117 1022.44,981.108C746.347,1002.21 479.232,1001.86 218.811,981.108C159.1,976.349 101.243,967.601 72.744,953.354C60.354,947.16 17.167,926.55 40.691,878.526C57.893,843.408 92.042,803.205 126.441,769.5C142.809,753.462 171.482,741.255 218.811,743.704Z"
       style="fill:black;stroke-width:1px;stroke:black;"
       id="path32" /><g
       id="deckel"><path
         d="M129.285,769.5L1102.13,769.5C1135.89,798.948 1165.6,832.802 1187.5,872.523C1199.45,900.106 1194.27,915.526 1165.52,929.3C1124.21,949.096 1074.66,955.889 1022.44,959.88C746.347,980.977 479.232,980.634 218.811,959.88C159.1,955.121 100.819,944.516 72.744,929.3C47.006,915.35 41.274,892.269 51.049,872.523C68.484,837.304 94.886,803.205 129.285,769.5Z"
         style="fill:rgb(37,36,42);stroke-width:1px;stroke:black;"
         id="path34" /><path
         d="M129.285,769.5L1102.13,769.5C1135.89,798.948 1165.03,832.802 1186.93,872.523C1199.09,900.605 1188.43,915.925 1165.52,926.903C1124.21,946.699 1074.66,953.064 1022.44,957.054C746.347,978.152 479.232,977.809 218.811,957.054C159.1,952.296 100.819,942.119 72.744,926.903C49.68,914.403 43.076,889.35 51.406,872.523C68.841,837.304 94.886,803.205 129.285,769.5Z"
         style="fill:black;stroke-width:1px;stroke:black;"
         id="path36" /><path
         d="M218.811,743.704C479.599,757.197 748.605,758.917 1029.43,743.704C1056.08,742.26 1080.48,750.615 1102.13,769.5C1135.89,798.948 1164.56,832.802 1186.46,872.523C1196.35,895.374 1188.56,912.725 1165.52,923.762C1124.21,943.558 1074.66,950.415 1022.44,954.406C746.347,975.504 479.232,975.16 218.811,954.406C159.1,949.648 100.819,938.978 72.744,923.762C50.89,911.918 44.957,887.601 52.421,872.523C69.856,837.304 94.886,803.205 129.285,769.5C145.654,753.462 171.482,741.255 218.811,743.704Z"
         style="fill:rgb(37,36,42);stroke-width:1px;stroke:black;"
         id="path38" /></g></g><path
     d="M376.298,919.206C372.854,919.155 369.911,919.877 369.196,922.056L366.093,931.517C365.187,934.276 367.042,937.297 371.643,937.458C536.994,943.254 702.358,944.196 867.741,937.458C873.116,937.239 877.199,935.909 875.011,931.517L870.3,922.056C869.401,920.251 867.115,919.164 864.597,919.206C701.822,921.923 539.057,921.621 376.298,919.206Z"
     style="fill:rgb(50,50,50);stroke-width:2px;stroke:black;"
     id="path42" /><path
     d="M376.298,923.288C372.854,923.237 368.802,923.345 368.088,925.524L366.093,931.517C365.187,934.276 367.042,937.297 371.643,937.458C536.994,943.254 702.358,944.196 867.741,937.458C873.116,937.239 877.199,935.909 875.011,931.517L872.037,925.524C871.138,923.719 867.115,923.246 864.597,923.288C701.822,926.005 539.057,925.703 376.298,923.288Z"
     style="fill:black;stroke-width:2px;stroke:black;"
     id="path44" /><g
     id="led"><g
       id="power"><path
         d="M449.307,928.937C447.618,930.257 447.618,931.692 449.307,933.241C450.051,933.585 450.817,933.63 451.616,933.241C453.238,931.885 453.378,930.159 451.616,928.937"
         style="fill:none;stroke-width:0.8px;stroke:rgb(29,69,118);"
         id="path46" /><path
         d="M450.474,927.897L450.474,930.887"
         style="fill:none;stroke-width:0.8px;stroke:rgb(29,69,118);"
         id="path48" /></g><g
       id="wifi"><path
         d="M487.491,930.588C490.694,928.177 494.017,928.101 497.474,930.588"
         style="fill:none;stroke-width:0.8px;stroke:rgb(29,69,118);"
         id="path51" /><path
         d="M489.333,932.256C491.494,930.349 493.656,930.465 495.819,932.256"
         style="fill:none;stroke-width:0.8px;stroke:rgb(29,69,118);"
         id="path53" /><path
         d="M491.11,933.817C491.97,932.724 492.963,932.724 494.088,933.817"
         style="fill:none;stroke-width:0.8px;stroke:rgb(29,69,118);"
         id="path55" /></g><g
       transform="matrix(0.236085,0,0,0.236085,385.951,697.172)"
       id="g66"><g
         transform="matrix(1.80806,0,0,1.50113,-511.81,-500.416)"
         id="g60"><path
           d="M626.349,996.053L623.073,996.053L623.073,985.75L641.216,985.75L641.216,996.053L638.183,996.053"
           style="fill:none;stroke-width:2.04px;stroke:rgb(29,69,118);"
           id="path58" /></g><g
         transform="matrix(1.80806,0,0,1.50113,-511.81,-500.416)"
         id="g64"><path
           d="M626.295,1003.22L637.337,1003.22L632.352,1003.22L632.352,995.421"
           style="fill:none;stroke-width:2.04px;stroke:rgb(29,69,118);"
           id="path62" /></g></g><g
       transform="matrix(0.236085,0,0,0.236085,428.534,697.749)"
       id="g76"><g
         transform="matrix(1.80806,0,0,1.50113,-511.81,-500.416)"
         id="g70"><path
           d="M626.349,996.053L623.073,996.053L623.073,985.75L641.216,985.75L641.216,996.053L638.183,996.053"
           style="fill:none;stroke-width:2.04px;stroke:rgb(29,69,118);"
           id="path68" /></g><g
         transform="matrix(1.80806,0,0,1.50113,-511.81,-500.416)"
         id="g74"><path
           d="M626.295,1003.22L637.337,1003.22L632.352,1003.22L632.352,995.421"
           style="fill:none;stroke-width:2.04px;stroke:rgb(29,69,118);"
           id="path72" /></g></g><g
       transform="matrix(0.236085,0,0,0.236085,471.219,697.749)"
       id="g86"><g
         transform="matrix(1.80806,0,0,1.50113,-511.81,-500.416)"
         id="g80"><path
           d="M626.349,996.053L623.073,996.053L623.073,985.75L641.216,985.75L641.216,996.053L638.183,996.053"
           style="fill:none;stroke-width:2.04px;stroke:rgb(29,69,118);"
           id="path78" /></g><g
         transform="matrix(1.80806,0,0,1.50113,-511.81,-500.416)"
         id="g84"><path
           d="M626.295,1003.22L637.337,1003.22L632.352,1003.22L632.352,995.421"
           style="fill:none;stroke-width:2.04px;stroke:rgb(29,69,118);"
           id="path82" /></g></g><g
       transform="matrix(0.236085,0,0,0.236085,514.187,697.172)"
       id="g96"><g
         transform="matrix(1.80806,0,0,1.50113,-511.81,-500.416)"
         id="g90"><path
           d="M626.349,996.053L623.073,996.053L623.073,985.75L641.216,985.75L641.216,996.053L638.183,996.053"
           style="fill:none;stroke-width:2.04px;stroke:rgb(29,69,118);"
           id="path88" /></g><g
         transform="matrix(1.80806,0,0,1.50113,-511.81,-500.416)"
         id="g94"><path
           d="M626.295,1003.22L637.337,1003.22L632.352,1003.22L632.352,995.421"
           style="fill:none;stroke-width:2.04px;stroke:rgb(29,69,118);"
           id="path92" /></g></g><g
       id="online"
       transform="matrix(1,0,0,1,-1.96128,-0.437469)"><g
         transform="matrix(1.22584,0,0,1.4098,-160.001,-382.217)"
         id="g100"><ellipse
           cx="707.774"
           cy="932.627"
           rx="2.55"
           ry="2.233"
           style="fill:none;stroke-width:0.34px;stroke:rgb(29,69,118);"
           id="ellipse98" /></g><g
         transform="matrix(0.824163,-0.566353,0.566353,0.824163,-401.85,565.255)"
         id="g104"><ellipse
           cx="706.345"
           cy="928.899"
           rx="3.246"
           ry="0.936"
           style="fill:none;stroke-width:0.45px;stroke:rgb(29,69,118);"
           id="ellipse102" /></g></g><g
       id="lock"
       transform="matrix(1,0,0,1,-0.729494,-0.768633)"><rect
         x="745.656"
         y="931.239"
         width="5.543"
         height="3.743"
         style="fill:rgb(29,69,118);stroke-width:0.45px;stroke:rgb(29,69,118);"
         id="rect107" /><circle
         cx="748.534"
         cy="931.094"
         r="1.982"
         style="fill:none;stroke-width:0.45px;stroke:rgb(29,69,118);"
         id="circle109" /></g></g><path
     inkscape:connector-curvature="0"
     id="rect4270"
     d="m 553.50636,791.6716 h 174.20551 l 17.05508,69.4386 -209.5339,1.2182 z"
     style="clip-rule:evenodd;opacity:0.98000004;fill:#ffffff;fill-opacity:1;fill-rule:evenodd;stroke:none;stroke-width:3.54330707;stroke-linecap:square;stroke-linejoin:round;stroke-miterlimit:4;stroke-dasharray:none;stroke-opacity:1" /><g
     transform="matrix(0.5316352,0,0,0.21387536,-93.13844,908.89313)"
     id="g4395"
     style="clip-rule:evenodd;fill-rule:evenodd;stroke-linecap:round;stroke-linejoin:round;stroke-miterlimit:1.41420996"><path
       inkscape:connector-curvature="0"
       style="fill:#000000"
       d="m 1240.9482,-418.87294 a 68.833004,70.485946 0 0 0 -8.9175,34.6148 68.833004,70.485946 0 0 0 4.3835,24.34671 69.305276,70.367875 0 0 0 0.7428,2.06441 68.833004,70.485946 0 0 0 1.2734,2.93651 69.305276,70.367875 0 0 0 1.9737,4.16358 68.833004,70.485946 0 0 0 0.1756,0.355 c 0.01,-0.002 0.012,-0.006 0.017,-0.01 a 69.305276,70.367875 0 0 0 60.9757,37.10177 69.305276,70.367875 0 0 0 57.7287,-31.62816 99.429255,99.429255 0 0 0 65.504,24.9043 99.429255,99.429255 0 0 0 74.5855,-33.8064 h -1.1344 a 99.031206,99.031206 0 0 0 19.2165,-29.60616 100.09211,100.09211 0 0 0 0.9145,-2.50819 99.031206,99.031206 0 0 0 2.1918,-6.17784 100.09211,100.09211 0 0 0 0.9627,-3.76613 c -0.2075,0.27841 -0.4162,0.54635 -0.9222,1.15185 -0.2001,0.22512 -0.6,0.50098 -0.9377,0.61352 -0.3252,0.12509 -0.9011,0.3506 -1.2888,0.51323 -0.3877,0.16257 -0.9375,0.29903 -1.2252,0.29903 h -0.5132 v -3.66387 c 0,-3.56455 0.011,-3.66646 0.2991,-4.27932 0.5074,-1.08832 1.6452,-1.86952 3.004,-2.21685 h 0.6386 v -0.1254 c 0.7771,-0.11313 1.5987,-0.10063 2.4117,0.0926 v 0 c 0.079,0.0185 0.1522,0.0436 0.2277,0.0656 a 100.09211,100.09211 0 0 0 0.3608,-2.37893 h -2.1281 -0.874 v -9.91116 c 0.6668,-0.116 1.3595,-0.118 2.049,0.0425 0.7089,0.16271 1.3623,0.4846 1.9371,0.91644 a 100.09211,100.09211 0 0 0 0.1891,-3.80472 h -80.5338 c -58.7175,7e-5 -89.3195,-0.008 -119.4357,-0.0174 a 100.09211,100.09211 0 0 0 2.2149,18.27692 c 0.1179,-0.96517 0.383,-1.25105 1.0033,-1.85026 1.1006,-1.07561 2.5535,-1.6013 4.3546,-1.5763 0.6128,0.0129 1.3639,0.087 1.6766,0.16208 0.8255,0.23763 1.9009,0.83873 2.4136,1.36406 0.2502,0.25014 0.5609,0.76404 0.6985,1.12674 0.2501,0.62537 0.2624,0.91048 0.2624,4.77521 v 4.12883 h -5.2518 -3.1005 a 100.09211,100.09211 0 0 0 0.9551,2.8709 c 0.132,-0.005 0.2719,-0.0482 0.3434,-0.108 0.1438,-0.14381 0.6767,-0.22517 1.2927,-0.23923 0.6159,-0.014 1.3166,0.0389 1.7981,0.164 0.8881,0.22512 1.576,0.57632 2.1513,1.07658 0.4002,0.36273 0.5356,0.5492 0.9608,1.36214 0.1251,0.25018 0.1757,1.90401 0.2007,7.53225 l 0.021,5.90195 a 100.09211,100.09211 0 0 0 0.9338,1.52613 h -4.1462 a 105.07954,105.07954 0 0 1 -0.1177,-0.20645 h -1.9815 v -0.97818 c 0,-0.52682 -0.05,-1.02835 -0.1003,-1.10361 -0.1881,-0.28848 -0.8767,-0.52668 -2.0934,-0.72738 -0.6898,-0.12541 -1.4923,-0.30288 -1.7808,-0.40323 l -0.5402,-0.20065 0.012,-5.34243 c 0.01,-4.69477 0.012,-5.54144 0.3878,-6.22222 a 105.07954,105.07954 0 0 1 -4.2909,-18.58174 l -4.5244,-0.0309 -5.6453,-0.025 0.039,-3.17382 0.037,-3.16031 0.3511,-0.72736 c 0.6271,-1.27938 1.9957,-2.37114 3.4632,-2.7976 0.8906,-0.26339 3.0348,-0.16211 3.9128,0.18909 0.5685,0.22071 1.0505,0.48877 1.4721,0.81033 a 105.07954,105.07954 0 0 1 -0.1409,-3.95713 c -49.4075,-0.0188 -75.8326,-0.055 -81.0957,-0.13695 z m 50.2138,2.92877 c 0.5313,-0.0161 1.0713,0.0408 1.6052,0.17943 1.9441,0.50171 3.3368,1.75642 3.8761,3.4748 0.1881,0.63967 0.2257,1.17847 0.2257,3.56161 v 2.80916 h -5.5199 -5.518 v -2.80916 c 0,-2.38314 0.038,-2.92194 0.2258,-3.56161 0.6726,-2.14013 2.8028,-3.58469 5.1051,-3.65423 z m -26.7507,0.004 c 0.3318,0.0145 0.6654,0.0564 0.9994,0.1254 1.7309,0.36375 3.1988,1.4796 3.9012,2.95965 0.4013,0.85293 0.4003,0.85243 0.4379,3.18539 l 0.05,2.33261 -0.7274,-0.2373 c -1.48,-0.50171 -3.5749,-0.51523 -5.0048,-0.0386 -1.041,0.3512 -2.2186,1.0292 -3.0214,1.74415 l -0.7524,0.6772 -0.9165,-0.26239 -0.9029,-0.26432 0.037,-3.14873 0.039,-3.13524 0.4013,-0.85277 c 0.9439,-1.98648 3.1371,-3.18605 5.4602,-3.08505 z m -13.4535,0.0192 c 0.6336,0.0239 1.251,0.13429 1.7731,0.33185 1.0159,0.3888 1.9804,1.10252 2.5197,1.89272 0.7777,1.10377 0.8528,1.53042 0.8528,4.95461 v 3.03682 l -0.8393,0.1505 -0.8528,0.16207 -0.7524,-0.43797 c -1.5177,-0.90308 -3.4128,-1.29367 -5.1688,-1.08045 -0.5142,0.0754 -0.9782,0.10125 -1.0033,0.0636 -0.038,-0.025 0.014,-0.17555 0.089,-0.32605 0.1003,-0.17561 0.1129,-0.55269 0.05,-1.09203 -0.1128,-1.09123 -0.7282,-2.1811 -1.418,-2.54483 -0.5895,-0.30104 -0.9541,-0.96653 -0.8412,-1.56858 0.1881,-1.00344 1.3426,-2.30742 2.622,-2.95966 0.8074,-0.42331 1.9132,-0.62235 2.9693,-0.58266 z m 54.1439,0.0113 c 0.7572,0.0376 1.5115,0.15092 1.9505,0.32029 1.1665,0.45151 2.0586,1.12756 2.6356,2.0181 0.2759,0.439 0.5633,1.00421 0.6135,1.24253 0.063,0.25085 0.1138,1.79406 0.1138,3.42461 v 2.98474 h -5.5816 -5.5952 l 0.039,-3.1738 0.037,-3.1603 0.3511,-0.72739 c 0.6522,-1.317 1.932,-2.35859 3.4748,-2.79758 0.4453,-0.1317 1.2049,-0.16883 1.9622,-0.1312 z m -27.8794,0.002 c 0.8807,-0.0282 1.9987,0.0926 2.6008,0.31835 1.5176,0.57695 2.7213,1.7439 3.2355,3.14873 0.2383,0.63965 0.2624,1.00291 0.2624,3.33589 0,2.40821 -0.012,2.59597 -0.2006,2.40785 -0.138,-0.13798 -0.2258,-0.5141 -0.2759,-1.10362 l -0.062,-0.89136 -0.6656,-0.42639 c -0.3638,-0.23831 -0.8778,-0.48908 -1.1538,-0.55181 -0.4641,-0.12542 -0.7523,-0.31337 -1.856,-1.20392 -0.4265,-0.33865 -0.5633,-0.37525 -1.4413,-0.3878 -0.5268,-0.0126 -1.2424,-0.11288 -1.5685,-0.22573 -0.7401,-0.23832 -0.9906,-0.2518 -2.0568,-0.13894 -0.74,0.0877 -0.8662,0.15043 -1.3428,0.65214 l -0.5383,0.54023 v -0.55179 c 0,-0.79021 0.4254,-2.04503 0.9396,-2.74743 0.715,-0.96581 2.0951,-1.8319 3.3494,-2.0953 0.2132,-0.0439 0.4801,-0.0697 0.7737,-0.0791 z m 68.6739,0.0655 c 0.6256,0.002 1.2553,0.0941 1.8619,0.28169 1.6009,0.50028 3.1391,1.93888 3.5269,3.31466 0.1,0.32519 0.1505,1.58814 0.1504,3.47672 v 2.95192 h -5.6279 -5.628 v -3.00209 c 0,-3.38943 0.062,-3.71336 0.9628,-4.88902 1.0412,-1.36015 2.8773,-2.14384 4.7539,-2.13388 z m 26.9263,0.0192 c 0.5878,0 1.3505,0.0756 1.6882,0.17557 1.5884,0.41273 2.8534,1.43915 3.5288,2.81495 l 0.3492,0.70036 0.039,3.15066 0.037,3.16416 h -5.5797 -5.5643 v -3.0021 c 0,-2.63901 0.025,-3.07496 0.2373,-3.62527 0.7754,-2.03868 2.8514,-3.36581 5.2652,-3.37833 z m 13.7371,0.004 c 0.6926,0.003 1.391,0.0844 1.9101,0.24697 1.4758,0.45026 2.7124,1.47647 3.3378,2.7397 0.2752,0.57532 0.3369,0.9364 0.4244,2.24965 0.062,0.863 0.077,2.28866 0.027,3.16417 l -0.075,1.60136 h -5.6279 -5.6145 l 0.035,-3.16608 c 0.038,-3.1518 0.038,-3.1487 0.3762,-3.8491 0.6254,-1.26323 1.8504,-2.27793 3.3263,-2.75322 0.5002,-0.15633 1.1885,-0.23501 1.8811,-0.23345 z m 121.8165,0.006 c 0.295,0.0161 0.5921,0.0585 0.8875,0.12735 1.5259,0.3502 2.8256,1.39013 3.5385,2.82845 l 0.4129,0.83735 0.037,3.1005 0.05,3.10242 h -5.2151 -5.2151 l 0.05,-3.10242 0.037,-3.1005 0.4129,-0.83735 c 0.9521,-1.9261 2.9395,-3.06933 5.0048,-2.9558 z m -176.2015,0.002 c 0.5878,-0.0126 1.3505,0.064 1.6882,0.16399 1.5633,0.41274 2.8505,1.42653 3.5133,2.76479 l 0.3628,0.7486 0.039,3.15259 0.037,3.16415 h -5.5778 -5.5778 l 0.037,-3.16415 0.039,-3.15259 0.3492,-0.72353 c 0.913,-1.83856 2.8153,-2.94135 5.0916,-2.95385 z m 88.9362,0.002 c 0.9286,-9.8e-4 1.8591,0.062 2.4657,0.18715 3.3519,0.68789 6.4799,3.06322 7.9683,6.05243 0.1876,0.37525 0.4111,0.7256 0.4862,0.77561 0.075,0.05 0.1,0.10038 0.05,0.10038 -0.05,0 0.026,0.32422 0.164,0.71193 0.5628,1.61342 0.5866,2.05144 0.6367,9.04296 l 0.039,6.69298 -11.7325,0.0366 -11.7325,0.025 0.039,-6.96695 c 0.05,-6.76638 0.049,-7.00433 0.3241,-7.97986 0.3502,-1.23822 1.1142,-2.86397 1.8271,-3.86452 1.601,-2.2388 4.3512,-4.05224 7.0152,-4.61505 0.5941,-0.13135 1.5217,-0.19716 2.4503,-0.19874 z m 60.2426,0.002 c 0.5065,-0.002 1.0136,0.053 1.4701,0.17172 1.5509,0.40025 3.0384,1.66297 3.5887,3.03876 0.2626,0.66286 0.2885,0.92499 0.326,3.73912 l 0.037,3.04067 h -5.3906 -5.3907 l 0.039,-3.04067 c 0.038,-2.81413 0.064,-3.07626 0.3261,-3.73912 0.5378,-1.35078 2.0366,-2.62504 3.5249,-3.02525 0.4565,-0.11875 0.9637,-0.18209 1.4702,-0.18523 z m -27.4511,0.002 c 0.2934,-0.0204 0.59,-0.0189 0.8856,0.004 0.3378,0.026 0.6741,0.0799 1.0071,0.16594 1.751,0.46278 3.0628,1.48658 3.7507,2.92491 l 0.3878,0.82578 0.039,3.02717 0.037,3.04069 h -5.7013 -5.7051 l 0.039,-3.04069 0.037,-3.02717 0.3878,-0.82578 c 0.8522,-1.7811 2.7832,-2.95193 4.8369,-3.09471 z m 40.4049,0.0136 c 0.2732,-0.0207 0.549,-0.0209 0.8257,0 0.3163,0.024 0.6331,0.075 0.9473,0.15627 1.5509,0.41275 2.8775,1.49907 3.5404,2.89985 0.3377,0.71292 0.3387,0.76454 0.3763,3.81629 l 0.05,3.10243 h -5.3425 -5.3404 l 0.05,-3.10243 c 0.038,-3.05175 0.039,-3.10337 0.3762,-3.81629 0.8331,-1.77151 2.6038,-2.91068 4.5166,-3.05612 z m -134.6681,0.004 c 1.3008,0.0374 1.4398,0.064 2.3403,0.50164 1.1632,0.55031 2.0263,1.36203 2.5391,2.40013 l 0.3627,0.75053 0.037,3.15259 0.039,3.16415 h -5.5797 -5.5778 l 0.039,-3.16415 0.037,-3.15259 0.3511,-0.72545 c 0.4628,-0.92553 1.3252,-1.79953 2.2883,-2.2998 1.0631,-0.56283 1.5246,-0.66458 3.1255,-0.62705 z m 107.7842,0.01 c 0.8783,-0.0281 1.9908,0.0913 2.5912,0.31642 1.5759,0.60034 2.791,1.81265 3.2413,3.25098 0.2126,0.68791 0.2489,1.15167 0.2489,3.59057 v 2.80143 h -5.5643 -5.5662 v -2.80143 c 0,-3.17682 0.1372,-3.89066 0.9376,-4.99128 0.7129,-0.96305 2.0891,-1.82492 3.3398,-2.08758 0.2126,-0.0438 0.479,-0.0697 0.7717,-0.0791 z m -67.3909,2.58729 c 0.4659,-0.0112 0.939,0.0409 1.2329,0.16592 0.6378,0.26265 1.3369,0.9521 1.6496,1.63998 0.2751,0.58785 0.299,0.77511 0.299,3.08891 v 2.4773 h -3.1255 -3.1276 v -2.35189 c 0,-1.86356 0.039,-2.49016 0.2142,-2.96544 0.2251,-0.67538 0.9752,-1.50101 1.6631,-1.8387 0.2689,-0.13132 0.7284,-0.20513 1.1943,-0.21608 z m 40.6692,0.2759 c 0.5295,0.0289 1.0736,0.16653 1.4605,0.39166 0.3127,0.18761 0.7134,0.52446 0.901,0.76211 0.5879,0.77543 0.6628,1.20089 0.6753,3.65229 v 2.29015 h -3.1391 -3.141 l 0.05,-2.4773 c 0.038,-2.43889 0.038,-2.47693 0.3878,-3.05226 0.3877,-0.66288 0.9887,-1.16318 1.6766,-1.4258 0.1782,-0.0688 0.3873,-0.11238 0.6097,-0.13313 0.1668,-0.0156 0.3425,-0.0174 0.519,-0.007 z m -68.0527,9.11048 c 0.7281,0.0135 1.9529,0.16468 2.375,0.32414 1.1257,0.43775 2.3896,1.66209 2.7899,2.71269 0.2501,0.66286 0.2624,0.93993 0.2624,4.64205 v 3.93785 h -5.0781 -5.0646 l 0.037,-4.10183 c 0.037,-4.06482 0.038,-4.09001 0.3511,-4.7154 0.5629,-1.13812 1.7999,-2.15038 3.1256,-2.55061 0.3127,-0.0875 0.6243,-0.18719 0.6869,-0.21224 0.084,-0.0312 0.2724,-0.0412 0.5151,-0.0366 z m -54.3561,0.0231 c 0.7102,0.0113 1.4339,0.0864 1.8792,0.21804 1.4048,0.43898 2.4974,1.35422 3.0368,2.55833 0.2258,0.50174 0.2508,0.85414 0.2508,4.64209 v 4.1134 h -5.2054 -5.219 l 0.039,-4.23881 0.037,-4.22725 0.3395,-0.57689 c 0.6021,-1.0285 1.7691,-1.90711 3.0484,-2.32102 0.3889,-0.12545 1.0841,-0.17884 1.7944,-0.16787 z m -13.5153,0.006 c 0.378,0.005 0.7619,0.0454 1.1461,0.12542 1.5553,0.32609 2.9605,1.3407 3.5751,2.595 l 0.3511,0.71579 0.025,4.07676 c 0.013,2.45838 -0.012,3.97644 -0.087,3.82594 -0.063,-0.13799 -0.1139,-0.62698 -0.1139,-1.07853 -0.012,-0.45153 -0.099,-1.08038 -0.2122,-1.40651 -0.163,-0.48917 -0.3018,-0.63952 -0.8412,-0.9531 -0.3637,-0.21322 -0.9154,-0.58939 -1.2541,-0.85277 -2.8347,-2.25772 -3.3993,-2.54583 -5.1803,-2.55835 -0.6146,0 -1.3168,-0.0752 -1.5551,-0.17558 -0.4139,-0.15051 -0.464,-0.138 -0.8026,0.17558 l -0.3647,0.32606 0.075,-0.73894 c 0.2304,-2.3706 2.5926,-4.10816 5.2382,-4.07677 z m 54.9137,0.0386 c 0.2611,-0.005 0.4478,-9.8e-4 0.4978,0.0174 0.1,0.0249 0.401,0.0763 0.6637,0.11387 0.2626,0.0375 0.5008,0.12363 0.5383,0.17365 0.037,0.0626 0.1488,0.11388 0.2489,0.11388 0.2376,0 1.0765,0.5747 1.7518,1.20007 0.3503,0.32518 0.6141,0.72579 0.7892,1.21357 0.2501,0.67539 0.2623,0.96323 0.2623,4.71537 v 4.00151 h -5.1282 -5.1283 v -4.03816 -4.05361 l 0.3762,-0.73703 c 0.4503,-0.9005 1.0631,-1.51523 2.1262,-2.12808 0.7379,-0.42524 0.9244,-0.47289 2.0625,-0.54794 0.3439,-0.025 0.6785,-0.0396 0.9396,-0.0444 z m 121.4422,0.0481 c 0.4499,-0.0164 0.9076,0.0269 1.3641,0.13314 1.5259,0.35018 3.0894,1.66207 3.6523,3.07539 0.2876,0.7004 0.3001,0.87609 0.3376,4.50315 l 0.039,3.78928 h -5.2035 -5.2035 l 0.039,-3.78928 c 0.05,-4.45255 0.087,-4.66591 1.3506,-6.00418 0.9943,-1.06936 2.2756,-1.65826 3.6253,-1.7075 z m -13.2393,0.01 c 0.5358,-0.004 1.0797,0.0496 1.6207,0.16206 1.5383,0.32519 2.928,1.26259 3.3783,2.26315 0.2126,0.45029 0.2373,0.91239 0.2373,4.77712 v 4.29092 h -5.19 -5.1919 v -4.29092 c 0,-4.84029 0.013,-4.87689 0.9762,-5.73987 1.0412,-0.93806 2.5618,-1.45309 4.1694,-1.46246 z m -13.9879,0.002 c 0.2947,-0.0199 0.5924,-0.0191 0.8894,0.004 0.3394,0.0264 0.6783,0.0819 1.0129,0.16786 1.726,0.45026 3.0744,1.48846 3.7623,2.90176 l 0.3627,0.72738 0.039,3.83751 0.037,3.85294 h -5.7013 -5.7051 l 0.039,-3.85294 0.037,-3.83751 0.3627,-0.72738 c 0.8618,-1.77152 2.8026,-2.93442 4.8658,-3.07348 z m 40.5109,0.007 c 0.5093,-0.0164 1.0322,0.02 1.5512,0.11387 1.5009,0.27517 2.965,1.25219 3.5154,2.34033 0.2001,0.41272 0.2248,0.90077 0.2623,4.74046 l 0.037,4.28899 h -5.1398 -5.1398 l 0.037,-4.28899 c 0.037,-4.81524 0.023,-4.72866 1.011,-5.71672 0.9192,-0.90052 2.3386,-1.42864 3.8664,-1.4779 z m -108.5328,0.0113 c 1.0319,-0.0352 2.3665,0.0932 2.9481,0.31836 1.1006,0.42525 2.089,1.30986 2.6143,2.32295 l 0.4476,0.86435 0.039,3.97836 0.037,3.988 h -5.327 -5.3289 l 0.039,-3.97642 0.037,-3.96485 0.3511,-0.6637 c 0.6629,-1.26321 2.1629,-2.54933 3.251,-2.77444 0.2377,-0.05 0.5494,-0.0809 0.8933,-0.0926 z m -39.9514,0.004 c 1.5509,0.0375 1.5734,0.0363 2.649,0.56145 v 0 c 0.8755,0.42524 1.1993,0.66424 1.6496,1.22707 0.3252,0.38773 0.576,0.73809 0.5885,0.7756 0,0.05 0.038,0.20007 0.075,0.33765 0.1,0.31266 0.099,1.12638 0.062,5.27875 l -0.027,3.28765 h -5.2518 -5.2536 v -4.16359 c 0,-4.11485 8e-4,-4.16621 0.3009,-4.77904 0.4878,-1.02558 1.5511,-1.87462 2.9269,-2.32488 0.5753,-0.1876 1.0134,-0.23817 2.2767,-0.20066 z m 162.2599,0.0113 c 0.7234,0.0199 1.4839,0.1251 1.9834,0.30099 v 0.002 c 1.3257,0.46277 2.3008,1.33788 2.676,2.36348 0.1251,0.36271 0.1631,1.4864 0.1756,4.63819 v 4.15395 l -4.8408,-0.0251 -4.8523,-0.0386 v -4.31408 -4.31407 l 0.3376,-0.58845 c 0.5753,-0.97556 1.663,-1.71424 3.0388,-2.06442 0.2157,-0.0532 0.4855,-0.0874 0.7814,-0.10425 0.2219,-0.0129 0.4592,-0.0155 0.7003,-0.01 z m -108.0639,1.14991 c 0.4505,0.0136 0.9157,0.15023 1.3988,0.41288 0.6879,0.37521 1.3482,1.22622 1.5608,1.98917 0.075,0.26264 0.1254,2.0403 0.1254,4.17902 v 3.72754 h -3.1255 -3.1276 v -3.75262 c 0,-4.31498 0.063,-4.65328 1.0265,-5.59131 0.68,-0.66444 1.3906,-0.98727 2.1416,-0.96468 z m 40.3064,0.20836 c 0.6885,-0.0187 1.3999,0.11375 2.0143,0.41868 0.4377,0.22511 0.8397,0.52452 1.0148,0.78719 0.2751,0.42524 0.274,0.47619 0.274,4.65363 v 4.24075 h -3.1275 -3.1275 v -4.22917 c 0,-3.95228 0.013,-4.23985 0.2508,-4.61506 0.469,-0.77388 1.5536,-1.22474 2.7011,-1.25602 z m -54.5568,12.6093 c 0.2527,-0.0153 0.5112,-0.0159 0.7757,0 0.3022,0.018 0.6122,0.0564 0.928,0.11575 1.5759,0.30019 2.8646,1.23718 3.415,2.47539 0.3877,0.863 0.4002,1.16382 0.3627,6.67947 l -0.025,4.10184 h -5.0048 -5.0164 l 0.039,-5.163 0.037,-5.15527 0.3377,-0.56145 c 0.9192,-1.52254 2.3832,-2.38527 4.152,-2.49274 z m -27.1809,0.006 c 0.648,-0.034 1.3261,0.0162 2.0046,0.16014 1.0381,0.22512 1.9638,0.68747 2.5641,1.27531 0.888,0.88799 0.8633,0.76354 0.8258,6.6544 l -0.025,5.27681 h -4.9411 -4.9392 v -5.25173 c 0,-5.05292 0.011,-5.27823 0.2624,-5.80354 0.6285,-1.35078 2.3044,-2.20939 4.2485,-2.31139 z m -13.7776,0.025 c 0.9597,-0.0288 2.1867,0.1035 2.8246,0.3473 1.0005,0.36269 1.752,0.89978 2.1647,1.51263 l 0.3377,0.52671 0.037,5.07809 c 0.038,4.90281 0.026,5.11463 -0.2239,5.79005 -0.3126,0.82543 -1.0262,1.53803 -1.6766,1.66312 -0.3877,0.0625 -0.4514,0.12614 -0.4514,0.42639 0,0.66285 -0.1229,0.6879 -3.8376,0.72542 l -3.4149,0.0501 v -6.66596 c 0,-6.5037 0.012,-6.68088 0.2624,-7.2062 0.4627,-0.95053 1.8008,-1.87323 3.139,-2.16089 0.2283,-0.0469 0.5194,-0.077 0.8393,-0.0867 z m 28.026,0.007 c 0.681,0.0154 1.3503,0.1135 1.8522,0.30096 1.0631,0.41277 1.9266,1.1387 2.3519,1.98919 l 0.3627,0.72544 0.039,5.15527 0.037,5.163 h -4.8292 -4.8254 l 0.037,-5.163 0.039,-5.15527 0.3743,-0.67528 c 0.2251,-0.41272 0.6242,-0.87573 0.9994,-1.16341 0.3502,-0.26265 0.7006,-0.5375 0.7756,-0.60002 0.4847,-0.39869 1.6529,-0.60269 2.788,-0.57688 z m -55.562,0.0636 c 0.226,-0.006 0.4929,-0.004 0.8065,0.006 1.016,0.0251 1.3051,0.0761 1.9448,0.38972 0.9031,0.42645 1.9062,1.40543 2.3075,2.22071 0.1505,0.33865 0.3386,0.60197 0.4013,0.60197 0.063,0 0.1139,1.61646 0.1139,3.84908 0,2.34552 -0.051,3.80183 -0.1139,3.73912 -0.1003,-0.11288 -0.3887,-1.75738 -0.6019,-3.4883 -0.05,-0.40137 -0.2517,-0.66354 -1.2425,-1.64189 -1.0913,-1.09123 -1.5551,-1.76916 -1.5551,-2.27088 0,-0.11287 -0.1621,-0.41283 -0.3627,-0.6637 -0.2133,-0.25086 -0.4148,-0.64051 -0.465,-0.84118 -0.05,-0.21325 -0.2875,-0.61448 -0.5383,-0.90297 -0.4265,-0.5017 -0.49,-0.52767 -1.1171,-0.54022 -0.4766,0 -0.6521,-0.0501 -0.6271,-0.15048 0.066,-0.19755 0.3717,-0.28915 1.0496,-0.30677 z m 177.1605,0.0231 c 0.5978,-0.0232 1.2135,0.0337 1.8232,0.1775 1.3508,0.32521 2.3642,0.98856 2.977,1.9641 0.2877,0.46276 0.3009,0.56233 0.2759,2.31331 l -0.037,1.82712 -0.4264,-0.36273 c -0.2376,-0.1876 -0.7371,-0.4886 -1.1248,-0.6637 -0.6253,-0.26265 -0.9386,-0.29915 -2.7397,-0.34922 l -2.0393,-0.0639 -0.4882,0.33765 c -0.2626,0.18761 -0.8134,0.40148 -1.2386,0.47655 -0.838,0.1626 -0.8612,0.1868 -1.1364,1.48754 -0.2752,1.38832 -0.3743,0.91289 -0.3743,-1.83869 0,-2.62652 0.011,-2.70141 0.299,-3.16416 0.8067,-1.28513 2.4358,-2.07185 4.2292,-2.14159 z m -40.5631,0.0174 c 0.2638,-0.0172 0.5287,-0.0168 0.7891,0 0.3473,0.0225 0.6877,0.0759 1.0129,0.16013 0.4002,0.1 0.951,0.29948 1.2387,0.44955 0.7879,0.40022 1.7874,1.41333 2.1126,2.15125 0.3002,0.63785 0.3002,0.7144 0.3377,5.55465 l 0.037,4.9141 h -5.1399 -5.1417 l 0.039,-4.9141 c 0.037,-4.84025 0.037,-4.9168 0.3376,-5.55465 0.3252,-0.73792 1.3267,-1.75103 2.1146,-2.15125 0.6824,-0.35176 1.4716,-0.55765 2.2632,-0.60968 z m 13.4651,0.0136 c 0.8524,-0.0294 1.9748,0.0993 2.5564,0.33378 0.9255,0.36271 1.7878,1.02536 2.238,1.71327 0.7255,1.10063 0.7641,1.3779 0.7641,6.50584 v 4.66329 h -5.0029 -5.0163 l 0.039,-4.91412 0.037,-4.90252 0.3376,-0.71386 c 0.5753,-1.2257 1.8533,-2.22749 3.3166,-2.60273 0.1939,-0.0469 0.4471,-0.0734 0.7312,-0.083 z m 14.2754,0.004 c 0.6722,0.033 1.3455,0.14323 1.802,0.31836 1.4008,0.53778 2.3266,1.37649 2.6143,2.40207 0.075,0.23762 0.1254,2.55071 0.1254,5.45238 v 5.03952 h -4.8176 -4.8254 l 0.037,-5.2884 c 0.037,-4.76523 0.062,-5.31735 0.2624,-5.68007 0.5128,-0.93803 1.6119,-1.71333 3.0002,-2.10108 0.4565,-0.13132 1.1298,-0.17559 1.802,-0.14278 z m -62.145,1.10168 c 0.4392,-0.0218 0.9609,-0.0158 1.7113,0.0154 2.2138,0.0875 2.7009,0.22364 4.7521,1.23673 2.5764,1.28822 4.6154,3.87856 5.4659,6.9303 0.2751,0.97557 0.2759,1.10207 0.2759,10.55751 0.01,3.99411 -0.016,6.88135 -0.054,8.43326 a 10.937218,7.7886251 0 0 0 -6.9226,7.24093 10.937218,7.7886251 0 0 0 0.01,0.16592 h -3.633 a 7.817445,5.1371781 0 0 0 0.037,-0.49585 7.817445,5.1371781 0 0 0 -7.8159,-5.13791 7.817445,5.1371781 0 0 0 -1.7248,0.13314 c -0.2421,-0.1015 -1.0606,-0.70947 -2.0452,-1.52229 l -0.4128,-0.33764 v -7.86796 c 0,-4.32748 0.051,-7.86796 0.1138,-7.86796 0.05,0 0.1362,-0.60015 0.1737,-1.35057 0.075,-1.41332 0.3259,-2.46281 0.9762,-3.8761 0.1876,-0.42523 0.3637,-0.82592 0.3763,-0.87593 0.025,-0.0501 0.1373,-0.20098 0.2624,-0.32607 0.125,-0.13757 0.2237,-0.28763 0.2238,-0.33763 0,-0.23764 2.1142,-2.48889 2.3268,-2.48889 0.1,0 0.1736,-0.0629 0.1736,-0.12541 0,-0.075 0.1375,-0.18635 0.3126,-0.24888 0.1626,-0.0625 0.5255,-0.26287 0.8007,-0.43797 0.7754,-0.47528 2.2402,-1.02612 3.4034,-1.26374 0.419,-0.0813 0.7763,-0.13068 1.2155,-0.15241 z m -19.7857,0.18135 c 0.471,-0.0254 0.9365,0.0418 1.3351,0.21031 0.763,0.3252 1.1758,0.67685 1.4509,1.25216 0.2377,0.50029 0.249,0.76234 0.274,4.77711 0,2.33884 0.013,4.57659 0,4.96427 l -0.01,0.72545 h -2.9404 -2.9403 v -4.94112 c 0,-5.39057 0.014,-5.48887 0.7138,-6.13925 0.5316,-0.50808 1.3316,-0.80678 2.1165,-0.84893 z m 41.0203,0.0849 c 0.6754,0.0375 1.0259,0.12528 1.5512,0.41289 0.4003,0.21261 0.7878,0.56315 0.9879,0.85085 l 0.3261,0.50164 0.037,5.03951 0.039,5.03951 h -3.1411 -3.1275 v -4.9006 c 0,-4.74022 0.013,-4.91651 0.2624,-5.45432 0.4753,-0.97555 1.665,-1.55202 3.0658,-1.48948 z m -55.0719,14.36801 c 0.7286,-0.0345 1.5612,0.0159 2.2053,0.16593 1.5134,0.36269 2.6504,1.11495 3.1507,2.10301 0.2751,0.52531 0.2633,0.0489 0.2508,8.1786 l -0.011,4.4144 h -1.5262 l -1.5396,-0.0136 -0.7505,-0.48814 c -0.4002,-0.27516 -1.0884,-0.62358 -1.5262,-0.77368 -0.4377,-0.16257 -0.7871,-0.32427 -0.7871,-0.37428 0,-0.0501 0.1112,-0.31233 0.2488,-0.57497 0.1751,-0.32518 0.2635,-0.78887 0.301,-1.41422 0.025,-0.51278 0.112,-1.37714 0.1872,-1.92744 0.087,-0.56284 0.1253,-1.27432 0.075,-1.62454 -0.05,-0.3502 -0.1003,-1.15165 -0.1254,-1.80202 -0.075,-1.81355 -0.3754,-2.76413 -1.5011,-4.66521 -0.3502,-0.60035 -0.3874,-0.73738 -0.2373,-0.86243 0.2314,-0.18762 0.8574,-0.30709 1.586,-0.3415 z m 68.1338,0.13892 c 0.2856,-0.0171 0.5759,-0.0165 0.8662,0.004 0.3319,0.0235 0.6654,0.072 0.9937,0.14856 1.5384,0.3627 2.7868,1.33611 3.112,2.41172 0.1,0.31269 0.1505,1.46397 0.1505,3.10242 v 2.61622 l -0.2624,-0.40131 c -0.1375,-0.22513 -0.4133,-0.4874 -0.5884,-0.57495 -0.1876,-0.1 -0.8864,-0.48821 -1.5493,-0.87594 -1.3508,-0.80045 -1.7388,-0.86326 -2.6143,-0.46305 -0.3002,0.13758 -0.6495,0.25083 -0.7621,0.25083 -0.1251,0 -0.4754,0.17423 -0.7756,0.39937 -0.6504,0.45025 -1.5641,0.58785 -2.4272,0.36273 l -0.5247,-0.15049 v -1.88885 c 0,-1.06311 0.061,-2.08833 0.1485,-2.36349 0.4309,-1.44595 2.2333,-2.4571 4.2331,-2.57764 z m 14.4644,0.01 v 0 c 0.6723,0.033 1.3436,0.14326 1.8001,0.31835 0.9256,0.35022 1.6508,0.88731 2.076,1.5377 l 0.3512,0.51322 0.011,2.57569 c 0.013,1.41331 8e-4,2.45185 -0.037,2.30175 -0.1,-0.48778 -0.3512,-0.58808 -1.0766,-0.43796 -1.0506,0.21257 -2.1516,-0.17469 -2.6394,-0.91259 -0.1751,-0.27516 -0.2629,-0.30079 -0.8257,-0.22575 -0.4253,0.0501 -0.7872,0.0129 -1.15,-0.12541 -0.3001,-0.11263 -0.9622,-0.22479 -1.4875,-0.2373 -0.8755,-0.0375 -0.988,-0.0129 -1.4007,0.31255 l -0.4631,0.35113 v -1.65152 c 0,-1.42581 0.037,-1.73763 0.2624,-2.18791 0.4378,-0.91302 1.415,-1.61398 2.7783,-1.98918 0.4565,-0.13135 1.1259,-0.17557 1.7982,-0.14277 z m 11.7557,0.0906 c 0.096,0.0516 -0.034,0.25906 -0.3589,0.64054 -0.5003,0.58784 -0.575,0.75131 -0.6251,1.38916 -0.1,1.17569 -1.0013,2.17459 -2.0644,2.24964 -0.3502,0.025 -0.3503,0.0112 -0.3878,-0.71388 -0.075,-1.38827 0.8378,-2.61318 2.4387,-3.27606 0.5816,-0.23765 0.9021,-0.34101 0.9975,-0.2894 z m -39.4826,1.30039 c 1.0506,0 1.276,0.0376 1.9139,0.36272 1.2632,0.61285 1.2136,0.37492 1.2136,5.96562 0,4.55261 -0.013,4.86628 -0.2508,5.37907 -0.1087,0.23714 -0.1841,0.59004 -0.218,0.89523 a 10.937218,7.7886251 0 0 0 -5.7862,-2.04128 v -3.55775 c 0,-6.36615 -0.062,-6.02804 1.2135,-6.64089 0.6379,-0.32518 0.8634,-0.36272 1.914,-0.36272 z m -40.4975,0.0771 c 0.8755,0.013 1.3381,0.0759 1.7133,0.25082 0.2877,0.12508 0.5132,0.30025 0.5132,0.3878 0,0.23765 -1.0888,1.03755 -1.6766,1.22515 -0.2627,0.0875 -0.7001,0.12437 -0.9628,0.0869 -0.4377,-0.0625 -0.5245,-0.0127 -1.1499,0.58845 l -0.6887,0.6367 -0.1505,1.12675 c -0.075,0.61286 -0.1873,2.18856 -0.2374,3.50181 -0.075,1.6009 -0.1633,2.50303 -0.2759,2.7532 -0.1501,0.32515 -0.1747,-0.2024 -0.2122,-4.42983 -0.025,-5.21545 -0.037,-5.12662 0.6637,-5.58938 0.6254,-0.41275 1.2381,-0.55081 2.4638,-0.5383 z"
       id="path4-9" /><path
       inkscape:connector-curvature="0"
       style="fill:#dc0067"
       d="m 1301.0717,-455.74464 c -38.781,0 -70.2218,32.06847 -70.2218,71.57718 0,39.50872 31.4408,71.57477 70.2218,71.57477 38.7809,0 70.2242,-32.06605 70.2242,-71.57477 0,-39.50871 -31.4433,-71.57718 -70.2242,-71.57718 z m 0,1.98 c 37.69,0 68.2442,31.13802 68.2442,69.59718 0,38.45914 -30.5542,69.59474 -68.2442,69.59474 -37.69,0 -68.2418,-31.1356 -68.2418,-69.59474 0,-38.45916 30.5518,-69.59718 68.2418,-69.59718 z"
       id="path6-9" /><path
       inkscape:connector-curvature="0"
       style="fill:#dc0067"
       d="m 1424.3632,-496.76303 c -41.8198,0 -75.7277,34.49669 -75.7277,77.00354 0,42.50798 33.9079,77.00351 75.7277,77.00351 41.8186,0 75.7253,-34.49553 75.7253,-77.00351 0,-42.50685 -33.9067,-77.00354 -75.7253,-77.00354 z m 0,1.98243 c 40.7289,0 73.7429,33.56759 73.7429,75.02111 0,41.4547 -33.014,75.0211 -73.7429,75.0211 -40.7302,0 -73.7453,-33.5664 -73.7453,-75.0211 0,-41.45352 33.0151,-75.02111 73.7453,-75.02111 z"
       id="path8-9" /><path
       inkscape:connector-curvature="0"
       style="fill:#dc0067"
       d="m 1424.0424,-523.87549 c -56.9376,0 -103.1585,46.70646 -103.1585,104.116 0,57.40952 46.2209,104.11598 103.1585,104.11598 56.9376,0 103.1586,-46.70646 103.1586,-104.11598 0,-57.40954 -46.221,-104.116 -103.1586,-104.116 z m 0,10.76105 c 51.0652,0 92.3975,41.70441 92.3975,93.35495 0,51.65052 -41.3323,93.35492 -92.3975,93.35492 -51.0652,0 -92.3975,-41.7044 -92.3975,-93.35492 0,-51.65054 41.3323,-93.35495 92.3975,-93.35495 z"
       id="path10" /><path
       inkscape:connector-curvature="0"
       style="fill:#ffb400"
       d="m 1283.1571,-378.05689 h -15.4338 l 12.3463,11.70312 h -24.6939 v 11.70313 h 24.6939 l -12.3463,11.70313 h 15.4338 l 18.5201,-17.55528 z"
       id="path12-3" /><path
       inkscape:connector-curvature="0"
       style="fill:#ffb400"
       d="m 1463.4691,-398.47958 -19.3681,-20.04515 h 41.9646 v -20.04396 h -41.9646 l 19.3681,-20.04514 h -25.8238 l -29.0522,30.06712 29.0522,30.06713 z"
       id="path14-9" /><path
       inkscape:connector-curvature="0"
       style="fill:#000000"
       d="m 1234.8604,-262.27967 -4.1504,-28.8086 h 6.3965 l 1.3916,14.25781 q 0.1709,1.61134 0.2685,3.54004 0.098,1.9043 0.1465,4.10156 h 0.1953 q 0.049,-2.36816 0.1709,-4.54101 0.1465,-2.19726 0.3174,-4.02831 l 1.294,-13.33009 h 6.0058 l -4.1504,28.8086 z"
       id="path16-6" /><path
       inkscape:connector-curvature="0"
       style="fill:#000000"
       d="m 1253.6836,-285.52186 v 17.43164 q 0,0.95215 0.2686,1.36719 0.2685,0.39062 0.8789,0.39062 0.6103,0 0.8789,-0.39062 0.2686,-0.41504 0.2686,-1.36719 v -17.43164 q 0,-0.92773 -0.293,-1.34277 -0.2686,-0.41504 -0.9033,-0.41504 -0.586,0 -0.8545,0.39063 -0.2442,0.39062 -0.2442,1.36718 z m -6.3965,1.95313 q 0,-4.46778 1.7334,-6.32325 1.7579,-1.87988 5.7618,-1.87988 4.0039,0 5.7373,1.87988 1.7578,1.85547 1.7578,6.32325 v 13.79394 q 0,4.44336 -1.7578,6.32325 -1.7334,1.87987 -5.7373,1.87987 -4.0039,0 -5.7618,-1.87987 -1.7334,-1.87989 -1.7334,-6.32325 z"
       id="path18-8" /><path
       inkscape:connector-curvature="0"
       style="fill:#000000"
       d="m 1270.5293,-272.33827 q 0,1.00098 0.2442,1.3916 0.2685,0.36621 0.9033,0.36621 0.5859,0 0.8545,-0.41503 0.293,-0.43945 0.293,-1.34278 v -12.5 q 0,-0.8789 -0.293,-1.26952 -0.2686,-0.41504 -0.8545,-0.41504 -0.6348,0 -0.9033,0.36621 -0.2442,0.34179 -0.2442,1.31835 z m 2.295,3.71094 h -0.098 q -0.6836,1.61134 -1.8066,2.417 -1.0987,0.78125 -2.6856,0.78125 -2.0996,0 -3.0762,-1.14746 -0.9765,-1.17188 -0.9765,-3.71094 v -16.8457 q 0,-2.17286 1.0498,-3.32031 1.0498,-1.17188 3.0517,-1.17188 1.5137,0 2.6123,0.708 1.0987,0.70801 1.9288,2.2461 h 0.1464 v -2.417 h 6.2012 v 27.09961 q 0,4.5166 -1.7334,6.34767 -1.7334,1.85546 -5.7617,1.85546 -3.5645,0 -5.542,-1.7334 -1.9531,-1.70899 -1.9531,-4.80956 v -2.19728 h 6.3476 v 2.2461 q 0,0.95215 0.2686,1.34278 0.2685,0.41503 0.8789,0.41503 0.6103,0 0.8789,-0.41503 0.2686,-0.41504 0.2686,-1.34278 v -6.34766 z"
       id="path20-5" /><path
       inkscape:connector-curvature="0"
       style="fill:#000000"
       d="m 1280.2705,-286.47401 v -4.61426 h 1.6114 v -5.34667 h 6.3965 v 5.34667 h 1.8554 v 4.61426 h -1.8554 v 17.50489 q 0,1.34276 0.3173,1.70898 0.3418,0.3418 1.3184,0.3418 h 0.2197 v 4.63867 h -4.0039 q -2.3193,0 -3.2959,-1.04981 -0.9521,-1.07421 -0.9521,-4.0039 v -19.14063 z"
       id="path22-3" /><path
       inkscape:connector-curvature="0"
       style="fill:#000000"
       d="m 1291.2325,-262.27967 v -36.01075 h 6.3476 v 36.01075 z"
       id="path24-5" /><path
       inkscape:connector-curvature="0"
       style="fill:#000000"
       d="m 1308.3223,-268.77381 v -7.64161 q -0.1465,0.0976 -0.3906,0.29298 -1.9043,1.46483 -1.9043,2.58788 v 4.76075 q 0,0.97657 0.2441,1.34277 0.2686,0.3418 0.9033,0.3418 0.586,0 0.8545,-0.39063 0.293,-0.41504 0.293,-1.29394 z m -8.6914,-16.40625 q 0,-3.27148 1.8799,-4.93165 1.9043,-1.66015 5.6152,-1.66015 4.0527,0 5.7617,1.85547 1.7334,1.83106 1.7334,6.34766 v 17.5293 q 0,1.14745 0.098,2.05077 0.1221,0.87892 0.3662,1.70899 h -6.4453 q -0.1221,-0.5127 -0.1953,-1.02539 -0.073,-0.53711 -0.073,-0.97656 v -0.43946 h -0.098 q -0.6836,1.41602 -1.8555,2.17285 -1.1475,0.75684 -2.6855,0.75684 -2.0264,0 -3.0762,-1.2207 -1.0254,-1.2207 -1.0254,-3.61328 v -6.10352 q 0,-2.2705 0.8057,-3.68653 0.83,-1.44042 2.6367,-2.41699 0.5859,-0.31738 1.6601,-0.85448 3.5889,-1.83107 3.5889,-3.49122 v -2.05078 q 0,-0.92773 -0.293,-1.34278 -0.2685,-0.41504 -0.9033,-0.41504 -0.5859,0 -0.8545,0.41504 -0.2441,0.41505 -0.2441,1.34278 v 4.19922 h -6.3965 v -4.15039 z"
       id="path26-0" /><path
       inkscape:connector-curvature="0"
       style="fill:#000000"
       d="m 1316.7207,-262.27967 v -28.8086 h 6.25 v 2.417 h 0.098 q 0.8057,-1.51367 1.9287,-2.22169 1.1231,-0.73241 2.6123,-0.73241 2.0752,0 3.1006,1.24511 1.0498,1.2207 1.0498,3.66212 v 24.43847 h -6.3965 v -22.33887 q 0,-1.00098 -0.2685,-1.34277 -0.2442,-0.36621 -0.8789,-0.36621 -0.586,0 -0.8789,0.41504 -0.2686,0.41504 -0.2686,1.29394 v 22.33887 h -6.3477 z"
       id="path28-9" /><path
       inkscape:connector-curvature="0"
       style="fill:#000000"
       d="m 1348.7032,-262.27967 h -6.25 v -2.49024 h -0.098 q -0.6348,1.58692 -1.7823,2.39258 -1.123,0.80566 -2.7588,0.80566 -2.0752,0 -3.1005,-1.19629 -1.001,-1.2207 -1.001,-3.6621 v -20.28808 q 0,-2.46583 1.0254,-3.68653 1.0254,-1.2207 3.0761,-1.2207 1.5137,0 2.6124,0.73241 1.0986,0.73243 1.831,2.22169 h 0.098 v -9.61915 h 6.3477 z m -8.6426,-6.29882 q 0,1.00097 0.2441,1.3916 0.2686,0.36621 0.9033,0.36621 0.586,0 0.8545,-0.43946 0.293,-0.43945 0.293,-1.31835 v -16.04005 q 0,-0.8789 -0.293,-1.29394 -0.2685,-0.41504 -0.8545,-0.41504 -0.6347,0 -0.9033,0.36621 -0.2441,0.34179 -0.2441,1.34277 z"
       id="path30-4" /><path
       inkscape:connector-curvature="0"
       style="fill:#000000"
       d="m 1351.1934,-262.27967 v -7.34864 h 6.6162 v 7.34864 z"
       id="path32-1" /><path
       inkscape:connector-curvature="0"
       style="fill:#000000"
       d="m 1361.2764,-262.27967 v -24.24316 h -1.5625 v -4.56544 h 1.5625 v -2.73437 q 0,-2.0996 1.2695,-3.27148 1.2696,-1.1963 3.5401,-1.1963 h 3.5888 v 4.51661 q -1.123,0 -1.5869,0.26855 -0.4638,0.24414 -0.4638,0.8789 v 1.53809 h 2.0507 v 4.56544 h -2.0507 v 24.24316 z"
       id="path34-5" /><path
       inkscape:connector-curvature="0"
       style="fill:#000000"
       d="m 1370.8223,-262.27967 v -28.8086 h 6.25 v 2.417 h 0.098 q 0.8057,-1.51367 1.9287,-2.22169 1.123,-0.73241 2.6123,-0.73241 2.0752,0 3.1006,1.24511 1.0498,1.2207 1.0498,3.66212 v 11.13281 h -6.3965 v -9.03321 q 0,-1.00098 -0.2685,-1.34277 -0.2442,-0.36621 -0.879,-0.36621 -0.5859,0 -0.8789,0.41504 -0.2685,0.41504 -0.2685,1.29394 v 22.33887 h -6.3477 z"
       id="path36-4" /><path
       inkscape:connector-curvature="0"
       style="fill:#000000"
       d="m 1394.6504,-285.52186 v 5.44434 h 2.2949 v -5.44434 q 0,-0.95215 -0.2685,-1.34277 -0.2686,-0.41504 -0.8789,-0.41504 -0.6104,0 -0.8789,0.41504 -0.2686,0.39062 -0.2686,1.34277 z m 0,17.43164 q 0,0.95215 0.2686,1.36719 0.2685,0.39062 0.8789,0.39062 0.6103,0 0.8789,-0.39062 0.2685,-0.41504 0.2685,-1.36719 v -5.39551 h 6.3477 v 5.34669 q 0,3.125 -1.9775,4.8584 -1.9532,1.70897 -5.5176,1.70897 -4.0283,0 -5.7617,-1.85546 -1.7334,-1.85548 -1.7334,-6.34766 v -13.79394 q 0,-4.54101 1.7089,-6.37208 1.709,-1.83105 5.7374,-1.83105 3.54,0 5.5419,1.66015 2.002,1.63575 2.002,4.54103 v 9.79004 h -8.6426 z"
       id="path38-9" /><path
       inkscape:connector-curvature="0"
       style="fill:#000000"
       d="m 1405.2949,-262.27967 v -28.8086 h 6.3477 v 28.8086 z m 0,-30.542 v -5.46875 h 6.3477 v 5.46875 z"
       id="path40-7" /><path
       inkscape:connector-curvature="0"
       style="fill:#000000"
       d="m 1414.792,-262.27967 v -24.24316 h -1.5625 v -4.56544 h 1.5625 v -2.73437 q 0,-2.0996 1.2696,-3.27148 1.2695,-1.1963 3.54,-1.1963 h 3.5889 v 4.51661 q -1.1231,0 -1.587,0.26855 -0.4638,0.24414 -0.4638,0.8789 v 1.53809 h 2.0508 v 4.56544 h -2.0508 v 24.24316 z"
       id="path42-8" /><path
       inkscape:connector-curvature="0"
       style="fill:#000000"
       d="m 1439.377,-291.08827 v 28.8086 h -6.25 v -2.39257 h -0.1465 q -0.8057,1.48925 -1.9043,2.19726 -1.0742,0.68359 -2.5879,0.68359 -2.0752,0 -3.125,-1.19629 -1.0254,-1.2207 -1.0254,-3.63769 v -24.4629 h 6.3477 v 22.36329 q 0,0.95215 0.2685,1.31836 0.293,0.3662 0.9278,0.3662 0.5859,0 0.83,-0.39062 0.2686,-0.39063 0.2686,-1.29394 v -22.36329 z"
       id="path44-1" /><path
       inkscape:connector-curvature="0"
       style="fill:#000000"
       d="m 1441.4278,-262.27967 v -28.8086 h 6.25 v 2.417 h 0.098 q 0.8056,-1.51367 1.9287,-2.22169 1.123,-0.73241 2.6123,-0.73241 2.0752,0 3.1006,1.24511 1.0498,1.2207 1.0498,3.66212 v 24.43847 h -6.3965 v -22.33887 q 0,-1.00098 -0.2686,-1.34277 -0.2441,-0.36621 -0.8789,-0.36621 -0.5859,0 -0.8789,0.41504 -0.2685,0.41504 -0.2685,1.29394 v 22.33887 h -6.3477 z"
       id="path46-7" /><path
       inkscape:connector-curvature="0"
       style="fill:#000000"
       d="m 1458.5176,-262.27967 v -36.01075 h 6.3477 v 19.75099 h 0.098 l 2.7099,-12.54884 h 6.4942 l -3.1494,12.45118 3.1494,16.35742 h -6.6895 l -2.5146,-15.08789 h -0.098 v 15.08789 z"
       id="path48-3" /><path
       inkscape:connector-curvature="0"
       style="fill:#000000"
       d="m 1475.4121,-262.27967 v -7.34864 h 6.6162 v 7.34864 z"
       id="path50-9" /><path
       inkscape:connector-curvature="0"
       style="fill:#000000"
       d="m 1484.4942,-262.27967 v -28.8086 h 6.25 v 2.417 h 0.098 q 0.8057,-1.51367 1.9287,-2.22169 1.123,-0.73241 2.6123,-0.73241 2.0752,0 3.1006,1.24511 1.0498,1.2207 1.0498,3.66212 v 24.43847 h -6.3965 v -22.33887 q 0,-1.00098 -0.2685,-1.34277 -0.2442,-0.36621 -0.879,-0.36621 -0.5859,0 -0.8789,0.41504 -0.2685,0.41504 -0.2685,1.29394 v 22.33887 h -6.3477 z"
       id="path52-0" /><path
       inkscape:connector-curvature="0"
       style="fill:#000000"
       d="m 1507.834,-285.52186 v 5.44434 h 2.2949 v -5.44434 q 0,-0.95215 -0.2685,-1.34277 -0.2686,-0.41504 -0.8789,-0.41504 -0.6104,0 -0.8789,0.41504 -0.2686,0.39062 -0.2686,1.34277 z m 0,17.43164 q 0,0.95215 0.2686,1.36719 0.2685,0.39062 0.8789,0.39062 0.6103,0 0.8789,-0.39062 0.2685,-0.41504 0.2685,-1.36719 v -5.39551 h 6.3477 v 5.34669 q 0,3.125 -1.9775,4.8584 -1.9532,1.70897 -5.5176,1.70897 -4.0283,0 -5.7617,-1.85546 -1.7334,-1.85548 -1.7334,-6.34766 v -13.79394 q 0,-4.54101 1.7089,-6.37208 1.709,-1.83105 5.7373,-1.83105 3.5401,0 5.542,1.66015 2.002,1.63575 2.002,4.54103 v 9.79004 h -8.6426 z"
       id="path54-2" /><path
       inkscape:connector-curvature="0"
       style="fill:#000000"
       d="m 1517.4776,-286.47401 v -4.61426 h 1.6113 v -5.34667 h 6.3965 v 5.34667 h 1.8554 v 4.61426 h -1.8554 v 17.50489 q 0,1.34276 0.3174,1.70898 0.3418,0.3418 1.3183,0.3418 h 0.2197 v 4.63867 h -4.0039 q -2.3193,0 -3.2959,-1.04981 -0.9521,-1.07421 -0.9521,-4.0039 v -19.14063 z"
       id="path56-1" /></g></svg>