<?xml version="1.0" encoding="UTF-8" standalone="no"?>
<svg
   xmlns:dc="http://purl.org/dc/elements/1.1/"
   xmlns:cc="http://creativecommons.org/ns#"
   xmlns:rdf="http://www.w3.org/1999/02/22-rdf-syntax-ns#"
   xmlns:svg="http://www.w3.org/2000/svg"
   xmlns="http://www.w3.org/2000/svg"
   xmlns:sodipodi="http://sodipodi.sourceforge.net/DTD/sodipodi-0.dtd"
   xmlns:inkscape="http://www.inkscape.org/namespaces/inkscape"
   width="100%"
   height="100%"
   viewBox="0 0 1280 1150"
   version="1.1"
   xml:space="preserve"
   style="fill-rule:evenodd;clip-rule:evenodd;stroke-linecap:round;stroke-linejoin:round;stroke-miterlimit:1.41421;"
   id="svg151"
   sodipodi:docname="-1614968110.svg"
   inkscape:version="0.92.2 (5c3e80d, 2017-08-06)"><metadata
     id="metadata157"><rdf:RDF><cc:Work
         rdf:about=""><dc:format>image/svg+xml</dc:format><dc:type
           rdf:resource="http://purl.org/dc/dcmitype/StillImage" /></cc:Work></rdf:RDF></metadata><defs
     id="defs155" /><sodipodi:namedview
     pagecolor="#ffffff"
     bordercolor="#666666"
     borderopacity="1"
     objecttolerance="10"
     gridtolerance="10"
     guidetolerance="10"
     inkscape:pageopacity="0"
     inkscape:pageshadow="2"
     inkscape:window-width="2736"
     inkscape:window-height="1719"
     id="namedview153"
     showgrid="false"
     inkscape:zoom="2.4147246"
     inkscape:cx="163.24153"
     inkscape:cy="453.17797"
     inkscape:window-x="-13"
     inkscape:window-y="-13"
     inkscape:window-maximized="1"
     inkscape:current-layer="svg151" /><g
     id="Netgear Front"><g
       transform="matrix(7.63715,0,0,1,-863.442,0)"
       id="g4"><rect
         x="130.092"
         y="641.887"
         width="137.214"
         height="123.814"
         style="fill:white;stroke-width:0.18px;stroke:black;"
         id="rect2" /></g><g
       id="boden"><rect
         x="1122.6"
         y="766.36"
         width="49.355"
         height="8.411"
         style="fill:black;stroke-width:1px;stroke:black;"
         id="rect6" /><g
         transform="matrix(1,0,0,1,-1016.77,0)"
         id="g10"><rect
           x="1122.6"
           y="766.36"
           width="49.355"
           height="8.411"
           style="fill:black;stroke-width:1px;stroke:black;"
           id="rect8" /></g><rect
         x="64.872"
         y="727.852"
         width="79.556"
         height="32.669"
         style="fill:white;stroke-width:3px;stroke:black;"
         id="rect12" /><g
         transform="matrix(1,0,0,1,1074.95,0)"
         id="g16"><rect
           x="64.872"
           y="727.852"
           width="79.556"
           height="32.669"
           style="fill:white;stroke-width:3px;stroke:black;"
           id="rect14" /></g><rect
         x="45.343"
         y="757.801"
         width="1190.5"
         height="14.923"
         style="fill:white;stroke-width:3px;stroke:black;"
         id="rect18" /></g><path
       d="M107.462,624.844L1177.9,624.844C821.085,587.453 464.271,590.381 107.462,624.844Z"
       style="fill:rgb(232,232,232);stroke-width:3px;stroke:black;"
       id="path21" /><path
       d="M45.705,740.17L131.933,740.17C138.759,740.17 144.351,736.776 144.351,730.257L144.351,659.958C146.244,652.499 151.473,649.886 158.39,649.724L1123.31,649.724C1134.12,649.214 1139.38,652.731 1139.5,659.958L1139.5,731.857C1139.5,735.254 1142.61,740.17 1147.81,740.17L1233.2,740.17L1233.2,624.844L45.705,624.844L45.705,740.17Z"
       style="fill:white;stroke-width:2.5px;stroke:rgb(1,0,0);"
       id="path23" /><g
       id="red"><path
         d="M144.598,659.958C146.068,654.338 149.674,650.278 158.39,649.947L1125.97,649.947C1133.74,650.026 1138.98,652.562 1139.24,659.958L1139.24,732.227L144.598,732.227L144.598,659.958Z"
         style="fill:white;"
         id="path25" /><path
         d="M1126.15,649.95L1126.34,649.953L1126.52,649.957L1126.69,649.962L1126.87,649.968L1127.05,649.975L1127.22,649.983L1127.4,649.992L1127.57,650.001L1127.75,650.012L1127.92,650.024L1128.09,650.036L1128.26,650.05L1128.43,650.065L1128.6,650.08L1128.76,650.097L1128.93,650.114L1129.09,650.133L1129.26,650.153L1129.42,650.173L1129.58,650.195L1129.74,650.218L1129.9,650.242L1130.06,650.267L1130.22,650.293L1130.37,650.32L1130.53,650.348L1130.68,650.377L1130.83,650.407L1130.99,650.439L1131.14,650.471L1131.29,650.505L1131.43,650.539L1131.58,650.575L1131.73,650.612L1131.87,650.65L1132.02,650.69L1132.16,650.73L1132.3,650.772L1132.44,650.814L1132.58,650.858L1132.71,650.903L1132.85,650.95L1132.99,650.997L1133.12,651.046L1133.25,651.096L1133.38,651.147L1133.52,651.199L1133.64,651.253L1133.77,651.308L1133.9,651.364L1134.02,651.421L1134.15,651.48L1134.27,651.539L1134.39,651.601L1134.51,651.663L1134.63,651.727L1134.75,651.792L1134.86,651.858L1134.98,651.925L1135.09,651.994L1135.2,652.064L1135.31,652.136L1135.42,652.209L1135.53,652.283L1135.64,652.359L1135.74,652.435L1135.84,652.514L1135.95,652.593L1136.05,652.674L1136.15,652.757L1136.24,652.84L1136.34,652.926L1136.44,653.012L1136.53,653.1L1136.62,653.189L1136.71,653.28L1136.8,653.372L1136.89,653.466L1136.98,653.561L1137.06,653.658L1137.14,653.756L1137.23,653.855L1137.31,653.956L1137.38,654.059L1137.46,654.163L1137.54,654.268L1137.61,654.375L1137.68,654.483L1137.76,654.593L1137.83,654.705L1137.89,654.818L1137.96,654.932L1138.02,655.048L1138.09,655.166L1138.15,655.285L1138.21,655.405L1138.27,655.528L1138.33,655.652L1138.38,655.777L1138.43,655.904L1138.49,656.033L1138.54,656.163L1138.58,656.295L1138.63,656.428L1138.68,656.563L1138.72,656.7L1138.76,656.838L1138.8,656.978L1138.84,657.119L1138.88,657.263L1138.91,657.408L1138.95,657.554L1138.98,657.702L1139.01,657.852L1139.04,658.004L1139.06,658.157L1139.09,658.312L1139.11,658.469L1139.13,658.628L1139.15,658.788L1139.17,658.95L1139.18,659.113L1139.2,659.279L1139.21,659.446L1139.22,659.615L1139.23,659.785L1139.24,659.958L1139.24,732.227L144.598,732.227L144.598,659.958L144.633,659.826L144.669,659.695L144.705,659.565L144.742,659.436L144.78,659.306L144.819,659.178L144.859,659.05L144.9,658.923L144.941,658.796L144.983,658.67L145.026,658.545L145.07,658.42L145.115,658.296L145.161,658.172L145.208,658.05L145.255,657.928L145.304,657.806L145.353,657.685L145.404,657.565L145.455,657.446L145.507,657.327L145.56,657.209L145.615,657.092L145.67,656.975L145.726,656.859L145.783,656.744L145.841,656.63L145.9,656.516L145.961,656.403L146.022,656.291L146.084,656.18L146.147,656.069L146.212,655.959L146.277,655.85L146.344,655.742L146.411,655.634L146.48,655.528L146.55,655.422L146.621,655.316L146.693,655.212L146.766,655.109L146.84,655.006L146.915,654.904L146.992,654.803L147.07,654.703L147.148,654.604L147.228,654.505L147.31,654.408L147.392,654.311L147.476,654.215L147.56,654.12L147.646,654.026L147.734,653.933L147.822,653.841L147.912,653.749L148.003,653.659L148.095,653.569L148.189,653.481L148.283,653.393L148.379,653.306L148.477,653.22L148.575,653.136L148.675,653.052L148.777,652.969L148.879,652.887L148.983,652.806L149.088,652.726L149.195,652.647L149.303,652.569L149.412,652.492L149.523,652.416L149.635,652.341L149.749,652.267L149.864,652.194L149.98,652.122L150.098,652.051L150.217,651.981L150.338,651.912L150.46,651.845L150.583,651.778L150.708,651.712L150.835,651.648L150.963,651.584L151.092,651.522L151.223,651.461L151.356,651.401L151.489,651.341L151.625,651.283L151.762,651.227L151.9,651.171L152.041,651.116L152.182,651.063L152.325,651.011L152.47,650.959L152.617,650.909L152.764,650.861L152.914,650.813L153.065,650.766L153.218,650.721L153.372,650.677L153.528,650.634L153.686,650.592L153.845,650.552L154.006,650.512L154.169,650.474L154.333,650.437L154.499,650.402L154.667,650.367L154.836,650.334L155.008,650.302L155.18,650.271L155.355,650.242L155.531,650.214L155.709,650.187L155.889,650.161L156.071,650.137L156.254,650.114L156.439,650.092L156.626,650.072L156.815,650.053L157.005,650.035L157.197,650.018L157.391,650.003L157.587,649.989L157.785,649.977L157.985,649.966L158.186,649.956L158.39,649.947L1125.97,649.947L1126.15,649.95ZM158.421,651.448L158.253,651.454L158.063,651.464L157.874,651.474L157.687,651.486L157.502,651.499L157.32,651.513L157.139,651.529L156.96,651.545L156.783,651.563L156.608,651.583L156.435,651.603L156.264,651.624L156.094,651.647L155.927,651.671L155.762,651.696L155.598,651.722L155.436,651.749L155.276,651.778L155.118,651.807L154.962,651.838L154.808,651.87L154.655,651.902L154.504,651.936L154.356,651.971L154.208,652.007L154.063,652.044L153.92,652.082L153.778,652.121L153.637,652.161L153.499,652.202L153.362,652.244L153.227,652.287L153.094,652.331L152.963,652.376L152.833,652.422L152.704,652.469L152.578,652.517L152.453,652.566L152.329,652.615L152.208,652.666L152.087,652.717L151.968,652.77L151.852,652.823L151.736,652.877L151.622,652.932L151.509,652.988L151.398,653.044L151.288,653.102L151.18,653.161L151.073,653.22L150.968,653.28L150.864,653.341L150.761,653.402L150.66,653.465L150.561,653.528L150.462,653.592L150.364,653.658L150.269,653.723L150.174,653.79L150.081,653.857L149.989,653.926L149.898,653.995L149.808,654.064L149.72,654.135L149.633,654.206L149.547,654.279L149.462,654.352L149.378,654.426L149.295,654.5L149.214,654.576L149.133,654.652L149.054,654.729L148.976,654.807L148.899,654.885L148.822,654.965L148.748,655.045L148.673,655.126L148.6,655.208L148.528,655.29L148.457,655.374L148.387,655.458L148.318,655.543L148.25,655.629L148.182,655.716L148.116,655.803L148.051,655.892L147.986,655.981L147.922,656.071L147.86,656.162L147.798,656.253L147.737,656.346L147.677,656.439L147.618,656.533L147.56,656.628L147.502,656.724L147.446,656.821L147.39,656.918L147.335,657.016L147.281,657.115L147.228,657.215L147.175,657.316L147.123,657.418L147.073,657.52L147.023,657.623L146.973,657.727L146.925,657.832L146.877,657.938L146.83,658.044L146.784,658.152L146.739,658.26L146.694,658.368L146.651,658.478L146.608,658.589L146.565,658.7L146.524,658.812L146.483,658.925L146.443,659.038L146.404,659.153L146.365,659.268L146.327,659.384L146.29,659.5L146.253,659.617L146.218,659.736L146.183,659.855L146.148,659.974L146.115,660.094L146.098,660.155L146.098,730.727L1137.74,730.727L1137.74,659.988L1137.73,659.854L1137.73,659.7L1137.71,659.548L1137.7,659.398L1137.69,659.25L1137.68,659.104L1137.66,658.96L1137.64,658.818L1137.63,658.678L1137.61,658.54L1137.58,658.404L1137.56,658.27L1137.54,658.137L1137.51,658.007L1137.48,657.878L1137.45,657.752L1137.42,657.627L1137.39,657.504L1137.36,657.383L1137.32,657.263L1137.29,657.146L1137.25,657.03L1137.21,656.916L1137.17,656.803L1137.13,656.693L1137.09,656.584L1137.05,656.476L1137,656.371L1136.96,656.266L1136.91,656.164L1136.86,656.063L1136.81,655.964L1136.76,655.866L1136.71,655.769L1136.66,655.674L1136.6,655.58L1136.55,655.489L1136.49,655.398L1136.43,655.308L1136.37,655.22L1136.31,655.133L1136.25,655.048L1136.19,654.963L1136.12,654.88L1136.06,654.799L1135.99,654.718L1135.93,654.639L1135.86,654.56L1135.79,654.483L1135.71,654.407L1135.64,654.332L1135.57,654.258L1135.49,654.185L1135.42,654.113L1135.34,654.042L1135.26,653.973L1135.18,653.904L1135.1,653.836L1135.02,653.769L1134.93,653.704L1134.85,653.639L1134.76,653.575L1134.67,653.512L1134.58,653.45L1134.49,653.389L1134.4,653.329L1134.3,653.27L1134.21,653.212L1134.11,653.155L1134.01,653.099L1133.91,653.043L1133.81,652.989L1133.71,652.936L1133.6,652.883L1133.5,652.832L1133.39,652.781L1133.28,652.731L1133.17,652.682L1133.06,652.635L1132.95,652.588L1132.83,652.542L1132.72,652.497L1132.6,652.453L1132.48,652.41L1132.36,652.368L1132.24,652.326L1132.12,652.286L1131.99,652.247L1131.87,652.209L1131.74,652.171L1131.61,652.135L1131.48,652.099L1131.35,652.065L1131.22,652.031L1131.09,651.998L1130.95,651.967L1130.81,651.936L1130.68,651.906L1130.54,651.877L1130.4,651.85L1130.25,651.823L1130.11,651.797L1129.97,651.772L1129.82,651.748L1129.67,651.724L1129.53,651.702L1129.38,651.681L1129.22,651.661L1129.07,651.641L1128.92,651.623L1128.76,651.605L1128.61,651.589L1128.45,651.573L1128.29,651.559L1128.13,651.545L1127.97,651.532L1127.81,651.52L1127.65,651.509L1127.49,651.499L1127.32,651.489L1127.15,651.481L1126.99,651.474L1126.82,651.467L1126.65,651.461L1126.48,651.457L1126.31,651.453L1126.13,651.45L1125.96,651.448L158.421,651.448Z"
         style="fill:rgb(113,113,113);"
         id="path27" /></g><g
       id="buttons"
       transform="matrix(0.950988,0,0,1,48.5574,0)"><path
         d="M1137.67,685.1C1137.67,677.997 1131.61,672.23 1124.14,672.23L1004.26,672.23C996.79,672.23 990.726,677.997 990.726,685.1L990.726,710.839C990.726,717.942 996.79,723.708 1004.26,723.708L1124.14,723.708C1131.61,723.708 1137.67,717.942 1137.67,710.839L1137.67,685.1Z"
         style="fill:rgb(232,232,232);stroke-width:3.07px;stroke:rgb(34,36,32);"
         id="path30" /><g
         transform="matrix(0.991738,0,0,1,9.33668,0)"
         id="g34"><path
           d="M1130.03,685.726C1130.03,682.38 1127.15,679.665 1123.6,679.665L1070.62,679.665C1067.08,679.665 1064.2,682.38 1064.2,685.726L1064.2,711.978C1064.2,715.324 1067.08,718.039 1070.62,718.039L1123.6,718.039C1127.15,718.039 1130.03,715.324 1130.03,711.978L1130.03,685.726Z"
           style="fill:rgb(232,232,232);stroke-width:2.57px;stroke:rgb(34,36,32);"
           id="path32" /></g><g
         transform="matrix(0.983475,0,0,1,-49.2524,0)"
         id="g38"><path
           d="M1130.03,685.726C1130.03,682.38 1127.13,679.665 1123.55,679.665L1070.68,679.665C1067.1,679.665 1064.2,682.38 1064.2,685.726L1064.2,711.978C1064.2,715.324 1067.1,718.039 1070.68,718.039L1123.55,718.039C1127.13,718.039 1130.03,715.324 1130.03,711.978L1130.03,685.726Z"
           style="fill:rgb(232,232,232);stroke-width:2.07px;stroke:rgb(34,36,32);"
           id="path36" /></g></g><g
       id="Beschriftung"
       transform="matrix(1,0,0,1,0,185.87)"><g
         id="wifi"><path
           d="M1019.57,502.796C1013.58,508.899 1014.62,514.14 1019.57,518.901"
           style="fill:none;stroke-width:1.5px;stroke:rgb(157,157,155);"
           id="path41" /><path
           d="M1037.02,502.796C1041.43,508.555 1041.3,513.911 1037.02,518.901"
           style="fill:none;stroke-width:1.5px;stroke:rgb(157,157,155);"
           id="path43" /><ellipse
           cx="1027.76"
           cy="510.538"
           rx="1.654"
           ry="1.591"
           style="fill:rgb(157,157,155);stroke-width:1.5px;stroke:rgb(157,157,155);"
           id="ellipse45" /><path
           d="M1023.6,506.896C1020.11,509.701 1020.33,512.351 1023.6,514.873"
           style="fill:none;stroke-width:1.5px;stroke:rgb(157,157,155);"
           id="path47" /><path
           d="M1032.74,506.896C1035.78,509.521 1035.6,512.182 1032.74,514.873"
           style="fill:none;stroke-width:1.5px;stroke:rgb(157,157,155);"
           id="path49" /></g><g
         id="wifi secure"
         transform="matrix(1,0,0,1,63.4607,0)"><path
           d="M1019.57,502.796C1013.58,508.899 1014.62,514.14 1019.57,518.901"
           style="fill:none;stroke-width:1.5px;stroke:rgb(157,157,155);"
           id="path52" /><path
           d="M1037.02,502.796C1041.43,508.555 1041.3,513.911 1037.02,518.901"
           style="fill:none;stroke-width:1.5px;stroke:rgb(157,157,155);"
           id="path54" /><g
           transform="matrix(1,0,0,1,-1.75232,0)"
           id="g58"><path
             d="M1023.6,506.896C1020.11,509.701 1020.33,512.351 1023.6,514.873"
             style="fill:none;stroke-width:1.5px;stroke:rgb(157,157,155);"
             id="path56" /></g><g
           transform="matrix(1,0,0,1,-68.9918,0)"
           id="g62"><rect
             x="1091.52"
             y="518.16"
             width="11.528"
             height="5.96"
             style="fill:rgb(157,157,155);stroke-width:1.5px;stroke:rgb(157,157,155);"
             id="rect60" /></g><g
           transform="matrix(1,0,0,1,-68.9918,0)"
           id="g66"><path
             d="M1093.85,518.137L1093.85,513.588C1093.85,510.4 1100.61,510.34 1100.61,513.588L1100.61,518.137L1093.85,518.137Z"
             style="fill:none;stroke-width:1.5px;stroke:rgb(157,157,155);"
             id="path64" /></g><g
           transform="matrix(1,0,0,1,1.78727,0)"
           id="g70"><path
             d="M1032.74,506.896C1035.78,509.521 1035.6,512.182 1032.74,514.873"
             style="fill:none;stroke-width:1.5px;stroke:rgb(157,157,155);"
             id="path68" /></g></g><g
         id="usb"
         transform="matrix(1,0,0,1,-1.13378,0)"><ellipse
           cx="571.006"
           cy="512.691"
           rx="2.363"
           ry="2.68"
           style="fill:rgb(157,157,155);stroke-width:1.5px;stroke:rgb(157,157,155);"
           id="ellipse73" /><path
           d="M571.367,512.64L591.021,512.64L589.102,510.702L589.102,514.443L591.021,512.64L576.604,512.64C577.242,508.629 580.24,506.696 585.494,506.755L587.709,506.755L585.494,504.967L585.494,508.697L585.494,506.755C580.558,506.702 577.332,508.395 576.604,512.64C578.665,517.021 582.148,519.272 587.709,518.411L587.709,516.448L589.102,518.411L587.709,520.46L587.709,518.411"
           style="fill:none;stroke-width:1.5px;stroke:rgb(157,157,155);"
           id="path75" /><path
           d="M587.709,506.844L585.494,508.697"
           style="fill:none;stroke-width:1.5px;stroke:rgb(170,170,169);"
           id="path77" /></g><g
         id="online"><ellipse
           cx="649.019"
           cy="512.278"
           rx="9.557"
           ry="9.754"
           style="fill:white;stroke-width:1.5px;stroke:rgb(157,157,155);"
           id="ellipse80" /><path
           d="M639.222,510.138C634.846,512.997 634.214,515.404 635.255,516.842C638.233,521.082 645.716,519.778 652.917,511.973"
           style="fill:none;stroke-width:1.5px;stroke:rgb(157,157,155);"
           id="path82" /></g><g
         id="wifi1"
         transform="matrix(1,0,0,1,-513.822,1.70067)"><path
           d="M1019.57,502.796C1013.58,508.899 1014.62,514.14 1019.57,518.901"
           style="fill:none;stroke-width:1.5px;stroke:rgb(157,157,155);"
           id="path85" /><path
           d="M1037.02,502.796C1041.43,508.555 1041.3,513.911 1037.02,518.901"
           style="fill:none;stroke-width:1.5px;stroke:rgb(157,157,155);"
           id="path87" /><ellipse
           cx="1027.76"
           cy="510.538"
           rx="1.654"
           ry="1.591"
           style="fill:rgb(157,157,155);stroke-width:1.5px;stroke:rgb(157,157,155);"
           id="ellipse89" /><path
           d="M1023.6,506.896C1020.11,509.701 1020.33,512.351 1023.6,514.873"
           style="fill:none;stroke-width:1.5px;stroke:rgb(157,157,155);"
           id="path91" /><path
           d="M1032.74,506.896C1035.78,509.521 1035.6,512.182 1032.74,514.873"
           style="fill:none;stroke-width:1.5px;stroke:rgb(157,157,155);"
           id="path93" /></g><g
         id="power"><g
           transform="matrix(1,0,0,1,-0.146402,0)"
           id="g98"><ellipse
             cx="383.593"
             cy="513.473"
             rx="8.626"
             ry="8.604"
             style="fill:white;stroke-width:1.5px;stroke:rgb(113,113,113);"
             id="ellipse96" /></g><g
           transform="matrix(1,0,0,1,-0.609278,-0.501888)"
           id="g102"><path
             d="M385.973,503.47C385.973,502.918 385.526,502.471 384.974,502.471L382.977,502.471C382.425,502.471 381.978,502.918 381.978,503.47L381.978,514.245C381.978,514.796 382.425,515.244 382.977,515.244L384.974,515.244C385.526,515.244 385.973,514.796 385.973,514.245L385.973,503.47Z"
             style="fill:rgb(113,113,113);stroke-width:1.5px;stroke:white;"
             id="path100" /></g></g></g><g
       id="net"
       transform="matrix(1,0,0,1,-1.34905,-1.59805)"><path
         d="M703.401,699.434L721.099,699.434L712.587,699.434L712.587,694.02L712.587,699.434L708.449,699.434L708.449,704.983L708.449,699.434L716.964,699.434L716.964,704.983"
         style="fill:none;stroke-width:1.5px;stroke:rgb(157,157,155);"
         id="path106" /><g
         transform="matrix(1,0,0,1,-0.223606,0)"
         id="g110"><rect
           x="710.394"
           y="691.089"
           width="4.838"
           height="2.974"
           style="fill:rgb(157,157,155);stroke-width:1.5px;stroke-linecap:square;stroke-linejoin:miter;stroke:rgb(157,157,155);"
           id="rect108" /></g><g
         transform="matrix(1,0,0,1,4.20816,14.2074)"
         id="g114"><rect
           x="710.394"
           y="691.089"
           width="4.838"
           height="2.974"
           style="fill:rgb(157,157,155);stroke-width:1.5px;stroke-linecap:square;stroke-linejoin:miter;stroke:rgb(157,157,155);"
           id="rect112" /></g><g
         transform="matrix(1,0,0,1,-4.41045,14.2074)"
         id="g118"><rect
           x="710.394"
           y="691.089"
           width="4.838"
           height="2.974"
           style="fill:rgb(157,157,155);stroke-width:1.5px;stroke-linecap:square;stroke-linejoin:miter;stroke:rgb(157,157,155);"
           id="rect116" /></g></g><g
       id="led"><g
         transform="matrix(1,0,0,1,-0.560745,0.666739)"
         id="g123"><path
           d="M386.864,739.79C386.864,739.616 386.723,739.476 386.55,739.476L380.197,739.476C380.024,739.476 379.883,739.616 379.883,739.79L379.883,750.145C379.883,750.318 380.024,750.459 380.197,750.459L386.55,750.459C386.723,750.459 386.864,750.318 386.864,750.145L386.864,739.79Z"
           style="fill:rgb(160,182,56);stroke-width:1.5px;stroke:rgb(61,98,55);"
           id="path121" /></g><g
         transform="matrix(1,0,0,1,130.868,0.666739)"
         id="g127"><path
           d="M386.864,739.79C386.864,739.616 386.723,739.476 386.55,739.476L380.197,739.476C380.024,739.476 379.883,739.616 379.883,739.79L379.883,750.145C379.883,750.318 380.024,750.459 380.197,750.459L386.55,750.459C386.723,750.459 386.864,750.318 386.864,750.145L386.864,739.79Z"
           style="fill:rgb(147,181,218);stroke-width:1.5px;stroke:rgb(71,85,126);"
           id="path125" /></g><g
         transform="matrix(1,0,0,1,197.348,0.666739)"
         id="g131"><path
           d="M386.864,739.79C386.864,739.616 386.723,739.476 386.55,739.476L380.197,739.476C380.024,739.476 379.883,739.616 379.883,739.79L379.883,750.145C379.883,750.318 380.024,750.459 380.197,750.459L386.55,750.459C386.723,750.459 386.864,750.318 386.864,750.145L386.864,739.79Z"
           style="fill:rgb(160,182,56);stroke-width:1.5px;stroke:rgb(61,98,55);"
           id="path129" /></g><g
         transform="matrix(1,0,0,1,263.368,0.666739)"
         id="g135"><path
           d="M386.864,739.79C386.864,739.616 386.723,739.476 386.55,739.476L380.197,739.476C380.024,739.476 379.883,739.616 379.883,739.79L379.883,750.145C379.883,750.318 380.024,750.459 380.197,750.459L386.55,750.459C386.723,750.459 386.864,750.318 386.864,750.145L386.864,739.79Z"
           style="fill:rgb(160,182,56);stroke-width:1.5px;stroke:rgb(61,98,55);"
           id="path133" /></g><g
         transform="matrix(1,0,0,1,329.506,0.666739)"
         id="g139"><path
           d="M386.864,739.79C386.864,739.616 386.723,739.476 386.55,739.476L380.197,739.476C380.024,739.476 379.883,739.616 379.883,739.79L379.883,750.145C379.883,750.318 380.024,750.459 380.197,750.459L386.55,750.459C386.723,750.459 386.864,750.318 386.864,750.145L386.864,739.79Z"
           style="fill:rgb(160,182,56);stroke-width:1.5px;stroke:rgb(61,98,55);"
           id="path137" /></g><g
         transform="matrix(1,0,0,1,644.37,0.666739)"
         id="g143"><path
           d="M386.864,739.79C386.864,739.616 386.723,739.476 386.55,739.476L380.197,739.476C380.024,739.476 379.883,739.616 379.883,739.79L379.883,750.145C379.883,750.318 380.024,750.459 380.197,750.459L386.55,750.459C386.723,750.459 386.864,750.318 386.864,750.145L386.864,739.79Z"
           style="fill:rgb(160,182,56);stroke-width:1.5px;stroke:rgb(61,98,55);"
           id="path141" /></g><g
         transform="matrix(1,0,0,1,707.797,0.666739)"
         id="g147"><path
           d="M386.864,739.79C386.864,739.616 386.723,739.476 386.55,739.476L380.197,739.476C380.024,739.476 379.883,739.616 379.883,739.79L379.883,750.145C379.883,750.318 380.024,750.459 380.197,750.459L386.55,750.459C386.723,750.459 386.864,750.318 386.864,750.145L386.864,739.79Z"
           style="fill:rgb(160,182,56);stroke-width:1.5px;stroke:rgb(61,98,55);"
           id="path145" /></g></g></g><rect
     id="rect100"
     width="81.499977"
     height="74.959854"
     x="54.244881"
     y="654.52478"
     style="clip-rule:evenodd;fill:#ffffff;fill-rule:evenodd;stroke-width:0.28178713;stroke-linecap:round;stroke-linejoin:round;stroke-miterlimit:1.41420996" /><g
     style="clip-rule:evenodd;fill-rule:evenodd;stroke-linecap:round;stroke-linejoin:round;stroke-miterlimit:1.41420996"
     transform="matrix(0.2480718,0,0,0.2480718,118.86269,457.87004)"
     id="g4207"><path
       inkscape:connector-curvature="0"
       style="fill:#000000"
       d="m -235.53484,916.29655 a 68.833004,70.485946 0 0 0 -8.91755,34.6148 68.833004,70.485946 0 0 0 4.38353,24.34671 69.305276,70.367875 0 0 0 0.74281,2.06441 68.833004,70.485946 0 0 0 1.27338,2.93651 69.305276,70.367875 0 0 0 1.97374,4.16358 68.833004,70.485946 0 0 0 0.17558,0.355 c 0.006,-0.002 0.0115,-0.006 0.0174,-0.01 a 69.305276,70.367875 0 0 0 60.97578,37.10174 69.305276,70.367875 0 0 0 57.72865,-31.62813 99.429255,99.429255 0 0 0 65.504008,24.90433 99.429255,99.429255 0 0 0 74.58555,-33.80643 h -1.13447 a 99.031206,99.031206 0 0 0 19.21651,-29.60616 100.09211,100.09211 0 0 0 0.91453,-2.50819 99.031206,99.031206 0 0 0 2.19176,-6.17784 100.09211,100.09211 0 0 0 0.96274,-3.76613 c -0.20749,0.27841 -0.41623,0.54635 -0.92223,1.15185 -0.2001,0.22512 -0.59997,0.50098 -0.93767,0.61352 -0.32519,0.12509 -0.90108,0.3506 -1.28883,0.51323 -0.3877,0.16257 -0.93749,0.29903 -1.22514,0.29903 h -0.51321 v -3.66387 c 0,-3.56455 0.0113,-3.66646 0.29905,-4.27932 0.5074,-1.08832 1.64521,-1.86952 3.00404,-2.21685 h 0.63861 v -0.1254 c 0.77703,-0.11313 1.5987,-0.10063 2.41171,0.0926 h 0.002 c 0.0788,0.0185 0.15214,0.0436 0.22765,0.0656 a 100.09211,100.09211 0 0 0 0.36082,-2.37893 h -2.1281 -0.87402 v -9.91116 c 0.66679,-0.116 1.35954,-0.118 2.049,0.0425 0.70895,0.16271 1.3623,0.4846 1.93709,0.91644 a 100.09211,100.09211 0 0 0 0.18908,-3.80472 h -80.5338 c -58.7175,7e-5 -89.319488,-0.008 -119.435658,-0.0174 a 100.09211,100.09211 0 0 0 2.21492,18.27692 c 0.11782,-0.96517 0.38292,-1.25105 1.00327,-1.85026 1.10063,-1.07561 2.55355,-1.6013 4.35459,-1.5763 0.61285,0.0129 1.36393,0.087 1.67662,0.16208 0.82547,0.23763 1.90085,0.83873 2.41364,1.36406 0.25015,0.25014 0.56085,0.76404 0.69843,1.12674 0.25014,0.62537 0.26239,0.91048 0.26239,4.77521 v 4.12883 h -5.25173 -3.10051 a 100.09211,100.09211 0 0 0 0.95504,2.8709 c 0.13198,-0.005 0.27194,-0.0482 0.34343,-0.108 0.14383,-0.14381 0.6767,-0.22517 1.29268,-0.23923 0.61597,-0.014 1.31665,0.0389 1.79817,0.164 0.88801,0.22512 1.57591,0.57632 2.15125,1.07658 0.40023,0.36273 0.53557,0.5492 0.96082,1.36214 0.12508,0.25018 0.17564,1.90401 0.20066,7.53225 l 0.0212,5.90195 a 100.09211,100.09211 0 0 0 0.93382,1.52613 h -4.14622 a 105.07954,105.07954 0 0 1 -0.11769,-0.20645 h -1.98146 v -0.97818 c 0,-0.52682 -0.0502,-1.02835 -0.10033,-1.10361 -0.18814,-0.28848 -0.87671,-0.52668 -2.09337,-0.72738 -0.68985,-0.12541 -1.49231,-0.30288 -1.7808,-0.40323 l -0.54023,-0.20065 0.0116,-5.34243 c 0.0102,-4.69477 0.0121,-5.54144 0.38781,-6.22222 a 105.07954,105.07954 0 0 1 -4.29092,-18.58174 l -4.52437,-0.0309 -5.64534,-0.025 0.0386,-3.17382 0.0367,-3.16031 0.35115,-0.72736 c 0.62714,-1.27938 1.99571,-2.37114 3.46322,-2.7976 0.89054,-0.26339 3.03476,-0.16211 3.91276,0.18909 0.56855,0.22071 1.05052,0.48877 1.47211,0.81033 a 105.07954,105.07954 0 0 1 -0.14085,-3.95713 c -49.40755,-0.0188 -75.83265,-0.055 -81.09576,-0.13695 z m 50.21375,2.92877 c 0.53129,-0.0161 1.07138,0.0408 1.60524,0.17943 1.94414,0.50171 3.33676,1.75642 3.8761,3.4748 0.18814,0.63967 0.22574,1.17847 0.22574,3.56161 v 2.80916 h -5.51993 -5.51799 v -2.80916 c 0,-2.38314 0.0376,-2.92194 0.22573,-3.56161 0.67261,-2.14013 2.80285,-3.58469 5.10511,-3.65423 z m -26.7507,0.004 c 0.33187,0.0145 0.66546,0.0564 0.99941,0.1254 1.73092,0.36375 3.19879,1.4796 3.90119,2.95965 0.40137,0.85293 0.40034,0.85243 0.43797,3.18539 l 0.0502,2.33261 -0.72738,-0.2373 c -1.48005,-0.50171 -3.5749,-0.51523 -5.00478,-0.0386 -1.04106,0.3512 -2.21865,1.0292 -3.02139,1.74415 l -0.75246,0.6772 -0.91645,-0.26239 -0.90294,-0.26432 0.0367,-3.14873 0.0386,-3.13524 0.40131,-0.85277 c 0.94385,-1.98648 3.13702,-3.18605 5.46011,-3.08505 z m -13.45349,0.0192 c 0.63366,0.0239 1.251,0.13429 1.77309,0.33185 1.01597,0.3888 1.98041,1.10252 2.51976,1.89272 0.77765,1.10377 0.85278,1.53042 0.85278,4.95461 v 3.03682 l -0.83928,0.1505 -0.85278,0.16207 -0.75245,-0.43797 c -1.51768,-0.90308 -3.41279,-1.29367 -5.16878,-1.08045 -0.51426,0.0754 -0.97819,0.10125 -1.00327,0.0636 -0.0376,-0.025 0.0135,-0.17555 0.0888,-0.32605 0.10033,-0.17561 0.11287,-0.55269 0.0502,-1.09203 -0.11289,-1.09123 -0.72823,-2.1811 -1.41809,-2.54483 -0.58951,-0.30104 -0.95409,-0.96653 -0.8412,-1.56858 0.18814,-1.00344 1.34264,-2.30742 2.62201,-2.95966 0.80744,-0.42331 1.9132,-0.62235 2.9693,-0.58266 z m 54.14389,0.0113 c 0.75727,0.0376 1.51159,0.15092 1.95059,0.32029 1.16648,0.45151 2.05855,1.12756 2.63551,2.0181 0.27595,0.439 0.56337,1.00421 0.61354,1.24253 0.0627,0.25085 0.11384,1.79406 0.11384,3.42461 v 2.98474 h -5.58166 -5.59517 l 0.0386,-3.1738 0.0367,-3.1603 0.35114,-0.72739 c 0.65223,-1.317 1.93203,-2.35859 3.4748,-2.79758 0.44527,-0.1317 1.20489,-0.16883 1.96216,-0.1312 z m -27.87939,0.002 c 0.88074,-0.0282 1.99874,0.0926 2.60079,0.31835 1.51769,0.57695 2.7213,1.7439 3.23555,3.14873 0.23832,0.63965 0.2624,1.00291 0.2624,3.33589 0,2.40821 -0.0125,2.59597 -0.20066,2.40785 -0.13797,-0.13798 -0.22573,-0.5141 -0.2759,-1.10362 l -0.0617,-0.89136 -0.66563,-0.42639 c -0.36374,-0.23831 -0.87782,-0.48908 -1.15376,-0.55181 -0.46409,-0.12542 -0.75228,-0.31337 -1.85605,-1.20392 -0.42646,-0.33865 -0.56324,-0.37525 -1.44124,-0.3878 -0.5268,-0.0126 -1.24247,-0.11288 -1.56858,-0.22573 -0.74003,-0.23832 -0.99057,-0.2518 -2.05671,-0.13894 -0.74002,0.0877 -0.86621,0.15043 -1.34284,0.65214 l -0.53829,0.54023 v -0.55179 c 0,-0.79021 0.42535,-2.04503 0.9396,-2.74743 0.71494,-0.96581 2.0951,-1.8319 3.34939,-2.0953 0.21322,-0.0439 0.48009,-0.0697 0.77367,-0.0791 z m 68.67397,0.0655 c 0.62555,0.002 1.25524,0.0941 1.86184,0.28169 1.60093,0.50028 3.13915,1.93888 3.52688,3.31466 0.10003,0.32519 0.1505,1.58814 0.15049,3.47672 v 2.95192 h -5.62796 -5.62798 v -3.00209 c 0,-3.38943 0.0623,-3.71336 0.96276,-4.88902 1.04123,-1.36015 2.8773,-2.14384 4.75397,-2.13388 z m 26.92626,0.0192 c 0.58785,0 1.35049,0.0756 1.6882,0.17557 1.5884,0.41273 2.853428,1.43915 3.528818,2.81495 l 0.34922,0.70036 0.0386,3.15066 0.0366,3.16416 h -5.579748 -5.56429 v -3.0021 c 0,-2.63901 0.0248,-3.07496 0.2373,-3.62527 0.77545,-2.03868 2.85142,-3.36581 5.26525,-3.37833 z m 13.737118,0.004 c 0.69258,0.003 1.39101,0.0844 1.91007,0.24697 1.47583,0.45026 2.71245,1.47647 3.3378,2.7397 0.27519,0.57532 0.33691,0.9364 0.42446,2.24965 0.0625,0.863 0.0768,2.28866 0.0269,3.16417 l -0.0754,1.60136 h -5.62796 -5.61447 l 0.0349,-3.16608 c 0.0375,-3.1518 0.0384,-3.1487 0.37623,-3.8491 0.62532,-1.26323 1.85037,-2.27793 3.32623,-2.75322 0.50027,-0.15633 1.18855,-0.23501 1.88114,-0.23345 z m 121.8165,0.006 c 0.29503,0.0161 0.59205,0.0585 0.88751,0.12735 1.52589,0.3502 2.82556,1.39013 3.53846,2.82845 l 0.41289,0.83735 0.0366,3.1005 0.0501,3.10242 h -5.21509 -5.21509 l 0.0501,-3.10242 0.0366,-3.1005 0.41289,-0.83735 c 0.95213,-1.9261 2.93951,-3.06933 5.00478,-2.9558 z m -176.201548,0.002 c 0.58783,-0.0126 1.35049,0.064 1.68819,0.16399 1.56338,0.41274 2.85051,1.42653 3.51338,2.76479 l 0.36273,0.7486 0.0386,3.15259 0.0366,3.16415 h -5.5778 -5.57781 l 0.0367,-3.16415 0.0386,-3.15259 0.34921,-0.72353 c 0.91302,-1.83856 2.81531,-2.94135 5.09162,-2.95385 z m 88.936198,0.002 c 0.92862,-9.8e-4 1.85913,0.062 2.46572,0.18715 3.35193,0.68789 6.47994,3.06322 7.9683,6.05243 0.18761,0.37525 0.41114,0.7256 0.48619,0.77561 0.075,0.05 0.1,0.10038 0.0501,0.10038 -0.05,0 0.0264,0.32422 0.164,0.71193 0.56283,1.61342 0.58665,2.05144 0.63669,9.04296 l 0.0386,6.69298 -11.73249,0.0366 -11.73249,0.025 0.0386,-6.96695 c 0.05,-6.76638 0.0487,-7.00433 0.32412,-7.97986 0.35019,-1.23822 1.11423,-2.86397 1.82711,-3.86452 1.60094,-2.2388 4.35118,-4.05224 7.01519,-4.61505 0.59409,-0.13135 1.52165,-0.19716 2.45031,-0.19874 z m 60.2425999,0.002 c 0.50655,-0.002 1.01366,0.053 1.47018,0.17172 1.5509,0.40025 3.03832,1.66297 3.58862,3.03876 0.2626701,0.66286 0.2885701,0.92499 0.3260701,3.73912 l 0.0366,3.04067 H 4.9011179 -0.48953212 l 0.0386,-3.04067 c 0.0375,-2.81413 0.0635,-3.07626 0.32606,-3.73912 0.53783,-1.35078 2.03660002,-2.62504 3.52495002,-3.02525 0.45651,-0.11875 0.96366,-0.18209 1.47019,-0.18523 z m -27.4510699,0.002 c 0.29339,-0.0204 0.58997,-0.0189 0.88559,0.004 0.33784,0.026 0.67413,0.0799 1.00713,0.16594 1.75101,0.46278 3.06278,1.48658 3.7507,2.92491 l 0.3878,0.82578 0.0386,3.02717 0.0366,3.04069 h -5.70129 -5.70514 l 0.0386,-3.04069 0.0366,-3.02717 0.38779,-0.82578 c 0.85224,-1.7811 2.78327,-2.95193 4.83692,-3.09471 z m 40.40487,0.0136 c 0.27325,-0.0207 0.54903,-0.0209 0.82576,0 0.31625,0.024 0.63307,0.075 0.94731,0.15627 1.55088,0.41275 2.87751,1.49907 3.5404,2.89985 0.33769,0.71292 0.3387,0.76454 0.37623,3.81629 l 0.0501,3.10243 h -5.34242 -5.34049 l 0.0501,-3.10243 c 0.0375,-3.05175 0.0386,-3.10337 0.37624,-3.81629 0.83306,-1.77151 2.6038,-2.91068 4.51665,-3.05612 z m -134.668038,0.004 c 1.30075,0.0374 1.43981,0.064 2.34032,0.50164 1.16318,0.55031 2.02625,1.36203 2.53905,2.40013 l 0.36272,0.75053 0.0366,3.15259 0.0386,3.16415 h -5.57973 -5.57781 l 0.0386,-3.16415 0.0366,-3.15259 0.35114,-0.72545 c 0.46279,-0.92553 1.32515,-1.79953 2.28824,-2.2998 1.06311,-0.56283 1.52465,-0.66458 3.12558,-0.62705 z m 107.7841979,0.01 c 0.87825,-0.0281 1.99081,0.0913 2.59115,0.31642 1.5759,0.60034 2.79107,1.81265 3.24134,3.25098 0.21258,0.68791 0.24888,1.15167 0.24888,3.59057 v 2.80143 h -5.56428 -5.5662499 v -2.80143 c 0,-3.17682 0.1372,-3.89066 0.93768,-4.99128 0.71288,-0.96305 2.08903,-1.82492 3.3397299,-2.08758 0.21261,-0.0438 0.47901,-0.0697 0.77175,-0.0791 z m -67.3909299,2.58729 c 0.46589,-0.0112 0.93897,0.0409 1.23287,0.16592 0.63787,0.26265 1.33692,0.9521 1.6496,1.63998 0.27516,0.58785 0.29906,0.77511 0.29906,3.08891 v 2.4773 h -3.12556 -3.12753 v -2.35189 c 0,-1.86356 0.039,-2.49016 0.21416,-2.96544 0.22514,-0.67538 0.97523,-1.50101 1.66312,-1.8387 0.26888,-0.13132 0.72837,-0.20513 1.19428,-0.21608 z m 40.66917,0.2759 c 0.52955,0.0289 1.0736,0.16653 1.46053,0.39166 0.31269,0.18761 0.7134,0.52446 0.90102,0.76211 0.58785,0.77543 0.66278,1.20089 0.67528,3.65229 v 2.29015 h -3.1391 -3.14101 l 0.0501,-2.4773 c 0.0375,-2.43889 0.0376,-2.47693 0.38781,-3.05226 0.38772,-0.66288 0.98874,-1.16318 1.67661,-1.4258 0.17823,-0.0688 0.38729,-0.11238 0.60969,-0.13313 0.16677,-0.0156 0.34247,-0.0174 0.519,-0.007 z m -68.052698,9.11048 c 0.72813,0.0135 1.95293,0.16468 2.37506,0.32414 1.12564,0.43775 2.389608,1.66209 2.789858,2.71269 0.25014,0.66286 0.26239,0.93993 0.26239,4.64205 v 3.93785 h -5.078098 -5.0646 l 0.0366,-4.10183 c 0.0375,-4.06482 0.0384,-4.09001 0.35115,-4.7154 0.56283,-1.13812 1.79983,-2.15038 3.12558,-2.55061 0.31269,-0.0875 0.62432,-0.18719 0.68686,-0.21224 0.0844,-0.0312 0.27241,-0.0412 0.51514,-0.0366 z m -54.35612,0.0231 c 0.71024,0.0113 1.43394,0.0864 1.87921,0.21804 1.40479,0.43898 2.49748,1.35422 3.03682,2.55833 0.22577,0.50174 0.25082,0.85414 0.25082,4.64209 v 4.1134 h -5.20544 -5.21894 l 0.0386,-4.23881 0.0367,-4.22725 0.33957,-0.57689 c 0.60206,-1.0285 1.76903,-1.90711 3.0484,-2.32102 0.38883,-0.12545 1.08408,-0.17884 1.79431,-0.16787 z m -13.51523,0.006 c 0.37795,0.005 0.76192,0.0454 1.14605,0.12542 1.55531,0.32609 2.96052,1.3407 3.57512,2.595 l 0.35114,0.71579 0.0251,4.07676 c 0.0126,2.45838 -0.0116,3.97644 -0.0868,3.82594 -0.0627,-0.13799 -0.11384,-0.62698 -0.11384,-1.07853 -0.0126,-0.45153 -0.0993,-1.08038 -0.21223,-1.40651 -0.16305,-0.48917 -0.30186,-0.63952 -0.8412,-0.9531 -0.36374,-0.21322 -0.91543,-0.58939 -1.25409,-0.85277 -2.83468,-2.25772 -3.39927,-2.54583 -5.18036,-2.55835 -0.6146,0 -1.31675,-0.0752 -1.55507,-0.17558 -0.41391,-0.15051 -0.46396,-0.138 -0.80262,0.17558 l -0.36465,0.32606 0.0752,-0.73894 c 0.23048,-2.3706 2.59258,-4.10816 5.23824,-4.07677 z m 54.9137,0.0386 c 0.26112,-0.005 0.44775,-9.8e-4 0.49777,0.0174 0.1,0.0249 0.40105,0.0763 0.66373,0.11387 0.26263,0.0375 0.50077,0.12363 0.53827,0.17365 0.0375,0.0626 0.14881,0.11388 0.24889,0.11388 0.23764,0 1.07649,0.5747 1.75187,1.20007 0.35022,0.32518 0.61404,0.72579 0.78912,1.21357 0.25015,0.67539 0.26238,0.96323 0.26238,4.71537 v 4.00151 h -5.12826 -5.12826 v -4.03816 -4.05361 l 0.37622,-0.73703 c 0.45027,-0.9005 1.06309,-1.51523 2.12618,-2.12808 0.73791,-0.42524 0.92434,-0.47289 2.06249,-0.54794 0.34392,-0.025 0.67851,-0.0396 0.9396,-0.0444 z m 121.4421979,0.0481 c 0.44986,-0.0164 0.90757,0.0269 1.36406,0.13314 1.52589,0.35018 3.08947,1.66207 3.65231,3.07539 0.28764,0.7004 0.3001,0.87609 0.3376401,4.50315 l 0.0386,3.78928 H 4.8394679 -0.36404212 l 0.0386,-3.78928 c 0.05,-4.45255 0.0872,-4.66591 1.35057002,-6.00418 0.9943,-1.06936 2.27567,-1.65826 3.62528,-1.7075 z m -13.23933,0.01 c 0.53585,-0.004 1.07976,0.0496 1.62069,0.16206 1.53837,0.32519 2.92806,1.26259 3.37831,2.26315 0.21263,0.45029 0.23731,0.91239 0.23731,4.77712 v 4.29092 h -5.18998 -5.1919399 v -4.29092 c 0,-4.84029 0.0131,-4.87689 0.97625,-5.73987 1.04122,-0.93806 2.5618,-1.45309 4.1693599,-1.46246 z m -13.9879199,0.002 c 0.29475,-0.0199 0.59246,-0.0191 0.88943,0.004 0.33942,0.0264 0.67835,0.0819 1.01294,0.16786 1.72596,0.45026 3.07434,1.48846 3.76226,2.90176 l 0.36272,0.72738 0.0386,3.83751 0.0366,3.85294 h -5.70129 -5.70514 l 0.0386,-3.85294 0.0366,-3.83751 0.3627,-0.72738 c 0.86185,-1.77152 2.80266,-2.93442 4.86586,-3.07348 z m 40.51096,0.007 c 0.50926,-0.0164 1.03216,0.02 1.55121,0.11387 1.50088,0.27517 2.965,1.25219 3.51533,2.34033 0.2001,0.41272 0.22485,0.90077 0.26237,4.74046 l 0.0366,4.28899 h -5.13983 -5.13985 l 0.0366,-4.28899 c 0.0375,-4.81524 0.023,-4.72866 1.011,-5.71672 0.91927,-0.90052 2.33861,-1.42864 3.86643,-1.4779 z m -108.53279,0.0113 c 1.03183,-0.0352 2.36646,0.0932 2.94806,0.31836 1.10064,0.42525 2.08899,1.30986 2.61432,2.32295 l 0.4476,0.86435 0.0386,3.97836 0.0366,3.988 h -5.32699 -5.32893 l 0.0386,-3.97642 0.0366,-3.96485 0.35115,-0.6637 c 0.66289,-1.26321 2.16287,-2.54933 3.25099,-2.77444 0.23764,-0.05 0.54935,-0.0809 0.8933,-0.0926 z m -39.951448,0.004 c 1.5509,0.0375 1.57342,0.0363 2.64903,0.56145 h 0.004 c 0.87549,0.42524 1.19933,0.66424 1.64961,1.22707 0.32517,0.38773 0.57594,0.73809 0.58845,0.7756 0,0.05 0.0377,0.20007 0.0753,0.33765 0.10005,0.31266 0.0993,1.12638 0.0617,5.27875 l -0.027,3.28765 h -5.25175 -5.25367 v -4.16359 c 0,-4.11485 8.1e-4,-4.16621 0.30099,-4.77904 0.48777,-1.02558 1.55106,-1.87462 2.92685,-2.32488 0.57532,-0.1876 1.01344,-0.23817 2.27666,-0.20066 z m 162.259938,0.0113 c 0.7234,0.0199 1.48385,0.1251 1.98339,0.30099 v 0.002 c 1.32573,0.46277 2.30082,1.33788 2.67603,2.36348 0.12508,0.36271 0.16308,1.4864 0.17557,4.63819 v 4.15395 l -4.84078,-0.0251 -4.85237,-0.0386 v -4.31408 -4.31407 l 0.33765,-0.58845 c 0.57532,-0.97556 1.66295,-1.71424 3.03875,-2.06442 0.21576,-0.0532 0.48553,-0.0874 0.7814,-0.10425 0.22191,-0.0129 0.45921,-0.0155 0.70036,-0.01 z m -108.06396,1.14991 c 0.45056,0.0136 0.91571,0.15023 1.3988,0.41288 0.6879,0.37521 1.34821,1.22622 1.56085,1.98917 0.075,0.26264 0.12541,2.0403 0.12541,4.17902 v 3.72754 h -3.12556 -3.12753 v -3.75262 c 0,-4.31498 0.0635,-4.65328 1.02643,-5.59131 0.68008,-0.66444 1.39068,-0.98727 2.1416,-0.96468 z m 40.30646,0.20836 c 0.68852,-0.0187 1.39984,0.11375 2.01425,0.41868 0.43775,0.22511 0.83972,0.52452 1.01485,0.78719 0.27511,0.42524 0.27397,0.47619 0.27397,4.65363 v 4.24075 h -3.12751 -3.12752 v -4.22917 c 0,-3.95228 0.0131,-4.23985 0.25082,-4.61506 0.46903,-0.77388 1.55363,-1.22474 2.70114,-1.25602 z m -54.55678,12.6093 c 0.25268,-0.0153 0.51112,-0.0159 0.77562,0 0.30227,0.018 0.61221,0.0564 0.92801,0.11575 1.57594,0.30019 2.86466,1.23718 3.41499,2.47539 0.38771,0.863 0.40025,1.16382 0.36271,6.67947 l -0.025,4.10184 h -5.00478 -5.01636 l 0.0386,-5.163 0.0366,-5.15527 0.33764,-0.56145 c 0.91925,-1.52254 2.38322,-2.38527 4.152,-2.49274 z m -27.180958,0.006 c 0.64803,-0.034 1.32608,0.0162 2.00463,0.16014 1.03806,0.22512 1.96378,0.68747 2.56412,1.27531 0.88801,0.88799 0.8633,0.76354 0.82578,6.6544 l -0.0251,5.27681 h -4.9411 -4.93919 v -5.25173 c 0,-5.05292 0.0113,-5.27823 0.26238,-5.80354 0.62849,-1.35078 2.3044,-2.20939 4.24849,-2.31139 z m -13.77761,0.025 c 0.95973,-0.0288 2.18671,0.1035 2.82459,0.3473 1.00057,0.36269 1.75203,0.89978 2.16475,1.51263 l 0.33765,0.52671 0.0367,5.07809 c 0.0375,4.90281 0.0264,5.11463 -0.22382,5.79005 -0.31269,0.82543 -1.02625,1.53803 -1.67661,1.66312 -0.38773,0.0625 -0.45148,0.12614 -0.45148,0.42639 0,0.66285 -0.1229,0.6879 -3.83752,0.72542 l -3.41498,0.0501 v -6.66596 c 0,-6.5037 0.0122,-6.68088 0.2624,-7.2062 0.46277,-0.95053 1.80082,-1.87323 3.13908,-2.16089 0.22826,-0.0469 0.51937,-0.077 0.83928,-0.0867 z m 28.026,0.007 c 0.68105,0.0154 1.35036,0.1135 1.8522,0.30096 1.06314,0.41277 1.926648,1.1387 2.351898,1.98919 l 0.36272,0.72544 0.0386,5.15527 0.0366,5.163 h -4.829208 -4.82535 l 0.0366,-5.163 0.0386,-5.15527 0.37429,-0.67528 c 0.22512,-0.41272 0.62417,-0.87573 0.9994,-1.16341 0.3502,-0.26265 0.70056,-0.5375 0.77562,-0.60002 0.48465,-0.39869 1.65288,-0.60269 2.78793,-0.57688 z m -55.56196,0.0636 c 0.22596,-0.006 0.4929,-0.004 0.80647,0.006 1.01598,0.0251 1.30512,0.0761 1.94481,0.38972 0.90308,0.42645 1.90615,1.40543 2.30752,2.22071 0.15052,0.33865 0.3386,0.60197 0.40131,0.60197 0.0627,0 0.11383,1.61646 0.11384,3.84908 0,2.34552 -0.0511,3.80183 -0.11384,3.73912 -0.10034,-0.11288 -0.38873,-1.75738 -0.60196,-3.4883 -0.0502,-0.40137 -0.25163,-0.66354 -1.24251,-1.64189 -1.09123,-1.09123 -1.55508,-1.76916 -1.55508,-2.27088 0,-0.11287 -0.16203,-0.41283 -0.36272,-0.6637 -0.21323,-0.25086 -0.4148,-0.64051 -0.46498,-0.84118 -0.0502,-0.21325 -0.28743,-0.61448 -0.53829,-0.90297 -0.42646,-0.5017 -0.48996,-0.52767 -1.1171,-0.54022 -0.47663,0 -0.65214,-0.0501 -0.62705,-0.15048 0.0659,-0.19755 0.37168,-0.28915 1.04958,-0.30677 z m 177.160458,0.0231 c 0.5978,-0.0232 1.21351,0.0337 1.82325,0.1775 1.35076,0.32521 2.36415,0.98856 2.977,1.9641 0.28766,0.46276 0.30092,0.56233 0.27591,2.31331 l -0.0366,1.82712 -0.42639,-0.36273 c -0.23764,-0.1876 -0.73711,-0.4886 -1.12481,-0.6637 -0.62535,-0.26265 -0.93868,-0.29915 -2.73973,-0.34922 l -2.03934,-0.0639 -0.48813,0.33765 c -0.26264,0.18761 -0.8134,0.40148 -1.23865,0.47655 -0.83798,0.1626 -0.86123,0.1868 -1.1364,1.48754 -0.27515,1.38832 -0.3743,0.91289 -0.3743,-1.83869 0,-2.62652 0.0113,-2.70141 0.29906,-3.16416 0.80669,-1.28513 2.43575,-2.07185 4.22917,-2.14159 z m -40.56306,0.0174 c 0.26382,-0.0172 0.52865,-0.0168 0.7891,0 0.34727,0.0225 0.68773,0.0759 1.01292,0.16013 0.40021,0.1 0.951,0.29948 1.23865,0.44955 0.78796,0.40022 1.78746,1.41333 2.11266,2.15125 0.30017,0.63785 0.30014,0.7144 0.33765,5.55465 l 0.0366,4.9141 h -5.13985 -5.14176 l 0.0386,-4.9141 c 0.0375,-4.84025 0.0374,-4.9168 0.33765,-5.55465 0.32514,-0.73792 1.32663,-1.75103 2.11459,-2.15125 0.68239,-0.35176 1.47159,-0.55765 2.26314,-0.60968 z m 13.4650699,0.0136 c 0.85243,-0.0294 1.97485,0.0993 2.55641,0.33378 0.92552,0.36271 1.78779,1.02536 2.23805,1.71327 0.72543,1.10063 0.76405,1.3779 0.76405,6.50584 v 4.66329 h -5.00285 -5.0163699 l 0.0386,-4.91412 0.0366,-4.90252 0.33764,-0.71386 c 0.57532,-1.2257 1.85325,-2.22749 3.3165799,-2.60273 0.19387,-0.0469 0.44709,-0.0734 0.73124,-0.083 z m 14.27539,0.004 c 0.67225,0.033 1.34552,0.14323 1.80204,0.31836 1.40078,0.53778 2.32663,1.37649 2.61428,2.40207 0.075,0.23762 0.12542,2.55071 0.12542,5.45238 v 5.03952 h -4.81764 -4.82535002 l 0.0366,-5.2884 c 0.0375,-4.76523 0.0625,-5.31735 0.26242,-5.68007 0.5128,-0.93803 1.61186002,-1.71333 3.00016002,-2.10108 0.45652,-0.13132 1.12977,-0.17559 1.80202,-0.14278 z m -62.1449799,1.10168 c 0.43924,-0.0218 0.96093,-0.0158 1.71135,0.0154 2.21377,0.0875 2.70087,0.22364 4.75204,1.23673 2.57646,1.28822 4.61543,3.87856 5.4659,6.9303 0.27514,0.97557 0.2759,1.10207 0.2759,10.55751 0.01,3.99411 -0.0164,6.88135 -0.0541,8.43326 a 10.937218,7.7886251 0 0 0 -6.92258,7.24093 10.937218,7.7886251 0 0 0 0.007,0.16592 h -3.63299 a 7.817445,5.1371781 0 0 0 0.0366,-0.49585 7.817445,5.1371781 0 0 0 -7.81588,-5.13791 7.817445,5.1371781 0 0 0 -1.72486,0.13314 c -0.24206,-0.1015 -1.06061,-0.70947 -2.04514,-1.52229 l -0.41287,-0.33764 v -7.86796 c 0,-4.32748 0.0513,-7.86796 0.11387,-7.86796 0.0501,0 0.13612,-0.60015 0.17364,-1.35057 0.075,-1.41332 0.32588,-2.46281 0.97626,-3.8761 0.18759,-0.42523 0.36369,-0.82592 0.37622,-0.87593 0.0251,-0.0501 0.13732,-0.20098 0.2624,-0.32607 0.12508,-0.13757 0.22378,-0.28763 0.22381,-0.33763 0,-0.23764 2.1142,-2.48889 2.32681,-2.48889 0.1,0 0.17365,-0.0629 0.17365,-0.12541 0,-0.075 0.13746,-0.18635 0.31256,-0.24888 0.16259,-0.0625 0.52553,-0.26287 0.80069,-0.43797 0.77545,-0.47528 2.24023,-1.02612 3.40339,-1.26374 0.41901,-0.0813 0.77629,-0.13068 1.21551,-0.15241 z m -19.78568,0.18135 c 0.47098,-0.0254 0.93647,0.0418 1.33513,0.21031 0.76294,0.3252 1.17573,0.67685 1.45089,1.25216 0.23763,0.50029 0.24896,0.76234 0.27396,4.77711 0,2.33884 0.0129,4.57659 0,4.96427 l -0.01,0.72545 h -2.94036 -2.94036 v -4.94112 c 0,-5.39057 0.0135,-5.48887 0.71387,-6.13925 0.53157,-0.50808 1.33152,-0.80678 2.1165,-0.84893 z m 41.02032,0.0849 c 0.67538,0.0375 1.02591,0.12528 1.55121,0.41289 0.40024,0.21261 0.78773,0.56315 0.98784,0.85085 l 0.32608,0.50164 0.0366,5.03951 0.0386,5.03951 h -3.14103 -3.12751 v -4.9006 c 0,-4.74022 0.0129,-4.91651 0.2624,-5.45432 0.47526,-0.97555 1.66499,-1.55202 3.06577,-1.48948 z m -55.07191,14.36801 c 0.72855,-0.0345 1.56114,0.0159 2.20527,0.16593 1.51337,0.36269 2.6504,1.11495 3.15067,2.10301 0.27516,0.52531 0.26331,0.0489 0.25082,8.1786 l -0.0113,4.4144 h -1.52614 l -1.53965,-0.0136 -0.75051,-0.48814 c -0.40021,-0.27516 -1.08839,-0.62358 -1.52614,-0.77368 -0.43777,-0.16257 -0.78718,-0.32427 -0.78718,-0.37428 0,-0.0501 0.11125,-0.31233 0.24888,-0.57497 0.1751,-0.32518 0.26347,-0.78887 0.301,-1.41422 0.0252,-0.51278 0.112,-1.37714 0.18714,-1.92744 0.0875,-0.56284 0.12528,-1.27432 0.0754,-1.62454 -0.0501,-0.3502 -0.10025,-1.15165 -0.1254,-1.80202 -0.0751,-1.81355 -0.37539,-2.76413 -1.50107,-4.66521 -0.35017,-0.60035 -0.38738,-0.73738 -0.2373,-0.86243 0.23138,-0.18762 0.85739,-0.30709 1.58594,-0.3415 z m 68.13374,0.13892 c 0.28568,-0.0171 0.57595,-0.0165 0.86628,0.004 0.33182,0.0235 0.66532,0.072 0.99363,0.14856 1.53839,0.3627 2.78687,1.33611 3.11206,2.41172 0.1,0.31269 0.1505,1.46397 0.1505,3.10242 v 2.61622 l -0.26239,-0.40131 c -0.13757,-0.22513 -0.41335,-0.4874 -0.58846,-0.57495 -0.18757,-0.1 -0.88641,-0.48821 -1.54929,-0.87594 -1.35077,-0.80045 -1.7388,-0.86326 -2.61428,-0.46305 -0.30018,0.13758 -0.64955,0.25083 -0.7621,0.25083 -0.12509,0 -0.47545,0.17423 -0.7756,0.39937 -0.65037,0.45025 -1.56415,0.58785 -2.42717,0.36273 l -0.52478,-0.15049 v -1.88885 c 0,-1.06311 0.061,-2.08833 0.14857,-2.36349 0.43089,-1.44595 2.23325,-2.4571 4.23303,-2.57764 z m 14.4644799,0.01 h 0.002 c 0.67227,0.033 1.34359,0.14326 1.80009,0.31835 0.92556,0.35022 1.65078,0.88731 2.07601,1.5377 l 0.35115,0.51322 0.0113,2.57569 c 0.0129,1.41331 7.7e-4,2.45185 -0.0366,2.30175 -0.1,-0.48778 -0.35116,-0.58808 -1.0766,-0.43796 -1.0506,0.21257 -2.15159,-0.17469 -2.63938,-0.91259 -0.17508,-0.27516 -0.26292,-0.30079 -0.82576,-0.22575 -0.42524,0.0501 -0.78719,0.0129 -1.14991,-0.12541 -0.30016,-0.11263 -0.9622299,-0.22479 -1.4875499,-0.2373 -0.87546,-0.0375 -0.988,-0.0129 -1.40071,0.31255 l -0.46305,0.35113 v -1.65152 c 0,-1.42581 0.0373,-1.73763 0.2624,-2.18791 0.43776,-0.91302 1.415,-1.61398 2.7782799,-1.98918 0.45653,-0.13135 1.1259,-0.17557 1.79818,-0.14277 z m 11.75564,0.0906 c 0.0955,0.0516 -0.0337,0.25906 -0.35885,0.64054 -0.50029,0.58784 -0.57507,0.75131 -0.62511,1.38916 -0.1,1.17569 -1.00133,2.17459 -2.06444002,2.24964 -0.3502,0.025 -0.35027,0.0112 -0.38781,-0.71388 -0.075,-1.38827 0.83782002,-2.61318 2.43872002,-3.27606 0.58159,-0.23765 0.90212,-0.34101 0.99749,-0.2894 z m -39.4825999,1.30039 c 1.0506,0 1.27606,0.0376 1.91394,0.36272 1.2632,0.61285 1.21357,0.37492 1.21357,5.96562 0,4.55261 -0.0131,4.86628 -0.25082,5.37907 -0.10863,0.23714 -0.18408,0.59004 -0.21801,0.89523 a 10.937218,7.7886251 0 0 0 -5.7862,-2.04128 v -3.55775 c 0,-6.36615 -0.0621,-6.02804 1.21358,-6.64089 0.63787,-0.32518 0.86333,-0.36272 1.91394,-0.36272 z m -40.49745,0.0771 c 0.87548,0.013 1.33808,0.0759 1.71326,0.25082 0.28767,0.12508 0.51323,0.30025 0.51323,0.3878 0,0.23765 -1.08881,1.03755 -1.67663,1.22515 -0.26266,0.0875 -0.7001,0.12437 -0.96275,0.0869 -0.43775,-0.0625 -0.52455,-0.0127 -1.14991,0.58845 l -0.68877,0.6367 -0.15049,1.12675 c -0.075,0.61286 -0.1873,2.18856 -0.23733,3.50181 -0.075,1.6009 -0.16333,2.50303 -0.27591,2.7532 -0.1501,0.32515 -0.17471,-0.2024 -0.21221,-4.42983 -0.0251,-5.21545 -0.0366,-5.12662 0.66371,-5.58938 0.62535,-0.41275 1.23806,-0.55081 2.4638,-0.5383 z"
       id="path4" /><path
       inkscape:connector-curvature="0"
       style="fill:#dc0067"
       d="m -175.41136,879.42485 c -38.78095,0 -70.2218,32.06847 -70.2218,71.57718 0,39.50872 31.44085,71.57477 70.2218,71.57477 38.78094,0 70.2242,-32.06605 70.2242,-71.57477 0,-39.50871 -31.44326,-71.57718 -70.2242,-71.57718 z m 0,1.98 c 37.68997,0 68.24419,31.13802 68.24419,69.59718 0,38.45914 -30.55422,69.59477 -68.24419,69.59477 -37.68997,0 -68.24179,-31.13563 -68.24179,-69.59477 0,-38.45916 30.55182,-69.59718 68.24179,-69.59718 z"
       id="path6-4" /><path
       inkscape:connector-curvature="0"
       style="fill:#dc0067"
       d="m -52.119862,838.40647 c -41.81977,0 -75.727728,34.49668 -75.727728,77.00353 0,42.50798 33.907958,77.00351 75.727728,77.00351 41.81864,0 75.72533,-34.49553 75.72533,-77.00351 0,-42.50685 -33.90669,-77.00353 -75.72533,-77.00353 z m 0,1.98242 c 40.72896,0 73.7429,33.56759 73.7429,75.02111 0,41.4547 -33.01394,75.0211 -73.7429,75.0211 -40.73015,0 -73.745308,-33.5664 -73.745308,-75.0211 0,-41.45352 33.015158,-75.02111 73.745308,-75.02111 z"
       id="path8-7" /><path
       inkscape:connector-curvature="0"
       style="fill:#dc0067"
       d="m -52.440622,811.294 c -56.937598,0 -103.158538,46.70647 -103.158538,104.116 0,57.40952 46.22094,104.116 103.158538,104.116 56.9376099,0 103.15854,-46.70648 103.15854,-104.116 0,-57.40953 -46.2209301,-104.116 -103.15854,-104.116 z m 0,10.76105 c 51.0652199,0 92.39749,41.70442 92.39749,93.35495 0,51.65052 -41.3322701,93.3549 -92.39749,93.3549 -51.065198,0 -92.397478,-41.70438 -92.397478,-93.3549 0,-51.65053 41.33228,-93.35495 92.397478,-93.35495 z"
       id="path10" /><path
       inkscape:connector-curvature="0"
       style="fill:#ffb400"
       d="m -193.32598,957.1126 h -15.43382 l 12.34636,11.70312 h -24.69388 v 11.70313 h 24.69388 l -12.34636,11.70313 h 15.43382 l 18.52012,-17.55528 z"
       id="path12-9" /><path
       inkscape:connector-curvature="0"
       style="fill:#ffb400"
       d="m -13.013972,936.68991 -19.36811,-20.04515 H 9.5825479 V 896.6008 H -32.382082 l 19.36811,-20.04513 h -25.82376 l -29.05219,30.06711 29.05219,30.06713 z"
       id="path14" /><path
       inkscape:connector-curvature="0"
       style="fill:#000000"
       d="m -241.62266,1072.8898 -4.15039,-28.8086 h 6.39648 l 1.3916,14.2578 q 0.1709,1.6114 0.26856,3.5401 0.0976,1.9043 0.14648,4.1015 h 0.19532 q 0.0488,-2.3681 0.17089,-4.541 0.14649,-2.1972 0.31739,-4.0283 l 1.29394,-13.3301 h 6.00586 l -4.15039,28.8086 z"
       id="path16" /><path
       inkscape:connector-curvature="0"
       style="fill:#000000"
       d="m -222.79942,1049.6476 v 17.4317 q 0,0.9521 0.26855,1.3672 0.26856,0.3906 0.87891,0.3906 0.61035,0 0.87891,-0.3906 0.26855,-0.4151 0.26855,-1.3672 v -17.4317 q 0,-0.9277 -0.29297,-1.3427 -0.26855,-0.4151 -0.90332,-0.4151 -0.58593,0 -0.85449,0.3907 -0.24414,0.3906 -0.24414,1.3671 z m -6.39648,1.9532 q 0,-4.4678 1.73339,-6.3233 1.75782,-1.8799 5.76172,-1.8799 4.00391,0 5.73731,1.8799 1.75781,1.8555 1.75781,6.3233 v 13.7939 q 0,4.4434 -1.75781,6.3233 -1.7334,1.8798 -5.73731,1.8798 -4.0039,0 -5.76172,-1.8798 -1.73339,-1.8799 -1.73339,-6.3233 z"
       id="path18" /><path
       inkscape:connector-curvature="0"
       style="fill:#000000"
       d="m -205.95372,1062.8312 q 0,1.001 0.24414,1.3916 0.26856,0.3662 0.90332,0.3662 0.58594,0 0.8545,-0.415 0.29296,-0.4394 0.29296,-1.3428 v -12.5 q 0,-0.8789 -0.29296,-1.2695 -0.26856,-0.415 -0.8545,-0.415 -0.63476,0 -0.90332,0.3662 -0.24414,0.3418 -0.24414,1.3183 z m 2.29492,3.711 h -0.0977 q -0.68359,1.6113 -1.80664,2.417 -1.09863,0.7812 -2.68554,0.7812 -2.09961,0 -3.07617,-1.1474 -0.97657,-1.1719 -0.97657,-3.711 v -16.8457 q 0,-2.1728 1.04981,-3.3203 1.0498,-1.1719 3.05176,-1.1719 1.51367,0 2.6123,0.708 1.09863,0.708 1.92871,2.2461 h 0.14649 v -2.417 h 6.20117 v 27.0996 q 0,4.5166 -1.7334,6.3477 -1.7334,1.8555 -5.76172,1.8555 -3.56445,0 -5.54199,-1.7334 -1.95313,-1.709 -1.95313,-4.8096 v -2.1973 h 6.34766 v 2.2461 q 0,0.9522 0.26855,1.3428 0.26856,0.415 0.87891,0.415 0.61035,0 0.87891,-0.415 0.26855,-0.415 0.26855,-1.3428 v -6.3476 z"
       id="path20-1" /><path
       inkscape:connector-curvature="0"
       style="fill:#000000"
       d="m -196.21251,1048.6955 v -4.6143 h 1.61133 v -5.3466 h 6.39649 v 5.3466 h 1.85547 v 4.6143 h -1.85547 v 17.5049 q 0,1.3427 0.31738,1.709 0.3418,0.3418 1.31836,0.3418 h 0.21973 v 4.6386 h -4.00391 q -2.31934,0 -3.2959,-1.0498 -0.95215,-1.0742 -0.95215,-4.0039 v -19.1406 z"
       id="path22" /><path
       inkscape:connector-curvature="0"
       style="fill:#000000"
       d="m -185.25059,1072.8898 v -36.0107 h 6.34765 v 36.0107 z"
       id="path24" /><path
       inkscape:connector-curvature="0"
       style="fill:#000000"
       d="m -168.16075,1066.3957 v -7.6416 q -0.14648,0.098 -0.39062,0.293 -1.9043,1.4648 -1.9043,2.5878 v 4.7608 q 0,0.9766 0.24414,1.3428 0.26856,0.3418 0.90332,0.3418 0.58594,0 0.85449,-0.3907 0.29297,-0.415 0.29297,-1.2939 z m -8.6914,-16.4063 q 0,-3.2714 1.87988,-4.9316 1.9043,-1.6602 5.61523,-1.6602 4.05274,0 5.76172,1.8555 1.7334,1.8311 1.7334,6.3477 v 17.5293 q 0,1.1474 0.0977,2.0507 0.12207,0.879 0.36621,1.709 h -6.44531 q -0.12208,-0.5127 -0.19531,-1.0254 -0.0732,-0.5371 -0.0732,-0.9765 v -0.4395 h -0.0977 q -0.6836,1.416 -1.85547,2.1729 -1.14746,0.7568 -2.68555,0.7568 -2.02637,0 -3.07617,-1.2207 -1.02539,-1.2207 -1.02539,-3.6133 v -6.1035 q 0,-2.2705 0.80566,-3.6865 0.83008,-1.4404 2.63672,-2.417 0.58594,-0.3174 1.66016,-0.8545 3.58886,-1.8311 3.58886,-3.4912 v -2.0508 q 0,-0.9277 -0.29296,-1.3428 -0.26856,-0.415 -0.90332,-0.415 -0.58594,0 -0.8545,0.415 -0.24414,0.4151 -0.24414,1.3428 v 4.1992 h -6.39648 v -4.1504 z"
       id="path26" /><path
       inkscape:connector-curvature="0"
       style="fill:#000000"
       d="m -159.76231,1072.8898 v -28.8086 h 6.25 v 2.417 h 0.0977 q 0.80566,-1.5136 1.92871,-2.2217 1.12305,-0.7324 2.6123,-0.7324 2.0752,0 3.1006,1.2451 1.0498,1.2207 1.0498,3.6622 v 24.4384 h -6.39649 v -22.3388 q 0,-1.001 -0.26855,-1.3428 -0.24414,-0.3662 -0.87891,-0.3662 -0.58594,0 -0.87891,0.415 -0.26855,0.4151 -0.26855,1.294 v 22.3388 h -6.34766 z"
       id="path28" /><path
       inkscape:connector-curvature="0"
       style="fill:#000000"
       d="m -127.77989,1072.8898 h -6.25 v -2.4902 h -0.0977 q -0.63476,1.5869 -1.78223,2.3926 -1.12304,0.8056 -2.75878,0.8056 -2.0752,0 -3.10059,-1.1963 -1.00097,-1.2207 -1.00097,-3.6621 v -20.288 q 0,-2.4659 1.02539,-3.6866 1.02539,-1.2207 3.07617,-1.2207 1.51367,0 2.61231,0.7324 1.09863,0.7325 1.83105,2.2217 h 0.0977 v -9.6191 h 6.34766 v 36.0107 z m -8.64257,-6.2988 q 0,1.001 0.24414,1.3916 0.26855,0.3662 0.90332,0.3662 0.58593,0 0.85449,-0.4394 0.29297,-0.4395 0.29297,-1.3184 v -16.04 q 0,-0.8789 -0.29297,-1.294 -0.26856,-0.415 -0.85449,-0.415 -0.63477,0 -0.90332,0.3662 -0.24414,0.3418 -0.24414,1.3428 z"
       id="path30-2" /><path
       inkscape:connector-curvature="0"
       style="fill:#000000"
       d="m -125.28965,1072.8898 v -7.3486 h 6.6162 v 7.3486 z"
       id="path32-6" /><path
       inkscape:connector-curvature="0"
       style="fill:#000000"
       d="m -115.20665,1072.8898 v -24.2431 h -1.5625 v -4.5655 h 1.5625 v -2.7343 q 0,-2.0996 1.26954,-3.2715 1.26953,-1.1963 3.54004,-1.1963 h 3.58886 v 4.5166 q -1.12305,0 -1.58691,0.2685 -0.46386,0.2442 -0.46386,0.8789 v 1.5381 h 2.05077 v 4.5655 h -2.05077 v 24.2431 z"
       id="path34" /><path
       inkscape:connector-curvature="0"
       style="fill:#000000"
       d="m -105.66075,1072.8898 v -28.8086 h 6.249998 v 2.417 h 0.0976 q 0.80566,-1.5136 1.9287,-2.2217 1.12305,-0.7324 2.61231,-0.7324 2.07519,0 3.10059,1.2451 1.0498,1.2207 1.0498,3.6622 v 11.1328 h -6.39649 v -9.0332 q 0,-1.001 -0.26855,-1.3428 -0.24414,-0.3662 -0.87891,-0.3662 -0.58594,0 -0.8789,0.415 -0.26855,0.4151 -0.26855,1.294 v 22.3388 h -6.347658 z"
       id="path36-8" /><path
       inkscape:connector-curvature="0"
       style="fill:#000000"
       d="m -81.832622,1049.6476 v 5.4444 h 2.29492 v -5.4444 q 0,-0.9521 -0.26856,-1.3427 -0.26855,-0.4151 -0.8789,-0.4151 -0.61035,0 -0.87891,0.4151 -0.26855,0.3906 -0.26855,1.3427 z m 0,17.4317 q 0,0.9521 0.26855,1.3672 0.26856,0.3906 0.87891,0.3906 0.61035,0 0.8789,-0.3906 0.26856,-0.4151 0.26856,-1.3672 v -5.3955 h 6.34765 v 5.3467 q 0,3.125 -1.97753,4.8584 -1.95313,1.7089 -5.51758,1.7089 -4.02832,0 -5.76172,-1.8554 -1.73339,-1.8555 -1.73339,-6.3477 v -13.7939 q 0,-4.541 1.70897,-6.3721 1.70899,-1.8311 5.73732,-1.8311 3.54003,0 5.54198,1.6602 2.00195,1.6357 2.00195,4.541 v 9.7901 h -8.64257 z"
       id="path38" /><path
       inkscape:connector-curvature="0"
       style="fill:#000000"
       d="m -71.188102,1072.8898 v -28.8086 h 6.34767 v 28.8086 z m 0,-30.542 v -5.4687 h 6.34767 v 5.4687 z"
       id="path40" /><path
       inkscape:connector-curvature="0"
       style="fill:#000000"
       d="m -61.691022,1072.8898 v -24.2431 h -1.5625 v -4.5655 h 1.5625 v -2.7343 q 0,-2.0996 1.26954,-3.2715 1.26952,-1.1963 3.54003,-1.1963 h 3.58887 v 4.5166 q -1.12305,0 -1.58692,0.2685 -0.46386,0.2442 -0.46386,0.8789 v 1.5381 h 2.05078 v 4.5655 h -2.05078 v 24.2431 z"
       id="path42" /><path
       inkscape:connector-curvature="0"
       style="fill:#000000"
       d="m -37.106062,1044.0812 v 28.8086 h -6.25 v -2.3925 h -0.14649 q -0.80566,1.4892 -1.9043,2.1972 -1.07421,0.6836 -2.58788,0.6836 -2.07519,0 -3.125,-1.1963 -1.02539,-1.2207 -1.02539,-3.6377 v -24.4629 h 6.34765 v 22.3633 q 0,0.9522 0.26856,1.3184 0.29296,0.3662 0.92774,0.3662 0.58594,0 0.83007,-0.3906 0.26855,-0.3907 0.26855,-1.294 v -22.3633 z"
       id="path44" /><path
       inkscape:connector-curvature="0"
       style="fill:#000000"
       d="m -35.055282,1072.8898 v -28.8086 h 6.25 v 2.417 h 0.0976 q 0.80566,-1.5136 1.92871,-2.2217 1.12305,-0.7324 2.6123,-0.7324 2.0752,0 3.10059,1.2451 1.0498,1.2207 1.0498,3.6622 v 24.4384 h -6.39647 v -22.3388 q 0,-1.001 -0.26857,-1.3428 -0.24413,-0.3662 -0.8789,-0.3662 -0.58593,0 -0.87891,0.415 -0.26851,0.4151 -0.26851,1.294 v 22.3388 h -6.34766 z"
       id="path46" /><path
       inkscape:connector-curvature="0"
       style="fill:#000000"
       d="m -17.965432,1072.8898 v -36.0107 h 6.34765 v 19.751 h 0.0976 l 2.7099599,-12.5489 h 6.49414 l -3.14941,12.4512 3.14941,16.3574 h -6.68945 l -2.5146499,-15.0879 h -0.0976 v 15.0879 z"
       id="path48" /><path
       inkscape:connector-curvature="0"
       style="fill:#000000"
       d="m -1.0709121,1072.8898 v -7.3486 h 6.61621 v 7.3486 z"
       id="path50" /><path
       inkscape:connector-curvature="0"
       style="fill:#000000"
       d="m 8.0111279,1072.8898 v -28.8086 h 6.2500001 v 2.417 h 0.0976 q 0.80568,-1.5136 1.92872,-2.2217 1.12305,-0.7324 2.61231,-0.7324 2.07519,0 3.10059,1.2451 1.0498,1.2207 1.0498,3.6622 v 24.4384 h -6.39649 v -22.3388 q 0,-1.001 -0.26855,-1.3428 -0.24414,-0.3662 -0.87891,-0.3662 -0.58594,0 -0.8789,0.415 -0.26857,0.4151 -0.26857,1.294 v 22.3388 H 8.0110779 Z"
       id="path52-2" /><path
       inkscape:connector-curvature="0"
       style="fill:#000000"
       d="m 31.350968,1049.6476 v 5.4444 h 2.29492 v -5.4444 q 0,-0.9521 -0.26855,-1.3427 -0.26856,-0.4151 -0.87891,-0.4151 -0.61035,0 -0.8789,0.4151 -0.26856,0.3906 -0.26856,1.3427 z m 0,17.4317 q 0,0.9521 0.26856,1.3672 0.26855,0.3906 0.8789,0.3906 0.61035,0 0.87891,-0.3906 0.26855,-0.4151 0.26855,-1.3672 v -5.3955 h 6.34766 v 5.3467 q 0,3.125 -1.97753,4.8584 -1.95313,1.7089 -5.51759,1.7089 -4.02831,0 -5.76171,-1.8554 -1.7334,-1.8555 -1.7334,-6.3477 v -13.7939 q 0,-4.541 1.70898,-6.3721 1.70898,-1.8311 5.7373,-1.8311 3.54004,0 5.54199,1.6602 2.00196,1.6357 2.00196,4.541 v 9.7901 h -8.64258 z"
       id="path54-3" /><path
       inkscape:connector-curvature="0"
       style="fill:#000000"
       d="m 40.994528,1048.6955 v -4.6143 h 1.61132 v -5.3466 h 6.39649 v 5.3466 h 1.85546 v 4.6143 h -1.85546 v 17.5049 q 0,1.3427 0.31738,1.709 0.3418,0.3418 1.31836,0.3418 h 0.21972 v 4.6386 h -4.0039 q -2.31933,0 -3.2959,-1.0498 -0.95215,-1.0742 -0.95215,-4.0039 v -19.1406 z"
       id="path56-0" /></g></svg>