<?xml version="1.0" encoding="UTF-8" standalone="no"?>
<svg
   xmlns:dc="http://purl.org/dc/elements/1.1/"
   xmlns:cc="http://creativecommons.org/ns#"
   xmlns:rdf="http://www.w3.org/1999/02/22-rdf-syntax-ns#"
   xmlns:svg="http://www.w3.org/2000/svg"
   xmlns="http://www.w3.org/2000/svg"
   xmlns:sodipodi="http://sodipodi.sourceforge.net/DTD/sodipodi-0.dtd"
   xmlns:inkscape="http://www.inkscape.org/namespaces/inkscape"
   width="100%"
   height="100%"
   viewBox="0 0 7112 6389"
   version="1.1"
   xml:space="preserve"
   style="fill-rule:evenodd;clip-rule:evenodd;stroke-linecap:round;stroke-linejoin:round;stroke-miterlimit:1.41421;"
   id="svg156"
   sodipodi:docname="-2144819947.svg"
   inkscape:version="0.92.2 (5c3e80d, 2017-08-06)"><metadata
     id="metadata162"><rdf:RDF><cc:Work
         rdf:about=""><dc:format>image/svg+xml</dc:format><dc:type
           rdf:resource="http://purl.org/dc/dcmitype/StillImage" /></cc:Work></rdf:RDF></metadata><defs
     id="defs160" /><sodipodi:namedview
     pagecolor="#ffffff"
     bordercolor="#666666"
     borderopacity="1"
     objecttolerance="10"
     gridtolerance="10"
     guidetolerance="10"
     inkscape:pageopacity="0"
     inkscape:pageshadow="2"
     inkscape:window-width="2736"
     inkscape:window-height="1719"
     id="namedview158"
     showgrid="false"
     inkscape:zoom="0.35724072"
     inkscape:cx="1502.4979"
     inkscape:cy="1461.8898"
     inkscape:window-x="-13"
     inkscape:window-y="-13"
     inkscape:window-maximized="1"
     inkscape:current-layer="svg156" /><g
     transform="matrix(5.55556,0,0,5.55556,-0,-0)"
     id="g154"><g
       id="Antennen"
       transform="matrix(1,0,0,1,0,175)"><g
         id="Antenne Links"
         transform="matrix(1,0,0,1,-84.2542,82.2321)"><g
           transform="matrix(1,0,0,1,0,-175)"
           id="g4"><path
             d="M203.453,70.788C205.015,73.562 227.22,67.242 230.549,63.801L229.271,65.541C229.273,65.552 230.184,69.762 229.9,69.182L231.502,68.518C228.242,72.289 209.825,78.123 204.451,75.952L206.598,76.289C206.598,73.814 205.813,73.911 205.813,71.733"
             style="fill:rgb(51,51,51);stroke-width:4.5px;stroke:black;"
             id="path2" /></g><g
           transform="matrix(2.01999,0,0,2.067,-605.16,-358.194)"
           id="g8"><path
             d="M400.247,122.805C400.173,121.923 396.634,107.112 397.514,104.982C398.44,102.739 400.737,101.614 403.097,101.235C405.315,100.878 407.965,100.915 409.533,103.017C411.183,105.23 413.579,118.811 413.702,119.408C409.31,121.972 404.818,123.219 400.199,122.817"
             style="fill:rgb(51,51,51);stroke-width:2.2px;stroke:black;"
             id="path6" /></g><g
           transform="matrix(1,0,0,1,0,-175)"
           id="g12"><path
             d="M334.177,691.561C313.065,595.614 250.901,357.426 250.284,338.969C249.886,327.06 246.72,305.189 243.694,284.795C232.318,208.129 208.205,94.706 204.542,77.172C214.483,76.233 223.942,74.299 231.654,68.748L231.622,68.639C232.891,73.493 239.854,109.39 250.793,155.166C271.017,239.801 301.785,359.762 313.787,390.711C330.69,434.297 384.513,668.297 388.207,682.768C381.344,683.655 345.191,689.606 334.004,691.761"
             style="fill:rgb(51,51,51);stroke-width:4.5px;stroke:black;"
             id="path10" /></g></g><g
         id="Antenne mitte"
         transform="matrix(0.97356,0.22843,-0.22843,0.97356,417.799,16.0427)"><g
           transform="matrix(1,0,0,1,0,-175)"
           id="g17"><path
             d="M203.453,70.788C205.015,73.562 227.22,67.242 230.549,63.801L229.271,65.541C229.273,65.552 230.184,69.762 229.9,69.182L231.502,68.518C228.242,72.289 209.825,78.123 204.451,75.952L206.598,76.289C206.598,73.814 205.813,73.911 205.813,71.733"
             style="fill:rgb(51,51,51);stroke-width:4.5px;stroke:black;"
             id="path15" /></g><g
           transform="matrix(2.01999,0,0,2.067,-605.16,-358.194)"
           id="g21"><path
             d="M400.247,122.805C400.173,121.923 396.634,107.112 397.514,104.982C398.44,102.739 400.737,101.614 403.097,101.235C405.315,100.878 407.965,100.915 409.533,103.017C411.183,105.23 413.579,118.811 413.702,119.408C409.31,121.972 404.818,123.219 400.199,122.817"
             style="fill:rgb(51,51,51);stroke-width:2.2px;stroke:black;"
             id="path19" /></g><g
           transform="matrix(1,0,0,1,0,-175)"
           id="g25"><path
             d="M334.177,691.561C313.065,595.614 250.901,357.426 250.284,338.969C249.886,327.06 246.72,305.189 243.694,284.795C232.318,208.129 208.205,94.706 204.542,77.172C214.483,76.233 223.942,74.299 231.654,68.748L231.622,68.639C232.891,73.493 239.854,109.39 250.793,155.166C271.017,239.801 301.785,359.762 313.787,390.711C330.69,434.297 384.513,668.297 388.207,682.768C381.344,683.655 345.191,689.606 334.004,691.761"
             style="fill:rgb(51,51,51);stroke-width:4.5px;stroke:black;"
             id="path23" /></g></g><g
         id="Antenne Rechts"
         transform="matrix(1,0,0,1,102.921,78.172)"><g
           transform="matrix(2.01999,0,0,2.067,-605.16,-358.194)"
           id="g30"><path
             d="M825.993,126.38C821.824,126.336 818.276,125.279 815.223,123.412C815.269,123.051 817.745,111.671 819.129,107.12C819.349,106.394 820.681,104.068 823.357,104.709C824.199,104.911 826.921,105.331 827.875,105.986C829.704,107.244 829.633,109.036 829.615,109.499C829.327,116.928 825.993,126.714 825.993,126.38Z"
             style="fill:rgb(51,51,51);stroke-width:2.2px;stroke:black;"
             id="path28" /></g><g
           transform="matrix(1,0,0,1,0,-175)"
           id="g34"><path
             d="M1062.23,84.228C1062.55,84.168 1045.31,81.921 1040,76.976L1041.51,76.886C1041.61,76.886 1042.72,74.109 1042.84,73.98L1041.55,71.98C1053.14,78.617 1063.13,78.462 1063.12,78.462L1061.23,78.616C1061.02,79.401 1059.74,81.837 1059.74,82.8"
             style="fill:rgb(51,51,51);stroke-width:4.5px;stroke:black;"
             id="path32" /></g><g
           transform="matrix(1,0,0,1,0,-175)"
           id="g38"><path
             d="M884.619,682.128C901.439,684.479 918.439,687.212 935.65,690.395C937.436,674.43 1007.15,387.839 1009,373.226C1013.43,338.35 1013.21,313.982 1029.13,232.748C1045.72,148.073 1058.5,100.965 1062.1,84.821C1049.88,82.468 1043.33,79.986 1040.12,77.427L1039.96,77.139C1039.73,78.056 1001.47,250.116 980.715,299.43C959.261,350.404 884.716,681.962 884.533,681.649"
             style="fill:rgb(51,51,51);stroke-width:4.5px;stroke:black;"
             id="path36" /></g></g></g><g
       id="Gummifüsse"><path
         d="M1026.03,942.664C1030.2,951.384 1060.63,951.948 1064.43,942.664"
         style="fill:black;stroke-width:2px;stroke:black;"
         id="path42" /><g
         transform="matrix(1,0,0,1,-804.571,0.649703)"
         id="g46"><path
           d="M1026.03,942.664C1030.2,951.384 1060.63,951.948 1064.43,942.664"
           style="fill:black;stroke-width:2px;stroke:black;"
           id="path44" /></g></g><g
       id="front"><path
         d="M126.714,786.596L1152.97,786.596L1149.44,917.503C1148.05,934.704 1141.53,943.026 1128.26,942.664L155.302,942.664C144.457,942.017 136.489,935.842 134.853,917.503L126.714,786.596Z"
         style="fill:rgb(51,51,51);stroke-width:3px;stroke:black;"
         id="path49" /><path
         d="M126.41,754.755L1152.96,754.755L1152.96,786.608L1075.45,786.608L1075.45,880.661C1075.82,897.216 1066.32,904.235 1048.62,903.354L230.191,903.354C216.297,904.024 208.551,896.721 207.556,880.661L207.556,786.608L126.41,786.608L126.41,754.755"
         style="fill:white;stroke-width:3px;stroke:black;"
         id="path51" /><path
         d="M218.768,786.608L1063.33,786.608L1063.33,878.202C1063.57,885.371 1060.57,889.646 1052.79,889.376L229.175,889.376C222.537,889.431 219.151,883.334 218.768,878.202L218.768,786.608Z"
         style="fill:rgb(51,51,51);stroke-width:3px;stroke:black;"
         id="path53" /></g><g
       id="Frontbeschriftung und tasten"><path
         d="M859.005,845.007C859.005,841.198 855.912,838.105 852.103,838.105L271.361,838.105C267.552,838.105 264.46,841.198 264.46,845.007L264.46,858.811C264.46,862.62 267.552,865.712 271.361,865.712L852.103,865.712C855.912,865.712 859.005,862.62 859.005,858.811L859.005,845.007Z"
         style="fill:none;stroke-width:4px;stroke:white;"
         id="path56" /><g
         transform="matrix(0.12918,0,0,1,843.761,-0.0196391)"
         id="g60"><path
           d="M859.005,845.007C859.005,841.198 835.065,838.105 805.577,838.105L317.887,838.105C288.4,838.105 264.46,841.198 264.46,845.007L264.46,858.811C264.46,862.62 288.4,865.712 317.887,865.712L805.577,865.712C835.065,865.712 859.005,862.62 859.005,858.811L859.005,845.007Z"
           style="fill:none;stroke-width:5.61px;stroke:white;"
           id="path58" /></g><path
         d="M1004.86,816.796C1004.86,811.544 1000.59,807.28 995.342,807.28L940.911,807.28C935.659,807.28 931.395,811.544 931.395,816.796L931.395,870.963C931.395,876.215 935.659,880.479 940.911,880.479L995.342,880.479C1000.59,880.479 1004.86,876.215 1004.86,870.963L1004.86,816.796Z"
         style="fill:rgb(41,172,55);stroke-width:2px;stroke:rgb(41,172,55);"
         id="path62" /><g
         id="leds anzeige"
         transform="matrix(0.686376,0,0,0.686376,339.248,170.869)"><g
           id="power"
           transform="matrix(1,0,0,1,0.117054,-1.87812)"><path
             d="M437.904,985.138C429.191,985.177 428.351,1004.33 441.151,1004.67C454.95,1005.03 453.005,985.333 444.365,985.138"
             style="fill:none;stroke-width:4.37px;stroke:rgb(41,172,55);"
             id="path64" /><path
             d="M441.05,996.543L441.05,981.906"
             style="fill:none;stroke-width:4.37px;stroke:rgb(41,172,55);"
             id="path66" /></g><g
           transform="matrix(1,0,0,1,39.4157,-0.956412)"
           id="g71"><path
             d="M489.591,981.905L491.502,987.682L495.186,985.896L494.595,989.888L500.78,989.888L495.776,993.458L498.643,996.346L494.595,997.028L496.506,1002.81L491.502,999.235L489.591,1002.81L487.68,999.235L482.676,1002.81L484.587,997.028L480.539,996.346L483.406,993.458L478.402,989.888L484.587,989.888L483.996,985.896L487.68,987.682L489.591,981.905Z"
             style="fill:rgb(41,172,55);stroke-width:1.46px;stroke:rgb(41,172,55);"
             id="path69" /></g><g
           transform="matrix(1,0,0,1,164.247,-0.296384)"
           id="g79"><path
             d="M532.5,1001.56C535.537,998.5 538.583,999.103 541.634,1001.56"
             style="fill:none;stroke-width:4.37px;stroke:rgb(41,172,55);"
             id="path73" /><path
             d="M529.218,994.65C534.394,990.708 539.528,990.83 544.623,994.65"
             style="fill:none;stroke-width:4.37px;stroke:rgb(41,172,55);"
             id="path75" /><path
             d="M526.539,988.847C533.32,983.95 540.233,983.383 547.33,988.847"
             style="fill:none;stroke-width:4.37px;stroke:rgb(41,172,55);"
             id="path77" /></g><g
           transform="matrix(1,0,0,1,-18.429,-1.80016)"
           id="g85"><path
             d="M626.349,996.053L623.073,996.053L623.073,985.75L641.216,985.75L641.216,996.053L638.183,996.053"
             style="fill:none;stroke-width:4.37px;stroke:rgb(41,172,55);"
             id="path81" /><path
             d="M626.295,1003.22L637.337,1003.22L632.352,1003.22L632.352,995.421"
             style="fill:none;stroke-width:4.37px;stroke:rgb(41,172,55);"
             id="path83" /></g><g
           id="Lock"
           transform="matrix(1.45693,0,0,2.61113,-350.875,-1597.36)"><g
             transform="matrix(1,0,0,1,0,96.2592)"
             id="g89"><rect
               x="803.72"
               y="895.022"
               width="12.343"
               height="4.453"
               style="fill:rgb(41,172,55);stroke-width:0.52px;stroke:rgb(41,172,55);"
               id="rect87" /></g><g
             transform="matrix(1,0,0,0.720904,-2.84217e-14,346.056)"
             id="g93"><path
               d="M805.459,895.022C805.495,890.478 813.687,890.502 813.741,895.022"
               style="fill:none;stroke-width:1.73px;stroke:rgb(41,172,55);"
               id="path91" /></g></g></g><g
         id="Beschriftung"
         transform="matrix(1,0,0,1,319.459,-218.417)"><g
           transform="matrix(1,0,0,1,-100.291,2.33659)"
           id="g145"><path
             d="M413.369,1041.62L413.369,1039.62C413.369,1039.42 413.334,1039.29 413.266,1039.23C413.198,1039.16 413.064,1039.13 412.865,1039.13L412.794,1039.13L412.794,1042.1L412.9,1042.1C413.08,1042.1 413.203,1042.07 413.269,1042C413.335,1041.93 413.369,1041.8 413.369,1041.62ZM411.066,1046.67L411.066,1038.03L413.081,1038.03C413.773,1038.03 414.28,1038.16 414.602,1038.41C414.924,1038.66 415.085,1039.06 415.085,1039.6L415.085,1041.44C415.085,1042.11 414.926,1042.59 414.608,1042.88C414.289,1043.16 413.753,1043.31 412.999,1043.31L412.794,1043.31L412.794,1046.67L411.066,1046.67Z"
             style="fill:white;fill-rule:nonzero;"
             id="path97" /><path
             d="M416.996,1041.1L416.996,1045.28C416.996,1045.43 417.017,1045.54 417.06,1045.61C417.103,1045.67 417.173,1045.7 417.271,1045.7C417.369,1045.7 417.439,1045.67 417.482,1045.61C417.525,1045.54 417.546,1045.43 417.546,1045.28L417.546,1041.1C417.546,1040.95 417.524,1040.84 417.479,1040.77C417.434,1040.71 417.361,1040.67 417.259,1040.67C417.165,1040.67 417.098,1040.71 417.057,1040.77C417.016,1040.83 416.996,1040.94 416.996,1041.1ZM415.46,1041.57C415.46,1040.85 415.6,1040.34 415.879,1040.05C416.159,1039.75 416.619,1039.6 417.259,1039.6C417.9,1039.6 418.36,1039.75 418.639,1040.05C418.918,1040.34 419.058,1040.85 419.058,1041.57L419.058,1044.88C419.058,1045.59 418.918,1046.09 418.639,1046.39C418.36,1046.69 417.9,1046.84 417.259,1046.84C416.619,1046.84 416.159,1046.69 415.879,1046.39C415.6,1046.09 415.46,1045.59 415.46,1044.88L415.46,1041.57Z"
             style="fill:white;fill-rule:nonzero;"
             id="path99" /><path
             d="M420.136,1046.67L419.193,1039.76L420.74,1039.76L421.027,1043.34C421.042,1043.57 421.054,1043.82 421.062,1044.09C421.07,1044.36 421.074,1044.65 421.074,1044.96L421.132,1044.96C421.148,1044.38 421.189,1043.82 421.255,1043.25C421.259,1043.21 421.263,1043.18 421.267,1043.16L421.648,1039.76L423.247,1039.76L423.558,1043.34C423.562,1043.38 423.571,1043.57 423.584,1043.93C423.598,1044.28 423.613,1044.63 423.628,1044.96L423.693,1044.96C423.716,1044.45 423.753,1043.92 423.804,1043.38C423.816,1043.27 423.822,1043.2 423.822,1043.17L424.132,1039.76L425.609,1039.76L424.578,1046.67L422.814,1046.67L422.527,1043.51C422.519,1043.41 422.509,1043.21 422.497,1042.92C422.486,1042.63 422.474,1042.29 422.462,1041.91L422.404,1041.91C422.384,1042.42 422.345,1042.91 422.287,1043.38L422.287,1043.4L421.876,1046.67L420.136,1046.67Z"
             style="fill:white;fill-rule:nonzero;"
             id="path101" /><path
             d="M427.232,1041.1L427.232,1042.4L427.783,1042.4L427.783,1041.1C427.783,1040.94 427.761,1040.84 427.718,1040.77C427.675,1040.71 427.605,1040.67 427.507,1040.67C427.41,1040.67 427.339,1040.71 427.296,1040.77C427.253,1040.84 427.232,1040.94 427.232,1041.1ZM427.232,1045.28C427.232,1045.43 427.253,1045.54 427.296,1045.61C427.339,1045.67 427.41,1045.7 427.507,1045.7C427.605,1045.7 427.675,1045.67 427.718,1045.61C427.761,1045.54 427.783,1045.43 427.783,1045.28L427.783,1043.99L429.306,1043.99L429.306,1045.27C429.306,1045.77 429.149,1046.16 428.834,1046.43C428.52,1046.71 428.078,1046.84 427.507,1046.84C426.863,1046.84 426.402,1046.7 426.124,1046.4C425.847,1046.1 425.708,1045.59 425.708,1044.88L425.708,1041.57C425.708,1040.84 425.845,1040.33 426.119,1040.04C426.392,1039.74 426.851,1039.6 427.496,1039.6C428.062,1039.6 428.505,1039.73 428.826,1039.99C429.146,1040.26 429.306,1040.62 429.306,1041.09L429.306,1043.43L427.232,1043.43L427.232,1045.28Z"
             style="fill:white;fill-rule:nonzero;"
             id="path103" /><path
             d="M429.787,1046.67L429.787,1039.76L431.287,1039.76L431.287,1040.34L431.31,1040.34C431.439,1040.1 431.593,1039.92 431.773,1039.8C431.953,1039.69 432.162,1039.63 432.4,1039.63C432.732,1039.63 432.981,1039.73 433.147,1039.93C433.313,1040.12 433.396,1040.42 433.396,1040.81L433.396,1043.48L431.861,1043.48L431.861,1041.31C431.861,1041.15 431.84,1041.05 431.799,1040.99C431.758,1040.93 431.687,1040.9 431.585,1040.9C431.492,1040.9 431.422,1040.94 431.377,1041C431.332,1041.07 431.31,1041.17 431.31,1041.31L431.31,1046.67L429.787,1046.67Z"
             style="fill:white;fill-rule:nonzero;"
             id="path105" /><path
             d="M469.777,1039.59C469.777,1039.03 469.954,1038.61 470.307,1038.3C470.661,1038 471.156,1037.84 471.792,1037.84C472.433,1037.84 472.927,1038 473.275,1038.3C473.622,1038.61 473.796,1039.05 473.796,1039.62L473.796,1041.03L472.08,1041.03L472.08,1039.5C472.08,1039.34 472.058,1039.23 472.015,1039.17C471.972,1039.11 471.898,1039.08 471.792,1039.08C471.683,1039.08 471.606,1039.11 471.561,1039.18C471.516,1039.24 471.494,1039.35 471.494,1039.5L471.494,1040.26C471.494,1040.39 471.51,1040.51 471.543,1040.6C471.577,1040.7 471.63,1040.79 471.705,1040.88L473.363,1042.7C473.519,1042.87 473.63,1043.05 473.697,1043.24C473.763,1043.42 473.796,1043.72 473.796,1044.13L473.796,1045.14C473.796,1045.69 473.621,1046.12 473.272,1046.42C472.922,1046.72 472.425,1046.87 471.781,1046.87C471.121,1046.87 470.621,1046.71 470.284,1046.4C469.946,1046.09 469.777,1045.63 469.777,1045.02L469.777,1043.4L471.494,1043.4L471.494,1045.14C471.494,1045.29 471.516,1045.39 471.561,1045.46C471.606,1045.53 471.683,1045.56 471.792,1045.56C471.894,1045.56 471.967,1045.53 472.012,1045.46C472.057,1045.4 472.08,1045.29 472.08,1045.14L472.08,1044.22C472.08,1044.1 472.057,1043.98 472.012,1043.88C471.967,1043.77 471.89,1043.65 471.781,1043.53L470.222,1041.76C470.062,1041.59 469.948,1041.4 469.879,1041.22C469.811,1041.04 469.777,1040.8 469.777,1040.49L469.777,1040.36L469.777,1039.59Z"
             style="fill:white;fill-rule:nonzero;"
             id="path107" /><path
             d="M476.738,1046.72C476.648,1047.31 476.502,1047.71 476.301,1047.92C476.1,1048.13 475.773,1048.23 475.32,1048.23L474.025,1048.23L474.025,1047.12L474.675,1047.12C474.777,1047.12 474.85,1047.1 474.895,1047.07C474.94,1047.04 474.962,1046.98 474.962,1046.9C474.962,1046.88 474.958,1046.83 474.951,1046.76C474.943,1046.7 474.927,1046.57 474.904,1046.39L473.896,1039.76L475.466,1039.76L475.73,1043.24C475.742,1043.4 475.753,1043.62 475.765,1043.91C475.777,1044.19 475.79,1044.54 475.806,1044.95L475.847,1044.95C475.867,1044.69 475.889,1044.42 475.914,1044.13C475.94,1043.85 475.974,1043.5 476.017,1043.09L476.363,1039.76L477.792,1039.76L476.738,1046.72Z"
             style="fill:white;fill-rule:nonzero;"
             id="path109" /><path
             d="M481.49,1045.25C481.49,1045.76 481.335,1046.16 481.027,1046.43C480.718,1046.71 480.273,1046.84 479.691,1046.84C479.121,1046.84 478.676,1046.71 478.358,1046.43C478.039,1046.15 477.88,1045.76 477.88,1045.27L477.88,1043.99L479.415,1043.99L479.415,1045.28C479.415,1045.43 479.437,1045.54 479.48,1045.61C479.523,1045.67 479.593,1045.7 479.691,1045.7C479.788,1045.7 479.859,1045.67 479.902,1045.61C479.945,1045.54 479.966,1045.43 479.966,1045.28L479.966,1044.66C479.966,1044.38 479.712,1044.03 479.205,1043.63C479.095,1043.54 479.009,1043.47 478.947,1043.42L478.935,1043.41C478.232,1042.83 477.88,1042.25 477.88,1041.66L477.88,1041.04C477.88,1040.59 478.038,1040.23 478.355,1039.98C478.671,1039.72 479.113,1039.6 479.679,1039.6C480.253,1039.6 480.699,1039.73 481.015,1040C481.331,1040.26 481.49,1040.63 481.49,1041.12L481.49,1042.17L479.966,1042.17L479.966,1041.1C479.966,1040.94 479.945,1040.84 479.902,1040.77C479.859,1040.71 479.788,1040.67 479.691,1040.67C479.593,1040.67 479.523,1040.71 479.48,1040.77C479.437,1040.84 479.415,1040.94 479.415,1041.1L479.415,1041.46C479.415,1041.78 479.66,1042.12 480.148,1042.5C480.261,1042.58 480.349,1042.65 480.412,1042.7C480.892,1043.09 481.192,1043.39 481.311,1043.61C481.43,1043.82 481.49,1044.11 481.49,1044.45L481.49,1045.25Z"
             style="fill:white;fill-rule:nonzero;"
             id="path111" /><path
             d="M481.683,1040.87L481.683,1039.76L482.07,1039.76L482.07,1038.48L483.605,1038.48L483.605,1039.76L484.05,1039.76L484.05,1040.87L483.605,1040.87L483.605,1045.07C483.605,1045.28 483.631,1045.42 483.684,1045.48C483.737,1045.53 483.841,1045.56 483.997,1045.56L484.05,1045.56L484.05,1046.67L483.089,1046.67C482.718,1046.67 482.455,1046.59 482.301,1046.42C482.147,1046.25 482.07,1045.93 482.07,1045.46L482.07,1040.87L481.683,1040.87Z"
             style="fill:white;fill-rule:nonzero;"
             id="path113" /><path
             d="M485.814,1041.1L485.814,1042.4L486.365,1042.4L486.365,1041.1C486.365,1040.94 486.343,1040.84 486.3,1040.77C486.257,1040.71 486.187,1040.67 486.089,1040.67C485.992,1040.67 485.921,1040.71 485.878,1040.77C485.835,1040.84 485.814,1040.94 485.814,1041.1ZM485.814,1045.28C485.814,1045.43 485.835,1045.54 485.878,1045.61C485.921,1045.67 485.992,1045.7 486.089,1045.7C486.187,1045.7 486.257,1045.67 486.3,1045.61C486.343,1045.54 486.365,1045.43 486.365,1045.28L486.365,1043.99L487.888,1043.99L487.888,1045.27C487.888,1045.77 487.731,1046.16 487.416,1046.43C487.102,1046.71 486.66,1046.84 486.089,1046.84C485.445,1046.84 484.984,1046.7 484.706,1046.4C484.429,1046.1 484.29,1045.59 484.29,1044.88L484.29,1041.57C484.29,1040.84 484.427,1040.33 484.701,1040.04C484.974,1039.74 485.433,1039.6 486.078,1039.6C486.644,1039.6 487.087,1039.73 487.408,1039.99C487.728,1040.26 487.888,1040.62 487.888,1041.09L487.888,1043.43L485.814,1043.43L485.814,1045.28Z"
             style="fill:white;fill-rule:nonzero;"
             id="path115" /><path
             d="M488.369,1046.67L488.369,1039.76L489.857,1039.76L489.857,1040.34L489.88,1040.34C490.001,1040.1 490.153,1039.92 490.334,1039.81C490.516,1039.69 490.728,1039.63 490.97,1039.63C491.201,1039.63 491.394,1039.69 491.55,1039.81C491.706,1039.93 491.822,1040.11 491.896,1040.34L491.919,1040.34C492.056,1040.1 492.215,1039.92 492.397,1039.81C492.579,1039.69 492.788,1039.63 493.027,1039.63C493.363,1039.63 493.611,1039.73 493.771,1039.92C493.931,1040.11 494.011,1040.41 494.011,1040.81L494.011,1046.67L492.482,1046.67L492.482,1041.31C492.482,1041.15 492.461,1041.05 492.42,1040.99C492.379,1040.93 492.308,1040.9 492.206,1040.9C492.113,1040.9 492.043,1040.94 491.998,1041C491.954,1041.07 491.931,1041.17 491.931,1041.31L491.931,1046.67L490.431,1046.67L490.431,1041.31C490.431,1041.15 490.411,1041.05 490.37,1040.99C490.329,1040.93 490.257,1040.9 490.156,1040.9C490.062,1040.9 489.993,1040.94 489.948,1041C489.903,1041.07 489.88,1041.17 489.88,1041.31L489.88,1046.67L488.369,1046.67Z"
             style="fill:white;fill-rule:nonzero;"
             id="path117" /><path
             d="M535.021,1046.67L535.021,1038.03L536.749,1038.03L536.749,1045.37L538.238,1045.37L538.238,1046.67L535.021,1046.67Z"
             style="fill:white;fill-rule:nonzero;"
             id="path119" /><path
             d="M538.712,1046.67L540.095,1038.03L542.304,1038.03L543.324,1046.67L541.537,1046.67L541.367,1044.37L540.511,1044.37L540.288,1046.67L538.712,1046.67ZM540.646,1043.1L541.285,1043.1L541.091,1040.46C541.08,1040.32 541.07,1040.05 541.062,1039.66C541.058,1039.49 541.056,1039.36 541.056,1039.27L540.992,1039.27C540.976,1039.6 540.962,1039.87 540.951,1040.06C540.939,1040.26 540.929,1040.39 540.921,1040.45L540.646,1043.1Z"
             style="fill:white;fill-rule:nonzero;"
             id="path121" /><path
             d="M543.658,1046.67L543.658,1038.03L546.025,1038.03L546.634,1041.69C546.689,1042.02 546.736,1042.39 546.775,1042.8C546.814,1043.2 546.847,1043.67 546.874,1044.19L546.945,1044.19C546.917,1043.58 546.897,1043.05 546.883,1042.59C546.87,1042.14 546.863,1041.81 546.863,1041.61L546.851,1038.03L548.205,1038.03L548.205,1046.67L546.177,1046.67L545.292,1041.98C545.257,1041.8 545.213,1041.52 545.161,1041.15C545.108,1040.78 545.054,1040.37 544.999,1039.93L544.953,1039.93C544.976,1040.29 544.995,1040.6 545.008,1040.87C545.022,1041.14 545.029,1041.36 545.029,1041.54L545.029,1046.67L543.658,1046.67Z"
             style="fill:white;fill-rule:nonzero;"
             id="path123" /><path
             d="M591.787,1046.67L590.925,1038.03L592.66,1038.03L592.865,1041.33C592.884,1041.62 592.901,1041.94 592.914,1042.28C592.928,1042.63 592.945,1043.13 592.964,1043.78L593.023,1043.78C593.05,1043.39 593.079,1043.03 593.108,1042.69C593.137,1042.36 593.165,1042.07 593.193,1041.84L593.644,1038.03L595.472,1038.03L595.83,1042.11C595.833,1042.18 595.851,1042.4 595.882,1042.78C595.913,1043.16 595.941,1043.5 595.964,1043.78L596.023,1043.78C596.038,1043.3 596.057,1042.86 596.079,1042.46C596.1,1042.05 596.124,1041.66 596.152,1041.28L596.421,1038.03L597.869,1038.03L596.937,1046.67L594.945,1046.67L594.511,1042.04C594.496,1041.88 594.481,1041.68 594.467,1041.47C594.454,1041.25 594.441,1040.97 594.429,1040.63L594.365,1040.63L593.755,1046.67L591.787,1046.67Z"
             style="fill:white;fill-rule:nonzero;"
             id="path125" /><path
             d="M598.326,1046.67L598.326,1038.03L600.054,1038.03L600.054,1045.37L601.542,1045.37L601.542,1046.67L598.326,1046.67Z"
             style="fill:white;fill-rule:nonzero;"
             id="path127" /><path
             d="M602.017,1046.67L603.4,1038.03L605.609,1038.03L606.628,1046.67L604.841,1046.67L604.671,1044.37L603.816,1044.37L603.593,1046.67L602.017,1046.67ZM603.951,1043.1L604.589,1043.1L604.396,1040.46C604.384,1040.32 604.374,1040.05 604.367,1039.66C604.363,1039.49 604.361,1039.36 604.361,1039.27L604.296,1039.27C604.281,1039.6 604.267,1039.87 604.255,1040.06C604.244,1040.26 604.234,1040.39 604.226,1040.45L603.951,1043.1Z"
             style="fill:white;fill-rule:nonzero;"
             id="path129" /><path
             d="M606.962,1046.67L606.962,1038.03L609.33,1038.03L609.939,1041.69C609.994,1042.02 610.04,1042.39 610.08,1042.8C610.119,1043.2 610.152,1043.67 610.179,1044.19L610.249,1044.19C610.222,1043.58 610.202,1043.05 610.188,1042.59C610.174,1042.14 610.167,1041.81 610.167,1041.61L610.156,1038.03L611.509,1038.03L611.509,1046.67L609.482,1046.67L608.597,1041.98C608.562,1041.8 608.518,1041.52 608.465,1041.15C608.413,1040.78 608.359,1040.37 608.304,1039.93L608.257,1039.93C608.281,1040.29 608.299,1040.6 608.313,1040.87C608.327,1041.14 608.333,1041.36 608.333,1041.54L608.333,1046.67L606.962,1046.67Z"
             style="fill:white;fill-rule:nonzero;"
             id="path131" /><path
             d="M685.261,1039.5L685.261,1045.14C685.261,1045.29 685.284,1045.4 685.329,1045.46C685.373,1045.53 685.447,1045.56 685.548,1045.56C685.658,1045.56 685.735,1045.53 685.78,1045.46C685.825,1045.39 685.847,1045.29 685.847,1045.14L685.847,1039.5C685.847,1039.34 685.825,1039.24 685.78,1039.17C685.735,1039.11 685.658,1039.08 685.548,1039.08C685.447,1039.08 685.373,1039.11 685.329,1039.18C685.284,1039.25 685.261,1039.35 685.261,1039.5ZM683.533,1040.08C683.533,1039.27 683.689,1038.7 684.001,1038.36C684.314,1038.02 684.83,1037.84 685.548,1037.84C686.267,1037.84 686.783,1038.01 687.095,1038.35C687.408,1038.69 687.564,1039.26 687.564,1040.08L687.564,1044.65C687.564,1045.24 687.49,1045.68 687.341,1045.98C687.193,1046.28 686.939,1046.51 686.58,1046.67C686.58,1046.77 686.6,1046.84 686.641,1046.88C686.682,1046.92 686.746,1046.94 686.831,1046.94L687.529,1046.94L687.529,1048.2L686.462,1048.2C686.24,1048.2 686.068,1048.09 685.947,1047.87C685.826,1047.65 685.765,1047.34 685.765,1046.93L685.765,1046.87C685.699,1046.87 685.638,1046.88 685.583,1046.88C685.529,1046.88 685.476,1046.88 685.425,1046.88C684.773,1046.88 684.294,1046.7 683.99,1046.35C683.685,1045.99 683.533,1045.42 683.533,1044.65L683.533,1040.08Z"
             style="fill:white;fill-rule:nonzero;"
             id="path133" /><path
             d="M687.997,1039.59C687.997,1039.03 688.174,1038.61 688.528,1038.3C688.881,1038 689.376,1037.84 690.013,1037.84C690.654,1037.84 691.148,1038 691.496,1038.3C691.843,1038.61 692.017,1039.05 692.017,1039.62L692.017,1041.03L690.3,1041.03L690.3,1039.5C690.3,1039.34 690.279,1039.23 690.236,1039.17C690.193,1039.11 690.119,1039.08 690.013,1039.08C689.904,1039.08 689.827,1039.11 689.782,1039.18C689.737,1039.24 689.714,1039.35 689.714,1039.5L689.714,1040.26C689.714,1040.39 689.731,1040.51 689.764,1040.6C689.797,1040.7 689.851,1040.79 689.925,1040.88L691.583,1042.7C691.74,1042.87 691.851,1043.05 691.917,1043.24C691.984,1043.42 692.017,1043.72 692.017,1044.13L692.017,1045.14C692.017,1045.69 691.842,1046.12 691.493,1046.42C691.143,1046.72 690.646,1046.87 690.001,1046.87C689.341,1046.87 688.842,1046.71 688.504,1046.4C688.166,1046.09 687.997,1045.63 687.997,1045.02L687.997,1043.4L689.714,1043.4L689.714,1045.14C689.714,1045.29 689.737,1045.39 689.782,1045.46C689.827,1045.53 689.904,1045.56 690.013,1045.56C690.115,1045.56 690.188,1045.53 690.233,1045.46C690.278,1045.4 690.3,1045.29 690.3,1045.14L690.3,1044.22C690.3,1044.1 690.278,1043.98 690.233,1043.88C690.188,1043.77 690.111,1043.65 690.001,1043.53L688.443,1041.76C688.283,1041.59 688.168,1041.4 688.1,1041.22C688.032,1041.04 687.997,1040.8 687.997,1040.49L687.997,1040.36L687.997,1039.59Z"
             style="fill:white;fill-rule:nonzero;"
             id="path135" /><path
             d="M692.415,1039.59C692.415,1039.03 692.592,1038.61 692.946,1038.3C693.299,1038 693.794,1037.84 694.431,1037.84C695.072,1037.84 695.566,1038 695.913,1038.3C696.261,1038.61 696.435,1039.05 696.435,1039.62L696.435,1041.03L694.718,1041.03L694.718,1039.5C694.718,1039.34 694.697,1039.23 694.654,1039.17C694.611,1039.11 694.537,1039.08 694.431,1039.08C694.322,1039.08 694.245,1039.11 694.2,1039.18C694.155,1039.24 694.132,1039.35 694.132,1039.5L694.132,1040.26C694.132,1040.39 694.149,1040.51 694.182,1040.6C694.215,1040.7 694.269,1040.79 694.343,1040.88L696.001,1042.7C696.158,1042.87 696.269,1043.05 696.335,1043.24C696.402,1043.42 696.435,1043.72 696.435,1044.13L696.435,1045.14C696.435,1045.69 696.26,1046.12 695.911,1046.42C695.561,1046.72 695.064,1046.87 694.419,1046.87C693.759,1046.87 693.26,1046.71 692.922,1046.4C692.584,1046.09 692.415,1045.63 692.415,1045.02L692.415,1043.4L694.132,1043.4L694.132,1045.14C694.132,1045.29 694.155,1045.39 694.2,1045.46C694.245,1045.53 694.322,1045.56 694.431,1045.56C694.533,1045.56 694.606,1045.53 694.651,1045.46C694.696,1045.4 694.718,1045.29 694.718,1045.14L694.718,1044.22C694.718,1044.1 694.696,1043.98 694.651,1043.88C694.606,1043.77 694.529,1043.65 694.419,1043.53L692.861,1041.76C692.701,1041.59 692.586,1041.4 692.518,1041.22C692.45,1041.04 692.415,1040.8 692.415,1040.49L692.415,1040.36L692.415,1039.59Z"
             style="fill:white;fill-rule:nonzero;"
             id="path137" /><path
             d="M743.585,1039.5L743.585,1045.14C743.585,1045.29 743.608,1045.4 743.653,1045.46C743.698,1045.53 743.771,1045.56 743.872,1045.56C743.982,1045.56 744.059,1045.53 744.104,1045.46C744.149,1045.39 744.171,1045.29 744.171,1045.14L744.171,1039.5C744.171,1039.34 744.149,1039.24 744.104,1039.17C744.059,1039.11 743.982,1039.08 743.872,1039.08C743.771,1039.08 743.698,1039.11 743.653,1039.18C743.608,1039.25 743.585,1039.35 743.585,1039.5ZM741.857,1040.08C741.857,1039.27 742.013,1038.7 742.326,1038.36C742.638,1038.02 743.154,1037.84 743.872,1037.84C744.591,1037.84 745.107,1038.01 745.419,1038.35C745.732,1038.69 745.888,1039.26 745.888,1040.08L745.888,1044.65C745.888,1045.24 745.814,1045.68 745.665,1045.98C745.517,1046.28 745.263,1046.51 744.904,1046.67C744.904,1046.77 744.924,1046.84 744.965,1046.88C745.006,1046.92 745.07,1046.94 745.156,1046.94L745.853,1046.94L745.853,1048.2L744.787,1048.2C744.564,1048.2 744.392,1048.09 744.271,1047.87C744.15,1047.65 744.089,1047.34 744.089,1046.93L744.089,1046.87C744.023,1046.87 743.962,1046.88 743.908,1046.88C743.853,1046.88 743.8,1046.88 743.749,1046.88C743.097,1046.88 742.619,1046.7 742.314,1046.35C742.009,1045.99 741.857,1045.42 741.857,1044.65L741.857,1040.08Z"
             style="fill:white;fill-rule:nonzero;"
             id="path139" /><path
             d="M746.322,1039.59C746.322,1039.03 746.498,1038.61 746.852,1038.3C747.205,1038 747.701,1037.84 748.337,1037.84C748.978,1037.84 749.472,1038 749.82,1038.3C750.167,1038.61 750.341,1039.05 750.341,1039.62L750.341,1041.03L748.624,1041.03L748.624,1039.5C748.624,1039.34 748.603,1039.23 748.56,1039.17C748.517,1039.11 748.443,1039.08 748.337,1039.08C748.228,1039.08 748.151,1039.11 748.106,1039.18C748.061,1039.24 748.038,1039.35 748.038,1039.5L748.038,1040.26C748.038,1040.39 748.055,1040.51 748.088,1040.6C748.121,1040.7 748.175,1040.79 748.249,1040.88L749.908,1042.7C750.064,1042.87 750.175,1043.05 750.242,1043.24C750.308,1043.42 750.341,1043.72 750.341,1044.13L750.341,1045.14C750.341,1045.69 750.166,1046.12 749.817,1046.42C749.467,1046.72 748.97,1046.87 748.326,1046.87C747.665,1046.87 747.166,1046.71 746.829,1046.4C746.491,1046.09 746.322,1045.63 746.322,1045.02L746.322,1043.4L748.038,1043.4L748.038,1045.14C748.038,1045.29 748.061,1045.39 748.106,1045.46C748.151,1045.53 748.228,1045.56 748.337,1045.56C748.439,1045.56 748.512,1045.53 748.557,1045.46C748.602,1045.4 748.624,1045.29 748.624,1045.14L748.624,1044.22C748.624,1044.1 748.602,1043.98 748.557,1043.88C748.512,1043.77 748.435,1043.65 748.326,1043.53L746.767,1041.76C746.607,1041.59 746.493,1041.4 746.424,1041.22C746.356,1041.04 746.322,1040.8 746.322,1040.49L746.322,1040.36L746.322,1039.59Z"
             style="fill:white;fill-rule:nonzero;"
             id="path141" /><path
             d="M750.74,1039.59C750.74,1039.03 750.916,1038.61 751.27,1038.3C751.623,1038 752.119,1037.84 752.755,1037.84C753.396,1037.84 753.89,1038 754.238,1038.3C754.585,1038.61 754.759,1039.05 754.759,1039.62L754.759,1041.03L753.042,1041.03L753.042,1039.5C753.042,1039.34 753.021,1039.23 752.978,1039.17C752.935,1039.11 752.861,1039.08 752.755,1039.08C752.646,1039.08 752.569,1039.11 752.524,1039.18C752.479,1039.24 752.456,1039.35 752.456,1039.5L752.456,1040.26C752.456,1040.39 752.473,1040.51 752.506,1040.6C752.539,1040.7 752.593,1040.79 752.667,1040.88L754.326,1042.7C754.482,1042.87 754.593,1043.05 754.66,1043.24C754.726,1043.42 754.759,1043.72 754.759,1044.13L754.759,1045.14C754.759,1045.69 754.584,1046.12 754.235,1046.42C753.885,1046.72 753.388,1046.87 752.744,1046.87C752.083,1046.87 751.584,1046.71 751.246,1046.4C750.909,1046.09 750.74,1045.63 750.74,1045.02L750.74,1043.4L752.456,1043.4L752.456,1045.14C752.456,1045.29 752.479,1045.39 752.524,1045.46C752.569,1045.53 752.646,1045.56 752.755,1045.56C752.857,1045.56 752.93,1045.53 752.975,1045.46C753.02,1045.4 753.042,1045.29 753.042,1045.14L753.042,1044.22C753.042,1044.1 753.02,1043.98 752.975,1043.88C752.93,1043.77 752.853,1043.65 752.744,1043.53L751.185,1041.76C751.025,1041.59 750.911,1041.4 750.842,1041.22C750.774,1041.04 750.74,1040.8 750.74,1040.49L750.74,1040.36L750.74,1039.59Z"
             style="fill:white;fill-rule:nonzero;"
             id="path143" /></g><g
           transform="matrix(1,0,0,1,-234.086,60.0748)"
           id="g150"><g
             id="reset"><ellipse
               cx="882.113"
               cy="1013.72"
               rx="10.926"
               ry="10.594"
               style="fill:rgb(108,108,108);stroke-width:3.5px;stroke:rgb(35,31,32);"
               id="ellipse147" /></g></g></g></g></g><rect
     id="rect100"
     width="359.66449"
     height="330.80255"
     x="756.91272"
     y="4492.979"
     style="clip-rule:evenodd;fill:#ffffff;fill-rule:evenodd;stroke-width:1.24354422;stroke-linecap:round;stroke-linejoin:round;stroke-miterlimit:1.41420996" /><g
     style="clip-rule:evenodd;fill-rule:evenodd;stroke-linecap:round;stroke-linejoin:round;stroke-miterlimit:1.41420996"
     transform="matrix(1.0947564,0,0,1.0947564,1042.0751,3625.1296)"
     id="g4207"><path
       inkscape:connector-curvature="0"
       style="fill:#000000"
       d="m -235.53484,916.29655 a 68.833004,70.485946 0 0 0 -8.91755,34.6148 68.833004,70.485946 0 0 0 4.38353,24.34671 69.305276,70.367875 0 0 0 0.74281,2.06441 68.833004,70.485946 0 0 0 1.27338,2.93651 69.305276,70.367875 0 0 0 1.97374,4.16358 68.833004,70.485946 0 0 0 0.17558,0.355 c 0.006,-0.002 0.0115,-0.006 0.0174,-0.01 a 69.305276,70.367875 0 0 0 60.97578,37.10174 69.305276,70.367875 0 0 0 57.72865,-31.62813 99.429255,99.429255 0 0 0 65.504008,24.90433 99.429255,99.429255 0 0 0 74.58555,-33.80643 h -1.13447 a 99.031206,99.031206 0 0 0 19.21651,-29.60616 100.09211,100.09211 0 0 0 0.91453,-2.50819 99.031206,99.031206 0 0 0 2.19176,-6.17784 100.09211,100.09211 0 0 0 0.96274,-3.76613 c -0.20749,0.27841 -0.41623,0.54635 -0.92223,1.15185 -0.2001,0.22512 -0.59997,0.50098 -0.93767,0.61352 -0.32519,0.12509 -0.90108,0.3506 -1.28883,0.51323 -0.3877,0.16257 -0.93749,0.29903 -1.22514,0.29903 h -0.51321 v -3.66387 c 0,-3.56455 0.0113,-3.66646 0.29905,-4.27932 0.5074,-1.08832 1.64521,-1.86952 3.00404,-2.21685 h 0.63861 v -0.1254 c 0.77703,-0.11313 1.5987,-0.10063 2.41171,0.0926 h 0.002 c 0.0788,0.0185 0.15214,0.0436 0.22765,0.0656 a 100.09211,100.09211 0 0 0 0.36082,-2.37893 h -2.1281 -0.87402 v -9.91116 c 0.66679,-0.116 1.35954,-0.118 2.049,0.0425 0.70895,0.16271 1.3623,0.4846 1.93709,0.91644 a 100.09211,100.09211 0 0 0 0.18908,-3.80472 h -80.5338 c -58.7175,7e-5 -89.319488,-0.008 -119.435658,-0.0174 a 100.09211,100.09211 0 0 0 2.21492,18.27692 c 0.11782,-0.96517 0.38292,-1.25105 1.00327,-1.85026 1.10063,-1.07561 2.55355,-1.6013 4.35459,-1.5763 0.61285,0.0129 1.36393,0.087 1.67662,0.16208 0.82547,0.23763 1.90085,0.83873 2.41364,1.36406 0.25015,0.25014 0.56085,0.76404 0.69843,1.12674 0.25014,0.62537 0.26239,0.91048 0.26239,4.77521 v 4.12883 h -5.25173 -3.10051 a 100.09211,100.09211 0 0 0 0.95504,2.8709 c 0.13198,-0.005 0.27194,-0.0482 0.34343,-0.108 0.14383,-0.14381 0.6767,-0.22517 1.29268,-0.23923 0.61597,-0.014 1.31665,0.0389 1.79817,0.164 0.88801,0.22512 1.57591,0.57632 2.15125,1.07658 0.40023,0.36273 0.53557,0.5492 0.96082,1.36214 0.12508,0.25018 0.17564,1.90401 0.20066,7.53225 l 0.0212,5.90195 a 100.09211,100.09211 0 0 0 0.93382,1.52613 h -4.14622 a 105.07954,105.07954 0 0 1 -0.11769,-0.20645 h -1.98146 v -0.97818 c 0,-0.52682 -0.0502,-1.02835 -0.10033,-1.10361 -0.18814,-0.28848 -0.87671,-0.52668 -2.09337,-0.72738 -0.68985,-0.12541 -1.49231,-0.30288 -1.7808,-0.40323 l -0.54023,-0.20065 0.0116,-5.34243 c 0.0102,-4.69477 0.0121,-5.54144 0.38781,-6.22222 a 105.07954,105.07954 0 0 1 -4.29092,-18.58174 l -4.52437,-0.0309 -5.64534,-0.025 0.0386,-3.17382 0.0367,-3.16031 0.35115,-0.72736 c 0.62714,-1.27938 1.99571,-2.37114 3.46322,-2.7976 0.89054,-0.26339 3.03476,-0.16211 3.91276,0.18909 0.56855,0.22071 1.05052,0.48877 1.47211,0.81033 a 105.07954,105.07954 0 0 1 -0.14085,-3.95713 c -49.40755,-0.0188 -75.83265,-0.055 -81.09576,-0.13695 z m 50.21375,2.92877 c 0.53129,-0.0161 1.07138,0.0408 1.60524,0.17943 1.94414,0.50171 3.33676,1.75642 3.8761,3.4748 0.18814,0.63967 0.22574,1.17847 0.22574,3.56161 v 2.80916 h -5.51993 -5.51799 v -2.80916 c 0,-2.38314 0.0376,-2.92194 0.22573,-3.56161 0.67261,-2.14013 2.80285,-3.58469 5.10511,-3.65423 z m -26.7507,0.004 c 0.33187,0.0145 0.66546,0.0564 0.99941,0.1254 1.73092,0.36375 3.19879,1.4796 3.90119,2.95965 0.40137,0.85293 0.40034,0.85243 0.43797,3.18539 l 0.0502,2.33261 -0.72738,-0.2373 c -1.48005,-0.50171 -3.5749,-0.51523 -5.00478,-0.0386 -1.04106,0.3512 -2.21865,1.0292 -3.02139,1.74415 l -0.75246,0.6772 -0.91645,-0.26239 -0.90294,-0.26432 0.0367,-3.14873 0.0386,-3.13524 0.40131,-0.85277 c 0.94385,-1.98648 3.13702,-3.18605 5.46011,-3.08505 z m -13.45349,0.0192 c 0.63366,0.0239 1.251,0.13429 1.77309,0.33185 1.01597,0.3888 1.98041,1.10252 2.51976,1.89272 0.77765,1.10377 0.85278,1.53042 0.85278,4.95461 v 3.03682 l -0.83928,0.1505 -0.85278,0.16207 -0.75245,-0.43797 c -1.51768,-0.90308 -3.41279,-1.29367 -5.16878,-1.08045 -0.51426,0.0754 -0.97819,0.10125 -1.00327,0.0636 -0.0376,-0.025 0.0135,-0.17555 0.0888,-0.32605 0.10033,-0.17561 0.11287,-0.55269 0.0502,-1.09203 -0.11289,-1.09123 -0.72823,-2.1811 -1.41809,-2.54483 -0.58951,-0.30104 -0.95409,-0.96653 -0.8412,-1.56858 0.18814,-1.00344 1.34264,-2.30742 2.62201,-2.95966 0.80744,-0.42331 1.9132,-0.62235 2.9693,-0.58266 z m 54.14389,0.0113 c 0.75727,0.0376 1.51159,0.15092 1.95059,0.32029 1.16648,0.45151 2.05855,1.12756 2.63551,2.0181 0.27595,0.439 0.56337,1.00421 0.61354,1.24253 0.0627,0.25085 0.11384,1.79406 0.11384,3.42461 v 2.98474 h -5.58166 -5.59517 l 0.0386,-3.1738 0.0367,-3.1603 0.35114,-0.72739 c 0.65223,-1.317 1.93203,-2.35859 3.4748,-2.79758 0.44527,-0.1317 1.20489,-0.16883 1.96216,-0.1312 z m -27.87939,0.002 c 0.88074,-0.0282 1.99874,0.0926 2.60079,0.31835 1.51769,0.57695 2.7213,1.7439 3.23555,3.14873 0.23832,0.63965 0.2624,1.00291 0.2624,3.33589 0,2.40821 -0.0125,2.59597 -0.20066,2.40785 -0.13797,-0.13798 -0.22573,-0.5141 -0.2759,-1.10362 l -0.0617,-0.89136 -0.66563,-0.42639 c -0.36374,-0.23831 -0.87782,-0.48908 -1.15376,-0.55181 -0.46409,-0.12542 -0.75228,-0.31337 -1.85605,-1.20392 -0.42646,-0.33865 -0.56324,-0.37525 -1.44124,-0.3878 -0.5268,-0.0126 -1.24247,-0.11288 -1.56858,-0.22573 -0.74003,-0.23832 -0.99057,-0.2518 -2.05671,-0.13894 -0.74002,0.0877 -0.86621,0.15043 -1.34284,0.65214 l -0.53829,0.54023 v -0.55179 c 0,-0.79021 0.42535,-2.04503 0.9396,-2.74743 0.71494,-0.96581 2.0951,-1.8319 3.34939,-2.0953 0.21322,-0.0439 0.48009,-0.0697 0.77367,-0.0791 z m 68.67397,0.0655 c 0.62555,0.002 1.25524,0.0941 1.86184,0.28169 1.60093,0.50028 3.13915,1.93888 3.52688,3.31466 0.10003,0.32519 0.1505,1.58814 0.15049,3.47672 v 2.95192 h -5.62796 -5.62798 v -3.00209 c 0,-3.38943 0.0623,-3.71336 0.96276,-4.88902 1.04123,-1.36015 2.8773,-2.14384 4.75397,-2.13388 z m 26.92626,0.0192 c 0.58785,0 1.35049,0.0756 1.6882,0.17557 1.5884,0.41273 2.853428,1.43915 3.528818,2.81495 l 0.34922,0.70036 0.0386,3.15066 0.0366,3.16416 h -5.579748 -5.56429 v -3.0021 c 0,-2.63901 0.0248,-3.07496 0.2373,-3.62527 0.77545,-2.03868 2.85142,-3.36581 5.26525,-3.37833 z m 13.737118,0.004 c 0.69258,0.003 1.39101,0.0844 1.91007,0.24697 1.47583,0.45026 2.71245,1.47647 3.3378,2.7397 0.27519,0.57532 0.33691,0.9364 0.42446,2.24965 0.0625,0.863 0.0768,2.28866 0.0269,3.16417 l -0.0754,1.60136 h -5.62796 -5.61447 l 0.0349,-3.16608 c 0.0375,-3.1518 0.0384,-3.1487 0.37623,-3.8491 0.62532,-1.26323 1.85037,-2.27793 3.32623,-2.75322 0.50027,-0.15633 1.18855,-0.23501 1.88114,-0.23345 z m 121.8165,0.006 c 0.29503,0.0161 0.59205,0.0585 0.88751,0.12735 1.52589,0.3502 2.82556,1.39013 3.53846,2.82845 l 0.41289,0.83735 0.0366,3.1005 0.0501,3.10242 h -5.21509 -5.21509 l 0.0501,-3.10242 0.0366,-3.1005 0.41289,-0.83735 c 0.95213,-1.9261 2.93951,-3.06933 5.00478,-2.9558 z m -176.201548,0.002 c 0.58783,-0.0126 1.35049,0.064 1.68819,0.16399 1.56338,0.41274 2.85051,1.42653 3.51338,2.76479 l 0.36273,0.7486 0.0386,3.15259 0.0366,3.16415 h -5.5778 -5.57781 l 0.0367,-3.16415 0.0386,-3.15259 0.34921,-0.72353 c 0.91302,-1.83856 2.81531,-2.94135 5.09162,-2.95385 z m 88.936198,0.002 c 0.92862,-9.8e-4 1.85913,0.062 2.46572,0.18715 3.35193,0.68789 6.47994,3.06322 7.9683,6.05243 0.18761,0.37525 0.41114,0.7256 0.48619,0.77561 0.075,0.05 0.1,0.10038 0.0501,0.10038 -0.05,0 0.0264,0.32422 0.164,0.71193 0.56283,1.61342 0.58665,2.05144 0.63669,9.04296 l 0.0386,6.69298 -11.73249,0.0366 -11.73249,0.025 0.0386,-6.96695 c 0.05,-6.76638 0.0487,-7.00433 0.32412,-7.97986 0.35019,-1.23822 1.11423,-2.86397 1.82711,-3.86452 1.60094,-2.2388 4.35118,-4.05224 7.01519,-4.61505 0.59409,-0.13135 1.52165,-0.19716 2.45031,-0.19874 z m 60.2425999,0.002 c 0.50655,-0.002 1.01366,0.053 1.47018,0.17172 1.5509,0.40025 3.03832,1.66297 3.58862,3.03876 0.2626701,0.66286 0.2885701,0.92499 0.3260701,3.73912 l 0.0366,3.04067 H 4.9011179 -0.48953212 l 0.0386,-3.04067 c 0.0375,-2.81413 0.0635,-3.07626 0.32606,-3.73912 0.53783,-1.35078 2.03660002,-2.62504 3.52495002,-3.02525 0.45651,-0.11875 0.96366,-0.18209 1.47019,-0.18523 z m -27.4510699,0.002 c 0.29339,-0.0204 0.58997,-0.0189 0.88559,0.004 0.33784,0.026 0.67413,0.0799 1.00713,0.16594 1.75101,0.46278 3.06278,1.48658 3.7507,2.92491 l 0.3878,0.82578 0.0386,3.02717 0.0366,3.04069 h -5.70129 -5.70514 l 0.0386,-3.04069 0.0366,-3.02717 0.38779,-0.82578 c 0.85224,-1.7811 2.78327,-2.95193 4.83692,-3.09471 z m 40.40487,0.0136 c 0.27325,-0.0207 0.54903,-0.0209 0.82576,0 0.31625,0.024 0.63307,0.075 0.94731,0.15627 1.55088,0.41275 2.87751,1.49907 3.5404,2.89985 0.33769,0.71292 0.3387,0.76454 0.37623,3.81629 l 0.0501,3.10243 h -5.34242 -5.34049 l 0.0501,-3.10243 c 0.0375,-3.05175 0.0386,-3.10337 0.37624,-3.81629 0.83306,-1.77151 2.6038,-2.91068 4.51665,-3.05612 z m -134.668038,0.004 c 1.30075,0.0374 1.43981,0.064 2.34032,0.50164 1.16318,0.55031 2.02625,1.36203 2.53905,2.40013 l 0.36272,0.75053 0.0366,3.15259 0.0386,3.16415 h -5.57973 -5.57781 l 0.0386,-3.16415 0.0366,-3.15259 0.35114,-0.72545 c 0.46279,-0.92553 1.32515,-1.79953 2.28824,-2.2998 1.06311,-0.56283 1.52465,-0.66458 3.12558,-0.62705 z m 107.7841979,0.01 c 0.87825,-0.0281 1.99081,0.0913 2.59115,0.31642 1.5759,0.60034 2.79107,1.81265 3.24134,3.25098 0.21258,0.68791 0.24888,1.15167 0.24888,3.59057 v 2.80143 h -5.56428 -5.5662499 v -2.80143 c 0,-3.17682 0.1372,-3.89066 0.93768,-4.99128 0.71288,-0.96305 2.08903,-1.82492 3.3397299,-2.08758 0.21261,-0.0438 0.47901,-0.0697 0.77175,-0.0791 z m -67.3909299,2.58729 c 0.46589,-0.0112 0.93897,0.0409 1.23287,0.16592 0.63787,0.26265 1.33692,0.9521 1.6496,1.63998 0.27516,0.58785 0.29906,0.77511 0.29906,3.08891 v 2.4773 h -3.12556 -3.12753 v -2.35189 c 0,-1.86356 0.039,-2.49016 0.21416,-2.96544 0.22514,-0.67538 0.97523,-1.50101 1.66312,-1.8387 0.26888,-0.13132 0.72837,-0.20513 1.19428,-0.21608 z m 40.66917,0.2759 c 0.52955,0.0289 1.0736,0.16653 1.46053,0.39166 0.31269,0.18761 0.7134,0.52446 0.90102,0.76211 0.58785,0.77543 0.66278,1.20089 0.67528,3.65229 v 2.29015 h -3.1391 -3.14101 l 0.0501,-2.4773 c 0.0375,-2.43889 0.0376,-2.47693 0.38781,-3.05226 0.38772,-0.66288 0.98874,-1.16318 1.67661,-1.4258 0.17823,-0.0688 0.38729,-0.11238 0.60969,-0.13313 0.16677,-0.0156 0.34247,-0.0174 0.519,-0.007 z m -68.052698,9.11048 c 0.72813,0.0135 1.95293,0.16468 2.37506,0.32414 1.12564,0.43775 2.389608,1.66209 2.789858,2.71269 0.25014,0.66286 0.26239,0.93993 0.26239,4.64205 v 3.93785 h -5.078098 -5.0646 l 0.0366,-4.10183 c 0.0375,-4.06482 0.0384,-4.09001 0.35115,-4.7154 0.56283,-1.13812 1.79983,-2.15038 3.12558,-2.55061 0.31269,-0.0875 0.62432,-0.18719 0.68686,-0.21224 0.0844,-0.0312 0.27241,-0.0412 0.51514,-0.0366 z m -54.35612,0.0231 c 0.71024,0.0113 1.43394,0.0864 1.87921,0.21804 1.40479,0.43898 2.49748,1.35422 3.03682,2.55833 0.22577,0.50174 0.25082,0.85414 0.25082,4.64209 v 4.1134 h -5.20544 -5.21894 l 0.0386,-4.23881 0.0367,-4.22725 0.33957,-0.57689 c 0.60206,-1.0285 1.76903,-1.90711 3.0484,-2.32102 0.38883,-0.12545 1.08408,-0.17884 1.79431,-0.16787 z m -13.51523,0.006 c 0.37795,0.005 0.76192,0.0454 1.14605,0.12542 1.55531,0.32609 2.96052,1.3407 3.57512,2.595 l 0.35114,0.71579 0.0251,4.07676 c 0.0126,2.45838 -0.0116,3.97644 -0.0868,3.82594 -0.0627,-0.13799 -0.11384,-0.62698 -0.11384,-1.07853 -0.0126,-0.45153 -0.0993,-1.08038 -0.21223,-1.40651 -0.16305,-0.48917 -0.30186,-0.63952 -0.8412,-0.9531 -0.36374,-0.21322 -0.91543,-0.58939 -1.25409,-0.85277 -2.83468,-2.25772 -3.39927,-2.54583 -5.18036,-2.55835 -0.6146,0 -1.31675,-0.0752 -1.55507,-0.17558 -0.41391,-0.15051 -0.46396,-0.138 -0.80262,0.17558 l -0.36465,0.32606 0.0752,-0.73894 c 0.23048,-2.3706 2.59258,-4.10816 5.23824,-4.07677 z m 54.9137,0.0386 c 0.26112,-0.005 0.44775,-9.8e-4 0.49777,0.0174 0.1,0.0249 0.40105,0.0763 0.66373,0.11387 0.26263,0.0375 0.50077,0.12363 0.53827,0.17365 0.0375,0.0626 0.14881,0.11388 0.24889,0.11388 0.23764,0 1.07649,0.5747 1.75187,1.20007 0.35022,0.32518 0.61404,0.72579 0.78912,1.21357 0.25015,0.67539 0.26238,0.96323 0.26238,4.71537 v 4.00151 h -5.12826 -5.12826 v -4.03816 -4.05361 l 0.37622,-0.73703 c 0.45027,-0.9005 1.06309,-1.51523 2.12618,-2.12808 0.73791,-0.42524 0.92434,-0.47289 2.06249,-0.54794 0.34392,-0.025 0.67851,-0.0396 0.9396,-0.0444 z m 121.4421979,0.0481 c 0.44986,-0.0164 0.90757,0.0269 1.36406,0.13314 1.52589,0.35018 3.08947,1.66207 3.65231,3.07539 0.28764,0.7004 0.3001,0.87609 0.3376401,4.50315 l 0.0386,3.78928 H 4.8394679 -0.36404212 l 0.0386,-3.78928 c 0.05,-4.45255 0.0872,-4.66591 1.35057002,-6.00418 0.9943,-1.06936 2.27567,-1.65826 3.62528,-1.7075 z m -13.23933,0.01 c 0.53585,-0.004 1.07976,0.0496 1.62069,0.16206 1.53837,0.32519 2.92806,1.26259 3.37831,2.26315 0.21263,0.45029 0.23731,0.91239 0.23731,4.77712 v 4.29092 h -5.18998 -5.1919399 v -4.29092 c 0,-4.84029 0.0131,-4.87689 0.97625,-5.73987 1.04122,-0.93806 2.5618,-1.45309 4.1693599,-1.46246 z m -13.9879199,0.002 c 0.29475,-0.0199 0.59246,-0.0191 0.88943,0.004 0.33942,0.0264 0.67835,0.0819 1.01294,0.16786 1.72596,0.45026 3.07434,1.48846 3.76226,2.90176 l 0.36272,0.72738 0.0386,3.83751 0.0366,3.85294 h -5.70129 -5.70514 l 0.0386,-3.85294 0.0366,-3.83751 0.3627,-0.72738 c 0.86185,-1.77152 2.80266,-2.93442 4.86586,-3.07348 z m 40.51096,0.007 c 0.50926,-0.0164 1.03216,0.02 1.55121,0.11387 1.50088,0.27517 2.965,1.25219 3.51533,2.34033 0.2001,0.41272 0.22485,0.90077 0.26237,4.74046 l 0.0366,4.28899 h -5.13983 -5.13985 l 0.0366,-4.28899 c 0.0375,-4.81524 0.023,-4.72866 1.011,-5.71672 0.91927,-0.90052 2.33861,-1.42864 3.86643,-1.4779 z m -108.53279,0.0113 c 1.03183,-0.0352 2.36646,0.0932 2.94806,0.31836 1.10064,0.42525 2.08899,1.30986 2.61432,2.32295 l 0.4476,0.86435 0.0386,3.97836 0.0366,3.988 h -5.32699 -5.32893 l 0.0386,-3.97642 0.0366,-3.96485 0.35115,-0.6637 c 0.66289,-1.26321 2.16287,-2.54933 3.25099,-2.77444 0.23764,-0.05 0.54935,-0.0809 0.8933,-0.0926 z m -39.951448,0.004 c 1.5509,0.0375 1.57342,0.0363 2.64903,0.56145 h 0.004 c 0.87549,0.42524 1.19933,0.66424 1.64961,1.22707 0.32517,0.38773 0.57594,0.73809 0.58845,0.7756 0,0.05 0.0377,0.20007 0.0753,0.33765 0.10005,0.31266 0.0993,1.12638 0.0617,5.27875 l -0.027,3.28765 h -5.25175 -5.25367 v -4.16359 c 0,-4.11485 8.1e-4,-4.16621 0.30099,-4.77904 0.48777,-1.02558 1.55106,-1.87462 2.92685,-2.32488 0.57532,-0.1876 1.01344,-0.23817 2.27666,-0.20066 z m 162.259938,0.0113 c 0.7234,0.0199 1.48385,0.1251 1.98339,0.30099 v 0.002 c 1.32573,0.46277 2.30082,1.33788 2.67603,2.36348 0.12508,0.36271 0.16308,1.4864 0.17557,4.63819 v 4.15395 l -4.84078,-0.0251 -4.85237,-0.0386 v -4.31408 -4.31407 l 0.33765,-0.58845 c 0.57532,-0.97556 1.66295,-1.71424 3.03875,-2.06442 0.21576,-0.0532 0.48553,-0.0874 0.7814,-0.10425 0.22191,-0.0129 0.45921,-0.0155 0.70036,-0.01 z m -108.06396,1.14991 c 0.45056,0.0136 0.91571,0.15023 1.3988,0.41288 0.6879,0.37521 1.34821,1.22622 1.56085,1.98917 0.075,0.26264 0.12541,2.0403 0.12541,4.17902 v 3.72754 h -3.12556 -3.12753 v -3.75262 c 0,-4.31498 0.0635,-4.65328 1.02643,-5.59131 0.68008,-0.66444 1.39068,-0.98727 2.1416,-0.96468 z m 40.30646,0.20836 c 0.68852,-0.0187 1.39984,0.11375 2.01425,0.41868 0.43775,0.22511 0.83972,0.52452 1.01485,0.78719 0.27511,0.42524 0.27397,0.47619 0.27397,4.65363 v 4.24075 h -3.12751 -3.12752 v -4.22917 c 0,-3.95228 0.0131,-4.23985 0.25082,-4.61506 0.46903,-0.77388 1.55363,-1.22474 2.70114,-1.25602 z m -54.55678,12.6093 c 0.25268,-0.0153 0.51112,-0.0159 0.77562,0 0.30227,0.018 0.61221,0.0564 0.92801,0.11575 1.57594,0.30019 2.86466,1.23718 3.41499,2.47539 0.38771,0.863 0.40025,1.16382 0.36271,6.67947 l -0.025,4.10184 h -5.00478 -5.01636 l 0.0386,-5.163 0.0366,-5.15527 0.33764,-0.56145 c 0.91925,-1.52254 2.38322,-2.38527 4.152,-2.49274 z m -27.180958,0.006 c 0.64803,-0.034 1.32608,0.0162 2.00463,0.16014 1.03806,0.22512 1.96378,0.68747 2.56412,1.27531 0.88801,0.88799 0.8633,0.76354 0.82578,6.6544 l -0.0251,5.27681 h -4.9411 -4.93919 v -5.25173 c 0,-5.05292 0.0113,-5.27823 0.26238,-5.80354 0.62849,-1.35078 2.3044,-2.20939 4.24849,-2.31139 z m -13.77761,0.025 c 0.95973,-0.0288 2.18671,0.1035 2.82459,0.3473 1.00057,0.36269 1.75203,0.89978 2.16475,1.51263 l 0.33765,0.52671 0.0367,5.07809 c 0.0375,4.90281 0.0264,5.11463 -0.22382,5.79005 -0.31269,0.82543 -1.02625,1.53803 -1.67661,1.66312 -0.38773,0.0625 -0.45148,0.12614 -0.45148,0.42639 0,0.66285 -0.1229,0.6879 -3.83752,0.72542 l -3.41498,0.0501 v -6.66596 c 0,-6.5037 0.0122,-6.68088 0.2624,-7.2062 0.46277,-0.95053 1.80082,-1.87323 3.13908,-2.16089 0.22826,-0.0469 0.51937,-0.077 0.83928,-0.0867 z m 28.026,0.007 c 0.68105,0.0154 1.35036,0.1135 1.8522,0.30096 1.06314,0.41277 1.926648,1.1387 2.351898,1.98919 l 0.36272,0.72544 0.0386,5.15527 0.0366,5.163 h -4.829208 -4.82535 l 0.0366,-5.163 0.0386,-5.15527 0.37429,-0.67528 c 0.22512,-0.41272 0.62417,-0.87573 0.9994,-1.16341 0.3502,-0.26265 0.70056,-0.5375 0.77562,-0.60002 0.48465,-0.39869 1.65288,-0.60269 2.78793,-0.57688 z m -55.56196,0.0636 c 0.22596,-0.006 0.4929,-0.004 0.80647,0.006 1.01598,0.0251 1.30512,0.0761 1.94481,0.38972 0.90308,0.42645 1.90615,1.40543 2.30752,2.22071 0.15052,0.33865 0.3386,0.60197 0.40131,0.60197 0.0627,0 0.11383,1.61646 0.11384,3.84908 0,2.34552 -0.0511,3.80183 -0.11384,3.73912 -0.10034,-0.11288 -0.38873,-1.75738 -0.60196,-3.4883 -0.0502,-0.40137 -0.25163,-0.66354 -1.24251,-1.64189 -1.09123,-1.09123 -1.55508,-1.76916 -1.55508,-2.27088 0,-0.11287 -0.16203,-0.41283 -0.36272,-0.6637 -0.21323,-0.25086 -0.4148,-0.64051 -0.46498,-0.84118 -0.0502,-0.21325 -0.28743,-0.61448 -0.53829,-0.90297 -0.42646,-0.5017 -0.48996,-0.52767 -1.1171,-0.54022 -0.47663,0 -0.65214,-0.0501 -0.62705,-0.15048 0.0659,-0.19755 0.37168,-0.28915 1.04958,-0.30677 z m 177.160458,0.0231 c 0.5978,-0.0232 1.21351,0.0337 1.82325,0.1775 1.35076,0.32521 2.36415,0.98856 2.977,1.9641 0.28766,0.46276 0.30092,0.56233 0.27591,2.31331 l -0.0366,1.82712 -0.42639,-0.36273 c -0.23764,-0.1876 -0.73711,-0.4886 -1.12481,-0.6637 -0.62535,-0.26265 -0.93868,-0.29915 -2.73973,-0.34922 l -2.03934,-0.0639 -0.48813,0.33765 c -0.26264,0.18761 -0.8134,0.40148 -1.23865,0.47655 -0.83798,0.1626 -0.86123,0.1868 -1.1364,1.48754 -0.27515,1.38832 -0.3743,0.91289 -0.3743,-1.83869 0,-2.62652 0.0113,-2.70141 0.29906,-3.16416 0.80669,-1.28513 2.43575,-2.07185 4.22917,-2.14159 z m -40.56306,0.0174 c 0.26382,-0.0172 0.52865,-0.0168 0.7891,0 0.34727,0.0225 0.68773,0.0759 1.01292,0.16013 0.40021,0.1 0.951,0.29948 1.23865,0.44955 0.78796,0.40022 1.78746,1.41333 2.11266,2.15125 0.30017,0.63785 0.30014,0.7144 0.33765,5.55465 l 0.0366,4.9141 h -5.13985 -5.14176 l 0.0386,-4.9141 c 0.0375,-4.84025 0.0374,-4.9168 0.33765,-5.55465 0.32514,-0.73792 1.32663,-1.75103 2.11459,-2.15125 0.68239,-0.35176 1.47159,-0.55765 2.26314,-0.60968 z m 13.4650699,0.0136 c 0.85243,-0.0294 1.97485,0.0993 2.55641,0.33378 0.92552,0.36271 1.78779,1.02536 2.23805,1.71327 0.72543,1.10063 0.76405,1.3779 0.76405,6.50584 v 4.66329 h -5.00285 -5.0163699 l 0.0386,-4.91412 0.0366,-4.90252 0.33764,-0.71386 c 0.57532,-1.2257 1.85325,-2.22749 3.3165799,-2.60273 0.19387,-0.0469 0.44709,-0.0734 0.73124,-0.083 z m 14.27539,0.004 c 0.67225,0.033 1.34552,0.14323 1.80204,0.31836 1.40078,0.53778 2.32663,1.37649 2.61428,2.40207 0.075,0.23762 0.12542,2.55071 0.12542,5.45238 v 5.03952 h -4.81764 -4.82535002 l 0.0366,-5.2884 c 0.0375,-4.76523 0.0625,-5.31735 0.26242,-5.68007 0.5128,-0.93803 1.61186002,-1.71333 3.00016002,-2.10108 0.45652,-0.13132 1.12977,-0.17559 1.80202,-0.14278 z m -62.1449799,1.10168 c 0.43924,-0.0218 0.96093,-0.0158 1.71135,0.0154 2.21377,0.0875 2.70087,0.22364 4.75204,1.23673 2.57646,1.28822 4.61543,3.87856 5.4659,6.9303 0.27514,0.97557 0.2759,1.10207 0.2759,10.55751 0.01,3.99411 -0.0164,6.88135 -0.0541,8.43326 a 10.937218,7.7886251 0 0 0 -6.92258,7.24093 10.937218,7.7886251 0 0 0 0.007,0.16592 h -3.63299 a 7.817445,5.1371781 0 0 0 0.0366,-0.49585 7.817445,5.1371781 0 0 0 -7.81588,-5.13791 7.817445,5.1371781 0 0 0 -1.72486,0.13314 c -0.24206,-0.1015 -1.06061,-0.70947 -2.04514,-1.52229 l -0.41287,-0.33764 v -7.86796 c 0,-4.32748 0.0513,-7.86796 0.11387,-7.86796 0.0501,0 0.13612,-0.60015 0.17364,-1.35057 0.075,-1.41332 0.32588,-2.46281 0.97626,-3.8761 0.18759,-0.42523 0.36369,-0.82592 0.37622,-0.87593 0.0251,-0.0501 0.13732,-0.20098 0.2624,-0.32607 0.12508,-0.13757 0.22378,-0.28763 0.22381,-0.33763 0,-0.23764 2.1142,-2.48889 2.32681,-2.48889 0.1,0 0.17365,-0.0629 0.17365,-0.12541 0,-0.075 0.13746,-0.18635 0.31256,-0.24888 0.16259,-0.0625 0.52553,-0.26287 0.80069,-0.43797 0.77545,-0.47528 2.24023,-1.02612 3.40339,-1.26374 0.41901,-0.0813 0.77629,-0.13068 1.21551,-0.15241 z m -19.78568,0.18135 c 0.47098,-0.0254 0.93647,0.0418 1.33513,0.21031 0.76294,0.3252 1.17573,0.67685 1.45089,1.25216 0.23763,0.50029 0.24896,0.76234 0.27396,4.77711 0,2.33884 0.0129,4.57659 0,4.96427 l -0.01,0.72545 h -2.94036 -2.94036 v -4.94112 c 0,-5.39057 0.0135,-5.48887 0.71387,-6.13925 0.53157,-0.50808 1.33152,-0.80678 2.1165,-0.84893 z m 41.02032,0.0849 c 0.67538,0.0375 1.02591,0.12528 1.55121,0.41289 0.40024,0.21261 0.78773,0.56315 0.98784,0.85085 l 0.32608,0.50164 0.0366,5.03951 0.0386,5.03951 h -3.14103 -3.12751 v -4.9006 c 0,-4.74022 0.0129,-4.91651 0.2624,-5.45432 0.47526,-0.97555 1.66499,-1.55202 3.06577,-1.48948 z m -55.07191,14.36801 c 0.72855,-0.0345 1.56114,0.0159 2.20527,0.16593 1.51337,0.36269 2.6504,1.11495 3.15067,2.10301 0.27516,0.52531 0.26331,0.0489 0.25082,8.1786 l -0.0113,4.4144 h -1.52614 l -1.53965,-0.0136 -0.75051,-0.48814 c -0.40021,-0.27516 -1.08839,-0.62358 -1.52614,-0.77368 -0.43777,-0.16257 -0.78718,-0.32427 -0.78718,-0.37428 0,-0.0501 0.11125,-0.31233 0.24888,-0.57497 0.1751,-0.32518 0.26347,-0.78887 0.301,-1.41422 0.0252,-0.51278 0.112,-1.37714 0.18714,-1.92744 0.0875,-0.56284 0.12528,-1.27432 0.0754,-1.62454 -0.0501,-0.3502 -0.10025,-1.15165 -0.1254,-1.80202 -0.0751,-1.81355 -0.37539,-2.76413 -1.50107,-4.66521 -0.35017,-0.60035 -0.38738,-0.73738 -0.2373,-0.86243 0.23138,-0.18762 0.85739,-0.30709 1.58594,-0.3415 z m 68.13374,0.13892 c 0.28568,-0.0171 0.57595,-0.0165 0.86628,0.004 0.33182,0.0235 0.66532,0.072 0.99363,0.14856 1.53839,0.3627 2.78687,1.33611 3.11206,2.41172 0.1,0.31269 0.1505,1.46397 0.1505,3.10242 v 2.61622 l -0.26239,-0.40131 c -0.13757,-0.22513 -0.41335,-0.4874 -0.58846,-0.57495 -0.18757,-0.1 -0.88641,-0.48821 -1.54929,-0.87594 -1.35077,-0.80045 -1.7388,-0.86326 -2.61428,-0.46305 -0.30018,0.13758 -0.64955,0.25083 -0.7621,0.25083 -0.12509,0 -0.47545,0.17423 -0.7756,0.39937 -0.65037,0.45025 -1.56415,0.58785 -2.42717,0.36273 l -0.52478,-0.15049 v -1.88885 c 0,-1.06311 0.061,-2.08833 0.14857,-2.36349 0.43089,-1.44595 2.23325,-2.4571 4.23303,-2.57764 z m 14.4644799,0.01 h 0.002 c 0.67227,0.033 1.34359,0.14326 1.80009,0.31835 0.92556,0.35022 1.65078,0.88731 2.07601,1.5377 l 0.35115,0.51322 0.0113,2.57569 c 0.0129,1.41331 7.7e-4,2.45185 -0.0366,2.30175 -0.1,-0.48778 -0.35116,-0.58808 -1.0766,-0.43796 -1.0506,0.21257 -2.15159,-0.17469 -2.63938,-0.91259 -0.17508,-0.27516 -0.26292,-0.30079 -0.82576,-0.22575 -0.42524,0.0501 -0.78719,0.0129 -1.14991,-0.12541 -0.30016,-0.11263 -0.9622299,-0.22479 -1.4875499,-0.2373 -0.87546,-0.0375 -0.988,-0.0129 -1.40071,0.31255 l -0.46305,0.35113 v -1.65152 c 0,-1.42581 0.0373,-1.73763 0.2624,-2.18791 0.43776,-0.91302 1.415,-1.61398 2.7782799,-1.98918 0.45653,-0.13135 1.1259,-0.17557 1.79818,-0.14277 z m 11.75564,0.0906 c 0.0955,0.0516 -0.0337,0.25906 -0.35885,0.64054 -0.50029,0.58784 -0.57507,0.75131 -0.62511,1.38916 -0.1,1.17569 -1.00133,2.17459 -2.06444002,2.24964 -0.3502,0.025 -0.35027,0.0112 -0.38781,-0.71388 -0.075,-1.38827 0.83782002,-2.61318 2.43872002,-3.27606 0.58159,-0.23765 0.90212,-0.34101 0.99749,-0.2894 z m -39.4825999,1.30039 c 1.0506,0 1.27606,0.0376 1.91394,0.36272 1.2632,0.61285 1.21357,0.37492 1.21357,5.96562 0,4.55261 -0.0131,4.86628 -0.25082,5.37907 -0.10863,0.23714 -0.18408,0.59004 -0.21801,0.89523 a 10.937218,7.7886251 0 0 0 -5.7862,-2.04128 v -3.55775 c 0,-6.36615 -0.0621,-6.02804 1.21358,-6.64089 0.63787,-0.32518 0.86333,-0.36272 1.91394,-0.36272 z m -40.49745,0.0771 c 0.87548,0.013 1.33808,0.0759 1.71326,0.25082 0.28767,0.12508 0.51323,0.30025 0.51323,0.3878 0,0.23765 -1.08881,1.03755 -1.67663,1.22515 -0.26266,0.0875 -0.7001,0.12437 -0.96275,0.0869 -0.43775,-0.0625 -0.52455,-0.0127 -1.14991,0.58845 l -0.68877,0.6367 -0.15049,1.12675 c -0.075,0.61286 -0.1873,2.18856 -0.23733,3.50181 -0.075,1.6009 -0.16333,2.50303 -0.27591,2.7532 -0.1501,0.32515 -0.17471,-0.2024 -0.21221,-4.42983 -0.0251,-5.21545 -0.0366,-5.12662 0.66371,-5.58938 0.62535,-0.41275 1.23806,-0.55081 2.4638,-0.5383 z"
       id="path4" /><path
       inkscape:connector-curvature="0"
       style="fill:#dc0067"
       d="m -175.41136,879.42485 c -38.78095,0 -70.2218,32.06847 -70.2218,71.57718 0,39.50872 31.44085,71.57477 70.2218,71.57477 38.78094,0 70.2242,-32.06605 70.2242,-71.57477 0,-39.50871 -31.44326,-71.57718 -70.2242,-71.57718 z m 0,1.98 c 37.68997,0 68.24419,31.13802 68.24419,69.59718 0,38.45914 -30.55422,69.59477 -68.24419,69.59477 -37.68997,0 -68.24179,-31.13563 -68.24179,-69.59477 0,-38.45916 30.55182,-69.59718 68.24179,-69.59718 z"
       id="path6-4" /><path
       inkscape:connector-curvature="0"
       style="fill:#dc0067"
       d="m -52.119862,838.40647 c -41.81977,0 -75.727728,34.49668 -75.727728,77.00353 0,42.50798 33.907958,77.00351 75.727728,77.00351 41.81864,0 75.72533,-34.49553 75.72533,-77.00351 0,-42.50685 -33.90669,-77.00353 -75.72533,-77.00353 z m 0,1.98242 c 40.72896,0 73.7429,33.56759 73.7429,75.02111 0,41.4547 -33.01394,75.0211 -73.7429,75.0211 -40.73015,0 -73.745308,-33.5664 -73.745308,-75.0211 0,-41.45352 33.015158,-75.02111 73.745308,-75.02111 z"
       id="path8-7" /><path
       inkscape:connector-curvature="0"
       style="fill:#dc0067"
       d="m -52.440622,811.294 c -56.937598,0 -103.158538,46.70647 -103.158538,104.116 0,57.40952 46.22094,104.116 103.158538,104.116 56.9376099,0 103.15854,-46.70648 103.15854,-104.116 0,-57.40953 -46.2209301,-104.116 -103.15854,-104.116 z m 0,10.76105 c 51.0652199,0 92.39749,41.70442 92.39749,93.35495 0,51.65052 -41.3322701,93.3549 -92.39749,93.3549 -51.065198,0 -92.397478,-41.70438 -92.397478,-93.3549 0,-51.65053 41.33228,-93.35495 92.397478,-93.35495 z"
       id="path10-0" /><path
       inkscape:connector-curvature="0"
       style="fill:#ffb400"
       d="m -193.32598,957.1126 h -15.43382 l 12.34636,11.70312 h -24.69388 v 11.70313 h 24.69388 l -12.34636,11.70313 h 15.43382 l 18.52012,-17.55528 z"
       id="path12-9" /><path
       inkscape:connector-curvature="0"
       style="fill:#ffb400"
       d="m -13.013972,936.68991 -19.36811,-20.04515 H 9.5825479 V 896.6008 H -32.382082 l 19.36811,-20.04513 h -25.82376 l -29.05219,30.06711 29.05219,30.06713 z"
       id="path14" /><path
       inkscape:connector-curvature="0"
       style="fill:#000000"
       d="m -241.62266,1072.8898 -4.15039,-28.8086 h 6.39648 l 1.3916,14.2578 q 0.1709,1.6114 0.26856,3.5401 0.0976,1.9043 0.14648,4.1015 h 0.19532 q 0.0488,-2.3681 0.17089,-4.541 0.14649,-2.1972 0.31739,-4.0283 l 1.29394,-13.3301 h 6.00586 l -4.15039,28.8086 z"
       id="path16" /><path
       inkscape:connector-curvature="0"
       style="fill:#000000"
       d="m -222.79942,1049.6476 v 17.4317 q 0,0.9521 0.26855,1.3672 0.26856,0.3906 0.87891,0.3906 0.61035,0 0.87891,-0.3906 0.26855,-0.4151 0.26855,-1.3672 v -17.4317 q 0,-0.9277 -0.29297,-1.3427 -0.26855,-0.4151 -0.90332,-0.4151 -0.58593,0 -0.85449,0.3907 -0.24414,0.3906 -0.24414,1.3671 z m -6.39648,1.9532 q 0,-4.4678 1.73339,-6.3233 1.75782,-1.8799 5.76172,-1.8799 4.00391,0 5.73731,1.8799 1.75781,1.8555 1.75781,6.3233 v 13.7939 q 0,4.4434 -1.75781,6.3233 -1.7334,1.8798 -5.73731,1.8798 -4.0039,0 -5.76172,-1.8798 -1.73339,-1.8799 -1.73339,-6.3233 z"
       id="path18" /><path
       inkscape:connector-curvature="0"
       style="fill:#000000"
       d="m -205.95372,1062.8312 q 0,1.001 0.24414,1.3916 0.26856,0.3662 0.90332,0.3662 0.58594,0 0.8545,-0.415 0.29296,-0.4394 0.29296,-1.3428 v -12.5 q 0,-0.8789 -0.29296,-1.2695 -0.26856,-0.415 -0.8545,-0.415 -0.63476,0 -0.90332,0.3662 -0.24414,0.3418 -0.24414,1.3183 z m 2.29492,3.711 h -0.0977 q -0.68359,1.6113 -1.80664,2.417 -1.09863,0.7812 -2.68554,0.7812 -2.09961,0 -3.07617,-1.1474 -0.97657,-1.1719 -0.97657,-3.711 v -16.8457 q 0,-2.1728 1.04981,-3.3203 1.0498,-1.1719 3.05176,-1.1719 1.51367,0 2.6123,0.708 1.09863,0.708 1.92871,2.2461 h 0.14649 v -2.417 h 6.20117 v 27.0996 q 0,4.5166 -1.7334,6.3477 -1.7334,1.8555 -5.76172,1.8555 -3.56445,0 -5.54199,-1.7334 -1.95313,-1.709 -1.95313,-4.8096 v -2.1973 h 6.34766 v 2.2461 q 0,0.9522 0.26855,1.3428 0.26856,0.415 0.87891,0.415 0.61035,0 0.87891,-0.415 0.26855,-0.415 0.26855,-1.3428 v -6.3476 z"
       id="path20-1" /><path
       inkscape:connector-curvature="0"
       style="fill:#000000"
       d="m -196.21251,1048.6955 v -4.6143 h 1.61133 v -5.3466 h 6.39649 v 5.3466 h 1.85547 v 4.6143 h -1.85547 v 17.5049 q 0,1.3427 0.31738,1.709 0.3418,0.3418 1.31836,0.3418 h 0.21973 v 4.6386 h -4.00391 q -2.31934,0 -3.2959,-1.0498 -0.95215,-1.0742 -0.95215,-4.0039 v -19.1406 z"
       id="path22" /><path
       inkscape:connector-curvature="0"
       style="fill:#000000"
       d="m -185.25059,1072.8898 v -36.0107 h 6.34765 v 36.0107 z"
       id="path24" /><path
       inkscape:connector-curvature="0"
       style="fill:#000000"
       d="m -168.16075,1066.3957 v -7.6416 q -0.14648,0.098 -0.39062,0.293 -1.9043,1.4648 -1.9043,2.5878 v 4.7608 q 0,0.9766 0.24414,1.3428 0.26856,0.3418 0.90332,0.3418 0.58594,0 0.85449,-0.3907 0.29297,-0.415 0.29297,-1.2939 z m -8.6914,-16.4063 q 0,-3.2714 1.87988,-4.9316 1.9043,-1.6602 5.61523,-1.6602 4.05274,0 5.76172,1.8555 1.7334,1.8311 1.7334,6.3477 v 17.5293 q 0,1.1474 0.0977,2.0507 0.12207,0.879 0.36621,1.709 h -6.44531 q -0.12208,-0.5127 -0.19531,-1.0254 -0.0732,-0.5371 -0.0732,-0.9765 v -0.4395 h -0.0977 q -0.6836,1.416 -1.85547,2.1729 -1.14746,0.7568 -2.68555,0.7568 -2.02637,0 -3.07617,-1.2207 -1.02539,-1.2207 -1.02539,-3.6133 v -6.1035 q 0,-2.2705 0.80566,-3.6865 0.83008,-1.4404 2.63672,-2.417 0.58594,-0.3174 1.66016,-0.8545 3.58886,-1.8311 3.58886,-3.4912 v -2.0508 q 0,-0.9277 -0.29296,-1.3428 -0.26856,-0.415 -0.90332,-0.415 -0.58594,0 -0.8545,0.415 -0.24414,0.4151 -0.24414,1.3428 v 4.1992 h -6.39648 v -4.1504 z"
       id="path26" /><path
       inkscape:connector-curvature="0"
       style="fill:#000000"
       d="m -159.76231,1072.8898 v -28.8086 h 6.25 v 2.417 h 0.0977 q 0.80566,-1.5136 1.92871,-2.2217 1.12305,-0.7324 2.6123,-0.7324 2.0752,0 3.1006,1.2451 1.0498,1.2207 1.0498,3.6622 v 24.4384 h -6.39649 v -22.3388 q 0,-1.001 -0.26855,-1.3428 -0.24414,-0.3662 -0.87891,-0.3662 -0.58594,0 -0.87891,0.415 -0.26855,0.4151 -0.26855,1.294 v 22.3388 h -6.34766 z"
       id="path28-2" /><path
       inkscape:connector-curvature="0"
       style="fill:#000000"
       d="m -127.77989,1072.8898 h -6.25 v -2.4902 h -0.0977 q -0.63476,1.5869 -1.78223,2.3926 -1.12304,0.8056 -2.75878,0.8056 -2.0752,0 -3.10059,-1.1963 -1.00097,-1.2207 -1.00097,-3.6621 v -20.288 q 0,-2.4659 1.02539,-3.6866 1.02539,-1.2207 3.07617,-1.2207 1.51367,0 2.61231,0.7324 1.09863,0.7325 1.83105,2.2217 h 0.0977 v -9.6191 h 6.34766 v 36.0107 z m -8.64257,-6.2988 q 0,1.001 0.24414,1.3916 0.26855,0.3662 0.90332,0.3662 0.58593,0 0.85449,-0.4394 0.29297,-0.4395 0.29297,-1.3184 v -16.04 q 0,-0.8789 -0.29297,-1.294 -0.26856,-0.415 -0.85449,-0.415 -0.63477,0 -0.90332,0.3662 -0.24414,0.3418 -0.24414,1.3428 z"
       id="path30" /><path
       inkscape:connector-curvature="0"
       style="fill:#000000"
       d="m -125.28965,1072.8898 v -7.3486 h 6.6162 v 7.3486 z"
       id="path32-6" /><path
       inkscape:connector-curvature="0"
       style="fill:#000000"
       d="m -115.20665,1072.8898 v -24.2431 h -1.5625 v -4.5655 h 1.5625 v -2.7343 q 0,-2.0996 1.26954,-3.2715 1.26953,-1.1963 3.54004,-1.1963 h 3.58886 v 4.5166 q -1.12305,0 -1.58691,0.2685 -0.46386,0.2442 -0.46386,0.8789 v 1.5381 h 2.05077 v 4.5655 h -2.05077 v 24.2431 z"
       id="path34" /><path
       inkscape:connector-curvature="0"
       style="fill:#000000"
       d="m -105.66075,1072.8898 v -28.8086 h 6.249998 v 2.417 h 0.0976 q 0.80566,-1.5136 1.9287,-2.2217 1.12305,-0.7324 2.61231,-0.7324 2.07519,0 3.10059,1.2451 1.0498,1.2207 1.0498,3.6622 v 11.1328 h -6.39649 v -9.0332 q 0,-1.001 -0.26855,-1.3428 -0.24414,-0.3662 -0.87891,-0.3662 -0.58594,0 -0.8789,0.415 -0.26855,0.4151 -0.26855,1.294 v 22.3388 h -6.347658 z"
       id="path36-2" /><path
       inkscape:connector-curvature="0"
       style="fill:#000000"
       d="m -81.832622,1049.6476 v 5.4444 h 2.29492 v -5.4444 q 0,-0.9521 -0.26856,-1.3427 -0.26855,-0.4151 -0.8789,-0.4151 -0.61035,0 -0.87891,0.4151 -0.26855,0.3906 -0.26855,1.3427 z m 0,17.4317 q 0,0.9521 0.26855,1.3672 0.26856,0.3906 0.87891,0.3906 0.61035,0 0.8789,-0.3906 0.26856,-0.4151 0.26856,-1.3672 v -5.3955 h 6.34765 v 5.3467 q 0,3.125 -1.97753,4.8584 -1.95313,1.7089 -5.51758,1.7089 -4.02832,0 -5.76172,-1.8554 -1.73339,-1.8555 -1.73339,-6.3477 v -13.7939 q 0,-4.541 1.70897,-6.3721 1.70899,-1.8311 5.73732,-1.8311 3.54003,0 5.54198,1.6602 2.00195,1.6357 2.00195,4.541 v 9.7901 h -8.64257 z"
       id="path38" /><path
       inkscape:connector-curvature="0"
       style="fill:#000000"
       d="m -71.188102,1072.8898 v -28.8086 h 6.34767 v 28.8086 z m 0,-30.542 v -5.4687 h 6.34767 v 5.4687 z"
       id="path40" /><path
       inkscape:connector-curvature="0"
       style="fill:#000000"
       d="m -61.691022,1072.8898 v -24.2431 h -1.5625 v -4.5655 h 1.5625 v -2.7343 q 0,-2.0996 1.26954,-3.2715 1.26952,-1.1963 3.54003,-1.1963 h 3.58887 v 4.5166 q -1.12305,0 -1.58692,0.2685 -0.46386,0.2442 -0.46386,0.8789 v 1.5381 h 2.05078 v 4.5655 h -2.05078 v 24.2431 z"
       id="path42-2" /><path
       inkscape:connector-curvature="0"
       style="fill:#000000"
       d="m -37.106062,1044.0812 v 28.8086 h -6.25 v -2.3925 h -0.14649 q -0.80566,1.4892 -1.9043,2.1972 -1.07421,0.6836 -2.58788,0.6836 -2.07519,0 -3.125,-1.1963 -1.02539,-1.2207 -1.02539,-3.6377 v -24.4629 h 6.34765 v 22.3633 q 0,0.9522 0.26856,1.3184 0.29296,0.3662 0.92774,0.3662 0.58594,0 0.83007,-0.3906 0.26855,-0.3907 0.26855,-1.294 v -22.3633 z"
       id="path44-5" /><path
       inkscape:connector-curvature="0"
       style="fill:#000000"
       d="m -35.055282,1072.8898 v -28.8086 h 6.25 v 2.417 h 0.0976 q 0.80566,-1.5136 1.92871,-2.2217 1.12305,-0.7324 2.6123,-0.7324 2.0752,0 3.10059,1.2451 1.0498,1.2207 1.0498,3.6622 v 24.4384 h -6.39647 v -22.3388 q 0,-1.001 -0.26857,-1.3428 -0.24413,-0.3662 -0.8789,-0.3662 -0.58593,0 -0.87891,0.415 -0.26851,0.4151 -0.26851,1.294 v 22.3388 h -6.34766 z"
       id="path46" /><path
       inkscape:connector-curvature="0"
       style="fill:#000000"
       d="m -17.965432,1072.8898 v -36.0107 h 6.34765 v 19.751 h 0.0976 l 2.7099599,-12.5489 h 6.49414 l -3.14941,12.4512 3.14941,16.3574 h -6.68945 l -2.5146499,-15.0879 h -0.0976 v 15.0879 z"
       id="path48" /><path
       inkscape:connector-curvature="0"
       style="fill:#000000"
       d="m -1.0709121,1072.8898 v -7.3486 h 6.61621 v 7.3486 z"
       id="path50" /><path
       inkscape:connector-curvature="0"
       style="fill:#000000"
       d="m 8.0111279,1072.8898 v -28.8086 h 6.2500001 v 2.417 h 0.0976 q 0.80568,-1.5136 1.92872,-2.2217 1.12305,-0.7324 2.61231,-0.7324 2.07519,0 3.10059,1.2451 1.0498,1.2207 1.0498,3.6622 v 24.4384 h -6.39649 v -22.3388 q 0,-1.001 -0.26855,-1.3428 -0.24414,-0.3662 -0.87891,-0.3662 -0.58594,0 -0.8789,0.415 -0.26857,0.4151 -0.26857,1.294 v 22.3388 H 8.0110779 Z"
       id="path52" /><path
       inkscape:connector-curvature="0"
       style="fill:#000000"
       d="m 31.350968,1049.6476 v 5.4444 h 2.29492 v -5.4444 q 0,-0.9521 -0.26855,-1.3427 -0.26856,-0.4151 -0.87891,-0.4151 -0.61035,0 -0.8789,0.4151 -0.26856,0.3906 -0.26856,1.3427 z m 0,17.4317 q 0,0.9521 0.26856,1.3672 0.26855,0.3906 0.8789,0.3906 0.61035,0 0.87891,-0.3906 0.26855,-0.4151 0.26855,-1.3672 v -5.3955 h 6.34766 v 5.3467 q 0,3.125 -1.97753,4.8584 -1.95313,1.7089 -5.51759,1.7089 -4.02831,0 -5.76171,-1.8554 -1.7334,-1.8555 -1.7334,-6.3477 v -13.7939 q 0,-4.541 1.70898,-6.3721 1.70898,-1.8311 5.7373,-1.8311 3.54004,0 5.54199,1.6602 2.00196,1.6357 2.00196,4.541 v 9.7901 h -8.64258 z"
       id="path54" /><path
       inkscape:connector-curvature="0"
       style="fill:#000000"
       d="m 40.994528,1048.6955 v -4.6143 h 1.61132 v -5.3466 h 6.39649 v 5.3466 h 1.85546 v 4.6143 h -1.85546 v 17.5049 q 0,1.3427 0.31738,1.709 0.3418,0.3418 1.31836,0.3418 h 0.21972 v 4.6386 h -4.0039 q -2.31933,0 -3.2959,-1.0498 -0.95215,-1.0742 -0.95215,-4.0039 v -19.1406 z"
       id="path56-2" /></g></svg>