<?xml version="1.0" encoding="UTF-8" standalone="no"?>
<svg
   xmlns:dc="http://purl.org/dc/elements/1.1/"
   xmlns:cc="http://creativecommons.org/ns#"
   xmlns:rdf="http://www.w3.org/1999/02/22-rdf-syntax-ns#"
   xmlns:svg="http://www.w3.org/2000/svg"
   xmlns="http://www.w3.org/2000/svg"
   id="svg2"
   style="fill-rule:evenodd;clip-rule:evenodd;stroke-linecap:round;stroke-linejoin:round;stroke-miterlimit:1.41421;"
   xml:space="preserve"
   version="1.1"
   viewBox="0 0 1280 1150"
   height="100%"
   width="100%"><metadata
     id="metadata36"><rdf:RDF><cc:Work
         rdf:about=""><dc:format>image/svg+xml</dc:format><dc:type
           rdf:resource="http://purl.org/dc/dcmitype/StillImage" /><dc:title></dc:title></cc:Work></rdf:RDF></metadata><g
     transform="translate(-3.2673463,-17.159077)"
     id="Ebene2"><path
       id="path5"
       style="fill:#e2e2e2;stroke:#000000;stroke-width:1px"
       d="m 502.736,1015.73 c 1.487,27.35 6.168,46.21 15.188,53.57 14.153,9.96 30.149,14.09 47.464,14.35 l 163.833,0 c 15.162,0.16 28.624,-4.28 39.997,-14.35 6.947,-7.37 11.655,-21.44 11.121,-53.57 l 3.297,-857.278 c 2.42,-39.839 -22.153,-56.968 -66.11,-57.788 l -147.43,0 c -39.605,1.088 -64.472,17.343 -65.834,57.788 l -1.526,857.278 z" /><path
       id="path7"
       style="fill:#e2e2e2;stroke:#000000;stroke-width:1px"
       d="m 509.775,947.341 266.22,0 0,81.499 c 0.272,12.57 -2.332,25.13 -8.629,37.66 -9.001,6.59 -19.463,12.04 -33.065,15.08 l -36.08,0 0,-11.06 c -8.744,-3.33 -17.197,-2.98 -25.441,0 l 0,11.06 -58.253,0 0,-11.06 c -7.755,-2.4 -15.478,-2.55 -23.163,0 l 0,11.06 -26.704,0 c -15.65,-1.49 -30.813,-5.81 -45.124,-15.08 -6.001,-11.74 -9.6,-24.59 -9.761,-39.03 l 0,-80.129 z" /><path
       id="path9"
       style="fill:#e2e2e2;stroke:#000000;stroke-width:1px"
       d="m 509.952,947.386 265.961,-0.071 0,-774.993 c -0.266,-10.453 -0.631,-20.896 -1.594,-31.284 -0.606,-10.507 -3.591,-16.279 -6.578,-19.413 -6.34,-5.75 -12.949,-9.427 -19.767,-11.505 -9.307,-3.481 -20.391,-4.352 -31.787,-4.765 l -142.497,0 c -14.882,0.006 -25.17,1.918 -33.204,4.765 -6.499,2.588 -12.526,6.189 -17.754,11.505 -4.724,6.372 -6.457,12.891 -8.133,19.413 -2.723,10.483 -4.134,20.905 -4.647,31.284 l 0,775.064 z" /><g
       id="g11"
       transform="translate(0,-1.12052)"><path
         id="path13"
         style="fill:#e2e2e2;stroke:#000000;stroke-width:1px"
         d="m 591.364,1082.71 23.163,0" /></g><g
       id="g15"
       transform="translate(0,-1.03433)"><path
         id="path17"
         style="fill:#e2e2e2;stroke:#000000;stroke-width:1px"
         d="m 672.78,1082.62 25.441,0" /></g><g
       id="g19"
       transform="translate(0,-3.3034)"><path
         id="path21"
         style="fill:url(#_Linear1)"
         d="m 509.952,176.225 265.961,0 c -0.231,-10.422 -0.548,-20.848 -1.563,-31.314 l -259.858,0 c -2.962,10.209 -3.859,20.744 -4.54,31.314 z" /></g><path
       id="path23"
       style="fill:none;stroke:#000000;stroke-width:1px"
       d="m 509.952,947.386 265.961,-0.071 0,-774.993 c -0.266,-10.453 -0.631,-20.896 -1.594,-31.284 -0.606,-10.507 -3.591,-16.279 -6.578,-19.413 -6.34,-5.75 -12.949,-9.427 -19.767,-11.505 -9.307,-3.481 -20.391,-4.352 -31.787,-4.765 l -142.497,0 c -14.882,0.006 -25.17,1.918 -33.204,4.765 -6.499,2.588 -12.526,6.189 -17.754,11.505 -4.724,6.372 -6.457,12.891 -8.133,19.413 -2.723,10.483 -4.134,20.905 -4.647,31.284 l 0,775.064 z" /></g><defs
     id="defs25"><linearGradient
       gradientTransform="matrix(0.118797,33.1361,-33.1361,0.118797,639.84,144.293)"
       gradientUnits="userSpaceOnUse"
       y2="0"
       x2="1"
       y1="0"
       x1="0"
       id="_Linear1"><stop
         id="stop28"
         style="stop-color:rgb(222,222,222);stop-opacity:1"
         offset="0%" /><stop
         id="stop30"
         style="stop-color:white;stop-opacity:1"
         offset="50%" /><stop
         id="stop32"
         style="stop-color:rgb(222,222,222);stop-opacity:1"
         offset="100%" /></linearGradient></defs><g
     transform="matrix(1.2059421,0,0,1.2059421,-68.186001,-0.298844)"
     id="g4222"><path
       style="fill:#000000"
       d="m 505.23407,317.75963 a 40.88441,41.8662 0 0 0 -5.29674,20.55999 40.88441,41.8662 0 0 0 2.60365,14.4611 41.164923,41.79607 0 0 0 0.44119,1.22619 40.88441,41.8662 0 0 0 0.75636,1.74418 41.164923,41.79607 0 0 0 1.17237,2.47302 40.88441,41.8662 0 0 0 0.10424,0.21086 c 0.006,-0.001 0.007,-0.004 0.0101,-0.006 a 41.164923,41.79607 0 0 0 36.2175,22.03716 41.164923,41.79607 0 0 0 34.28878,-18.78603 59.057519,59.057519 0 0 0 38.9071,14.79229 59.057519,59.057519 0 0 0 44.30125,-20.07982 l -0.67385,0 a 58.821092,58.821092 0 0 0 11.41393,-17.58503 59.451232,59.451232 0 0 0 0.54324,-1.48978 58.821092,58.821092 0 0 0 1.30179,-3.66942 59.451232,59.451232 0 0 0 0.57187,-2.23695 c -0.12324,0.16536 -0.24726,0.32451 -0.54781,0.68416 -0.11885,0.13371 -0.35632,0.29756 -0.5569,0.36441 -0.19316,0.0743 -0.53523,0.20824 -0.76556,0.30484 -0.23029,0.0966 -0.55685,0.17761 -0.72767,0.17761 l -0.30482,0 0,-2.17621 c 0,-2.11722 0.007,-2.17775 0.17759,-2.54177 0.30138,-0.64642 0.97719,-1.11043 1.78433,-1.31673 l 0.37931,0 0,-0.0745 c 0.46151,-0.0672 0.94957,-0.0598 1.43246,0.055 l 0,0 c 0.0469,0.011 0.0903,0.0259 0.13519,0.039 a 59.451232,59.451232 0 0 0 0.21436,-1.413 l -1.26401,0 -0.51919,0 0,-5.88688 c 0.39606,-0.0689 0.80756,-0.0701 1.21703,0.0252 0.42113,0.0966 0.80916,0.28783 1.15057,0.54433 a 59.451232,59.451232 0 0 0 0.11232,-2.25987 l -47.83427,0 c -34.87615,4e-5 -53.05268,-0.005 -70.94059,-0.0103 a 59.451232,59.451232 0 0 0 1.31557,10.85585 c 0.07,-0.57328 0.22743,-0.74308 0.59587,-1.09899 0.65377,-0.63887 1.51674,-0.95112 2.58648,-0.93627 0.36404,0.008 0.81016,0.0517 0.9959,0.0963 0.49026,0.14115 1.12901,0.49818 1.43359,0.81021 0.14855,0.14857 0.3331,0.45381 0.41483,0.66924 0.14861,0.37145 0.15585,0.5408 0.15585,2.83631 l 0,2.45238 -3.11932,0 -1.84159,0 a 59.451232,59.451232 0 0 0 0.56723,1.70522 c 0.0784,-0.003 0.16156,-0.0286 0.20397,-0.0642 0.0855,-0.0854 0.40194,-0.13374 0.76782,-0.1421 0.36588,-0.008 0.78208,0.0231 1.06807,0.0974 0.52744,0.13372 0.93603,0.34232 1.27774,0.63946 0.23776,0.21544 0.31813,0.3262 0.57074,0.80906 0.0742,0.1486 0.1043,1.13092 0.11915,4.47389 l 0.0125,3.50556 a 59.451232,59.451232 0 0 0 0.55465,0.90647 l -2.4627,0 a 62.413592,62.413592 0 0 1 -0.0699,-0.12263 l -1.17689,0 0,-0.581 c 0,-0.31292 -0.0297,-0.61081 -0.0596,-0.65551 -0.11172,-0.17135 -0.52073,-0.31283 -1.24335,-0.43204 -0.40977,-0.0745 -0.88637,-0.1799 -1.05773,-0.2395 l -0.32086,-0.11918 0.007,-3.17322 c 0.006,-2.78853 0.007,-3.29142 0.23034,-3.69578 A 62.413592,62.413592 0 0 1 554.0159,325.4867 l -2.68733,-0.0183 -3.35312,-0.0149 0.0226,-1.88514 0.022,-1.87711 0.20854,-0.43203 c 0.37254,-0.75991 1.18544,-1.40838 2.05708,-1.66168 0.52893,-0.15644 1.80251,-0.0963 2.32401,0.11231 0.33773,0.1311 0.62396,0.29032 0.87438,0.48131 a 62.413592,62.413592 0 0 1 -0.0836,-2.35039 c -29.3464,-0.0112 -45.04199,-0.0327 -48.16809,-0.0813 z m 29.8252,1.73959 c 0.31557,-0.01 0.63637,0.0242 0.95343,0.10657 1.15479,0.298 1.98194,1.04326 2.30227,2.06392 0.11178,0.37994 0.13411,0.69997 0.13411,2.11547 l 0,1.66854 -3.27862,0 -3.2775,0 0,-1.66854 c 0,-1.4155 0.0226,-1.73553 0.13405,-2.11547 0.3995,-1.27117 1.66477,-2.12919 3.03226,-2.17049 z m -15.88899,0.002 c 0.19714,0.009 0.39528,0.0335 0.59361,0.0745 1.02809,0.21605 1.89997,0.87883 2.31718,1.75793 0.23841,0.50661 0.23776,0.50631 0.26015,1.89201 l 0.0297,1.38549 -0.43199,-0.14095 c -0.87913,-0.298 -2.12337,-0.30603 -2.97268,-0.0229 -0.61837,0.2086 -1.31783,0.61131 -1.7946,1.03597 l -0.44696,0.40223 -0.54431,-0.15585 -0.53635,-0.157 0.022,-1.87023 0.0232,-1.86223 0.23836,-0.50651 c 0.56058,-1.1799 1.86327,-1.8924 3.24311,-1.83241 z m -7.99091,0.0114 c 0.37639,0.0142 0.74305,0.0798 1.05316,0.19711 0.60347,0.23093 1.17629,0.65486 1.49667,1.12421 0.46187,0.6556 0.50648,0.90901 0.50648,2.94286 l 0,1.80377 -0.49846,0.0894 -0.50653,0.0963 -0.44696,-0.26013 c -0.9014,-0.5364 -2.02703,-0.7684 -3.07003,-0.64175 -0.30548,0.0448 -0.58102,0.0601 -0.59592,0.0378 -0.0226,-0.0149 0.008,-0.10427 0.0529,-0.19366 0.0596,-0.10431 0.0671,-0.32828 0.0297,-0.64863 -0.0671,-0.64815 -0.43253,-1.2955 -0.84231,-1.51154 -0.35014,-0.17881 -0.5667,-0.57408 -0.49964,-0.93168 0.11173,-0.59601 0.79746,-1.37053 1.55738,-1.75794 0.47962,-0.25143 1.13637,-0.36965 1.76366,-0.34608 z m 32.15959,0.007 c 0.44981,0.0223 0.89784,0.0896 1.15859,0.19024 0.69286,0.26818 1.22268,0.66973 1.5654,1.19868 0.16393,0.26075 0.33464,0.59647 0.36445,0.73802 0.0374,0.149 0.0676,1.06561 0.0676,2.0341 l 0,1.77283 -3.31534,0 -3.32329,0 0.0232,-1.88512 0.022,-1.87711 0.20854,-0.43204 c 0.38744,-0.78226 1.1476,-1.40093 2.06391,-1.66167 0.26449,-0.0782 0.71567,-0.10028 1.16548,-0.0779 z m -16.55939,0.001 c 0.52316,-0.0168 1.18722,0.055 1.54478,0.18909 0.90146,0.34269 1.61636,1.03581 1.92184,1.87023 0.14154,0.37993 0.15585,0.5957 0.15585,1.98141 0,1.43039 -0.008,1.54191 -0.11921,1.43018 -0.082,-0.082 -0.13405,-0.30536 -0.16387,-0.65552 l -0.0368,-0.52943 -0.3954,-0.25326 c -0.21602,-0.14155 -0.52138,-0.2905 -0.68526,-0.32776 -0.27566,-0.0745 -0.44684,-0.18613 -1.10246,-0.71509 -0.25326,-0.20114 -0.33452,-0.22288 -0.85602,-0.23034 -0.3129,-0.007 -0.738,-0.067 -0.93169,-0.13407 -0.43954,-0.14156 -0.58838,-0.14956 -1.22161,-0.0825 -0.43953,0.0521 -0.51449,0.0894 -0.79764,0.38735 l -0.31967,0.32088 0,-0.32774 c 0,-0.46936 0.25262,-1.21468 0.55809,-1.63188 0.42463,-0.57366 1.24442,-1.08809 1.98937,-1.24454 0.12669,-0.0261 0.28516,-0.0414 0.45955,-0.047 z m 40.78997,0.0389 c 0.37152,10e-4 0.74554,0.0559 1.10584,0.16732 0.95094,0.29715 1.86458,1.15163 2.09486,1.96879 0.0594,0.19315 0.0894,0.9433 0.0894,2.06505 l 0,1.75334 -3.34284,0 -3.34278,0 0,-1.78314 c 0,-2.0132 0.0368,-2.2056 0.57181,-2.90391 0.61844,-0.80788 1.70902,-1.27336 2.82372,-1.26745 z m 15.99322,0.0114 c 0.34919,0 0.80215,0.0449 1.00273,0.10428 0.94346,0.24515 1.69488,0.85481 2.09605,1.67198 l 0.20741,0.41599 0.0232,1.87139 0.022,1.8794 -3.31421,0 -3.305,0 0,-1.78315 c 0,-1.56748 0.0148,-1.82642 0.14095,-2.15328 0.46062,-1.21091 1.69369,-1.99918 3.12741,-2.00661 z m 8.15942,0.002 c 0.41132,0.002 0.82621,0.0501 1.13447,0.1467 0.87664,0.26743 1.61113,0.87697 1.98254,1.62728 0.16346,0.34172 0.20011,0.55619 0.25214,1.33622 0.0368,0.51259 0.0457,1.35938 0.016,1.8794 l -0.0445,0.95116 -3.34284,0 -3.33476,0 0.0208,-1.88055 c 0.022,-1.87206 0.0226,-1.87021 0.22345,-2.28623 0.37141,-0.75031 1.09908,-1.35301 1.97565,-1.63531 0.29716,-0.0929 0.70599,-0.13959 1.11737,-0.13867 z m 72.35476,0.004 c 0.17522,0.01 0.35163,0.0347 0.52715,0.0756 0.90633,0.20801 1.67825,0.82569 2.10169,1.68 l 0.24524,0.49736 0.022,1.84159 0.0297,1.84273 -3.09759,0 -3.09759,0 0.0297,-1.84273 0.022,-1.84159 0.24525,-0.49736 c 0.56557,-1.14404 1.74596,-1.82307 2.97267,-1.75564 z m -104.65762,0.001 c 0.34914,-0.007 0.80215,0.038 1.00274,0.0974 0.9286,0.24515 1.69309,0.84731 2.08683,1.64219 l 0.21543,0.44464 0.0232,1.87253 0.022,1.8794 -3.31302,0 -3.31302,0 0.022,-1.8794 0.0232,-1.87253 0.20741,-0.42975 c 0.54229,-1.09204 1.67219,-1.74706 3.02423,-1.75448 z m 52.82501,10e-4 c 0.55156,-5.8e-4 1.10424,0.0368 1.46454,0.11116 1.99097,0.40859 3.8489,1.81945 4.7329,3.59494 0.11142,0.22288 0.24423,0.43098 0.28878,0.46068 0.0445,0.0297 0.0594,0.0596 0.0297,0.0596 -0.0297,0 0.0154,0.19258 0.0974,0.42287 0.33434,0.95831 0.34848,1.21848 0.37818,5.3712 l 0.0232,3.9754 -6.96869,0.0217 -6.9687,0.0149 0.0232,-4.13813 c 0.0297,-4.01899 0.0291,-4.16033 0.19257,-4.73976 0.20794,-0.73546 0.66179,-1.7011 1.08523,-2.29539 0.95088,-1.32977 2.5844,-2.40689 4.16679,-2.74118 0.35281,-0.078 0.90377,-0.11711 1.45539,-0.11804 z m 35.78201,0.001 c 0.3009,-0.001 0.6021,0.0315 0.87325,0.102 0.92118,0.23773 1.80464,0.98774 2.1315,1.80492 0.15604,0.39371 0.17142,0.54941 0.19369,2.2209 l 0.022,1.80605 -3.20189,0 -3.20183,0 0.0232,-1.80605 c 0.022,-1.67149 0.0374,-1.82719 0.19363,-2.2209 0.3195,-0.80232 1.20967,-1.55919 2.09373,-1.7969 0.27114,-0.0705 0.57234,-0.10815 0.87325,-0.11002 z m -16.305,10e-4 c 0.17427,-0.0121 0.35044,-0.0112 0.52602,0.002 0.2007,0.0154 0.40045,0.0475 0.59824,0.0986 1.04003,0.27487 1.81914,0.88298 2.22779,1.73729 l 0.23034,0.49049 0.0232,1.79803 0.022,1.80607 -3.38638,0 -3.38869,0 0.0232,-1.80607 0.022,-1.79803 0.23034,-0.49049 c 0.50624,-1.05791 1.65319,-1.75334 2.87295,-1.83815 z m 23.99911,0.008 c 0.16233,-0.0123 0.32608,-0.0124 0.49049,0 0.18782,0.0142 0.37598,0.0445 0.56267,0.0928 0.92118,0.24516 1.70913,0.89039 2.10287,1.72241 0.20058,0.42345 0.20118,0.45411 0.22345,2.26674 l 0.0297,1.84274 -3.1732,0 -3.17207,0 0.0297,-1.84274 c 0.0226,-1.81263 0.0232,-1.84329 0.22345,-2.26674 0.49483,-1.05222 1.54656,-1.72885 2.68276,-1.81523 z m -79.98811,0.002 c 0.77257,0.0222 0.85519,0.038 1.39006,0.29796 0.6909,0.32687 1.20349,0.809 1.50807,1.42559 l 0.2155,0.44579 0.022,1.87253 0.0232,1.8794 -3.31421,0 -3.31302,0 0.0232,-1.8794 0.022,-1.87253 0.2086,-0.43089 c 0.27489,-0.54973 0.78707,-1.06886 1.35911,-1.366 0.63145,-0.3343 0.90562,-0.39474 1.8565,-0.37245 z m 64.02007,0.006 c 0.52162,-0.0167 1.18246,0.0542 1.53902,0.18795 0.93603,0.35658 1.65782,1.07665 1.92528,1.93096 0.12622,0.4086 0.14778,0.68406 0.14778,2.13268 l 0,1.66395 -3.30494,0 -3.30619,0 0,-1.66395 c 0,-1.88692 0.0815,-2.31092 0.55696,-2.96465 0.42344,-0.57202 1.24079,-1.08394 1.98366,-1.23995 0.12628,-0.026 0.28451,-0.0414 0.45843,-0.047 z m -40.02791,1.53676 c 0.27672,-0.007 0.55773,0.0243 0.7323,0.0986 0.37889,0.15601 0.79407,0.56552 0.9798,0.9741 0.16346,0.34916 0.17766,0.46038 0.17766,1.8347 l 0,1.47143 -1.8565,0 -1.85763,0 0,-1.39694 c 0,-1.10689 0.0232,-1.47907 0.12717,-1.76137 0.13376,-0.40115 0.57929,-0.89155 0.98788,-1.09212 0.15966,-0.078 0.43259,-0.12184 0.70932,-0.12835 z m 24.15609,0.16388 c 0.31456,0.0172 0.63768,0.0989 0.86748,0.23263 0.18574,0.11143 0.42374,0.31151 0.53522,0.45267 0.34914,0.46058 0.39363,0.71328 0.40105,2.16933 l 0,1.36027 -1.86452,0 -1.86564,0 0.0297,-1.47143 c 0.0226,-1.44862 0.0226,-1.47121 0.23034,-1.81294 0.23034,-0.39372 0.58731,-0.69088 0.9959,-0.84687 0.10584,-0.0409 0.22998,-0.0668 0.36208,-0.0791 0.0991,-0.009 0.20343,-0.0103 0.30827,-0.004 z m -40.42094,5.41131 c 0.43247,0.008 1.15995,0.0978 1.41073,0.19252 0.66856,0.26001 1.41934,0.98723 1.65704,1.61125 0.14861,0.39371 0.15586,0.55828 0.15586,2.75721 l 0,2.33895 -3.01622,0 -3.00819,0 0.022,-2.43634 c 0.022,-2.41437 0.0226,-2.42933 0.2086,-2.80079 0.33429,-0.676 1.06902,-1.27725 1.8565,-1.51497 0.18567,-0.052 0.37081,-0.11119 0.40794,-0.12606 0.0499,-0.0185 0.16179,-0.0245 0.30601,-0.0217 z m -32.28563,0.0137 c 0.42183,0.007 0.85168,0.0513 1.11618,0.12951 0.8344,0.26073 1.48342,0.80436 1.80375,1.51955 0.13412,0.29802 0.14897,0.50733 0.14897,2.75724 l 0,2.44322 -3.09183,0 -3.09985,0 0.0232,-2.5177 0.022,-2.51084 0.20171,-0.34266 c 0.35756,-0.61089 1.05072,-1.13275 1.81064,-1.3786 0.23093,-0.0745 0.64392,-0.10623 1.06575,-0.0997 z m -8.02756,0.004 c 0.22446,0.003 0.45254,0.027 0.68068,0.0745 0.9238,0.19368 1.75844,0.79633 2.12349,1.54134 l 0.2086,0.42515 0.0149,2.42145 c 0.008,1.4602 -0.007,2.36187 -0.0517,2.27248 -0.0374,-0.082 -0.0676,-0.37241 -0.0676,-0.64061 -0.008,-0.26819 -0.0588,-0.64171 -0.12604,-0.83542 -0.0969,-0.29055 -0.17932,-0.37985 -0.49964,-0.56611 -0.21609,-0.12664 -0.54378,-0.35007 -0.7449,-0.50651 -1.68371,-1.34101 -2.01906,-1.51214 -3.07697,-1.51957 -0.36505,0 -0.78208,-0.0447 -0.92368,-0.10429 -0.24584,-0.0894 -0.27554,-0.082 -0.47672,0.10429 l -0.21655,0.19367 0.0445,-0.43891 c 0.13691,-1.40805 1.53992,-2.4401 3.11137,-2.42146 z m 32.61683,0.0229 c 0.15508,-0.003 0.26591,-5.8e-4 0.29561,0.0103 0.0594,0.0148 0.23824,0.0453 0.39428,0.0676 0.15597,0.0223 0.29739,0.0734 0.31967,0.10314 0.022,0.0372 0.0884,0.0676 0.14784,0.0676 0.14118,0 0.6394,0.34135 1.04056,0.7128 0.20801,0.19315 0.3647,0.43109 0.4687,0.72082 0.14861,0.40116 0.15586,0.57212 0.15586,2.80076 l 0,2.37676 -3.04603,0 -3.04598,0 0,-2.39852 0,-2.40771 0.22345,-0.43777 c 0.26747,-0.53486 0.63145,-0.89999 1.26289,-1.264 0.43829,-0.25258 0.549,-0.28088 1.22506,-0.32546 0.20426,-0.0149 0.403,-0.0235 0.55809,-0.0264 z m 72.13244,0.0286 c 0.26716,-0.01 0.53902,0.016 0.81017,0.0791 0.90633,0.20799 1.83505,0.98721 2.16934,1.82667 0.17088,0.41602 0.17824,0.52037 0.20058,2.67472 l 0.0232,2.2507 -3.0907,0 -3.09069,0 0.0232,-2.2507 c 0.0297,-2.64466 0.0517,-2.77139 0.80215,-3.56628 0.59058,-0.63516 1.35169,-0.98495 2.1533,-1.01419 z m -7.86374,0.006 c 0.3183,-0.002 0.64136,0.0295 0.96263,0.0963 0.91376,0.19315 1.73919,0.74993 2.0066,1.34423 0.12633,0.26745 0.14095,0.54193 0.14095,2.83744 l 0,2.54866 -3.08262,0 -3.08387,0 0,-2.54866 c 0,-2.87496 0.008,-2.8967 0.57989,-3.40928 0.61843,-0.55718 1.52162,-0.86309 2.47642,-0.86865 z m -8.30833,0.001 c 0.1751,-0.0118 0.35192,-0.0113 0.52827,0.002 0.20165,0.0157 0.40295,0.0487 0.60169,0.0997 1.02512,0.26744 1.82603,0.8841 2.23461,1.72355 l 0.2155,0.43204 0.0232,2.27934 0.022,2.28852 -3.38638,0 -3.38869,0 0.0232,-2.28852 0.022,-2.27934 0.21543,-0.43204 c 0.51194,-1.05222 1.66471,-1.74294 2.89018,-1.82554 z m 24.06212,0.004 c 0.30245,-0.01 0.61304,0.0119 0.92136,0.0676 0.89149,0.16344 1.76111,0.74376 2.08797,1.39007 0.11885,0.24514 0.13358,0.53503 0.15586,2.81567 l 0.022,2.54751 -3.05286,0 -3.05292,0 0.022,-2.54751 c 0.022,-2.86008 0.0137,-2.80866 0.6005,-3.39553 0.54604,-0.53488 1.38905,-0.84856 2.29651,-0.87782 z m -64.4647,0.007 c 0.61285,-0.0209 1.40556,0.0554 1.75101,0.1891 0.65377,0.25258 1.24079,0.77801 1.55286,1.37975 l 0.26586,0.5134 0.0232,2.363 0.022,2.36874 -3.16405,0 -3.16525,0 0.0232,-2.36186 0.022,-2.35498 0.2086,-0.39422 c 0.39374,-0.7503 1.28468,-1.51421 1.93098,-1.64792 0.14112,-0.0297 0.32626,-0.048 0.53059,-0.055 z m -23.72981,0.002 c 0.92119,0.0223 0.93461,0.0216 1.57348,0.33348 l 0,0 c 0.52001,0.25258 0.71234,0.39454 0.9798,0.72884 0.1931,0.2303 0.34207,0.4384 0.34949,0.46068 0,0.0297 0.0226,0.11883 0.0445,0.20055 0.0595,0.18571 0.0588,0.66903 0.0368,3.1354 l -0.016,1.95274 -3.11933,0 -3.12051,0 0,-2.47302 c 0,-2.44408 4.7e-4,-2.47459 0.17878,-2.83859 0.28974,-0.60916 0.9213,-1.11346 1.73842,-1.38089 0.34176,-0.11143 0.60198,-0.14147 1.35228,-0.11919 z m 96.3768,0.007 c 0.42968,0.0118 0.88133,0.0743 1.17807,0.17878 l 0,10e-4 c 0.78742,0.27487 1.3666,0.79465 1.58945,1.40382 0.0743,0.21544 0.0969,0.88287 0.1043,2.75493 l 0,2.4673 -2.87526,-0.0149 -2.88216,-0.0229 0,-2.56241 0,-2.56241 0.20058,-0.34952 c 0.34171,-0.57945 0.98771,-1.0182 1.80488,-1.22619 0.12818,-0.0316 0.28837,-0.0519 0.46413,-0.0619 0.1318,-0.008 0.27275,-0.009 0.41601,-0.006 z m -64.18626,0.68301 c 0.26764,0.008 0.5439,0.0892 0.83084,0.24524 0.40859,0.22286 0.80079,0.72833 0.92712,1.18149 0.0446,0.156 0.0745,1.21187 0.0745,2.4822 l 0,2.21402 -1.8565,0 -1.85763,0 0,-2.22892 c 0,-2.56295 0.0374,-2.76389 0.60965,-3.32104 0.40395,-0.39466 0.82603,-0.58641 1.27203,-0.57299 z m 23.94066,0.12376 c 0.40895,-0.0111 0.83144,0.0676 1.19637,0.24868 0.26004,0.13371 0.49875,0.31155 0.60281,0.46756 0.1634,0.25258 0.16269,0.28284 0.16269,2.7641 l 0,2.51885 -1.85763,0 -1.85762,0 0,-2.51197 c 0,-2.34752 0.008,-2.51833 0.14896,-2.74119 0.27863,-0.45966 0.92285,-0.72745 1.60442,-0.74603 z m -32.40484,7.48948 c 0.1501,-0.009 0.30358,-0.009 0.46068,0 0.17956,0.0107 0.36363,0.0335 0.5512,0.0688 0.93609,0.17831 1.70153,0.73485 2.02839,1.4703 0.23028,0.51259 0.23777,0.69127 0.21543,3.96737 l -0.0149,2.43635 -2.97267,0 -2.97951,0 0.0232,-3.06664 0.022,-3.06205 0.20052,-0.33348 c 0.54603,-0.90434 1.41554,-1.41677 2.46615,-1.4806 z m -16.14457,0.004 c 0.38495,-0.0202 0.78766,0.01 1.19072,0.0951 0.61654,0.13372 1.16637,0.40834 1.52299,0.75749 0.52744,0.52744 0.51277,0.45352 0.4905,3.95249 l -0.0148,3.13424 -2.93484,0 -2.93372,0 0,-3.11935 c 0,-3.00126 0.007,-3.13508 0.15586,-3.4471 0.37325,-0.80231 1.36873,-1.3123 2.5234,-1.37288 z m -8.18341,0.0148 c 0.57009,-0.0171 1.29882,0.0615 1.67771,0.20628 0.59432,0.21543 1.04063,0.53444 1.28582,0.89845 l 0.20052,0.31285 0.022,3.01621 c 0.0226,2.91209 0.0154,3.03791 -0.13293,3.43908 -0.18574,0.49028 -0.60959,0.91354 -0.99584,0.98784 -0.23029,0.0371 -0.26818,0.0749 -0.26818,0.25326 0,0.39371 -0.073,0.40859 -2.27934,0.43088 l -2.02839,0.0298 0,-3.95935 c 0,-3.86297 0.007,-3.96821 0.15585,-4.28023 0.27489,-0.56458 1.06962,-1.11263 1.86452,-1.28349 0.13554,-0.0279 0.30851,-0.0457 0.49851,-0.0515 z m 16.64647,0.004 c 0.40455,0.009 0.80209,0.0674 1.10014,0.17876 0.6315,0.24517 1.14439,0.67635 1.39695,1.18151 l 0.21543,0.43089 0.0232,3.06205 0.022,3.06664 -2.86838,0 -2.86606,0 0.022,-3.06664 0.0232,-3.06205 0.22232,-0.40109 c 0.13371,-0.24514 0.3707,-0.52016 0.59361,-0.69103 0.20801,-0.156 0.41607,-0.31925 0.46068,-0.35639 0.28784,-0.23681 0.98177,-0.35798 1.65592,-0.34265 z m -33.00184,0.0378 c 0.13418,-0.004 0.29277,-0.002 0.47897,0.004 0.60347,0.0149 0.77525,0.0452 1.15515,0.23148 0.53641,0.2533 1.13221,0.83478 1.37063,1.31903 0.0894,0.20114 0.20112,0.35755 0.23836,0.35755 0.0374,0 0.0676,0.96012 0.0676,2.28622 0,1.39315 -0.0303,2.25815 -0.0676,2.2209 -0.0596,-0.067 -0.23093,-1.04382 -0.35757,-2.07192 -0.0297,-0.2384 -0.14944,-0.39412 -0.738,-0.97523 -0.64813,-0.64815 -0.92367,-1.05082 -0.92367,-1.34882 0,-0.067 -0.0962,-0.24521 -0.21544,-0.39422 -0.12663,-0.149 -0.24637,-0.38044 -0.27619,-0.49963 -0.0297,-0.12666 -0.1707,-0.36498 -0.31973,-0.53633 -0.25327,-0.29799 -0.29098,-0.31342 -0.66352,-0.32087 -0.28308,0 -0.38732,-0.0298 -0.37242,-0.0894 0.0392,-0.11734 0.22078,-0.17175 0.62343,-0.18222 z m 105.22712,0.0137 c 0.35507,-0.0138 0.72077,0.02 1.08297,0.10543 0.80227,0.19316 1.4042,0.58717 1.76824,1.16661 0.17082,0.27486 0.17872,0.334 0.16387,1.37402 l -0.022,1.08525 -0.25327,-0.21545 c -0.14113,-0.11143 -0.43781,-0.29021 -0.66809,-0.39422 -0.37147,-0.156 -0.55756,-0.17768 -1.62729,-0.20742 l -1.21133,-0.038 -0.28992,0.20055 c -0.15603,0.11143 -0.48313,0.23846 -0.73574,0.28305 -0.49769,0.0966 -0.51152,0.11095 -0.67498,0.88355 -0.1634,0.82461 -0.22233,0.54222 -0.22233,-1.09212 0,-1.56006 0.007,-1.60454 0.17766,-1.8794 0.47915,-0.76332 1.44672,-1.23061 2.512,-1.27203 z m -24.09302,0.0103 c 0.15669,-0.0102 0.31397,-0.01 0.4687,0 0.20623,0.0134 0.40847,0.0451 0.60163,0.0951 0.2377,0.0594 0.56486,0.17788 0.73569,0.26701 0.46804,0.23772 1.06171,0.83947 1.25487,1.27777 0.1783,0.37886 0.17824,0.42433 0.20052,3.29927 l 0.022,2.91881 -3.05287,0 -3.05405,0 0.0232,-2.91881 c 0.022,-2.87494 0.022,-2.92041 0.20058,-3.29927 0.1931,-0.4383 0.78795,-1.04005 1.256,-1.27777 0.40532,-0.20893 0.87408,-0.33122 1.3442,-0.36212 z m 7.99775,0.008 c 0.50635,-0.0175 1.17302,0.059 1.51841,0.19826 0.54977,0.21543 1.06189,0.60903 1.32935,1.01762 0.43086,0.65374 0.45379,0.81842 0.45379,3.86424 l 0,2.76983 -2.97149,0 -2.97956,0 0.0232,-2.91881 0.022,-2.91193 0.20058,-0.42401 c 0.34171,-0.72802 1.10074,-1.32305 1.96988,-1.54593 0.11517,-0.0279 0.26557,-0.0436 0.43437,-0.0493 z m 8.47909,0.002 c 0.39932,0.0196 0.79918,0.0851 1.07038,0.18909 0.83197,0.31943 1.38192,0.81759 1.55275,1.42675 0.0445,0.14114 0.0745,1.51503 0.0745,3.23852 l 0,2.9933 -2.86155,0 -2.86606,0 0.022,-3.14112 c 0.022,-2.83038 0.0368,-3.15832 0.15586,-3.37377 0.30458,-0.55715 0.95741,-1.01765 1.78201,-1.24796 0.27114,-0.078 0.671,-0.1043 1.07032,-0.0848 z m -36.91197,0.65436 c 0.26093,-0.0129 0.5708,-0.009 1.01651,0.009 1.31492,0.052 1.60424,0.13283 2.82252,0.73457 1.53036,0.76516 2.74145,2.30373 3.24656,4.11636 0.16346,0.57945 0.16387,0.65459 0.16387,6.27079 0.006,2.37236 -0.01,4.08728 -0.0321,5.00906 a 6.4963271,4.6261724 0 0 0 -4.11173,4.30087 6.4963271,4.6261724 0 0 0 0.006,0.0985 l -2.15787,0 a 4.6432904,3.0513051 0 0 0 0.022,-0.29452 4.6432904,3.0513051 0 0 0 -4.64238,-3.05174 4.6432904,3.0513051 0 0 0 -1.02453,0.0791 c -0.14374,-0.0603 -0.62996,-0.4214 -1.21472,-0.90419 l -0.24524,-0.20054 0,-4.6733 c 0,-2.57037 0.0303,-4.67329 0.0676,-4.67329 0.0297,0 0.0808,-0.35647 0.10311,-0.8022 0.0445,-0.83946 0.19357,-1.46282 0.57989,-2.30226 0.11143,-0.25258 0.21602,-0.49057 0.22345,-0.52028 0.0148,-0.0298 0.0815,-0.11937 0.15586,-0.19367 0.0743,-0.0817 0.13292,-0.17084 0.13292,-0.20054 0,-0.14115 1.25577,-1.47831 1.38204,-1.47831 0.0594,0 0.10317,-0.0374 0.10317,-0.0745 0,-0.0445 0.0816,-0.11069 0.18562,-0.14783 0.0966,-0.0371 0.31219,-0.15614 0.47559,-0.26014 0.46062,-0.2823 1.33066,-0.60948 2.0215,-0.75062 0.24887,-0.0483 0.46109,-0.0776 0.72196,-0.0905 z m -11.75196,0.10771 c 0.2797,-0.0151 0.55619,0.0248 0.793,0.12492 0.45314,0.19316 0.69833,0.40203 0.86179,0.74374 0.14112,0.29716 0.14784,0.4528 0.16269,2.83744 0,1.38919 0.008,2.71833 0,2.9486 l -0.006,0.43089 -1.74644,0 -1.7465,0 0,-2.93485 c 0,-3.20181 0.008,-3.2602 0.42404,-3.6465 0.31575,-0.30178 0.79086,-0.4792 1.25712,-0.50424 z m 24.36463,0.0504 c 0.40117,0.0223 0.60935,0.0744 0.92136,0.24524 0.23771,0.12629 0.46787,0.3345 0.58672,0.50538 l 0.19369,0.29796 0.022,2.99329 0.0232,2.99329 -1.86564,0 -1.85763,0 0,-2.91078 c 0,-2.81553 0.008,-2.92024 0.15586,-3.23968 0.28225,-0.57944 0.98895,-0.92184 1.82092,-0.8847 z m -32.71079,8.5341 c 0.4327,-0.0205 0.92724,0.009 1.30981,0.0986 0.89891,0.21542 1.57425,0.66224 1.87141,1.24911 0.16346,0.31202 0.15639,0.029 0.14896,4.85781 l -0.007,2.622 -0.90645,0 -0.91453,-0.008 -0.44577,-0.28994 c -0.2377,-0.16344 -0.64647,-0.37038 -0.90645,-0.45954 -0.26004,-0.0966 -0.46757,-0.1926 -0.46757,-0.22231 0,-0.0298 0.0661,-0.18551 0.14784,-0.34151 0.104,-0.19315 0.15651,-0.46856 0.17878,-0.84 0.0149,-0.30457 0.0665,-0.81797 0.11113,-1.14483 0.0517,-0.33431 0.0744,-0.7569 0.0445,-0.96492 -0.0297,-0.20801 -0.0595,-0.68404 -0.0745,-1.07034 -0.0445,-1.07718 -0.22298,-1.64179 -0.89154,-2.77097 -0.20801,-0.35659 -0.23011,-0.43798 -0.14095,-0.51225 0.13738,-0.11144 0.50926,-0.1824 0.94197,-0.20284 z m 40.46905,0.0825 c 0.16969,-0.0102 0.34212,-0.01 0.51455,0.002 0.19708,0.014 0.39516,0.0428 0.59016,0.0882 0.91376,0.21543 1.65532,0.7936 1.84848,1.43248 0.0594,0.18572 0.0894,0.86954 0.0894,1.84273 l 0,1.55394 -0.15585,-0.23836 c -0.0817,-0.13372 -0.24555,-0.2895 -0.34955,-0.3415 -0.11137,-0.0594 -0.52649,-0.28998 -0.92023,-0.52028 -0.80227,-0.47544 -1.03279,-0.51275 -1.55275,-0.27504 -0.1783,0.0817 -0.38584,0.14899 -0.45266,0.14899 -0.0743,0 -0.28243,0.10348 -0.46068,0.23721 -0.38631,0.26743 -0.92908,0.34916 -1.44167,0.21545 l -0.31171,-0.0894 0,-1.12191 c 0,-0.63145 0.0362,-1.24039 0.0883,-1.40383 0.25594,-0.85884 1.32645,-1.45943 2.51426,-1.53103 z m 8.59141,0.006 0,0 c 0.39932,0.0196 0.79805,0.0851 1.06919,0.18909 0.54972,0.20802 0.98052,0.52703 1.23308,0.91334 l 0.20854,0.30484 0.007,1.52987 c 0.008,0.83946 4.8e-4,1.45631 -0.022,1.36716 -0.0594,-0.28973 -0.20854,-0.3493 -0.63946,-0.26014 -0.62402,0.12626 -1.27792,-0.10376 -1.56765,-0.54204 -0.10401,-0.16344 -0.15621,-0.17866 -0.4905,-0.13409 -0.25255,0.0298 -0.46757,0.008 -0.683,-0.0745 -0.17831,-0.0669 -0.57151,-0.13352 -0.88358,-0.14095 -0.51996,-0.0223 -0.58684,-0.008 -0.83197,0.18565 l -0.275,0.20856 0,-0.98095 c 0,-0.84688 0.022,-1.03209 0.15585,-1.29954 0.25998,-0.5423 0.84046,-0.95865 1.65022,-1.18151 0.27114,-0.078 0.66874,-0.10428 1.068,-0.0848 z m 6.98241,0.0538 c 0.057,0.0306 -0.0202,0.15387 -0.21311,0.38046 -0.29716,0.34915 -0.34159,0.44625 -0.37129,0.82511 -0.0594,0.69832 -0.59479,1.29163 -1.22624,1.33621 -0.20801,0.0148 -0.20801,0.007 -0.23034,-0.42402 -0.0446,-0.82459 0.49763,-1.55214 1.4485,-1.94587 0.34545,-0.14116 0.53588,-0.20255 0.59248,-0.17189 z m -23.45129,0.77238 c 0.62402,0 0.75796,0.0223 1.13685,0.21545 0.7503,0.36401 0.72078,0.22269 0.72078,3.54337 0,2.70409 -0.008,2.8904 -0.14897,3.19498 -0.0645,0.14085 -0.10935,0.35046 -0.12948,0.53173 a 6.4963271,4.6261724 0 0 0 -3.4368,-1.21245 l 0,-2.11318 c 0,-3.78127 -0.0368,-3.58044 0.72083,-3.94445 0.37889,-0.19315 0.51277,-0.21545 1.13679,-0.21545 z m -24.05404,0.0458 c 0.52001,0.008 0.79478,0.0451 1.01758,0.14898 0.17088,0.0743 0.30488,0.17833 0.30488,0.23034 0,0.14115 -0.64671,0.61627 -0.9959,0.72769 -0.15598,0.052 -0.41584,0.0739 -0.57181,0.0516 -0.26004,-0.0371 -0.3116,-0.008 -0.683,0.34952 l -0.40913,0.37817 -0.0894,0.66926 c -0.0445,0.36401 -0.11125,1.29992 -0.14095,2.07995 -0.0445,0.95088 -0.097,1.48671 -0.16387,1.6353 -0.0892,0.19313 -0.10377,-0.12021 -0.12604,-2.63116 -0.0149,-3.0978 -0.022,-3.04504 0.39421,-3.3199 0.37141,-0.24516 0.73533,-0.32716 1.46342,-0.31973 z"
       id="path4" /><path
       style="fill:#dc0067"
       d="m 540.94528,295.85913 c -23.0345,0 -41.7093,19.04755 -41.7093,42.51435 0,23.46681 18.6748,42.51292 41.7093,42.51292 23.03457,0 41.71073,-19.04611 41.71073,-42.51292 0,-23.4668 -18.67616,-42.51435 -41.71073,-42.51435 z m 0,1.17605 c 22.38655,0 40.53468,18.4949 40.53468,41.3383 0,22.84339 -18.14813,41.33685 -40.53468,41.33685 -22.38649,0 -40.53319,-18.49346 -40.53319,-41.33685 0,-22.8434 18.1467,-41.3383 40.53319,-41.3383 z"
       id="path6" /><path
       style="fill:#dc0067"
       d="m 614.17614,271.49563 c -24.83944,0 -44.97961,20.48983 -44.97961,45.73742 0,25.24826 20.14017,45.73741 44.97961,45.73741 24.83886,0 44.97826,-20.48915 44.97826,-45.73741 0,-25.24759 -20.1394,-45.73742 -44.97826,-45.73742 z m 0,1.17749 c 24.19161,0 43.80072,19.93798 43.80072,44.55993 0,24.62265 -19.60911,44.55993 -43.80072,44.55993 -24.19226,0 -43.80214,-19.93728 -43.80214,-44.55993 0,-24.62195 19.60988,-44.55993 43.80214,-44.55993 z"
       id="path8" /><path
       style="fill:#dc0067"
       d="m 613.98566,255.39177 c -33.81895,0 -61.27262,27.74201 -61.27262,61.84128 0,34.09926 27.45367,61.84127 61.27262,61.84127 33.81895,0 61.27256,-27.74201 61.27256,-61.84127 0,-34.09927 -27.45361,-61.84128 -61.27256,-61.84128 z m 0,6.39169 c 30.33095,0 54.8809,24.77097 54.8809,55.44959 0,30.67861 -24.54995,55.44958 -54.8809,55.44958 -30.33095,0 -54.8809,-24.77097 -54.8809,-55.44958 0,-30.67862 24.54995,-55.44959 54.8809,-55.44959 z"
       id="path10" /><path
       style="fill:#ffb400"
       d="m 530.30463,342.00295 -9.16714,0 7.33333,6.95124 -14.66731,0 0,6.95125 14.66731,0 -7.33333,6.95126 9.16714,0 11.0003,-10.42723 z"
       id="path12" /><path
       style="fill:#ffb400"
       d="m 637.40369,329.87258 -11.50398,-11.90612 24.92551,0 0,-11.90542 -24.92551,0 11.50398,-11.90611 -15.33838,0 -17.256,17.85881 17.256,17.85884 z"
       id="path14" /><path
       style="fill:#000000"
       d="m 501.61807,410.77059 -2.46519,-17.11131 3.7993,0 0.82656,8.46864 q 0.10151,0.95708 0.15954,2.10267 0.0582,1.13108 0.087,2.43618 l 0.116,0 q 0.0291,-1.40661 0.10151,-2.6972 0.087,-1.3051 0.18852,-2.39268 l 0.76853,-7.91761 3.5673,0 -2.4652,17.11131 -4.68389,0 z"
       id="path16" /><path
       style="fill:#000000"
       d="m 512.79846,396.96554 0,10.35378 q 0,0.56555 0.15948,0.81207 0.15954,0.23201 0.52203,0.23201 0.36256,0 0.52204,-0.23201 0.15954,-0.24652 0.15954,-0.81207 l 0,-10.35378 q 0,-0.55104 -0.17403,-0.79756 -0.15948,-0.24652 -0.53653,-0.24652 -0.34801,0 -0.50754,0.23202 -0.14499,0.23201 -0.14499,0.81206 z m -3.7993,1.16009 q 0,-2.65371 1.02958,-3.75579 1.04407,-1.11659 3.42225,-1.11659 2.37818,0 3.40776,1.11659 1.04407,1.10208 1.04407,3.75579 l 0,8.19312 q 0,2.6392 -1.04407,3.75579 -1.02958,1.11658 -3.40776,1.11658 -2.37818,0 -3.42225,-1.11658 -1.02958,-1.11659 -1.02958,-3.75579 l 0,-8.19312 z"
       id="path18" /><path
       style="fill:#000000"
       d="m 522.80422,404.79613 q 0,0.59455 0.14499,0.82656 0.15953,0.21752 0.53652,0.21752 0.34807,0 0.50755,-0.24652 0.17403,-0.26101 0.17403,-0.79756 l 0,-7.42457 q 0,-0.52203 -0.17403,-0.75405 -0.15948,-0.24652 -0.50755,-0.24652 -0.37699,0 -0.53652,0.21752 -0.14499,0.20301 -0.14499,0.78305 l 0,7.42457 z m 1.36309,2.20417 -0.0582,0 q -0.40603,0.95708 -1.07306,1.43561 -0.65253,0.46404 -1.59509,0.46404 -1.24715,0 -1.82716,-0.68155 -0.58006,-0.69606 -0.58006,-2.20417 l 0,-10.00576 q 0,-1.29061 0.62354,-1.97215 0.62355,-0.69606 1.81267,-0.69606 0.89908,0 1.55161,0.42053 0.65253,0.42053 1.14558,1.33411 l 0.087,0 0,-1.43562 3.68329,0 0,16.09623 q 0,2.6827 -1.02958,3.77029 -1.02957,1.10208 -3.4223,1.10208 -2.11713,0 -3.29176,-1.02958 -1.16007,-1.01508 -1.16007,-2.85671 l 0,-1.30511 3.77031,0 0,1.33411 q 0,0.56554 0.15948,0.79756 0.15954,0.24652 0.52204,0.24652 0.36255,0 0.52203,-0.24652 0.15954,-0.24652 0.15954,-0.79756 l 0,-3.77029 z"
       id="path20" /><path
       style="fill:#000000"
       d="m 528.59015,396.39999 0,-2.74071 0.95706,0 0,-3.17573 3.7993,0 0,3.17573 1.1021,0 0,2.74071 -1.1021,0 0,10.3973 q 0,0.79755 0.18852,1.01507 0.20302,0.20302 0.78303,0.20302 l 0.13055,0 0,2.75521 -2.37818,0 q -1.37764,0 -1.95765,-0.62355 -0.56557,-0.63805 -0.56557,-2.37818 l 0,-11.36887 -0.95706,0 z"
       id="path22" /><path
       style="fill:#000000"
       d="m 535.10114,410.77059 0,-21.38914 3.77031,0 0,21.38914 -3.77031,0 z"
       id="path24" /><path
       style="fill:#000000"
       d="m 545.25189,406.91329 0,-4.53885 q -0.087,0.058 -0.23201,0.17402 -1.13108,0.87006 -1.13108,1.53711 l 0,2.82772 q 0,0.58005 0.14504,0.79756 0.15948,0.20302 0.53653,0.20302 0.34801,0 0.50754,-0.23202 0.17398,-0.24652 0.17398,-0.76856 z m -5.16239,-9.74474 q 0,-1.94314 1.11659,-2.92923 1.13109,-0.98607 3.3353,-0.98607 2.40716,0 3.42224,1.10209 1.02958,1.08758 1.02958,3.77029 l 0,10.41179 q 0,0.68155 0.0582,1.21809 0.0725,0.52205 0.21751,1.01508 l -3.82828,0 q -0.0725,-0.30453 -0.116,-0.60905 -0.0434,-0.31902 -0.0434,-0.58004 l 0,-0.26102 -0.0582,0 q -0.40604,0.84106 -1.10204,1.29059 -0.68158,0.44954 -1.59516,0.44954 -1.20361,0 -1.82715,-0.72505 -0.60905,-0.72506 -0.60905,-2.14617 l 0,-3.62528 q 0,-1.34859 0.47855,-2.18967 0.49305,-0.85556 1.56611,-1.4356 0.34806,-0.18852 0.9861,-0.50754 2.13168,-1.08759 2.13168,-2.07366 l 0,-1.21809 q 0,-0.55104 -0.17403,-0.79757 -0.15954,-0.24651 -0.53653,-0.24651 -0.34806,0 -0.50754,0.24651 -0.14505,0.24653 -0.14505,0.79757 l 0,2.49419 -3.79929,0 0,-2.46519 z"
       id="path26" /><path
       style="fill:#000000"
       d="m 550.2403,410.77059 0,-17.11131 3.71229,0 0,1.43562 0.0582,0 q 0.47856,-0.89907 1.14564,-1.31961 0.66703,-0.43503 1.55162,-0.43503 1.2326,0 1.84165,0.73955 0.62354,0.72506 0.62354,2.17518 l 0,14.5156 -3.7993,0 0,-13.26851 q 0,-0.59455 -0.15953,-0.79756 -0.14499,-0.21752 -0.52204,-0.21752 -0.348,0 -0.52204,0.24652 -0.15954,0.24652 -0.15954,0.76856 l 0,13.26851 -3.77025,0 z"
       id="path28" /><path
       style="fill:#000000"
       d="m 569.23674,410.77059 -3.71229,0 0,-1.47912 -0.0582,0 q -0.37705,0.94258 -1.05857,1.42111 -0.66708,0.47854 -1.63863,0.47854 -1.2326,0 -1.84165,-0.71056 -0.59456,-0.72505 -0.59456,-2.17516 l 0,-12.05041 q 0,-1.46462 0.60905,-2.18967 0.60906,-0.72506 1.82716,-0.72506 0.89908,0 1.55161,0.43503 0.65253,0.43504 1.08761,1.31961 l 0.0582,0 0,-5.71345 3.77026,0 0,21.38914 z m -5.13341,-3.74128 q 0,0.59454 0.14505,0.82656 0.15948,0.21752 0.53653,0.21752 0.348,0 0.50754,-0.26103 0.17403,-0.26102 0.17403,-0.78305 l 0,-9.52723 q 0,-0.52204 -0.17403,-0.76856 -0.15954,-0.24652 -0.50754,-0.24652 -0.37705,0 -0.53653,0.21752 -0.14505,0.20301 -0.14505,0.79756 l 0,9.52723 z"
       id="path30" /><path
       style="fill:#000000"
       d="m 570.71583,410.77059 0,-4.36484 3.92979,0 0,4.36484 -3.92979,0 z"
       id="path32" /><path
       style="fill:#000000"
       d="m 576.70478,410.77059 0,-14.3996 -0.92807,0 0,-2.71171 0.92807,0 0,-1.62412 q 0,-1.24709 0.7541,-1.94314 0.75404,-0.71057 2.10264,-0.71057 l 2.13168,0 0,2.68271 q -0.66709,0 -0.94257,0.15951 -0.27554,0.14501 -0.27554,0.52204 l 0,0.91357 1.21811,0 0,2.71171 -1.21811,0 0,14.3996 -3.77031,0 z"
       id="path34" /><path
       style="fill:#000000"
       d="m 582.37471,410.77059 0,-17.11131 3.71229,0 0,1.43562 0.0582,0 q 0.47856,-0.89907 1.14558,-1.31961 0.66709,-0.43503 1.55168,-0.43503 1.23254,0 1.84159,0.73955 0.62354,0.72506 0.62354,2.17518 l 0,6.6125 -3.79924,0 0,-5.36541 q 0,-0.59455 -0.15954,-0.79756 -0.14498,-0.21752 -0.52203,-0.21752 -0.34801,0 -0.52204,0.24652 -0.15954,0.24652 -0.15954,0.76856 l 0,13.26851 -3.77025,0 z"
       id="path36" /><path
       style="fill:#000000"
       d="m 596.52783,396.96554 0,3.23374 1.3631,0 0,-3.23374 q 0,-0.56555 -0.15954,-0.79756 -0.15948,-0.24652 -0.52204,-0.24652 -0.3625,0 -0.52204,0.24652 -0.15948,0.23201 -0.15948,0.79756 z m 0,10.35378 q 0,0.56555 0.15948,0.81207 0.15954,0.23201 0.52204,0.23201 0.36256,0 0.52204,-0.23201 0.15954,-0.24652 0.15954,-0.81207 l 0,-3.20474 3.77025,0 0,3.17575 q 0,1.85614 -1.17457,2.88572 -1.16007,1.01507 -3.27726,1.01507 -2.39267,0 -3.42225,-1.10208 -1.02958,-1.10209 -1.02958,-3.77029 l 0,-8.19312 q 0,-2.69721 1.01509,-3.7848 1.01508,-1.08758 3.40775,-1.08758 2.10264,0 3.29176,0.98607 1.18906,0.97158 1.18906,2.69722 l 0,5.81494 -5.13335,0 0,4.56784 z"
       id="path38" /><path
       style="fill:#000000"
       d="m 602.8503,410.77059 0,-17.11131 3.77031,0 0,17.11131 -3.77031,0 z m 0,-18.14089 0,-3.24825 3.77031,0 0,3.24825 -3.77031,0 z"
       id="path40" /><path
       style="fill:#000000"
       d="m 608.49124,410.77059 0,-14.3996 -0.92807,0 0,-2.71171 0.92807,0 0,-1.62412 q 0,-1.24709 0.75404,-1.94314 0.75404,-0.71057 2.10264,-0.71057 l 2.13168,0 0,2.68271 q -0.66702,0 -0.94256,0.15951 -0.27554,0.14501 -0.27554,0.52204 l 0,0.91357 1.2181,0 0,2.71171 -1.2181,0 0,14.3996 -3.77026,0 z"
       id="path42" /><path
       style="fill:#000000"
       d="m 623.09382,393.65928 0,17.11131 -3.71228,0 0,-1.42111 -0.087,0 q -0.4785,0.88457 -1.13109,1.3051 -0.63803,0.40603 -1.53706,0.40603 -1.2326,0 -1.85614,-0.71056 -0.60905,-0.72505 -0.60905,-2.16066 l 0,-14.53011 3.77025,0 0,13.28302 q 0,0.56554 0.15954,0.78306 0.17397,0.21751 0.55102,0.21751 0.34806,0 0.49305,-0.23202 0.15948,-0.23202 0.15948,-0.76855 l 0,-13.28302 3.7993,0 z"
       id="path44" /><path
       style="fill:#000000"
       d="m 624.31192,410.77059 0,-17.11131 3.71229,0 0,1.43562 0.0582,0 q 0.47856,-0.89907 1.14559,-1.31961 0.66708,-0.43503 1.55161,-0.43503 1.2326,0 1.84165,0.73955 0.62354,0.72506 0.62354,2.17518 l 0,14.5156 -3.79929,0 0,-13.26851 q 0,-0.59455 -0.15948,-0.79756 -0.14505,-0.21752 -0.52204,-0.21752 -0.34806,0 -0.52204,0.24652 -0.15948,0.24652 -0.15948,0.76856 l 0,13.26851 -3.77031,0 z"
       id="path46" /><path
       style="fill:#000000"
       d="m 634.46273,410.77059 0,-21.38914 3.77025,0 0,11.73141 0.0582,0 1.60965,-7.45358 3.85727,0 -1.87064,7.39557 1.87064,9.71574 -3.97327,0 -1.49365,-8.96168 -0.0582,0 0,8.96168 -3.77025,0 z"
       id="path48" /><path
       style="fill:#000000"
       d="m 644.49748,410.77059 0,-4.36484 3.92979,0 0,4.36484 -3.92979,0 z"
       id="path50" /><path
       style="fill:#000000"
       d="m 649.89187,410.77059 0,-17.11131 3.71228,0 0,1.43562 0.0582,0 q 0.47856,-0.89907 1.14558,-1.31961 0.66708,-0.43503 1.55167,-0.43503 1.23254,0 1.84159,0.73955 0.62355,0.72506 0.62355,2.17518 l 0,14.5156 -3.79924,0 0,-13.26851 q 0,-0.59455 -0.15954,-0.79756 -0.14499,-0.21752 -0.52204,-0.21752 -0.348,0 -0.52203,0.24652 -0.15954,0.24652 -0.15954,0.76856 l 0,13.26851 -3.77026,0 z"
       id="path52" /><path
       style="fill:#000000"
       d="m 663.75496,396.96554 0,3.23374 1.36309,0 0,-3.23374 q 0,-0.56555 -0.15954,-0.79756 -0.15948,-0.24652 -0.52204,-0.24652 -0.3625,0 -0.52203,0.24652 -0.15948,0.23201 -0.15948,0.79756 z m 0,10.35378 q 0,0.56555 0.15948,0.81207 0.15953,0.23201 0.52203,0.23201 0.36256,0 0.52204,-0.23201 0.15954,-0.24652 0.15954,-0.81207 l 0,-3.20474 3.77025,0 0,3.17575 q 0,1.85614 -1.17457,2.88572 -1.16007,1.01507 -3.27726,1.01507 -2.39267,0 -3.42225,-1.10208 -1.02958,-1.10209 -1.02958,-3.77029 l 0,-8.19312 q 0,-2.69721 1.01509,-3.7848 1.01509,-1.08758 3.40776,-1.08758 2.10263,0 3.29175,0.98607 1.18906,0.97158 1.18906,2.69722 l 0,5.81494 -5.13334,0 0,4.56784 z"
       id="path54" /><path
       style="fill:#000000"
       d="m 669.48286,396.39999 0,-2.74071 0.95706,0 0,-3.17573 3.79929,0 0,3.17573 1.10211,0 0,2.74071 -1.10211,0 0,10.3973 q 0,0.79755 0.18853,1.01507 0.20302,0.20302 0.78308,0.20302 l 0.1305,0 0,2.75521 -2.37818,0 q -1.37758,0 -1.95765,-0.62355 -0.56557,-0.63805 -0.56557,-2.37818 l 0,-11.36887 -0.95706,0 z"
       id="path56" /></g></svg>