<?xml version="1.0" encoding="UTF-8" standalone="no"?>
<svg
   xmlns:dc="http://purl.org/dc/elements/1.1/"
   xmlns:cc="http://creativecommons.org/ns#"
   xmlns:rdf="http://www.w3.org/1999/02/22-rdf-syntax-ns#"
   xmlns:svg="http://www.w3.org/2000/svg"
   xmlns="http://www.w3.org/2000/svg"
   id="svg2"
   style="fill-rule:evenodd;clip-rule:evenodd;stroke-linecap:round;stroke-linejoin:round;stroke-miterlimit:1.41421;"
   xml:space="preserve"
   version="1.1"
   viewBox="0 0 1280 1150"
   height="100%"
   width="100%"><metadata
     id="metadata41"><rdf:RDF><cc:Work
         rdf:about=""><dc:format>image/svg+xml</dc:format><dc:type
           rdf:resource="http://purl.org/dc/dcmitype/StillImage" /><dc:title></dc:title></cc:Work></rdf:RDF></metadata><g
     transform="translate(-7.4002851,2.1186893)"
     id="UAP + LR"><g
       id="g5"
       transform="matrix(0.980586,0,0,0.987992,19.2359,16.8384)"><ellipse
         id="ellipse7"
         style="fill:url(#_Radial1);stroke:#737373;stroke-width:1.01999998px"
         ry="501.13599"
         rx="517.20898"
         cy="562.80103"
         cx="640.60101" /></g><g
       style="fill:#e6e6e6"
       id="g9"
       transform="matrix(1.02749,0,0,1.07921,-18.8948,-43.1421)"><path
         id="path11"
         style="fill:#e6e6e6"
         d="m 648.286,384.86 c 107.059,0 193.977,82.749 193.977,184.672 0,101.924 -86.918,184.673 -193.977,184.673 -107.058,0 -193.976,-82.749 -193.976,-184.673 0,-101.923 86.918,-184.672 193.976,-184.672 z m 0,17.917 c 96.672,0 175.157,74.721 175.157,166.755 0,92.035 -78.485,166.756 -175.157,166.756 -96.672,0 -175.157,-74.721 -175.157,-166.756 0,-92.034 78.485,-166.755 175.157,-166.755 z" /></g><g
       id="g13"
       transform="matrix(1.17017,0,0,1.01362,-99.9483,-8.35152)"><ellipse
         id="ellipse15"
         style="fill:none;stroke:#666666;stroke-width:0.91000003px"
         ry="177.703"
         rx="153.63901"
         cy="572.11102"
         cx="638.59998" /></g></g><defs
     id="defs17"><radialGradient
       gradientTransform="matrix(523.281,2.62725,-2.5842,507.02,642.896,563.677)"
       gradientUnits="userSpaceOnUse"
       r="1"
       cy="0"
       cx="0"
       id="_Radial1"><stop
         id="stop20"
         style="stop-color:white;stop-opacity:1"
         offset="0%" /><stop
         id="stop22"
         style="stop-color:rgb(250,250,250);stop-opacity:1"
         offset="46%" /><stop
         id="stop24"
         style="stop-color:rgb(239,239,239);stop-opacity:1"
         offset="64%" /><stop
         id="stop26"
         style="stop-color:rgb(228,228,228);stop-opacity:1"
         offset="81%" /><stop
         id="stop28"
         style="stop-color:rgb(228,228,228);stop-opacity:1"
         offset="81%" /></radialGradient><radialGradient
       gradientTransform="matrix(194.448,-4.10505e-06,4.00625e-06,185.122,648.286,569.533)"
       gradientUnits="userSpaceOnUse"
       r="1"
       cy="0"
       cx="0"
       id="_Radial2"><stop
         id="stop31"
         style="stop-color:rgb(113,187,120);stop-opacity:1"
         offset="0%" /><stop
         id="stop33"
         style="stop-color:rgb(113,187,120);stop-opacity:1"
         offset="89%" /><stop
         id="stop35"
         style="stop-color:rgb(144,202,150);stop-opacity:1"
         offset="95%" /><stop
         id="stop37"
         style="stop-color:white;stop-opacity:1"
         offset="100%" /></radialGradient></defs><g
     transform="matrix(0.89945616,0,0,0.89945616,64.348053,39.169712)"
     id="g4227"><path
       style="fill:#000000"
       d="m 501.92278,539.15977 a 68.833004,70.485946 0 0 0 -8.91754,34.6148 68.833004,70.485946 0 0 0 4.38353,24.34671 69.305276,70.367875 0 0 0 0.7428,2.06441 68.833004,70.485946 0 0 0 1.27339,2.93651 69.305276,70.367875 0 0 0 1.97374,4.16358 68.833004,70.485946 0 0 0 0.17557,0.355 c 0.006,-0.002 0.0115,-0.006 0.0174,-0.01 a 69.305276,70.367875 0 0 0 60.97578,37.10177 69.305276,70.367875 0 0 0 57.72865,-31.62816 99.429255,99.429255 0 0 0 65.50401,24.9043 99.429255,99.429255 0 0 0 74.58555,-33.8064 l -1.13447,0 a 99.031206,99.031206 0 0 0 19.21651,-29.60616 100.09211,100.09211 0 0 0 0.91453,-2.50819 99.031206,99.031206 0 0 0 2.19176,-6.17784 100.09211,100.09211 0 0 0 0.96274,-3.76613 c -0.20749,0.27841 -0.41623,0.54635 -0.92223,1.15185 -0.2001,0.22512 -0.59997,0.50098 -0.93767,0.61352 -0.32519,0.12509 -0.90108,0.3506 -1.28883,0.51323 -0.3877,0.16257 -0.93749,0.29903 -1.22514,0.29903 l -0.51321,0 0,-3.66387 c 0,-3.56455 0.0113,-3.66646 0.29905,-4.27932 0.5074,-1.08832 1.64521,-1.86952 3.00404,-2.21685 l 0.63861,0 0,-0.1254 c 0.77703,-0.11313 1.5987,-0.10063 2.41171,0.0926 l 0.002,0 c 0.0788,0.0185 0.15214,0.0436 0.22765,0.0656 a 100.09211,100.09211 0 0 0 0.36082,-2.37893 l -2.1281,0 -0.87402,0 0,-9.91116 c 0.66679,-0.116 1.35954,-0.118 2.049,0.0425 0.70895,0.16271 1.3623,0.4846 1.93709,0.91644 a 100.09211,100.09211 0 0 0 0.18908,-3.80472 l -80.5338,0 c -58.7175,7e-5 -89.31949,-0.008 -119.43566,-0.0174 a 100.09211,100.09211 0 0 0 2.21491,18.27692 c 0.11783,-0.96517 0.38293,-1.25105 1.00328,-1.85026 1.10062,-1.07561 2.55355,-1.6013 4.35459,-1.5763 0.61285,0.0129 1.36393,0.087 1.67662,0.16208 0.82547,0.23763 1.90085,0.83873 2.41364,1.36406 0.25015,0.25014 0.56085,0.76404 0.69843,1.12674 0.25014,0.62537 0.26239,0.91048 0.26239,4.77521 l 0,4.12883 -5.25173,0 -3.10051,0 a 100.09211,100.09211 0 0 0 0.95504,2.8709 c 0.13198,-0.005 0.27194,-0.0482 0.34343,-0.108 0.14383,-0.14381 0.6767,-0.22517 1.29268,-0.23923 0.61597,-0.014 1.31665,0.0389 1.79817,0.164 0.88801,0.22512 1.57591,0.57632 2.15125,1.07658 0.40023,0.36273 0.53557,0.5492 0.96082,1.36214 0.12508,0.25018 0.17564,1.90401 0.20066,7.53225 l 0.0212,5.90195 a 100.09211,100.09211 0 0 0 0.93382,1.52613 l -4.14622,0 a 105.07954,105.07954 0 0 1 -0.11769,-0.20645 l -1.98146,0 0,-0.97818 c 0,-0.52682 -0.0502,-1.02835 -0.10033,-1.10361 -0.18814,-0.28848 -0.87671,-0.52668 -2.09337,-0.72738 -0.68985,-0.12541 -1.49232,-0.30288 -1.7808,-0.40323 l -0.54023,-0.20065 0.0116,-5.34243 c 0.0102,-4.69477 0.0121,-5.54144 0.38781,-6.22222 A 105.07954,105.07954 0 0 1 584.0542,552.1692 l -4.52437,-0.0309 -5.64534,-0.025 0.0386,-3.17382 0.0367,-3.16031 0.35115,-0.72736 c 0.62714,-1.27938 1.99571,-2.37114 3.46322,-2.7976 0.89054,-0.26339 3.03476,-0.16211 3.91276,0.18909 0.56855,0.22071 1.05052,0.48877 1.4721,0.81033 a 105.07954,105.07954 0 0 1 -0.14084,-3.95713 c -49.40755,-0.0188 -75.83265,-0.055 -81.09577,-0.13695 z m 50.21376,2.92877 c 0.53129,-0.0161 1.07138,0.0408 1.60524,0.17943 1.94414,0.50171 3.33676,1.75642 3.8761,3.4748 0.18814,0.63967 0.22574,1.17847 0.22574,3.56161 l 0,2.80916 -5.51993,0 -5.518,0 0,-2.80916 c 0,-2.38314 0.0376,-2.92194 0.22574,-3.56161 0.67261,-2.14013 2.80285,-3.58469 5.10511,-3.65423 z m -26.7507,0.004 c 0.33187,0.0145 0.66546,0.0564 0.99941,0.1254 1.73092,0.36375 3.19879,1.4796 3.90119,2.95965 0.40137,0.85293 0.40034,0.85243 0.43796,3.18539 l 0.0502,2.33261 -0.72737,-0.2373 c -1.48005,-0.50171 -3.5749,-0.51523 -5.00478,-0.0386 -1.04106,0.3512 -2.21865,1.0292 -3.02139,1.74415 l -0.75246,0.6772 -0.91645,-0.26239 -0.90294,-0.26432 0.0367,-3.14873 0.0386,-3.13524 0.40131,-0.85277 c 0.94384,-1.98648 3.13701,-3.18605 5.46011,-3.08505 z m -13.45349,0.0192 c 0.63366,0.0239 1.251,0.13429 1.77309,0.33185 1.01597,0.3888 1.98041,1.10252 2.51976,1.89272 0.77765,1.10377 0.85278,1.53042 0.85278,4.95461 l 0,3.03682 -0.83928,0.1505 -0.85278,0.16207 -0.75245,-0.43797 c -1.51769,-0.90308 -3.41279,-1.29367 -5.16878,-1.08045 -0.51426,0.0754 -0.97819,0.10125 -1.00327,0.0636 -0.0376,-0.025 0.0135,-0.17555 0.0888,-0.32605 0.10033,-0.17561 0.11287,-0.55269 0.0502,-1.09203 -0.11289,-1.09123 -0.72823,-2.1811 -1.41809,-2.54483 -0.58951,-0.30104 -0.95409,-0.96653 -0.84121,-1.56858 0.18815,-1.00344 1.34265,-2.30742 2.62202,-2.95966 0.80744,-0.42331 1.9132,-0.62235 2.9693,-0.58266 z m 54.14388,0.0113 c 0.75728,0.0376 1.5116,0.15092 1.9506,0.32029 1.16648,0.45151 2.05854,1.12756 2.63551,2.0181 0.27595,0.439 0.56337,1.00421 0.61354,1.24253 0.0627,0.25085 0.11384,1.79406 0.11384,3.42461 l 0,2.98474 -5.58166,0 -5.59517,0 0.0386,-3.1738 0.0367,-3.1603 0.35114,-0.72739 c 0.65223,-1.317 1.93203,-2.35859 3.47479,-2.79758 0.44527,-0.1317 1.2049,-0.16883 1.96217,-0.1312 z m -27.87938,0.002 c 0.88074,-0.0282 1.99873,0.0926 2.60079,0.31835 1.51768,0.57695 2.7213,1.7439 3.23555,3.14873 0.23832,0.63965 0.2624,1.00291 0.2624,3.33589 0,2.40821 -0.0125,2.59597 -0.20066,2.40785 -0.13797,-0.13798 -0.22573,-0.5141 -0.2759,-1.10362 l -0.0617,-0.89136 -0.66563,-0.42639 c -0.36374,-0.23831 -0.87782,-0.48908 -1.15376,-0.55181 -0.46409,-0.12542 -0.75229,-0.31337 -1.85606,-1.20392 -0.42645,-0.33865 -0.56324,-0.37525 -1.44124,-0.3878 -0.52679,-0.0126 -1.24246,-0.11288 -1.56857,-0.22573 -0.74003,-0.23832 -0.99057,-0.2518 -2.05671,-0.13894 -0.74003,0.0877 -0.86621,0.15043 -1.34284,0.65214 l -0.5383,0.54023 0,-0.55179 c 0,-0.79021 0.42535,-2.04503 0.93961,-2.74743 0.71494,-0.96581 2.0951,-1.8319 3.34938,-2.0953 0.21323,-0.0439 0.4801,-0.0697 0.77368,-0.0791 z m 68.67397,0.0655 c 0.62555,0.002 1.25524,0.0941 1.86184,0.28169 1.60093,0.50028 3.13915,1.93888 3.52688,3.31466 0.10003,0.32519 0.1505,1.58814 0.15049,3.47672 l 0,2.95192 -5.62796,0 -5.62798,0 0,-3.00209 c 0,-3.38943 0.0623,-3.71336 0.96276,-4.88902 1.04123,-1.36015 2.8773,-2.14384 4.75397,-2.13388 z m 26.92626,0.0192 c 0.58785,0 1.35049,0.0756 1.6882,0.17557 1.5884,0.41273 2.85343,1.43915 3.52882,2.81495 l 0.34922,0.70036 0.0386,3.15066 0.0366,3.16416 -5.57975,0 -5.56429,0 0,-3.0021 c 0,-2.63901 0.0248,-3.07496 0.2373,-3.62527 0.77545,-2.03868 2.85142,-3.36581 5.26525,-3.37833 z m 13.73712,0.004 c 0.69258,0.003 1.39101,0.0844 1.91007,0.24697 1.47583,0.45026 2.71245,1.47647 3.3378,2.7397 0.27519,0.57532 0.33691,0.9364 0.42446,2.24965 0.0625,0.863 0.0768,2.28866 0.0269,3.16417 l -0.0754,1.60136 -5.62796,0 -5.61447,0 0.0349,-3.16608 c 0.0375,-3.1518 0.0384,-3.1487 0.37623,-3.8491 0.62532,-1.26323 1.85037,-2.27793 3.32623,-2.75322 0.50027,-0.15633 1.18855,-0.23501 1.88114,-0.23345 z m 121.8165,0.006 c 0.29503,0.0161 0.59205,0.0585 0.88751,0.12735 1.52589,0.3502 2.82556,1.39013 3.53846,2.82845 l 0.41289,0.83735 0.0366,3.1005 0.0501,3.10242 -5.21509,0 -5.21509,0 0.0501,-3.10242 0.0366,-3.1005 0.41289,-0.83735 c 0.95213,-1.9261 2.93951,-3.06933 5.00478,-2.9558 z m -176.20155,0.002 c 0.58783,-0.0126 1.35049,0.064 1.68819,0.16399 1.56338,0.41274 2.85051,1.42653 3.51338,2.76479 l 0.36273,0.7486 0.0386,3.15259 0.0366,3.16415 -5.5778,0 -5.57781,0 0.0367,-3.16415 0.0386,-3.15259 0.34921,-0.72353 c 0.91302,-1.83856 2.81531,-2.94135 5.09162,-2.95385 z m 88.9362,0.002 c 0.92862,-9.8e-4 1.85913,0.062 2.46572,0.18715 3.35193,0.68789 6.47994,3.06322 7.9683,6.05243 0.18761,0.37525 0.41114,0.7256 0.48619,0.77561 0.075,0.05 0.1,0.10038 0.0501,0.10038 -0.05,0 0.0264,0.32422 0.164,0.71193 0.56283,1.61342 0.58665,2.05144 0.63669,9.04296 l 0.0386,6.69298 -11.73249,0.0366 -11.73249,0.025 0.0386,-6.96695 c 0.05,-6.76638 0.0487,-7.00433 0.32412,-7.97986 0.35019,-1.23822 1.11423,-2.86397 1.82711,-3.86452 1.60094,-2.2388 4.35118,-4.05224 7.01519,-4.61505 0.59409,-0.13135 1.52165,-0.19716 2.45031,-0.19874 z m 60.2426,0.002 c 0.50655,-0.002 1.01366,0.053 1.47018,0.17172 1.5509,0.40025 3.03832,1.66297 3.58862,3.03876 0.26267,0.66286 0.28857,0.92499 0.32607,3.73912 l 0.0366,3.04067 -5.39067,0 -5.39065,0 0.0386,-3.04067 c 0.0375,-2.81413 0.0635,-3.07626 0.32606,-3.73912 0.53783,-1.35078 2.0366,-2.62504 3.52495,-3.02525 0.45651,-0.11875 0.96366,-0.18209 1.47019,-0.18523 z m -27.45107,0.002 c 0.29339,-0.0204 0.58997,-0.0189 0.88559,0.004 0.33784,0.026 0.67413,0.0799 1.00713,0.16594 1.75101,0.46278 3.06278,1.48658 3.7507,2.92491 l 0.3878,0.82578 0.0386,3.02717 0.0366,3.04069 -5.70129,0 -5.70514,0 0.0386,-3.04069 0.0366,-3.02717 0.38779,-0.82578 c 0.85224,-1.7811 2.78327,-2.95193 4.83692,-3.09471 z m 40.40487,0.0136 c 0.27325,-0.0207 0.54903,-0.0209 0.82576,0 0.31625,0.024 0.63307,0.075 0.94731,0.15627 1.55088,0.41275 2.87751,1.49907 3.5404,2.89985 0.33769,0.71292 0.3387,0.76454 0.37623,3.81629 l 0.0501,3.10243 -5.34242,0 -5.34049,0 0.0501,-3.10243 c 0.0375,-3.05175 0.0386,-3.10337 0.37624,-3.81629 0.83306,-1.77151 2.6038,-2.91068 4.51665,-3.05612 z m -134.66804,0.004 c 1.30075,0.0374 1.43981,0.064 2.34032,0.50164 1.16318,0.55031 2.02625,1.36203 2.53905,2.40013 l 0.36272,0.75053 0.0366,3.15259 0.0386,3.16415 -5.57973,0 -5.57781,0 0.0386,-3.16415 0.0366,-3.15259 0.35114,-0.72545 c 0.46279,-0.92553 1.32515,-1.79953 2.28824,-2.2998 1.06311,-0.56283 1.52465,-0.66458 3.12558,-0.62705 z m 107.7842,0.01 c 0.87825,-0.0281 1.99081,0.0913 2.59115,0.31642 1.5759,0.60034 2.79107,1.81265 3.24134,3.25098 0.21258,0.68791 0.24888,1.15167 0.24888,3.59057 l 0,2.80143 -5.56428,0 -5.56625,0 0,-2.80143 c 0,-3.17682 0.1372,-3.89066 0.93768,-4.99128 0.71288,-0.96305 2.08903,-1.82492 3.33973,-2.08758 0.21261,-0.0438 0.47901,-0.0697 0.77175,-0.0791 z m -67.39093,2.58729 c 0.46589,-0.0112 0.93897,0.0409 1.23287,0.16592 0.63787,0.26265 1.33692,0.9521 1.6496,1.63998 0.27516,0.58785 0.29906,0.77511 0.29906,3.08891 l 0,2.4773 -3.12556,0 -3.12753,0 0,-2.35189 c 0,-1.86356 0.039,-2.49016 0.21416,-2.96544 0.22514,-0.67538 0.97523,-1.50101 1.66312,-1.8387 0.26888,-0.13132 0.72837,-0.20513 1.19428,-0.21608 z m 40.66917,0.2759 c 0.52955,0.0289 1.0736,0.16653 1.46053,0.39166 0.31269,0.18761 0.7134,0.52446 0.90102,0.76211 0.58785,0.77543 0.66278,1.20089 0.67528,3.65229 l 0,2.29015 -3.1391,0 -3.14101,0 0.0501,-2.4773 c 0.0375,-2.43889 0.0376,-2.47693 0.38781,-3.05226 0.38772,-0.66288 0.98874,-1.16318 1.67661,-1.4258 0.17823,-0.0688 0.38729,-0.11238 0.60969,-0.13313 0.16677,-0.0156 0.34247,-0.0174 0.519,-0.007 z m -68.0527,9.11048 c 0.72813,0.0135 1.95293,0.16468 2.37506,0.32414 1.12564,0.43775 2.38961,1.66209 2.78986,2.71269 0.25014,0.66286 0.26239,0.93993 0.26239,4.64205 l 0,3.93785 -5.0781,0 -5.0646,0 0.0366,-4.10183 c 0.0375,-4.06482 0.0384,-4.09001 0.35115,-4.7154 0.56283,-1.13812 1.79983,-2.15038 3.12558,-2.55061 0.31269,-0.0875 0.62432,-0.18719 0.68686,-0.21224 0.0844,-0.0312 0.27241,-0.0412 0.51514,-0.0366 z m -54.35612,0.0231 c 0.71024,0.0113 1.43393,0.0864 1.8792,0.21804 1.4048,0.43898 2.49749,1.35422 3.03683,2.55833 0.22577,0.50174 0.25082,0.85414 0.25082,4.64209 l 0,4.1134 -5.20544,0 -5.21894,0 0.0386,-4.23881 0.0367,-4.22725 0.33957,-0.57689 c 0.60206,-1.0285 1.76903,-1.90711 3.0484,-2.32102 0.38883,-0.12545 1.08408,-0.17884 1.79431,-0.16787 z m -13.51523,0.006 c 0.37795,0.005 0.76192,0.0454 1.14605,0.12542 1.55531,0.32609 2.96051,1.3407 3.57512,2.595 l 0.35114,0.71579 0.0251,4.07676 c 0.0126,2.45838 -0.0116,3.97644 -0.0868,3.82594 -0.0627,-0.13799 -0.11384,-0.62698 -0.11384,-1.07853 -0.0126,-0.45153 -0.0993,-1.08038 -0.21223,-1.40651 -0.16306,-0.48917 -0.30186,-0.63952 -0.8412,-0.9531 -0.36375,-0.21322 -0.91544,-0.58939 -1.25409,-0.85277 -2.83469,-2.25772 -3.39928,-2.54583 -5.18036,-2.55835 -0.6146,0 -1.31676,-0.0752 -1.55507,-0.17558 -0.41391,-0.15051 -0.46396,-0.138 -0.80262,0.17558 l -0.36465,0.32606 0.0753,-0.73894 c 0.23048,-2.3706 2.59258,-4.10816 5.23824,-4.07677 z m 54.9137,0.0386 c 0.26112,-0.005 0.44775,-9.8e-4 0.49777,0.0174 0.1,0.0249 0.40105,0.0763 0.66373,0.11387 0.26263,0.0375 0.50077,0.12363 0.53827,0.17365 0.0375,0.0626 0.14881,0.11388 0.24889,0.11388 0.23764,0 1.07649,0.5747 1.75187,1.20007 0.35022,0.32518 0.61404,0.72579 0.78912,1.21357 0.25015,0.67539 0.26238,0.96323 0.26238,4.71537 l 0,4.00151 -5.12826,0 -5.12826,0 0,-4.03816 0,-4.05361 0.37622,-0.73703 c 0.45027,-0.9005 1.06309,-1.51523 2.12618,-2.12808 0.73791,-0.42524 0.92434,-0.47289 2.06249,-0.54794 0.34392,-0.025 0.67851,-0.0396 0.9396,-0.0444 z m 121.4422,0.0481 c 0.44986,-0.0164 0.90757,0.0269 1.36406,0.13314 1.52589,0.35018 3.08947,1.66207 3.65231,3.07539 0.28764,0.7004 0.3001,0.87609 0.33764,4.50315 l 0.0386,3.78928 -5.20351,0 -5.20351,0 0.0386,-3.78928 c 0.05,-4.45255 0.0872,-4.66591 1.35057,-6.00418 0.9943,-1.06936 2.27567,-1.65826 3.62528,-1.7075 z m -13.23933,0.01 c 0.53585,-0.004 1.07976,0.0496 1.62069,0.16206 1.53837,0.32519 2.92806,1.26259 3.37831,2.26315 0.21263,0.45029 0.23731,0.91239 0.23731,4.77712 l 0,4.29092 -5.18998,0 -5.19194,0 0,-4.29092 c 0,-4.84029 0.0131,-4.87689 0.97625,-5.73987 1.04122,-0.93806 2.5618,-1.45309 4.16936,-1.46246 z m -13.98792,0.002 c 0.29475,-0.0199 0.59246,-0.0191 0.88943,0.004 0.33942,0.0264 0.67835,0.0819 1.01294,0.16786 1.72596,0.45026 3.07434,1.48846 3.76226,2.90176 l 0.36272,0.72738 0.0386,3.83751 0.0366,3.85294 -5.70129,0 -5.70514,0 0.0386,-3.85294 0.0366,-3.83751 0.3627,-0.72738 c 0.86185,-1.77152 2.80266,-2.93442 4.86586,-3.07348 z m 40.51096,0.007 c 0.50926,-0.0164 1.03216,0.02 1.55121,0.11387 1.50088,0.27517 2.965,1.25219 3.51533,2.34033 0.2001,0.41272 0.22485,0.90077 0.26237,4.74046 l 0.0366,4.28899 -5.13983,0 -5.13985,0 0.0366,-4.28899 c 0.0375,-4.81524 0.023,-4.72866 1.011,-5.71672 0.91927,-0.90052 2.33861,-1.42864 3.86643,-1.4779 z m -108.53279,0.0113 c 1.03183,-0.0352 2.36646,0.0932 2.94806,0.31836 1.10064,0.42525 2.08899,1.30986 2.61432,2.32295 l 0.4476,0.86435 0.0386,3.97836 0.0366,3.988 -5.32699,0 -5.32893,0 0.0386,-3.97642 0.0366,-3.96485 0.35115,-0.6637 c 0.66289,-1.26321 2.16287,-2.54933 3.25099,-2.77444 0.23764,-0.05 0.54935,-0.0809 0.8933,-0.0926 z m -39.95145,0.004 c 1.5509,0.0375 1.57342,0.0363 2.64903,0.56145 l 0.004,0 c 0.87549,0.42524 1.19933,0.66424 1.64961,1.22707 0.32517,0.38773 0.57594,0.73809 0.58845,0.7756 0,0.05 0.0377,0.20007 0.0753,0.33765 0.10005,0.31266 0.0993,1.12638 0.0617,5.27875 l -0.027,3.28765 -5.25175,0 -5.25367,0 0,-4.16359 c 0,-4.11485 8.1e-4,-4.16621 0.30099,-4.77904 0.48777,-1.02558 1.55106,-1.87462 2.92685,-2.32488 0.57532,-0.1876 1.01344,-0.23817 2.27666,-0.20066 z m 162.25994,0.0113 c 0.7234,0.0199 1.48385,0.1251 1.98339,0.30099 l 0,0.002 c 1.32573,0.46277 2.30082,1.33788 2.67603,2.36348 0.12508,0.36271 0.16308,1.4864 0.17557,4.63819 l 0,4.15395 -4.84078,-0.0251 -4.85237,-0.0386 0,-4.31408 0,-4.31407 0.33765,-0.58845 c 0.57532,-0.97556 1.66295,-1.71424 3.03875,-2.06442 0.21576,-0.0532 0.48553,-0.0874 0.7814,-0.10425 0.22191,-0.0129 0.45921,-0.0155 0.70036,-0.01 z m -108.06396,1.14991 c 0.45056,0.0136 0.91571,0.15023 1.3988,0.41288 0.6879,0.37521 1.34821,1.22622 1.56085,1.98917 0.075,0.26264 0.12541,2.0403 0.12541,4.17902 l 0,3.72754 -3.12556,0 -3.12753,0 0,-3.75262 c 0,-4.31498 0.0635,-4.65328 1.02643,-5.59131 0.68008,-0.66444 1.39068,-0.98727 2.1416,-0.96468 z m 40.30646,0.20836 c 0.68852,-0.0187 1.39984,0.11375 2.01425,0.41868 0.43775,0.22511 0.83972,0.52452 1.01485,0.78719 0.27511,0.42524 0.27397,0.47619 0.27397,4.65363 l 0,4.24075 -3.12751,0 -3.12752,0 0,-4.22917 c 0,-3.95228 0.0131,-4.23985 0.25082,-4.61506 0.46903,-0.77388 1.55363,-1.22474 2.70114,-1.25602 z m -54.55678,12.6093 c 0.25268,-0.0153 0.51112,-0.0159 0.77562,0 0.30227,0.018 0.61221,0.0564 0.92801,0.11575 1.57594,0.30019 2.86466,1.23718 3.41499,2.47539 0.38771,0.863 0.40025,1.16382 0.36271,6.67947 l -0.025,4.10184 -5.00478,0 -5.01636,0 0.0386,-5.163 0.0366,-5.15527 0.33764,-0.56145 c 0.91925,-1.52254 2.38322,-2.38527 4.152,-2.49274 z m -27.18096,0.006 c 0.64803,-0.034 1.32608,0.0162 2.00463,0.16014 1.03806,0.22512 1.96378,0.68747 2.56412,1.27531 0.88801,0.88799 0.8633,0.76354 0.82578,6.6544 l -0.0251,5.27681 -4.9411,0 -4.93919,0 0,-5.25173 c 0,-5.05292 0.0113,-5.27823 0.26238,-5.80354 0.62849,-1.35078 2.3044,-2.20939 4.24849,-2.31139 z m -13.77761,0.025 c 0.95973,-0.0288 2.18671,0.1035 2.82459,0.3473 1.00057,0.36269 1.75203,0.89978 2.16475,1.51263 l 0.33765,0.52671 0.0367,5.07809 c 0.0375,4.90281 0.0264,5.11463 -0.22382,5.79005 -0.31269,0.82543 -1.02625,1.53803 -1.67661,1.66312 -0.38773,0.0625 -0.45148,0.12614 -0.45148,0.42639 0,0.66285 -0.1229,0.6879 -3.83752,0.72542 l -3.41498,0.0501 0,-6.66596 c 0,-6.5037 0.0122,-6.68088 0.2624,-7.2062 0.46277,-0.95053 1.80082,-1.87323 3.13908,-2.16089 0.22826,-0.0469 0.51937,-0.077 0.83928,-0.0867 z m 28.026,0.007 c 0.68105,0.0154 1.35036,0.1135 1.8522,0.30096 1.06314,0.41277 1.92665,1.1387 2.3519,1.98919 l 0.36272,0.72544 0.0386,5.15527 0.0366,5.163 -4.82921,0 -4.82535,0 0.0366,-5.163 0.0386,-5.15527 0.37429,-0.67528 c 0.22512,-0.41272 0.62417,-0.87573 0.9994,-1.16341 0.3502,-0.26265 0.70056,-0.5375 0.77562,-0.60002 0.48465,-0.39869 1.65288,-0.60269 2.78793,-0.57688 z m -55.56196,0.0636 c 0.22596,-0.006 0.4929,-0.004 0.80647,0.006 1.01597,0.0251 1.30512,0.0761 1.94481,0.38972 0.90308,0.42645 1.90615,1.40543 2.30752,2.22071 0.15052,0.33865 0.3386,0.60197 0.40131,0.60197 0.0627,0 0.11383,1.61646 0.11384,3.84908 0,2.34552 -0.0511,3.80183 -0.11384,3.73912 -0.10034,-0.11288 -0.38873,-1.75738 -0.60196,-3.4883 -0.0502,-0.40137 -0.25163,-0.66354 -1.24252,-1.64189 -1.09122,-1.09123 -1.55507,-1.76916 -1.55507,-2.27088 0,-0.11287 -0.16203,-0.41283 -0.36272,-0.6637 -0.21323,-0.25086 -0.4148,-0.64051 -0.46498,-0.84118 -0.0502,-0.21325 -0.28743,-0.61448 -0.53829,-0.90297 -0.42646,-0.5017 -0.48996,-0.52767 -1.11711,-0.54022 -0.47662,0 -0.65213,-0.0501 -0.62704,-0.15048 0.0659,-0.19755 0.37168,-0.28915 1.04958,-0.30677 z m 177.16046,0.0231 c 0.5978,-0.0232 1.21351,0.0337 1.82325,0.1775 1.35076,0.32521 2.36415,0.98856 2.977,1.9641 0.28766,0.46276 0.30092,0.56233 0.27591,2.31331 l -0.0366,1.82712 -0.42639,-0.36273 c -0.23764,-0.1876 -0.73711,-0.4886 -1.12481,-0.6637 -0.62535,-0.26265 -0.93868,-0.29915 -2.73973,-0.34922 l -2.03934,-0.0639 -0.48813,0.33765 c -0.26264,0.18761 -0.8134,0.40148 -1.23865,0.47655 -0.83798,0.1626 -0.86123,0.1868 -1.1364,1.48754 -0.27515,1.38832 -0.3743,0.91289 -0.3743,-1.83869 0,-2.62652 0.0113,-2.70141 0.29906,-3.16416 0.80669,-1.28513 2.43575,-2.07185 4.22917,-2.14159 z m -40.56306,0.0174 c 0.26382,-0.0172 0.52865,-0.0168 0.7891,0 0.34727,0.0225 0.68773,0.0759 1.01292,0.16013 0.40021,0.1 0.951,0.29948 1.23865,0.44955 0.78796,0.40022 1.78746,1.41333 2.11266,2.15125 0.30017,0.63785 0.30014,0.7144 0.33765,5.55465 l 0.0366,4.9141 -5.13985,0 -5.14176,0 0.0386,-4.9141 c 0.0375,-4.84025 0.0374,-4.9168 0.33765,-5.55465 0.32514,-0.73792 1.32663,-1.75103 2.11459,-2.15125 0.68239,-0.35176 1.47159,-0.55765 2.26314,-0.60968 z m 13.46507,0.0136 c 0.85243,-0.0294 1.97485,0.0993 2.55641,0.33378 0.92552,0.36271 1.78779,1.02536 2.23805,1.71327 0.72543,1.10063 0.76405,1.3779 0.76405,6.50584 l 0,4.66329 -5.00285,0 -5.01637,0 0.0386,-4.91412 0.0366,-4.90252 0.33764,-0.71386 c 0.57532,-1.2257 1.85325,-2.22749 3.31658,-2.60273 0.19387,-0.0469 0.44709,-0.0734 0.73124,-0.083 z m 14.27539,0.004 c 0.67225,0.033 1.34552,0.14323 1.80204,0.31836 1.40078,0.53778 2.32663,1.37649 2.61428,2.40207 0.075,0.23762 0.12542,2.55071 0.12542,5.45238 l 0,5.03952 -4.81764,0 -4.82535,0 0.0366,-5.2884 c 0.0375,-4.76523 0.0625,-5.31735 0.26242,-5.68007 0.5128,-0.93803 1.61186,-1.71333 3.00016,-2.10108 0.45652,-0.13132 1.12977,-0.17559 1.80202,-0.14278 z m -62.14498,1.10168 c 0.43924,-0.0218 0.96093,-0.0158 1.71135,0.0154 2.21377,0.0875 2.70087,0.22364 4.75204,1.23673 2.57646,1.28822 4.61543,3.87856 5.4659,6.9303 0.27514,0.97557 0.2759,1.10207 0.2759,10.55751 0.01,3.99411 -0.0164,6.88135 -0.0541,8.43326 a 10.937218,7.7886251 0 0 0 -6.92258,7.24093 10.937218,7.7886251 0 0 0 0.007,0.16592 l -3.63299,0 a 7.817445,5.1371781 0 0 0 0.0366,-0.49585 7.817445,5.1371781 0 0 0 -7.81588,-5.13791 7.817445,5.1371781 0 0 0 -1.72486,0.13314 c -0.24206,-0.1015 -1.06061,-0.70947 -2.04514,-1.52229 l -0.41287,-0.33764 0,-7.86796 c 0,-4.32748 0.0513,-7.86796 0.11387,-7.86796 0.0501,0 0.13612,-0.60015 0.17364,-1.35057 0.075,-1.41332 0.32588,-2.46281 0.97626,-3.8761 0.18759,-0.42523 0.36369,-0.82592 0.37622,-0.87593 0.0251,-0.0501 0.13732,-0.20098 0.2624,-0.32607 0.12508,-0.13757 0.22378,-0.28763 0.22381,-0.33763 0,-0.23764 2.1142,-2.48889 2.32681,-2.48889 0.1,0 0.17365,-0.0629 0.17365,-0.12541 0,-0.075 0.13746,-0.18635 0.31256,-0.24888 0.16259,-0.0625 0.52553,-0.26287 0.80069,-0.43797 0.77545,-0.47528 2.24023,-1.02612 3.40339,-1.26374 0.41901,-0.0813 0.77629,-0.13068 1.21551,-0.15241 z m -19.78568,0.18135 c 0.47098,-0.0254 0.93647,0.0418 1.33513,0.21031 0.76294,0.3252 1.17573,0.67685 1.45089,1.25216 0.23763,0.50029 0.24896,0.76234 0.27396,4.77711 0,2.33884 0.0129,4.57659 0,4.96427 l -0.01,0.72545 -2.94036,0 -2.94036,0 0,-4.94112 c 0,-5.39057 0.0135,-5.48887 0.71387,-6.13925 0.53157,-0.50808 1.33152,-0.80678 2.1165,-0.84893 z m 41.02032,0.0849 c 0.67538,0.0375 1.02591,0.12528 1.55121,0.41289 0.40024,0.21261 0.78773,0.56315 0.98784,0.85085 l 0.32608,0.50164 0.0366,5.03951 0.0386,5.03951 -3.14103,0 -3.12751,0 0,-4.9006 c 0,-4.74022 0.0129,-4.91651 0.2624,-5.45432 0.47526,-0.97555 1.66499,-1.55202 3.06577,-1.48948 z m -55.07191,14.36801 c 0.72855,-0.0345 1.56114,0.0159 2.20527,0.16593 1.51337,0.36269 2.6504,1.11495 3.15067,2.10301 0.27516,0.52531 0.26331,0.0489 0.25082,8.1786 l -0.0113,4.4144 -1.52614,0 -1.53965,-0.0136 -0.75051,-0.48814 c -0.40021,-0.27516 -1.08839,-0.62358 -1.52614,-0.77368 -0.43777,-0.16257 -0.78718,-0.32427 -0.78718,-0.37428 0,-0.0501 0.11125,-0.31233 0.24888,-0.57497 0.1751,-0.32518 0.26347,-0.78887 0.301,-1.41422 0.0252,-0.51278 0.112,-1.37714 0.18714,-1.92744 0.0875,-0.56284 0.12528,-1.27432 0.0754,-1.62454 -0.0501,-0.3502 -0.10025,-1.15165 -0.1254,-1.80202 -0.0751,-1.81355 -0.37539,-2.76413 -1.50107,-4.66521 -0.35017,-0.60035 -0.38738,-0.73738 -0.2373,-0.86243 0.23138,-0.18762 0.85739,-0.30709 1.58594,-0.3415 z m 68.13374,0.13892 c 0.28568,-0.0171 0.57595,-0.0165 0.86628,0.004 0.33182,0.0235 0.66532,0.072 0.99363,0.14856 1.53839,0.3627 2.78687,1.33611 3.11206,2.41172 0.1,0.31269 0.1505,1.46397 0.1505,3.10242 l 0,2.61622 -0.26239,-0.40131 c -0.13757,-0.22513 -0.41335,-0.4874 -0.58846,-0.57495 -0.18757,-0.1 -0.88641,-0.48821 -1.54929,-0.87594 -1.35077,-0.80045 -1.7388,-0.86326 -2.61428,-0.46305 -0.30018,0.13758 -0.64955,0.25083 -0.7621,0.25083 -0.12509,0 -0.47545,0.17423 -0.7756,0.39937 -0.65037,0.45025 -1.56415,0.58785 -2.42717,0.36273 l -0.52478,-0.15049 0,-1.88885 c 0,-1.06311 0.061,-2.08833 0.14857,-2.36349 0.43089,-1.44595 2.23325,-2.4571 4.23303,-2.57764 z m 14.46448,0.01 0.002,0 c 0.67227,0.033 1.34359,0.14326 1.80009,0.31835 0.92556,0.35022 1.65078,0.88731 2.07601,1.5377 l 0.35115,0.51322 0.0113,2.57569 c 0.0129,1.41331 7.7e-4,2.45185 -0.0366,2.30175 -0.1,-0.48778 -0.35116,-0.58808 -1.0766,-0.43796 -1.0506,0.21257 -2.15159,-0.17469 -2.63938,-0.91259 -0.17508,-0.27516 -0.26292,-0.30079 -0.82576,-0.22575 -0.42524,0.0501 -0.78719,0.0129 -1.14991,-0.12541 -0.30016,-0.11263 -0.96223,-0.22479 -1.48755,-0.2373 -0.87546,-0.0375 -0.988,-0.0129 -1.40071,0.31255 l -0.46305,0.35113 0,-1.65152 c 0,-1.42581 0.0373,-1.73763 0.2624,-2.18791 0.43776,-0.91302 1.415,-1.61398 2.77828,-1.98918 0.45653,-0.13135 1.1259,-0.17557 1.79818,-0.14277 z m 11.75564,0.0906 c 0.0955,0.0516 -0.0337,0.25906 -0.35885,0.64054 -0.50029,0.58784 -0.57507,0.75131 -0.62511,1.38916 -0.1,1.17569 -1.00133,2.17459 -2.06444,2.24964 -0.3502,0.025 -0.35027,0.0112 -0.38781,-0.71388 -0.075,-1.38827 0.83782,-2.61318 2.43872,-3.27606 0.58159,-0.23765 0.90212,-0.34101 0.99749,-0.2894 z m -39.4826,1.30039 c 1.0506,0 1.27606,0.0376 1.91394,0.36272 1.2632,0.61285 1.21357,0.37492 1.21357,5.96562 0,4.55261 -0.0131,4.86628 -0.25082,5.37907 -0.10863,0.23714 -0.18408,0.59004 -0.21801,0.89523 a 10.937218,7.7886251 0 0 0 -5.7862,-2.04128 l 0,-3.55775 c 0,-6.36615 -0.0621,-6.02804 1.21358,-6.64089 0.63787,-0.32518 0.86333,-0.36272 1.91394,-0.36272 z m -40.49745,0.0771 c 0.87548,0.013 1.33808,0.0759 1.71326,0.25082 0.28767,0.12508 0.51323,0.30025 0.51323,0.3878 0,0.23765 -1.08881,1.03755 -1.67663,1.22515 -0.26266,0.0875 -0.7001,0.12437 -0.96275,0.0869 -0.43775,-0.0625 -0.52455,-0.0127 -1.14991,0.58845 l -0.68877,0.6367 -0.15049,1.12675 c -0.075,0.61286 -0.1873,2.18856 -0.23733,3.50181 -0.075,1.6009 -0.16333,2.50303 -0.27591,2.7532 -0.1501,0.32515 -0.17471,-0.2024 -0.21221,-4.42983 -0.0251,-5.21545 -0.0366,-5.12662 0.66371,-5.58938 0.62535,-0.41275 1.23806,-0.55081 2.4638,-0.5383 z"
       id="path4" /><path
       style="fill:#dc0067"
       d="m 562.04626,502.28807 c -38.78094,0 -70.22179,32.06847 -70.22179,71.57718 0,39.50872 31.44085,71.57477 70.22179,71.57477 38.78095,0 70.22421,-32.06605 70.22421,-71.57477 0,-39.50871 -31.44326,-71.57718 -70.22421,-71.57718 z m 0,1.98 c 37.68998,0 68.2442,31.13802 68.2442,69.59718 0,38.45914 -30.55422,69.59474 -68.2442,69.59474 -37.68997,0 -68.24178,-31.1356 -68.24178,-69.59474 0,-38.45916 30.55181,-69.59718 68.24178,-69.59718 z"
       id="path6" /><path
       style="fill:#dc0067"
       d="m 685.33777,461.26968 c -41.81977,0 -75.72773,34.49669 -75.72773,77.00354 0,42.50798 33.90796,77.00351 75.72773,77.00351 41.81864,0 75.72533,-34.49553 75.72533,-77.00351 0,-42.50685 -33.90669,-77.00354 -75.72533,-77.00354 z m 0,1.98242 c 40.72896,0 73.7429,33.56759 73.7429,75.02112 0,41.4547 -33.01394,75.0211 -73.7429,75.0211 -40.73015,0 -73.74531,-33.5664 -73.74531,-75.0211 0,-41.45353 33.01516,-75.02112 73.74531,-75.02112 z"
       id="path8" /><path
       style="fill:#dc0067"
       d="m 685.01701,434.15722 c -56.9376,0 -103.15854,46.70646 -103.15854,104.116 0,57.40952 46.22094,104.11598 103.15854,104.11598 56.93761,0 103.15854,-46.70646 103.15854,-104.11598 0,-57.40954 -46.22093,-104.116 -103.15854,-104.116 z m 0,10.76105 c 51.06522,0 92.39749,41.70441 92.39749,93.35495 0,51.65052 -41.33227,93.35492 -92.39749,93.35492 -51.0652,0 -92.39748,-41.7044 -92.39748,-93.35492 0,-51.65054 41.33228,-93.35495 92.39748,-93.35495 z"
       id="path10" /><path
       style="fill:#ffb400"
       d="m 544.13165,579.97582 -15.43382,0 12.34636,11.70312 -24.69388,0 0,11.70313 24.69388,0 -12.34636,11.70313 15.43382,0 18.52012,-17.55528 z"
       id="path12" /><path
       style="fill:#ffb400"
       d="m 724.44366,559.55313 -19.36811,-20.04515 41.96463,0 0,-20.04396 -41.96463,0 19.36811,-20.04514 -25.82376,0 -29.05219,30.06711 29.05219,30.06714 z"
       id="path14" /><path
       style="fill:#000000"
       d="m 495.83497,695.75304 -4.15039,-28.8086 6.39648,0 1.3916,14.25781 q 0.1709,1.61134 0.26856,3.54004 0.0976,1.9043 0.14648,4.10156 l 0.19531,0 q 0.0488,-2.36816 0.1709,-4.54101 0.14649,-2.19726 0.31738,-4.02831 l 1.29395,-13.33009 6.00586,0 -4.15039,28.8086 -7.88574,0 z"
       id="path16" /><path
       style="fill:#000000"
       d="m 514.65821,672.51085 0,17.43164 q 0,0.95215 0.26855,1.36719 0.26856,0.39062 0.87891,0.39062 0.61035,0 0.87891,-0.39062 0.26855,-0.41504 0.26855,-1.36719 l 0,-17.43164 q 0,-0.92773 -0.29297,-1.34277 -0.26855,-0.41504 -0.90332,-0.41504 -0.58594,0 -0.85449,0.39063 -0.24414,0.39062 -0.24414,1.36718 z m -6.39649,1.95313 q 0,-4.46778 1.7334,-6.32325 1.75782,-1.87988 5.76172,-1.87988 4.00391,0 5.73731,1.87988 1.75781,1.85547 1.75781,6.32325 l 0,13.79394 q 0,4.44336 -1.75781,6.32325 -1.7334,1.87987 -5.73731,1.87987 -4.0039,0 -5.76172,-1.87987 -1.7334,-1.87989 -1.7334,-6.32325 l 0,-13.79394 z"
       id="path18" /><path
       style="fill:#000000"
       d="m 531.50391,685.69444 q 0,1.00098 0.24414,1.3916 0.26856,0.36621 0.90332,0.36621 0.58594,0 0.85449,-0.41503 0.29297,-0.43945 0.29297,-1.34278 l 0,-12.5 q 0,-0.8789 -0.29297,-1.26952 -0.26855,-0.41504 -0.85449,-0.41504 -0.63476,0 -0.90332,0.36621 -0.24414,0.34179 -0.24414,1.31835 l 0,12.5 z m 2.29492,3.71094 -0.0977,0 q -0.68359,1.61134 -1.80664,2.417 -1.09863,0.78125 -2.68555,0.78125 -2.0996,0 -3.07617,-1.14746 -0.97656,-1.17188 -0.97656,-3.71094 l 0,-16.8457 q 0,-2.17286 1.04981,-3.32031 1.0498,-1.17188 3.05175,-1.17188 1.51367,0 2.61231,0.708 1.09863,0.70801 1.92871,2.2461 l 0.14648,0 0,-2.417 6.20117,0 0,27.09961 q 0,4.5166 -1.73339,6.34767 -1.7334,1.85546 -5.76172,1.85546 -3.56446,0 -5.54199,-1.7334 -1.95313,-1.70899 -1.95313,-4.80956 l 0,-2.19728 6.34766,0 0,2.2461 q 0,0.95215 0.26855,1.34278 0.26856,0.41503 0.87891,0.41503 0.61035,0 0.8789,-0.41503 0.26856,-0.41504 0.26856,-1.34278 l 0,-6.34766 z"
       id="path20" /><path
       style="fill:#000000"
       d="m 541.24512,671.5587 0,-4.61426 1.61133,0 0,-5.34667 6.39649,0 0,5.34667 1.85546,0 0,4.61426 -1.85546,0 0,17.50489 q 0,1.34276 0.31738,1.70898 0.34179,0.3418 1.31836,0.3418 l 0.21972,0 0,4.63867 -4.0039,0 q -2.31934,0 -3.2959,-1.04981 -0.95215,-1.07421 -0.95215,-4.0039 l 0,-19.14063 -1.61133,0 z"
       id="path22" /><path
       style="fill:#000000"
       d="m 552.20704,695.75304 0,-36.01075 6.34765,0 0,36.01075 -6.34765,0 z"
       id="path24" /><path
       style="fill:#000000"
       d="m 569.29688,689.2589 0,-7.64161 q -0.14648,0.0976 -0.39062,0.29298 -1.9043,1.46483 -1.9043,2.58788 l 0,4.76075 q 0,0.97657 0.24414,1.34277 0.26855,0.3418 0.90332,0.3418 0.58594,0 0.85449,-0.39063 0.29297,-0.41504 0.29297,-1.29394 z m -8.69141,-16.40625 q 0,-3.27148 1.87989,-4.93165 1.90429,-1.66015 5.61523,-1.66015 4.05274,0 5.76172,1.85547 1.7334,1.83106 1.7334,6.34766 l 0,17.5293 q 0,1.14745 0.0977,2.05077 0.12207,0.87892 0.36621,1.70899 l -6.44531,0 q -0.12208,-0.5127 -0.19532,-1.02539 -0.0732,-0.53711 -0.0732,-0.97656 l 0,-0.43946 -0.0977,0 q -0.68359,1.41602 -1.85547,2.17285 -1.14746,0.75684 -2.68554,0.75684 -2.02637,0 -3.07617,-1.2207 -1.02539,-1.2207 -1.02539,-3.61328 l 0,-6.10352 q 0,-2.2705 0.80566,-3.68653 0.83008,-1.44042 2.63672,-2.41699 0.58594,-0.31738 1.66015,-0.85448 3.58887,-1.83107 3.58887,-3.49122 l 0,-2.05078 q 0,-0.92773 -0.29297,-1.34278 -0.26855,-0.41504 -0.90332,-0.41504 -0.58593,0 -0.85449,0.41504 -0.24414,0.41505 -0.24414,1.34278 l 0,4.19922 -6.39648,0 0,-4.15039 z"
       id="path26" /><path
       style="fill:#000000"
       d="m 577.69532,695.75304 0,-28.8086 6.25,0 0,2.417 0.0977,0 q 0.80566,-1.51367 1.92871,-2.22169 1.12304,-0.73241 2.6123,-0.73241 2.0752,0 3.1006,1.24511 1.0498,1.2207 1.0498,3.66212 l 0,24.43847 -6.39649,0 0,-22.33887 q 0,-1.00098 -0.26856,-1.34277 -0.24414,-0.36621 -0.8789,-0.36621 -0.58594,0 -0.87891,0.41504 -0.26855,0.41504 -0.26855,1.29394 l 0,22.33887 -6.34766,0 z"
       id="path28" /><path
       style="fill:#000000"
       d="m 609.67774,695.75304 -6.25,0 0,-2.49024 -0.0977,0 q -0.63476,1.58692 -1.78223,2.39258 -1.12304,0.80566 -2.75878,0.80566 -2.0752,0 -3.10059,-1.19629 -1.00097,-1.2207 -1.00097,-3.6621 l 0,-20.28808 q 0,-2.46583 1.02539,-3.68653 1.02539,-1.2207 3.07617,-1.2207 1.51367,0 2.61231,0.73241 1.09863,0.73243 1.83105,2.22169 l 0.0977,0 0,-9.61915 6.34766,0 0,36.01075 z m -8.64257,-6.29882 q 0,1.00097 0.24414,1.3916 0.26855,0.36621 0.90332,0.36621 0.58593,0 0.85449,-0.43946 0.29297,-0.43945 0.29297,-1.31835 l 0,-16.04005 q 0,-0.8789 -0.29297,-1.29394 -0.26856,-0.41504 -0.85449,-0.41504 -0.63477,0 -0.90332,0.36621 -0.24414,0.34179 -0.24414,1.34277 l 0,16.04005 z"
       id="path30" /><path
       style="fill:#000000"
       d="m 612.16798,695.75304 0,-7.34864 6.6162,0 0,7.34864 -6.6162,0 z"
       id="path32" /><path
       style="fill:#000000"
       d="m 622.25098,695.75304 0,-24.24316 -1.5625,0 0,-4.56544 1.5625,0 0,-2.73437 q 0,-2.0996 1.26954,-3.27148 1.26953,-1.1963 3.54004,-1.1963 l 3.58886,0 0,4.51661 q -1.12305,0 -1.58691,0.26855 -0.46386,0.24414 -0.46386,0.8789 l 0,1.53809 2.05077,0 0,4.56544 -2.05077,0 0,24.24316 -6.34767,0 z"
       id="path34" /><path
       style="fill:#000000"
       d="m 631.79688,695.75304 0,-28.8086 6.25,0 0,2.417 0.0976,0 q 0.80566,-1.51367 1.9287,-2.22169 1.12305,-0.73241 2.61231,-0.73241 2.07519,0 3.10059,1.24511 1.0498,1.2207 1.0498,3.66212 l 0,11.13281 -6.39649,0 0,-9.03321 q 0,-1.00098 -0.26855,-1.34277 -0.24414,-0.36621 -0.87891,-0.36621 -0.58594,0 -0.8789,0.41504 -0.26855,0.41504 -0.26855,1.29394 l 0,22.33887 -6.34766,0 z"
       id="path36" /><path
       style="fill:#000000"
       d="m 655.62501,672.51085 0,5.44434 2.29492,0 0,-5.44434 q 0,-0.95215 -0.26856,-1.34277 -0.26855,-0.41504 -0.8789,-0.41504 -0.61035,0 -0.87891,0.41504 -0.26855,0.39062 -0.26855,1.34277 z m 0,17.43164 q 0,0.95215 0.26855,1.36719 0.26856,0.39062 0.87891,0.39062 0.61035,0 0.8789,-0.39062 0.26856,-0.41504 0.26856,-1.36719 l 0,-5.39551 6.34765,0 0,5.34669 q 0,3.125 -1.97753,4.8584 -1.95313,1.70897 -5.51758,1.70897 -4.02832,0 -5.76172,-1.85546 -1.73339,-1.85548 -1.73339,-6.34766 l 0,-13.79394 q 0,-4.54101 1.70897,-6.37208 1.70899,-1.83105 5.73732,-1.83105 3.54003,0 5.54198,1.66015 2.00195,1.63575 2.00195,4.54103 l 0,9.79004 -8.64257,0 0,7.69042 z"
       id="path38" /><path
       style="fill:#000000"
       d="m 666.26953,695.75304 0,-28.8086 6.34767,0 0,28.8086 -6.34767,0 z m 0,-30.542 0,-5.46875 6.34767,0 0,5.46875 -6.34767,0 z"
       id="path40" /><path
       style="fill:#000000"
       d="m 675.76661,695.75304 0,-24.24316 -1.5625,0 0,-4.56544 1.5625,0 0,-2.73437 q 0,-2.0996 1.26954,-3.27148 1.26952,-1.1963 3.54003,-1.1963 l 3.58887,0 0,4.51661 q -1.12305,0 -1.58692,0.26855 -0.46386,0.24414 -0.46386,0.8789 l 0,1.53809 2.05078,0 0,4.56544 -2.05078,0 0,24.24316 -6.34766,0 z"
       id="path42" /><path
       style="fill:#000000"
       d="m 700.35157,666.94444 0,28.8086 -6.25,0 0,-2.39257 -0.14649,0 q -0.80566,1.48925 -1.9043,2.19726 -1.07421,0.68359 -2.58788,0.68359 -2.07519,0 -3.125,-1.19629 -1.02539,-1.2207 -1.02539,-3.63769 l 0,-24.4629 6.34765,0 0,22.36329 q 0,0.95215 0.26856,1.31836 0.29296,0.3662 0.92774,0.3662 0.58594,0 0.83007,-0.39062 0.26855,-0.39063 0.26855,-1.29394 l 0,-22.36329 6.39649,0 z"
       id="path44" /><path
       style="fill:#000000"
       d="m 702.40235,695.75304 0,-28.8086 6.25,0 0,2.417 0.0976,0 q 0.80566,-1.51367 1.92871,-2.22169 1.12305,-0.73241 2.6123,-0.73241 2.0752,0 3.10059,1.24511 1.0498,1.2207 1.0498,3.66212 l 0,24.43847 -6.39647,0 0,-22.33887 q 0,-1.00098 -0.26857,-1.34277 -0.24413,-0.36621 -0.8789,-0.36621 -0.58593,0 -0.87891,0.41504 -0.26851,0.41504 -0.26851,1.29394 l 0,22.33887 -6.34766,0 z"
       id="path46" /><path
       style="fill:#000000"
       d="m 719.4922,695.75304 0,-36.01075 6.34765,0 0,19.75099 0.0976,0 2.70996,-12.54884 6.49414,0 -3.14941,12.45118 3.14941,16.35742 -6.68945,0 -2.51465,-15.08789 -0.0976,0 0,15.08789 -6.34765,0 z"
       id="path48" /><path
       style="fill:#000000"
       d="m 736.38672,695.75304 0,-7.34864 6.61621,0 0,7.34864 -6.61621,0 z"
       id="path50" /><path
       style="fill:#000000"
       d="m 745.46876,695.75304 0,-28.8086 6.25,0 0,2.417 0.0976,0 q 0.80568,-1.51367 1.92872,-2.22169 1.12305,-0.73241 2.61231,-0.73241 2.07519,0 3.10059,1.24511 1.0498,1.2207 1.0498,3.66212 l 0,24.43847 -6.39649,0 0,-22.33887 q 0,-1.00098 -0.26855,-1.34277 -0.24414,-0.36621 -0.87891,-0.36621 -0.58594,0 -0.8789,0.41504 -0.26857,0.41504 -0.26857,1.29394 l 0,22.33887 -6.34765,0 z"
       id="path52" /><path
       style="fill:#000000"
       d="m 768.8086,672.51085 0,5.44434 2.29492,0 0,-5.44434 q 0,-0.95215 -0.26855,-1.34277 -0.26856,-0.41504 -0.87891,-0.41504 -0.61035,0 -0.8789,0.41504 -0.26856,0.39062 -0.26856,1.34277 z m 0,17.43164 q 0,0.95215 0.26856,1.36719 0.26855,0.39062 0.8789,0.39062 0.61035,0 0.87891,-0.39062 0.26855,-0.41504 0.26855,-1.36719 l 0,-5.39551 6.34766,0 0,5.34669 q 0,3.125 -1.97753,4.8584 -1.95313,1.70897 -5.51759,1.70897 -4.02831,0 -5.76171,-1.85546 -1.7334,-1.85548 -1.7334,-6.34766 l 0,-13.79394 q 0,-4.54101 1.70898,-6.37208 1.70898,-1.83105 5.7373,-1.83105 3.54004,0 5.54199,1.66015 2.00196,1.63575 2.00196,4.54103 l 0,9.79004 -8.64258,0 0,7.69042 z"
       id="path54" /><path
       style="fill:#000000"
       d="m 778.45216,671.5587 0,-4.61426 1.61132,0 0,-5.34667 6.39649,0 0,5.34667 1.85546,0 0,4.61426 -1.85546,0 0,17.50489 q 0,1.34276 0.31738,1.70898 0.3418,0.3418 1.31836,0.3418 l 0.21972,0 0,4.63867 -4.0039,0 q -2.31933,0 -3.2959,-1.04981 -0.95215,-1.07421 -0.95215,-4.0039 l 0,-19.14063 -1.61132,0 z"
       id="path56" /></g></svg>