<?xml version="1.0" encoding="UTF-8" standalone="no"?>
<svg
   xmlns:dc="http://purl.org/dc/elements/1.1/"
   xmlns:cc="http://creativecommons.org/ns#"
   xmlns:rdf="http://www.w3.org/1999/02/22-rdf-syntax-ns#"
   xmlns:svg="http://www.w3.org/2000/svg"
   xmlns="http://www.w3.org/2000/svg"
   id="svg2"
   style="fill-rule:evenodd;clip-rule:evenodd;stroke-linecap:round;stroke-linejoin:round;stroke-miterlimit:1.41421;"
   xml:space="preserve"
   version="1.1"
   viewBox="0 0 1280 1150"
   height="100%"
   width="100%"><metadata
     id="metadata160"><rdf:RDF><cc:Work
         rdf:about=""><dc:format>image/svg+xml</dc:format><dc:type
           rdf:resource="http://purl.org/dc/dcmitype/StillImage" /><dc:title></dc:title></cc:Work></rdf:RDF></metadata><defs
     id="defs158" /><g
     transform="translate(-6.350844,0)"
     id="g4288"><g
       id="antenne links weis"
       transform="matrix(-1,0,0,1,1285.94,-1.04328)"><path
         d="m 1016.63,225.315 0,18.182 51.99,0 0,-18.182 c -12.2,-9.554 -40.15,-6.822 -51.99,0 z"
         style="fill:#ffffff;stroke:#0d0d0d;stroke-width:1px"
         id="path5" /><path
         d="m 1010.18,148.231 c 1.27,-15.134 8.25,-24.23 23.57,-24.498 l 43.46,0 0,84.569 -65.38,0 -1.65,-60.071 z"
         style="fill:#d4d4d4;stroke:#000000;stroke-width:1px"
         id="path7" /><path
         d="m 1016.63,225.315 -10.57,-6.72 c 9.76,-15.366 61.66,-18.315 75.38,0 l -12.82,6.72 c -12.2,-9.554 -40.15,-6.822 -51.99,0 z"
         style="fill:#d4d4d4;stroke:#000000;stroke-width:1px"
         id="path9" /><path
         d="m 1006.06,205.776 0,12.819 c 9.76,-15.366 61.66,-18.315 75.38,0 l 0,-12.819 c -7.2,-14.229 -68.01,-12.521 -75.38,0 z"
         style="fill:#ffffff;stroke:#0d0d0d;stroke-width:1px"
         id="path11" /><path
         d="m 1001.64,96.223 c 24.82,-7.214 49.92,-8.111 75.39,0 l 4.03,103.649 c -5.16,-5.378 -13.24,-6.791 -23.07,-7.383 l -24.24,-1.459 c -11.92,-0.719 -20.61,-4.711 -20.61,-11.159 l 0,-53.941 c 0,-1.098 -3.73,-2.197 -11.5,-2.197 l 0,-27.51 z"
         style="fill:#ffffff;stroke:#000000;stroke-width:1px"
         id="path13" /><path
         d="m 1001.64,96.223 c 24.82,-7.214 49.92,-8.111 75.39,0 l -6.44,-152.126 -74.578,0 5.628,152.126 z"
         style="fill:#ffffff;stroke:#000000;stroke-width:1px"
         id="path15" /><path
         d="m 1013.14,141.938 -11.5,-18.205 c 7.68,-0.083 11.5,1.315 11.5,2.243 l 0,15.962"
         style="fill:#d4d4d4;stroke:#000000;stroke-width:1px"
         id="path17" /><path
         d="m 1009.95,265.784 0,-30.073 c 16.9,-11.138 47.41,-12.833 70.25,0 l 0,47 -70.25,-16.927"
         style="fill:#ffffff;stroke:#000000;stroke-width:1px"
         id="path19" /></g><g
       id="antenne rechts weis"
       transform="translate(-0.120125,-1.04328)"><path
         d="m 1016.63,225.315 0,18.182 51.99,0 0,-18.182 c -12.2,-9.554 -40.15,-6.822 -51.99,0 z"
         style="fill:#ffffff;stroke:#0d0d0d;stroke-width:1px"
         id="path22" /><path
         d="m 1010.18,148.231 c 1.27,-15.134 8.25,-24.23 23.57,-24.498 l 43.46,0 0,84.569 -65.38,0 -1.65,-60.071 z"
         style="fill:#d4d4d4;stroke:#000000;stroke-width:1px"
         id="path24" /><path
         d="m 1016.63,225.315 -10.57,-6.72 c 9.76,-15.366 61.66,-18.315 75.38,0 l -12.82,6.72 c -12.2,-9.554 -40.15,-6.822 -51.99,0 z"
         style="fill:#d4d4d4;stroke:#000000;stroke-width:1px"
         id="path26" /><path
         d="m 1006.06,205.776 0,12.819 c 9.76,-15.366 61.66,-18.315 75.38,0 l 0,-12.819 c -7.2,-14.229 -68.01,-12.521 -75.38,0 z"
         style="fill:#ffffff;stroke:#0d0d0d;stroke-width:1px"
         id="path28" /><path
         d="m 1001.64,96.223 c 24.82,-7.214 49.92,-8.111 75.39,0 l 4.03,103.649 c -5.16,-5.378 -13.24,-6.791 -23.07,-7.383 l -24.24,-1.459 c -11.92,-0.719 -20.61,-4.711 -20.61,-11.159 l 0,-53.941 c 0,-1.098 -3.73,-2.197 -11.5,-2.197 l 0,-27.51 z"
         style="fill:#ffffff;stroke:#000000;stroke-width:1px"
         id="path30" /><path
         d="m 1001.64,96.223 c 24.82,-7.214 49.92,-8.111 75.39,0 l -6.44,-152.126 -74.578,0 5.628,152.126 z"
         style="fill:#ffffff;stroke:#000000;stroke-width:1px"
         id="path32" /><path
         d="m 1013.14,141.938 -11.5,-18.205 c 7.68,-0.083 11.5,1.315 11.5,2.243 l 0,15.962"
         style="fill:#d4d4d4;stroke:#000000;stroke-width:1px"
         id="path34" /><path
         d="m 1009.95,265.784 0,-30.073 c 16.9,-11.138 47.41,-12.833 70.25,0 l 0,47 -70.25,-16.927"
         style="fill:#ffffff;stroke:#000000;stroke-width:1px"
         id="path36" /></g><g
       id="rumpf"><g
         transform="matrix(1.35723,0,0,1.57108,-231.142,-363.196)"
         id="g39"><path
           d="m 339.179,871.611 c 39.189,8.965 234.287,26.375 375.37,20.49 210.828,-8.794 233.797,-17.079 250.36,-20.49 69.841,-14.384 87.871,-50.605 94.921,-87.193 20.48,-106.212 23.98,-215.902 0,-326.295 -5.25,-24.182 -29.79,-55.544 -67.143,-64.115 -8.901,6.322 -17.17,10.259 -23.313,10.164 l -636.673,0 c -12.919,-0.016 -19.43,-4.134 -22.954,-10.164 -35.166,6.395 -60.425,34.279 -72.335,64.115 -41.141,103.061 -10.594,295.671 0,336.645 11.481,44.404 45.574,63.989 101.767,76.843 z"
           style="fill:#ffffff;stroke:#000000;stroke-width:0.68000001px"
           id="path41" /></g><g
         transform="matrix(1.30982,0,0,1.49058,-200.372,-315.137)"
         id="g43"><path
           d="m 339.179,872.886 c 39.189,8.964 234.287,26.479 375.37,20.594 210.828,-8.794 233.64,-17.54 250.36,-20.594 70.611,-12.902 87.871,-51.88 94.921,-88.468 20.48,-106.212 20.53,-215.384 0,-326.295 -4.4,-23.766 -29.9,-49.743 -55.45,-58.314 -6.61,-2.219 -13.834,-4.118 -22.511,-6.034 l -663.667,0 c -30.194,6.21 -69.852,23.184 -80.79,64.348 -28.232,106.242 -10.594,295.671 0,336.645 11.481,44.404 45.574,65.263 101.767,78.118 z"
           style="fill:#a5a5a5;stroke:#000000;stroke-width:0.70999998px"
           id="path45" /></g><g
         transform="matrix(1.29832,0,0,1.47749,-192.909,-306.873)"
         id="g47"><path
           d="m 339.179,871.611 c 39.189,8.965 234.287,26.375 375.37,20.49 210.828,-8.794 233.797,-17.079 250.36,-20.49 69.841,-14.384 87.871,-50.605 94.921,-87.193 20.48,-106.212 20.53,-215.384 0,-326.295 -4.4,-23.766 -29.9,-49.743 -55.45,-58.314 -63.913,-21.442 -232.236,-28.248 -349.148,-29.795 -104.318,-1.381 -252.2,8.386 -316.053,18.825 -42.517,6.951 -90.5,23.964 -101.767,69.284 -26.498,106.587 -10.594,295.671 0,336.645 11.481,44.404 45.574,63.989 101.767,76.843 z"
           style="fill:#ffffff;stroke:#000000;stroke-width:0.72000003px"
           id="path49" /></g><g
         transform="matrix(1.24742,0,0,1.39181,-160.888,-248.7)"
         id="g51"><path
           d="m 339.179,871.611 c 39.189,8.965 234.287,26.375 375.37,20.49 210.828,-8.794 233.797,-17.079 250.36,-20.49 69.841,-14.384 87.871,-50.605 94.921,-87.193 20.48,-106.212 20.53,-215.384 0,-326.295 -4.4,-23.766 -29.9,-49.743 -55.45,-58.314 -63.913,-21.442 -232.236,-28.248 -349.148,-29.795 -104.318,-1.381 -252.2,8.386 -316.053,18.825 -42.517,6.951 -90.5,23.964 -101.767,69.284 -26.498,106.587 -10.594,295.671 0,336.645 11.481,44.404 45.574,63.989 101.767,76.843 z"
           style="fill:#a5a5a5;stroke:#000000;stroke-width:0.75999999px"
           id="path53" /></g><g
         transform="matrix(1.22743,0,0,1.35773,-147.086,-226.763)"
         id="g55"><path
           d="m 339.179,871.611 c 39.189,8.965 234.287,26.375 375.37,20.49 210.828,-8.794 233.797,-17.079 250.36,-20.49 69.841,-14.384 87.871,-50.605 94.921,-87.193 20.48,-106.212 20.53,-215.384 0,-326.295 -4.4,-23.766 -29.9,-49.743 -55.45,-58.314 -63.913,-21.442 -232.236,-28.248 -349.148,-29.795 -104.318,-1.381 -252.2,8.386 -316.053,18.825 -42.517,6.951 -90.5,23.964 -101.767,69.284 -26.498,106.587 -10.594,295.671 0,336.645 11.481,44.404 45.574,63.989 101.767,76.843 z"
           style="fill:#ffffff;stroke:#000000;stroke-width:0.76999998px"
           id="path57" /></g><g
         transform="matrix(1.17497,0,0,1.27325,-113.702,-172.93)"
         id="g59"><path
           d="m 339.179,874.352 c 39.93,5.699 133.14,18.466 272.681,17.947 211.05,-0.786 336.265,-15.58 353.049,-17.947 21.31,-3.006 47.131,-10.209 62.881,-24.073 21.9,-19.282 25.37,-31.252 32.04,-65.861 20.52,-106.398 20.25,-214.998 0,-326.295 -6.27,-34.492 -30.14,-50.374 -55.45,-58.314 -64.404,-20.207 -232.236,-28.248 -349.148,-29.795 -104.318,-1.381 -252.2,8.386 -316.053,18.825 -42.517,6.951 -90.309,18.481 -101.767,69.284 -24.623,109.175 -15.305,221.916 0,336.645 3.794,28.438 24.135,52.239 44.403,61.741 20.311,9.521 43.817,15.909 57.364,17.843 z"
           style="fill:#a5a5a5;stroke:#000000;stroke-width:0.81999999px"
           id="path61" /></g><g
         transform="matrix(1.15376,0,0,1.23967,-99.9453,-151.656)"
         id="g63"><path
           d="m 339.179,874.352 c 31.719,4.671 130.507,17.456 272.681,17.947 211.051,0.727 336.265,-15.58 353.049,-17.947 21.31,-3.006 47.131,-10.209 62.881,-24.073 21.9,-19.282 25.37,-31.252 32.04,-65.861 20.52,-106.398 20.25,-214.998 0,-326.295 -6.27,-34.492 -30.14,-50.374 -55.45,-58.314 -64.404,-20.207 -232.236,-28.248 -349.148,-29.795 -104.318,-1.381 -252.2,8.386 -316.053,18.825 -42.517,6.951 -90.309,18.481 -101.767,69.284 -24.623,109.175 -15.305,221.916 0,336.645 3.794,28.438 24.135,52.239 44.403,61.741 20.311,9.521 43.827,15.849 57.364,17.843 z"
           style="fill:#ffffff;stroke:#000000;stroke-width:0.83999997px"
           id="path65" /></g><g
         transform="matrix(1.09703,0,0,1.15466,-62.9357,-97.5455)"
         id="g67"><path
           d="m 339.179,875.614 c 0,0 130.573,15.574 272.681,16.685 211.045,1.649 336.265,-15.58 353.049,-17.947 21.31,-3.006 42.341,-7.522 62.081,-17.843 26.29,-13.747 31.41,-37.251 36.75,-72.091 16.32,-106.44 14.55,-215.054 0,-326.295 -4.55,-34.762 -33.12,-54.89 -59.03,-60.904 -101.437,-23.541 -235.459,-24.718 -352.372,-26.266 -104.317,-1.38 -208.718,6.639 -313.159,17.886 -54.262,5.844 -96.72,17.96 -106.185,69.284 -20.136,109.179 -12.696,222.655 1.267,338.016 3.612,28.211 15.906,52.372 36.175,61.873 20.311,9.521 55.156,15.923 68.743,17.602 z"
           style="fill:#a5a5a5;stroke:#000000;stroke-width:0.88999999px"
           id="path69" /></g><g
         transform="matrix(1.07767,0,0,1.1153,-50.393,-72.6833)"
         id="g71"><path
           d="m 339.179,875.614 c 0,0 130.573,15.574 272.681,16.685 211.045,1.649 336.265,-15.58 353.049,-17.947 21.31,-3.006 42.341,-7.522 62.081,-17.843 26.29,-13.747 31.41,-37.251 36.75,-72.091 16.32,-106.44 14.55,-215.054 0,-326.295 -4.55,-34.762 -33.12,-54.89 -59.03,-60.904 -101.437,-23.541 -235.459,-24.718 -352.372,-26.266 -104.317,-1.38 -208.718,6.639 -313.159,17.886 -54.262,5.844 -96.72,17.96 -106.185,69.284 -20.136,109.179 -12.696,222.655 1.267,338.016 3.612,28.211 15.906,52.372 36.175,61.873 20.311,9.521 55.156,15.923 68.743,17.602 z"
           style="fill:#ffffff;stroke:#000000;stroke-width:0.91000003px"
           id="path73" /></g><g
         transform="matrix(1.01964,0,0,1.01964,-12.7426,-12.2653)"
         id="g75"><path
           d="m 339.179,874.352 c 0,0 130.573,16.836 272.681,17.947 211.045,1.649 336.265,-15.58 353.049,-17.947 21.31,-3.006 43.261,-5.099 62.991,-15.421 26.29,-13.746 34.36,-39.846 38.67,-74.829 13.1,-106.385 14.11,-214.869 0,-325.979 -4.56,-35.854 -27.03,-54.274 -61.86,-60.904 -102.355,-19.48 -235.459,-24.718 -352.372,-26.266 -104.317,-1.38 -208.718,6.639 -313.159,17.886 -54.262,5.844 -95.448,10.227 -106.185,69.284 -19.832,109.079 -12.077,223.542 0,338.848 3.612,28.212 15.982,54.232 37.042,61.96 21.122,7.752 55.556,13.742 69.143,15.421 z"
           style="fill:#0d0d0d;stroke:#000000;stroke-width:0.98000002px"
           id="path77" /></g><path
         d="m 493.572,814.923 321.405,0 c 28.938,0.169 52.885,14.266 75.653,32.857 19.805,16.173 43.539,30.907 74.279,26.572 21.31,-3.006 43.261,-5.099 62.991,-15.421 26.29,-13.746 34.36,-39.846 38.67,-74.829 13.1,-106.385 14.11,-214.869 0,-325.979 -4.56,-35.854 -27.03,-52.795 -61.86,-59.424 -102.355,-19.481 -235.459,-23.068 -352.372,-24.615 -104.317,-1.38 -208.718,5.666 -313.159,16.913 -54.262,5.844 -95.448,8.069 -106.185,67.126 -19.832,109.079 -12.077,223.542 0,338.848 3.612,28.212 15.982,54.232 37.042,61.96 21.122,7.752 54.68,14.655 69.143,15.421 31.581,1.672 48.868,-12.221 67.101,-26.572 27.591,-21.716 48.518,-32.857 87.292,-32.857 z"
         style="fill:#ffffff;stroke:#000000;stroke-width:1px"
         id="path79" /></g><g
       id="anzeige USB"
       transform="matrix(0.757546,0,0,0.822146,204.508,44.6038)"><g
         transform="matrix(1.11419,0,0,0.819387,-134.206,154.197)"
         id="g82"><path
           d="m 532.5,1001.56 c 3.037,-3.06 6.083,-2.457 9.134,0"
           style="fill:none;stroke:#ffffff;stroke-width:3px"
           id="path84" /><path
           d="m 529.218,994.65 c 5.176,-3.942 10.31,-3.82 15.405,0"
           style="fill:none;stroke:#ffffff;stroke-width:3px"
           id="path86" /><path
           d="m 526.539,988.847 c 6.781,-4.897 13.694,-5.464 20.791,0"
           style="fill:none;stroke:#ffffff;stroke-width:3px"
           id="path88" /></g><g
         transform="matrix(1.07743,-0.00297445,0.00258418,0.936066,-170.754,40.2477)"
         id="g90"><g
           transform="matrix(1,0,0,1.14185,0,-139.828)"
           id="g92"><path
             d="m 626.349,996.053 -3.276,0 0,-10.303 18.143,0 0,10.303 -3.033,0"
             style="fill:none;stroke:#ffffff;stroke-width:3px"
             id="path94" /></g><path
           d="m 626.295,1003.22 11.042,0 -4.985,0 0,-7.799"
           style="fill:none;stroke:#ffffff;stroke-width:3px"
           id="path96" /></g><g
         transform="matrix(1.07743,-0.00297445,0.00258418,0.936066,-121.697,40.2477)"
         id="g98"><g
           transform="matrix(1,0,0,1.14185,0,-139.828)"
           id="g100"><path
             d="m 626.349,996.053 -3.276,0 0,-10.303 18.143,0 0,10.303 -3.033,0"
             style="fill:none;stroke:#ffffff;stroke-width:3px"
             id="path102" /></g><path
           d="m 626.295,1003.22 11.042,0 -4.985,0 0,-7.799"
           style="fill:none;stroke:#ffffff;stroke-width:3px"
           id="path104" /></g><g
         transform="matrix(1.07743,-0.00297445,0.00258418,0.936066,-71.9361,40.2477)"
         id="g106"><g
           transform="matrix(1,0,0,1.14185,0,-139.828)"
           id="g108"><path
             d="m 626.349,996.053 -3.276,0 0,-10.303 18.143,0 0,10.303 -3.033,0"
             style="fill:none;stroke:#ffffff;stroke-width:3px"
             id="path110" /></g><path
           d="m 626.295,1003.22 11.042,0 -4.985,0 0,-7.799"
           style="fill:none;stroke:#ffffff;stroke-width:3px"
           id="path112" /></g><g
         transform="matrix(1.07743,-0.00297445,0.00258418,0.936066,-22.753,40.2477)"
         id="g114"><g
           transform="matrix(1,0,0,1.14185,0,-139.828)"
           id="g116"><path
             d="m 626.349,996.053 -3.276,0 0,-10.303 18.143,0 0,10.303 -3.033,0"
             style="fill:none;stroke:#ffffff;stroke-width:3px"
             id="path118" /></g><path
           d="m 626.295,1003.22 11.042,0 -4.985,0 0,-7.799"
           style="fill:none;stroke:#ffffff;stroke-width:3px"
           id="path120" /></g><g
         id="Inet"
         transform="matrix(1.63302,0,0,2.23473,-493.471,-1248.75)"><g
           transform="matrix(1.27235,-0.227769,0.318368,1.77845,-475.111,-424.452)"
           id="g123"><ellipse
             cx="729.34601"
             cy="889.27002"
             rx="6.3779998"
             ry="1.404"
             style="fill:none;stroke:#ffffff;stroke-width:1.01999998px"
             id="ellipse125" /></g><g
           transform="matrix(1.09502,0,0,1.09781,-70.6185,8.19739)"
           id="g127"><ellipse
             cx="737.79602"
             cy="896.539"
             rx="5.4260001"
             ry="3.783"
             style="fill:none;stroke:#ffffff;stroke-width:1.46000004px"
             id="ellipse129" /></g></g><g
         id="lock"
         transform="matrix(1.32005,0,0,1.21633,-225.477,-54.2529)"><rect
           x="771.78003"
           y="838.06097"
           width="15.937"
           height="9.5299997"
           style="fill:none;stroke:#ffffff;stroke-width:2.5px"
           id="rect132" /><path
           d="m 773.83,838.061 c -0.024,-8.796 11.892,-8.573 11.915,0"
           style="fill:none;stroke:#ffffff;stroke-width:2.5px"
           id="path134" /></g><g
         id="usb"
         transform="matrix(1.32005,0,0,1.21633,-8.61488,344.753)"><ellipse
           cx="571.00598"
           cy="512.69098"
           rx="2.3629999"
           ry="2.6800001"
           style="fill:#ffffff;stroke:#ffffff;stroke-width:2.5px"
           id="ellipse137" /><path
           d="m 571.367,512.64 19.654,0 -1.919,-1.938 0,3.741 1.919,-1.803 -14.417,0 c 0.638,-4.011 3.636,-5.944 8.89,-5.885 l 2.215,0 -2.215,-1.788 0,3.73 0,-1.942 c -4.936,-0.053 -8.162,1.64 -8.89,5.885 2.061,4.381 5.544,6.632 11.105,5.771 l 0,-1.963 1.393,1.963 -1.393,2.049 0,-2.049"
           style="fill:none;stroke:#ffffff;stroke-width:2.5px"
           id="path139" /><path
           d="m 587.709,506.844 -2.215,1.853"
           style="fill:none;stroke:#ffffff;stroke-width:2.5px"
           id="path141" /></g><g
         transform="matrix(2.89984,0,-0.0326112,2.83938,-2052.22,-1945.63)"
         id="g143"><path
           d="m 862.856,1021.29 c -0.274,-0.02 -0.55,-0.02 -0.825,0 l -0.124,0.66 c -0.262,0.04 -0.519,0.1 -0.767,0.2 l -0.433,-0.5 c -0.251,0.11 -0.49,0.25 -0.714,0.41 l 0.218,0.63 c -0.207,0.16 -0.396,0.35 -0.561,0.56 l -0.626,-0.22 c -0.161,0.22 -0.299,0.46 -0.413,0.72 l 0.502,0.43 c -0.096,0.24 -0.165,0.5 -0.205,0.76 l -0.652,0.13 c -0.027,0.27 -0.027,0.55 0,0.82 l 0.652,0.13 c 0.04,0.26 0.109,0.52 0.205,0.77 l -0.502,0.43 c 0.114,0.25 0.252,0.49 0.413,0.71 l 0.626,-0.22 c 0.165,0.21 0.354,0.4 0.561,0.57 l -0.218,0.62 c 0.224,0.16 0.463,0.3 0.714,0.41 l 0.433,-0.5 c 0.248,0.1 0.505,0.17 0.767,0.21 l 0.124,0.65 c 0.275,0.03 0.551,0.03 0.825,0 l 0.124,-0.65 c 0.263,-0.04 0.52,-0.11 0.767,-0.21 l 0.433,0.5 c 0.251,-0.11 0.491,-0.25 0.715,-0.41 l -0.219,-0.62 c 0.208,-0.17 0.396,-0.36 0.562,-0.57 l 0.626,0.22 c 0.161,-0.22 0.299,-0.46 0.412,-0.71 l -0.502,-0.43 c 0.097,-0.25 0.166,-0.51 0.206,-0.77 l 0.651,-0.13 c 0.027,-0.27 0.027,-0.55 0,-0.82 l -0.651,-0.13 c -0.04,-0.26 -0.109,-0.52 -0.206,-0.76 l 0.502,-0.43 c -0.113,-0.26 -0.251,-0.5 -0.412,-0.72 l -0.626,0.22 c -0.166,-0.21 -0.354,-0.4 -0.562,-0.56 l 0.219,-0.63 c -0.224,-0.16 -0.464,-0.3 -0.715,-0.41 l -0.433,0.5 c -0.247,-0.1 -0.504,-0.16 -0.767,-0.2 l -0.124,-0.66 z m -0.412,3.35 c 0.464,0 0.841,0.38 0.841,0.84 0,0.47 -0.377,0.84 -0.841,0.84 -0.465,0 -0.842,-0.37 -0.842,-0.84 0,-0.46 0.377,-0.84 0.842,-0.84 z"
           style="fill:#ffffff;stroke:#ffffff;stroke-width:0.31px"
           id="path145" /></g><g
         id="power"
         transform="matrix(3.33575,0,0,2.56002,-1187.37,-1540.23)"><g
           transform="matrix(0.74223,0,0,0.74223,119.215,252.802)"
           id="g148"><circle
             cx="466.63501"
             cy="978.914"
             r="4.395"
             style="fill:none;stroke:#ffffff;stroke-width:1.45000005px"
             id="circle150" /></g><g
           transform="matrix(1,0,0,1.21477,-0.143123,-210.642)"
           id="g152"><path
             d="m 466.406,975.365 c 0,-0.18 -0.148,-0.326 -0.33,-0.326 l -0.659,0 c -0.182,0 -0.33,0.146 -0.33,0.326 l 0,3.814 c 0,0.18 0.148,0.326 0.33,0.326 l 0.659,0 c 0.182,0 0.33,-0.146 0.33,-0.326 l 0,-3.814 z"
             style="fill:#ffffff;stroke:#0d0d0d;stroke-width:0.98000002px"
             id="path154" /></g></g></g></g><g
     transform="matrix(1.3285485,0,0,1.3285485,-1813.5927,1255.7376)"
     id="g4428"><path
       style="fill:#000000"
       d="m 1708.7448,-530.94921 a 68.833004,70.485946 0 0 0 -8.9175,34.6148 68.833004,70.485946 0 0 0 4.3835,24.34671 69.305276,70.367875 0 0 0 0.7428,2.06441 68.833004,70.485946 0 0 0 1.2734,2.93651 69.305276,70.367875 0 0 0 1.9737,4.16358 68.833004,70.485946 0 0 0 0.1756,0.355 c 0.01,-0.002 0.012,-0.006 0.017,-0.01 a 69.305276,70.367875 0 0 0 60.9757,37.10177 69.305276,70.367875 0 0 0 57.7287,-31.62816 99.429255,99.429255 0 0 0 65.504,24.9043 99.429255,99.429255 0 0 0 74.5856,-33.8064 l -1.1345,0 a 99.031206,99.031206 0 0 0 19.2165,-29.60616 100.09211,100.09211 0 0 0 0.9145,-2.50819 99.031206,99.031206 0 0 0 2.1918,-6.17784 100.09211,100.09211 0 0 0 0.9627,-3.76613 c -0.2075,0.27841 -0.4162,0.54635 -0.9222,1.15185 -0.2001,0.22512 -0.6,0.50098 -0.9377,0.61352 -0.3252,0.12509 -0.9011,0.3506 -1.2888,0.51323 -0.3877,0.16257 -0.9375,0.29903 -1.2251,0.29903 l -0.5133,0 0,-3.66387 c 0,-3.56455 0.011,-3.66646 0.2991,-4.27932 0.5074,-1.08832 1.6452,-1.86952 3.004,-2.21685 l 0.6386,0 0,-0.1254 c 0.7771,-0.11313 1.5987,-0.10063 2.4118,0.0926 l 0,0 c 0.079,0.0185 0.1521,0.0436 0.2276,0.0656 a 100.09211,100.09211 0 0 0 0.3608,-2.37893 l -2.1281,0 -0.874,0 0,-9.91116 c 0.6668,-0.116 1.3595,-0.118 2.049,0.0425 0.709,0.16271 1.3623,0.4846 1.9371,0.91644 a 100.09211,100.09211 0 0 0 0.1891,-3.80472 l -80.5338,0 c -58.7175,7e-5 -89.3195,-0.008 -119.4357,-0.0174 a 100.09211,100.09211 0 0 0 2.2149,18.27692 c 0.1179,-0.96517 0.383,-1.25105 1.0033,-1.85026 1.1006,-1.07561 2.5536,-1.6013 4.3546,-1.5763 0.6128,0.0129 1.3639,0.087 1.6766,0.16208 0.8255,0.23763 1.9009,0.83873 2.4137,1.36406 0.2501,0.25014 0.5608,0.76404 0.6984,1.12674 0.2501,0.62537 0.2624,0.91048 0.2624,4.77521 l 0,4.12883 -5.2518,0 -3.1005,0 a 100.09211,100.09211 0 0 0 0.9551,2.8709 c 0.132,-0.005 0.2719,-0.0482 0.3434,-0.108 0.1438,-0.14381 0.6767,-0.22517 1.2927,-0.23923 0.616,-0.014 1.3166,0.0389 1.7982,0.164 0.888,0.22512 1.5759,0.57632 2.1512,1.07658 0.4002,0.36273 0.5356,0.5492 0.9608,1.36214 0.1251,0.25018 0.1757,1.90401 0.2007,7.53225 l 0.021,5.90195 a 100.09211,100.09211 0 0 0 0.9338,1.52613 l -4.1462,0 a 105.07954,105.07954 0 0 1 -0.1177,-0.20645 l -1.9815,0 0,-0.97818 c 0,-0.52682 -0.05,-1.02835 -0.1003,-1.10361 -0.1881,-0.28848 -0.8767,-0.52668 -2.0934,-0.72738 -0.6898,-0.12541 -1.4923,-0.30288 -1.7808,-0.40323 l -0.5402,-0.20065 0.012,-5.34243 c 0.01,-4.69477 0.012,-5.54144 0.3878,-6.22222 a 105.07954,105.07954 0 0 1 -4.2909,-18.58174 l -4.5243,-0.0309 -5.6454,-0.025 0.039,-3.17382 0.037,-3.16031 0.3511,-0.72736 c 0.6272,-1.27938 1.9957,-2.37114 3.4632,-2.7976 0.8906,-0.26339 3.0348,-0.16211 3.9128,0.18909 0.5685,0.22071 1.0505,0.48877 1.4721,0.81033 a 105.07954,105.07954 0 0 1 -0.1408,-3.95713 c -49.4076,-0.0188 -75.8327,-0.055 -81.0958,-0.13695 z m 50.2138,2.92877 c 0.5313,-0.0161 1.0714,0.0408 1.6052,0.17943 1.9441,0.50171 3.3368,1.75642 3.8761,3.4748 0.1882,0.63967 0.2257,1.17847 0.2257,3.56161 l 0,2.80916 -5.5199,0 -5.518,0 0,-2.80916 c 0,-2.38314 0.038,-2.92194 0.2258,-3.56161 0.6726,-2.14013 2.8028,-3.58469 5.1051,-3.65423 z m -26.7507,0.004 c 0.3318,0.0145 0.6654,0.0564 0.9994,0.1254 1.7309,0.36375 3.1988,1.4796 3.9012,2.95965 0.4013,0.85293 0.4003,0.85243 0.4379,3.18539 l 0.05,2.33261 -0.7274,-0.2373 c -1.48,-0.50171 -3.5749,-0.51523 -5.0048,-0.0386 -1.041,0.3512 -2.2186,1.0292 -3.0214,1.74415 l -0.7524,0.6772 -0.9165,-0.26239 -0.9029,-0.26432 0.037,-3.14873 0.039,-3.13524 0.4013,-0.85277 c 0.9438,-1.98648 3.137,-3.18605 5.4601,-3.08505 z m -13.4535,0.0192 c 0.6336,0.0239 1.251,0.13429 1.7731,0.33185 1.0159,0.3888 1.9804,1.10252 2.5197,1.89272 0.7777,1.10377 0.8528,1.53042 0.8528,4.95461 l 0,3.03682 -0.8393,0.1505 -0.8527,0.16207 -0.7525,-0.43797 c -1.5177,-0.90308 -3.4128,-1.29367 -5.1688,-1.08045 -0.5142,0.0754 -0.9782,0.10125 -1.0033,0.0636 -0.038,-0.025 0.014,-0.17555 0.089,-0.32605 0.1003,-0.17561 0.1129,-0.55269 0.05,-1.09203 -0.1129,-1.09123 -0.7283,-2.1811 -1.4181,-2.54483 -0.5895,-0.30104 -0.9541,-0.96653 -0.8412,-1.56858 0.1881,-1.00344 1.3426,-2.30742 2.622,-2.95966 0.8074,-0.42331 1.9132,-0.62235 2.9693,-0.58266 z m 54.1439,0.0113 c 0.7572,0.0376 1.5116,0.15092 1.9506,0.32029 1.1664,0.45151 2.0585,1.12756 2.6355,2.0181 0.2759,0.439 0.5633,1.00421 0.6135,1.24253 0.063,0.25085 0.1139,1.79406 0.1139,3.42461 l 0,2.98474 -5.5817,0 -5.5952,0 0.039,-3.1738 0.037,-3.1603 0.3511,-0.72739 c 0.6522,-1.317 1.932,-2.35859 3.4748,-2.79758 0.4453,-0.1317 1.2049,-0.16883 1.9622,-0.1312 z m -27.8794,0.002 c 0.8807,-0.0282 1.9987,0.0926 2.6008,0.31835 1.5177,0.57695 2.7213,1.7439 3.2355,3.14873 0.2383,0.63965 0.2624,1.00291 0.2624,3.33589 0,2.40821 -0.013,2.59597 -0.2006,2.40785 -0.138,-0.13798 -0.2258,-0.5141 -0.2759,-1.10362 l -0.062,-0.89136 -0.6656,-0.42639 c -0.3637,-0.23831 -0.8778,-0.48908 -1.1538,-0.55181 -0.4641,-0.12542 -0.7523,-0.31337 -1.856,-1.20392 -0.4265,-0.33865 -0.5633,-0.37525 -1.4413,-0.3878 -0.5268,-0.0126 -1.2424,-0.11288 -1.5685,-0.22573 -0.7401,-0.23832 -0.9906,-0.2518 -2.0567,-0.13894 -0.7401,0.0877 -0.8663,0.15043 -1.3429,0.65214 l -0.5383,0.54023 0,-0.55179 c 0,-0.79021 0.4254,-2.04503 0.9396,-2.74743 0.715,-0.96581 2.0951,-1.8319 3.3494,-2.0953 0.2132,-0.0439 0.4801,-0.0697 0.7737,-0.0791 z m 68.6739,0.0655 c 0.6256,0.002 1.2553,0.0941 1.8619,0.28169 1.6009,0.50028 3.1391,1.93888 3.5269,3.31466 0.1,0.32519 0.1505,1.58814 0.1505,3.47672 l 0,2.95192 -5.628,0 -5.628,0 0,-3.00209 c 0,-3.38943 0.062,-3.71336 0.9628,-4.88902 1.0412,-1.36015 2.8773,-2.14384 4.7539,-2.13388 z m 26.9263,0.0192 c 0.5879,0 1.3505,0.0756 1.6882,0.17557 1.5884,0.41273 2.8534,1.43915 3.5288,2.81495 l 0.3492,0.70036 0.039,3.15066 0.037,3.16416 -5.5797,0 -5.5643,0 0,-3.0021 c 0,-2.63901 0.025,-3.07496 0.2373,-3.62527 0.7755,-2.03868 2.8514,-3.36581 5.2653,-3.37833 z m 13.7371,0.004 c 0.6926,0.003 1.391,0.0844 1.9101,0.24697 1.4758,0.45026 2.7124,1.47647 3.3378,2.7397 0.2752,0.57532 0.3369,0.9364 0.4245,2.24965 0.062,0.863 0.077,2.28866 0.027,3.16417 l -0.075,1.60136 -5.628,0 -5.6145,0 0.035,-3.16608 c 0.037,-3.1518 0.038,-3.1487 0.3763,-3.8491 0.6253,-1.26323 1.8503,-2.27793 3.3262,-2.75322 0.5003,-0.15633 1.1885,-0.23501 1.8811,-0.23345 z m 121.8165,0.006 c 0.2951,0.0161 0.5921,0.0585 0.8875,0.12735 1.5259,0.3502 2.8256,1.39013 3.5385,2.82845 l 0.4129,0.83735 0.037,3.1005 0.05,3.10242 -5.2151,0 -5.2151,0 0.05,-3.10242 0.037,-3.1005 0.4129,-0.83735 c 0.9521,-1.9261 2.9395,-3.06933 5.0048,-2.9558 z m -176.2015,0.002 c 0.5878,-0.0126 1.3505,0.064 1.6882,0.16399 1.5633,0.41274 2.8505,1.42653 3.5133,2.76479 l 0.3628,0.7486 0.039,3.15259 0.037,3.16415 -5.5778,0 -5.5778,0 0.037,-3.16415 0.039,-3.15259 0.3492,-0.72353 c 0.9131,-1.83856 2.8153,-2.94135 5.0916,-2.95385 z m 88.9362,0.002 c 0.9286,-9.8e-4 1.8591,0.062 2.4657,0.18715 3.3519,0.68789 6.4799,3.06322 7.9683,6.05243 0.1876,0.37525 0.4111,0.7256 0.4862,0.77561 0.075,0.05 0.1,0.10038 0.05,0.10038 -0.05,0 0.026,0.32422 0.164,0.71193 0.5628,1.61342 0.5866,2.05144 0.6367,9.04296 l 0.039,6.69298 -11.7325,0.0366 -11.7325,0.025 0.039,-6.96695 c 0.05,-6.76638 0.049,-7.00433 0.3241,-7.97986 0.3502,-1.23822 1.1142,-2.86397 1.8271,-3.86452 1.601,-2.2388 4.3512,-4.05224 7.0152,-4.61505 0.5941,-0.13135 1.5217,-0.19716 2.4503,-0.19874 z m 60.2426,0.002 c 0.5065,-0.002 1.0136,0.053 1.4702,0.17172 1.5509,0.40025 3.0383,1.66297 3.5886,3.03876 0.2626,0.66286 0.2885,0.92499 0.326,3.73912 l 0.037,3.04067 -5.3906,0 -5.3907,0 0.039,-3.04067 c 0.037,-2.81413 0.063,-3.07626 0.3261,-3.73912 0.5378,-1.35078 2.0366,-2.62504 3.5249,-3.02525 0.4565,-0.11875 0.9637,-0.18209 1.4702,-0.18523 z m -27.4511,0.002 c 0.2934,-0.0204 0.59,-0.0189 0.8856,0.004 0.3378,0.026 0.6741,0.0799 1.0071,0.16594 1.751,0.46278 3.0628,1.48658 3.7507,2.92491 l 0.3878,0.82578 0.039,3.02717 0.037,3.04069 -5.7013,0 -5.7051,0 0.039,-3.04069 0.037,-3.02717 0.3878,-0.82578 c 0.8522,-1.7811 2.7833,-2.95193 4.8369,-3.09471 z m 40.4049,0.0136 c 0.2732,-0.0207 0.549,-0.0209 0.8257,0 0.3163,0.024 0.6331,0.075 0.9473,0.15627 1.5509,0.41275 2.8776,1.49907 3.5404,2.89985 0.3377,0.71292 0.3387,0.76454 0.3763,3.81629 l 0.05,3.10243 -5.3424,0 -5.3405,0 0.05,-3.10243 c 0.037,-3.05175 0.039,-3.10337 0.3762,-3.81629 0.8331,-1.77151 2.6038,-2.91068 4.5167,-3.05612 z m -134.6681,0.004 c 1.3008,0.0374 1.4398,0.064 2.3404,0.50164 1.1631,0.55031 2.0262,1.36203 2.539,2.40013 l 0.3627,0.75053 0.037,3.15259 0.039,3.16415 -5.5797,0 -5.5778,0 0.039,-3.16415 0.037,-3.15259 0.3511,-0.72545 c 0.4628,-0.92553 1.3252,-1.79953 2.2883,-2.2998 1.0631,-0.56283 1.5246,-0.66458 3.1255,-0.62705 z m 107.7842,0.01 c 0.8783,-0.0281 1.9908,0.0913 2.5912,0.31642 1.5759,0.60034 2.7911,1.81265 3.2413,3.25098 0.2126,0.68791 0.2489,1.15167 0.2489,3.59057 l 0,2.80143 -5.5643,0 -5.5662,0 0,-2.80143 c 0,-3.17682 0.1372,-3.89066 0.9377,-4.99128 0.7128,-0.96305 2.089,-1.82492 3.3397,-2.08758 0.2126,-0.0438 0.479,-0.0697 0.7717,-0.0791 z m -67.3909,2.58729 c 0.4659,-0.0112 0.939,0.0409 1.2329,0.16592 0.6378,0.26265 1.3369,0.9521 1.6496,1.63998 0.2751,0.58785 0.299,0.77511 0.299,3.08891 l 0,2.4773 -3.1255,0 -3.1276,0 0,-2.35189 c 0,-1.86356 0.039,-2.49016 0.2142,-2.96544 0.2251,-0.67538 0.9752,-1.50101 1.6631,-1.8387 0.2689,-0.13132 0.7284,-0.20513 1.1943,-0.21608 z m 40.6692,0.2759 c 0.5295,0.0289 1.0736,0.16653 1.4605,0.39166 0.3127,0.18761 0.7134,0.52446 0.901,0.76211 0.5879,0.77543 0.6628,1.20089 0.6753,3.65229 l 0,2.29015 -3.1391,0 -3.141,0 0.05,-2.4773 c 0.037,-2.43889 0.038,-2.47693 0.3878,-3.05226 0.3877,-0.66288 0.9887,-1.16318 1.6766,-1.4258 0.1782,-0.0688 0.3873,-0.11238 0.6097,-0.13313 0.1668,-0.0156 0.3425,-0.0174 0.519,-0.007 z m -68.0527,9.11048 c 0.7281,0.0135 1.9529,0.16468 2.375,0.32414 1.1257,0.43775 2.3896,1.66209 2.7899,2.71269 0.2501,0.66286 0.2624,0.93993 0.2624,4.64205 l 0,3.93785 -5.0781,0 -5.0646,0 0.037,-4.10183 c 0.038,-4.06482 0.038,-4.09001 0.3511,-4.7154 0.5629,-1.13812 1.7999,-2.15038 3.1256,-2.55061 0.3127,-0.0875 0.6243,-0.18719 0.6869,-0.21224 0.084,-0.0312 0.2724,-0.0412 0.5151,-0.0366 z m -54.3561,0.0231 c 0.7102,0.0113 1.4339,0.0864 1.8792,0.21804 1.4048,0.43898 2.4975,1.35422 3.0368,2.55833 0.2258,0.50174 0.2508,0.85414 0.2508,4.64209 l 0,4.1134 -5.2054,0 -5.219,0 0.039,-4.23881 0.037,-4.22725 0.3396,-0.57689 c 0.602,-1.0285 1.769,-1.90711 3.0484,-2.32102 0.3888,-0.12545 1.084,-0.17884 1.7943,-0.16787 z m -13.5153,0.006 c 0.378,0.005 0.762,0.0454 1.1461,0.12542 1.5553,0.32609 2.9605,1.3407 3.5751,2.595 l 0.3511,0.71579 0.025,4.07676 c 0.013,2.45838 -0.012,3.97644 -0.087,3.82594 -0.063,-0.13799 -0.1138,-0.62698 -0.1138,-1.07853 -0.013,-0.45153 -0.099,-1.08038 -0.2123,-1.40651 -0.163,-0.48917 -0.3018,-0.63952 -0.8412,-0.9531 -0.3637,-0.21322 -0.9154,-0.58939 -1.2541,-0.85277 -2.8347,-2.25772 -3.3992,-2.54583 -5.1803,-2.55835 -0.6146,0 -1.3168,-0.0752 -1.5551,-0.17558 -0.4139,-0.15051 -0.464,-0.138 -0.8026,0.17558 l -0.3647,0.32606 0.075,-0.73894 c 0.2305,-2.3706 2.5926,-4.10816 5.2382,-4.07677 z m 54.9137,0.0386 c 0.2611,-0.005 0.4478,-9.8e-4 0.4978,0.0174 0.1,0.0249 0.401,0.0763 0.6637,0.11387 0.2627,0.0375 0.5008,0.12363 0.5383,0.17365 0.038,0.0626 0.1488,0.11388 0.2489,0.11388 0.2376,0 1.0765,0.5747 1.7519,1.20007 0.3502,0.32518 0.614,0.72579 0.7891,1.21357 0.2501,0.67539 0.2624,0.96323 0.2624,4.71537 l 0,4.00151 -5.1283,0 -5.1283,0 0,-4.03816 0,-4.05361 0.3763,-0.73703 c 0.4502,-0.9005 1.063,-1.51523 2.1261,-2.12808 0.7379,-0.42524 0.9244,-0.47289 2.0625,-0.54794 0.3439,-0.025 0.6785,-0.0396 0.9396,-0.0444 z m 121.4422,0.0481 c 0.4499,-0.0164 0.9076,0.0269 1.3641,0.13314 1.5259,0.35018 3.0895,1.66207 3.6523,3.07539 0.2876,0.7004 0.3001,0.87609 0.3376,4.50315 l 0.039,3.78928 -5.2035,0 -5.2035,0 0.039,-3.78928 c 0.05,-4.45255 0.087,-4.66591 1.3506,-6.00418 0.9943,-1.06936 2.2757,-1.65826 3.6253,-1.7075 z m -13.2393,0.01 c 0.5358,-0.004 1.0798,0.0496 1.6207,0.16206 1.5384,0.32519 2.928,1.26259 3.3783,2.26315 0.2126,0.45029 0.2373,0.91239 0.2373,4.77712 l 0,4.29092 -5.19,0 -5.1919,0 0,-4.29092 c 0,-4.84029 0.013,-4.87689 0.9762,-5.73987 1.0413,-0.93806 2.5618,-1.45309 4.1694,-1.46246 z m -13.9879,0.002 c 0.2947,-0.0199 0.5924,-0.0191 0.8894,0.004 0.3394,0.0264 0.6784,0.0819 1.0129,0.16786 1.726,0.45026 3.0744,1.48846 3.7623,2.90176 l 0.3627,0.72738 0.039,3.83751 0.037,3.85294 -5.7013,0 -5.7051,0 0.039,-3.85294 0.037,-3.83751 0.3627,-0.72738 c 0.8618,-1.77152 2.8027,-2.93442 4.8659,-3.07348 z m 40.5109,0.007 c 0.5093,-0.0164 1.0322,0.02 1.5512,0.11387 1.5009,0.27517 2.965,1.25219 3.5154,2.34033 0.2001,0.41272 0.2248,0.90077 0.2623,4.74046 l 0.037,4.28899 -5.1398,0 -5.1398,0 0.037,-4.28899 c 0.038,-4.81524 0.023,-4.72866 1.011,-5.71672 0.9192,-0.90052 2.3386,-1.42864 3.8664,-1.4779 z m -108.5328,0.0113 c 1.0319,-0.0352 2.3665,0.0932 2.9481,0.31836 1.1006,0.42525 2.089,1.30986 2.6143,2.32295 l 0.4476,0.86435 0.039,3.97836 0.037,3.988 -5.327,0 -5.3289,0 0.039,-3.97642 0.037,-3.96485 0.3512,-0.6637 c 0.6628,-1.26321 2.1628,-2.54933 3.2509,-2.77444 0.2377,-0.05 0.5494,-0.0809 0.8933,-0.0926 z m -39.9514,0.004 c 1.5509,0.0375 1.5734,0.0363 2.649,0.56145 l 0,0 c 0.8755,0.42524 1.1994,0.66424 1.6496,1.22707 0.3252,0.38773 0.576,0.73809 0.5885,0.7756 0,0.05 0.038,0.20007 0.075,0.33765 0.1,0.31266 0.099,1.12638 0.062,5.27875 l -0.027,3.28765 -5.2518,0 -5.2536,0 0,-4.16359 c 0,-4.11485 8e-4,-4.16621 0.301,-4.77904 0.4877,-1.02558 1.551,-1.87462 2.9268,-2.32488 0.5753,-0.1876 1.0134,-0.23817 2.2767,-0.20066 z m 162.2599,0.0113 c 0.7234,0.0199 1.4839,0.1251 1.9834,0.30099 l 0,0.002 c 1.3258,0.46277 2.3008,1.33788 2.6761,2.36348 0.125,0.36271 0.163,1.4864 0.1755,4.63819 l 0,4.15395 -4.8408,-0.0251 -4.8523,-0.0386 0,-4.31408 0,-4.31407 0.3376,-0.58845 c 0.5753,-0.97556 1.663,-1.71424 3.0388,-2.06442 0.2157,-0.0532 0.4855,-0.0874 0.7814,-0.10425 0.2219,-0.0129 0.4592,-0.0155 0.7003,-0.01 z m -108.0639,1.14991 c 0.4505,0.0136 0.9157,0.15023 1.3988,0.41288 0.6879,0.37521 1.3482,1.22622 1.5608,1.98917 0.075,0.26264 0.1254,2.0403 0.1254,4.17902 l 0,3.72754 -3.1255,0 -3.1276,0 0,-3.75262 c 0,-4.31498 0.063,-4.65328 1.0265,-5.59131 0.6801,-0.66444 1.3907,-0.98727 2.1416,-0.96468 z m 40.3064,0.20836 c 0.6886,-0.0187 1.3999,0.11375 2.0143,0.41868 0.4377,0.22511 0.8397,0.52452 1.0148,0.78719 0.2751,0.42524 0.274,0.47619 0.274,4.65363 l 0,4.24075 -3.1275,0 -3.1275,0 0,-4.22917 c 0,-3.95228 0.013,-4.23985 0.2508,-4.61506 0.469,-0.77388 1.5536,-1.22474 2.7011,-1.25602 z m -54.5567,12.6093 c 0.2526,-0.0153 0.5111,-0.0159 0.7756,0 0.3022,0.018 0.6122,0.0564 0.928,0.11575 1.5759,0.30019 2.8646,1.23718 3.415,2.47539 0.3877,0.863 0.4002,1.16382 0.3627,6.67947 l -0.025,4.10184 -5.0048,0 -5.0164,0 0.039,-5.163 0.037,-5.15527 0.3377,-0.56145 c 0.9192,-1.52254 2.3832,-2.38527 4.152,-2.49274 z m -27.181,0.006 c 0.648,-0.034 1.3261,0.0162 2.0046,0.16014 1.0381,0.22512 1.9638,0.68747 2.5641,1.27531 0.8881,0.88799 0.8633,0.76354 0.8258,6.6544 l -0.025,5.27681 -4.9411,0 -4.9392,0 0,-5.25173 c 0,-5.05292 0.011,-5.27823 0.2624,-5.80354 0.6285,-1.35078 2.3044,-2.20939 4.2485,-2.31139 z m -13.7776,0.025 c 0.9597,-0.0288 2.1867,0.1035 2.8246,0.3473 1.0005,0.36269 1.752,0.89978 2.1647,1.51263 l 0.3377,0.52671 0.037,5.07809 c 0.037,4.90281 0.026,5.11463 -0.2238,5.79005 -0.3127,0.82543 -1.0263,1.53803 -1.6767,1.66312 -0.3877,0.0625 -0.4514,0.12614 -0.4514,0.42639 0,0.66285 -0.1229,0.6879 -3.8376,0.72542 l -3.4149,0.0501 0,-6.66596 c 0,-6.5037 0.012,-6.68088 0.2624,-7.2062 0.4627,-0.95053 1.8008,-1.87323 3.139,-2.16089 0.2283,-0.0469 0.5194,-0.077 0.8393,-0.0867 z m 28.026,0.007 c 0.681,0.0154 1.3503,0.1135 1.8522,0.30096 1.0631,0.41277 1.9266,1.1387 2.3519,1.98919 l 0.3627,0.72544 0.039,5.15527 0.037,5.163 -4.8292,0 -4.8254,0 0.037,-5.163 0.039,-5.15527 0.3743,-0.67528 c 0.2252,-0.41272 0.6242,-0.87573 0.9994,-1.16341 0.3502,-0.26265 0.7006,-0.5375 0.7757,-0.60002 0.4846,-0.39869 1.6528,-0.60269 2.7879,-0.57688 z m -55.562,0.0636 c 0.226,-0.006 0.4929,-0.004 0.8065,0.006 1.016,0.0251 1.3051,0.0761 1.9448,0.38972 0.9031,0.42645 1.9062,1.40543 2.3075,2.22071 0.1505,0.33865 0.3386,0.60197 0.4013,0.60197 0.063,0 0.1139,1.61646 0.1139,3.84908 0,2.34552 -0.051,3.80183 -0.1139,3.73912 -0.1003,-0.11288 -0.3887,-1.75738 -0.6019,-3.4883 -0.05,-0.40137 -0.2516,-0.66354 -1.2425,-1.64189 -1.0913,-1.09123 -1.5551,-1.76916 -1.5551,-2.27088 0,-0.11287 -0.162,-0.41283 -0.3627,-0.6637 -0.2133,-0.25086 -0.4148,-0.64051 -0.465,-0.84118 -0.05,-0.21325 -0.2874,-0.61448 -0.5383,-0.90297 -0.4265,-0.5017 -0.49,-0.52767 -1.1171,-0.54022 -0.4766,0 -0.6521,-0.0501 -0.627,-0.15048 0.066,-0.19755 0.3716,-0.28915 1.0495,-0.30677 z m 177.1605,0.0231 c 0.5978,-0.0232 1.2135,0.0337 1.8232,0.1775 1.3508,0.32521 2.3642,0.98856 2.977,1.9641 0.2877,0.46276 0.301,0.56233 0.2759,2.31331 l -0.037,1.82712 -0.4263,-0.36273 c -0.2377,-0.1876 -0.7372,-0.4886 -1.1249,-0.6637 -0.6253,-0.26265 -0.9386,-0.29915 -2.7397,-0.34922 l -2.0393,-0.0639 -0.4882,0.33765 c -0.2626,0.18761 -0.8134,0.40148 -1.2386,0.47655 -0.838,0.1626 -0.8612,0.1868 -1.1364,1.48754 -0.2752,1.38832 -0.3743,0.91289 -0.3743,-1.83869 0,-2.62652 0.011,-2.70141 0.2991,-3.16416 0.8066,-1.28513 2.4357,-2.07185 4.2291,-2.14159 z m -40.5631,0.0174 c 0.2638,-0.0172 0.5287,-0.0168 0.7891,0 0.3473,0.0225 0.6878,0.0759 1.0129,0.16013 0.4003,0.1 0.951,0.29948 1.2387,0.44955 0.788,0.40022 1.7875,1.41333 2.1127,2.15125 0.3001,0.63785 0.3001,0.7144 0.3376,5.55465 l 0.037,4.9141 -5.1398,0 -5.1418,0 0.039,-4.9141 c 0.038,-4.84025 0.037,-4.9168 0.3376,-5.55465 0.3252,-0.73792 1.3267,-1.75103 2.1146,-2.15125 0.6824,-0.35176 1.4716,-0.55765 2.2632,-0.60968 z m 13.4651,0.0136 c 0.8524,-0.0294 1.9748,0.0993 2.5564,0.33378 0.9255,0.36271 1.7878,1.02536 2.2381,1.71327 0.7254,1.10063 0.764,1.3779 0.764,6.50584 l 0,4.66329 -5.0028,0 -5.0164,0 0.039,-4.91412 0.037,-4.90252 0.3376,-0.71386 c 0.5753,-1.2257 1.8533,-2.22749 3.3166,-2.60273 0.1939,-0.0469 0.4471,-0.0734 0.7312,-0.083 z m 14.2754,0.004 c 0.6722,0.033 1.3455,0.14323 1.802,0.31836 1.4008,0.53778 2.3267,1.37649 2.6143,2.40207 0.075,0.23762 0.1254,2.55071 0.1254,5.45238 l 0,5.03952 -4.8176,0 -4.8254,0 0.037,-5.2884 c 0.037,-4.76523 0.062,-5.31735 0.2625,-5.68007 0.5128,-0.93803 1.6118,-1.71333 3.0001,-2.10108 0.4565,-0.13132 1.1298,-0.17559 1.802,-0.14278 z m -62.145,1.10168 c 0.4392,-0.0218 0.9609,-0.0158 1.7114,0.0154 2.2137,0.0875 2.7008,0.22364 4.752,1.23673 2.5765,1.28822 4.6154,3.87856 5.4659,6.9303 0.2751,0.97557 0.2759,1.10207 0.2759,10.55751 0.01,3.99411 -0.016,6.88135 -0.054,8.43326 a 10.937218,7.7886251 0 0 0 -6.9226,7.24093 10.937218,7.7886251 0 0 0 0.01,0.16592 l -3.633,0 a 7.817445,5.1371781 0 0 0 0.037,-0.49585 7.817445,5.1371781 0 0 0 -7.8159,-5.13791 7.817445,5.1371781 0 0 0 -1.7248,0.13314 c -0.2421,-0.1015 -1.0606,-0.70947 -2.0452,-1.52229 l -0.4128,-0.33764 0,-7.86796 c 0,-4.32748 0.051,-7.86796 0.1138,-7.86796 0.05,0 0.1362,-0.60015 0.1737,-1.35057 0.075,-1.41332 0.3259,-2.46281 0.9762,-3.8761 0.1876,-0.42523 0.3637,-0.82592 0.3763,-0.87593 0.025,-0.0501 0.1373,-0.20098 0.2624,-0.32607 0.125,-0.13757 0.2237,-0.28763 0.2238,-0.33763 0,-0.23764 2.1142,-2.48889 2.3268,-2.48889 0.1,0 0.1736,-0.0629 0.1736,-0.12541 0,-0.075 0.1375,-0.18635 0.3126,-0.24888 0.1626,-0.0625 0.5255,-0.26287 0.8007,-0.43797 0.7754,-0.47528 2.2402,-1.02612 3.4034,-1.26374 0.419,-0.0813 0.7763,-0.13068 1.2155,-0.15241 z m -19.7857,0.18135 c 0.471,-0.0254 0.9365,0.0418 1.3352,0.21031 0.7629,0.3252 1.1757,0.67685 1.4508,1.25216 0.2377,0.50029 0.249,0.76234 0.274,4.77711 0,2.33884 0.013,4.57659 0,4.96427 l -0.01,0.72545 -2.9404,0 -2.9403,0 0,-4.94112 c 0,-5.39057 0.014,-5.48887 0.7139,-6.13925 0.5315,-0.50808 1.3315,-0.80678 2.1165,-0.84893 z m 41.0203,0.0849 c 0.6754,0.0375 1.026,0.12528 1.5513,0.41289 0.4002,0.21261 0.7877,0.56315 0.9878,0.85085 l 0.3261,0.50164 0.037,5.03951 0.039,5.03951 -3.1411,0 -3.1275,0 0,-4.9006 c 0,-4.74022 0.013,-4.91651 0.2624,-5.45432 0.4753,-0.97555 1.665,-1.55202 3.0658,-1.48948 z m -55.0719,14.36801 c 0.7286,-0.0345 1.5612,0.0159 2.2053,0.16593 1.5134,0.36269 2.6504,1.11495 3.1507,2.10301 0.2751,0.52531 0.2633,0.0489 0.2508,8.1786 l -0.011,4.4144 -1.5261,0 -1.5397,-0.0136 -0.7505,-0.48814 c -0.4002,-0.27516 -1.0884,-0.62358 -1.5261,-0.77368 -0.4378,-0.16257 -0.7872,-0.32427 -0.7872,-0.37428 0,-0.0501 0.1112,-0.31233 0.2489,-0.57497 0.1751,-0.32518 0.2634,-0.78887 0.301,-1.41422 0.025,-0.51278 0.112,-1.37714 0.1871,-1.92744 0.088,-0.56284 0.1253,-1.27432 0.075,-1.62454 -0.05,-0.3502 -0.1003,-1.15165 -0.1254,-1.80202 -0.075,-1.81355 -0.3754,-2.76413 -1.5011,-4.66521 -0.3501,-0.60035 -0.3874,-0.73738 -0.2373,-0.86243 0.2314,-0.18762 0.8574,-0.30709 1.586,-0.3415 z m 68.1338,0.13892 c 0.2857,-0.0171 0.5759,-0.0165 0.8663,0.004 0.3318,0.0235 0.6653,0.072 0.9936,0.14856 1.5384,0.3627 2.7869,1.33611 3.112,2.41172 0.1,0.31269 0.1505,1.46397 0.1505,3.10242 l 0,2.61622 -0.2623,-0.40131 c -0.1376,-0.22513 -0.4134,-0.4874 -0.5885,-0.57495 -0.1876,-0.1 -0.8864,-0.48821 -1.5493,-0.87594 -1.3508,-0.80045 -1.7388,-0.86326 -2.6143,-0.46305 -0.3002,0.13758 -0.6495,0.25083 -0.7621,0.25083 -0.1251,0 -0.4754,0.17423 -0.7756,0.39937 -0.6503,0.45025 -1.5641,0.58785 -2.4271,0.36273 l -0.5248,-0.15049 0,-1.88885 c 0,-1.06311 0.061,-2.08833 0.1485,-2.36349 0.4309,-1.44595 2.2333,-2.4571 4.2331,-2.57764 z m 14.4645,0.01 0,0 c 0.6722,0.033 1.3435,0.14326 1.8,0.31835 0.9256,0.35022 1.6508,0.88731 2.0761,1.5377 l 0.3511,0.51322 0.011,2.57569 c 0.013,1.41331 8e-4,2.45185 -0.037,2.30175 -0.1,-0.48778 -0.3512,-0.58808 -1.0766,-0.43796 -1.0506,0.21257 -2.1516,-0.17469 -2.6394,-0.91259 -0.1751,-0.27516 -0.2629,-0.30079 -0.8257,-0.22575 -0.4253,0.0501 -0.7872,0.0129 -1.1499,-0.12541 -0.3002,-0.11263 -0.9623,-0.22479 -1.4876,-0.2373 -0.8755,-0.0375 -0.988,-0.0129 -1.4007,0.31255 l -0.4631,0.35113 0,-1.65152 c 0,-1.42581 0.037,-1.73763 0.2624,-2.18791 0.4378,-0.91302 1.415,-1.61398 2.7783,-1.98918 0.4566,-0.13135 1.1259,-0.17557 1.7982,-0.14277 z m 11.7556,0.0906 c 0.095,0.0516 -0.034,0.25906 -0.3589,0.64054 -0.5002,0.58784 -0.575,0.75131 -0.6251,1.38916 -0.1,1.17569 -1.0013,2.17459 -2.0644,2.24964 -0.3502,0.025 -0.3503,0.0112 -0.3878,-0.71388 -0.075,-1.38827 0.8378,-2.61318 2.4387,-3.27606 0.5816,-0.23765 0.9021,-0.34101 0.9975,-0.2894 z m -39.4826,1.30039 c 1.0506,0 1.2761,0.0376 1.9139,0.36272 1.2632,0.61285 1.2136,0.37492 1.2136,5.96562 0,4.55261 -0.013,4.86628 -0.2508,5.37907 -0.1086,0.23714 -0.1841,0.59004 -0.218,0.89523 a 10.937218,7.7886251 0 0 0 -5.7862,-2.04128 l 0,-3.55775 c 0,-6.36615 -0.062,-6.02804 1.2136,-6.64089 0.6378,-0.32518 0.8633,-0.36272 1.9139,-0.36272 z m -40.4975,0.0771 c 0.8755,0.013 1.3381,0.0759 1.7133,0.25082 0.2877,0.12508 0.5132,0.30025 0.5132,0.3878 0,0.23765 -1.0888,1.03755 -1.6766,1.22515 -0.2627,0.0875 -0.7001,0.12437 -0.9627,0.0869 -0.4378,-0.0625 -0.5246,-0.0127 -1.15,0.58845 l -0.6887,0.6367 -0.1505,1.12675 c -0.075,0.61286 -0.1873,2.18856 -0.2373,3.50181 -0.075,1.6009 -0.1634,2.50303 -0.276,2.7532 -0.1501,0.32515 -0.1747,-0.2024 -0.2122,-4.42983 -0.025,-5.21545 -0.037,-5.12662 0.6637,-5.58938 0.6254,-0.41275 1.2381,-0.55081 2.4638,-0.5383 z"
       id="path4" /><path
       style="fill:#dc0067"
       d="m 1768.8683,-567.82091 c -38.7809,0 -70.2218,32.06847 -70.2218,71.57718 0,39.50872 31.4409,71.57477 70.2218,71.57477 38.7809,0 70.2242,-32.06605 70.2242,-71.57477 0,-39.50871 -31.4433,-71.57718 -70.2242,-71.57718 z m 0,1.98 c 37.69,0 68.2442,31.13802 68.2442,69.59718 0,38.45914 -30.5542,69.59474 -68.2442,69.59474 -37.69,0 -68.2418,-31.1356 -68.2418,-69.59474 0,-38.45916 30.5518,-69.59718 68.2418,-69.59718 z"
       id="path6" /><path
       style="fill:#dc0067"
       d="m 1892.1598,-608.8393 c -41.8198,0 -75.7277,34.49669 -75.7277,77.00354 0,42.50798 33.9079,77.00351 75.7277,77.00351 41.8186,0 75.7253,-34.49553 75.7253,-77.00351 0,-42.50685 -33.9067,-77.00354 -75.7253,-77.00354 z m 0,1.98243 c 40.729,0 73.7429,33.56759 73.7429,75.02111 0,41.4547 -33.0139,75.0211 -73.7429,75.0211 -40.7302,0 -73.7453,-33.5664 -73.7453,-75.0211 0,-41.45352 33.0151,-75.02111 73.7453,-75.02111 z"
       id="path8" /><path
       style="fill:#dc0067"
       d="m 1891.839,-635.95176 c -56.9376,0 -103.1585,46.70646 -103.1585,104.116 0,57.40952 46.2209,104.11598 103.1585,104.11598 56.9376,0 103.1586,-46.70646 103.1586,-104.11598 0,-57.40954 -46.221,-104.116 -103.1586,-104.116 z m 0,10.76105 c 51.0653,0 92.3975,41.70441 92.3975,93.35495 0,51.65052 -41.3322,93.35492 -92.3975,93.35492 -51.0652,0 -92.3974,-41.7044 -92.3974,-93.35492 0,-51.65054 41.3322,-93.35495 92.3974,-93.35495 z"
       id="path10" /><path
       style="fill:#ffb400"
       d="m 1750.9537,-490.13316 -15.4338,0 12.3463,11.70312 -24.6939,0 0,11.70313 24.6939,0 -12.3463,11.70313 15.4338,0 18.5201,-17.55528 z"
       id="path12" /><path
       style="fill:#ffb400"
       d="m 1931.2657,-510.55585 -19.3681,-20.04515 41.9646,0 0,-20.04396 -41.9646,0 19.3681,-20.04514 -25.8238,0 -29.0522,30.06712 29.0522,30.06713 z"
       id="path14" /><path
       style="fill:#000000"
       d="m 1702.657,-374.35594 -4.1504,-28.8086 6.3965,0 1.3916,14.25781 q 0.1709,1.61134 0.2685,3.54004 0.098,1.9043 0.1465,4.10156 l 0.1953,0 q 0.049,-2.36816 0.1709,-4.54101 0.1465,-2.19726 0.3174,-4.02831 l 1.294,-13.33009 6.0058,0 -4.1504,28.8086 -7.8857,0 z"
       id="path16" /><path
       style="fill:#000000"
       d="m 1721.4802,-397.59813 0,17.43164 q 0,0.95215 0.2686,1.36719 0.2686,0.39062 0.8789,0.39062 0.6104,0 0.8789,-0.39062 0.2686,-0.41504 0.2686,-1.36719 l 0,-17.43164 q 0,-0.92773 -0.293,-1.34277 -0.2686,-0.41504 -0.9033,-0.41504 -0.586,0 -0.8545,0.39063 -0.2442,0.39062 -0.2442,1.36718 z m -6.3964,1.95313 q 0,-4.46778 1.7334,-6.32325 1.7578,-1.87988 5.7617,-1.87988 4.0039,0 5.7373,1.87988 1.7578,1.85547 1.7578,6.32325 l 0,13.79394 q 0,4.44336 -1.7578,6.32325 -1.7334,1.87987 -5.7373,1.87987 -4.0039,0 -5.7617,-1.87987 -1.7334,-1.87989 -1.7334,-6.32325 l 0,-13.79394 z"
       id="path18" /><path
       style="fill:#000000"
       d="m 1738.3259,-384.41454 q 0,1.00098 0.2442,1.3916 0.2685,0.36621 0.9033,0.36621 0.5859,0 0.8545,-0.41503 0.293,-0.43945 0.293,-1.34278 l 0,-12.5 q 0,-0.8789 -0.293,-1.26952 -0.2686,-0.41504 -0.8545,-0.41504 -0.6348,0 -0.9033,0.36621 -0.2442,0.34179 -0.2442,1.31835 l 0,12.5 z m 2.295,3.71094 -0.098,0 q -0.6836,1.61134 -1.8066,2.417 -1.0987,0.78125 -2.6856,0.78125 -2.0996,0 -3.0762,-1.14746 -0.9765,-1.17188 -0.9765,-3.71094 l 0,-16.8457 q 0,-2.17286 1.0498,-3.32031 1.0498,-1.17188 3.0517,-1.17188 1.5137,0 2.6124,0.708 1.0986,0.70801 1.9287,2.2461 l 0.1464,0 0,-2.417 6.2012,0 0,27.09961 q 0,4.5166 -1.7334,6.34767 -1.7334,1.85546 -5.7617,1.85546 -3.5645,0 -5.542,-1.7334 -1.9531,-1.70899 -1.9531,-4.80956 l 0,-2.19728 6.3476,0 0,2.2461 q 0,0.95215 0.2686,1.34278 0.2685,0.41503 0.8789,0.41503 0.6104,0 0.8789,-0.41503 0.2686,-0.41504 0.2686,-1.34278 l 0,-6.34766 z"
       id="path20" /><path
       style="fill:#000000"
       d="m 1748.0672,-398.55028 0,-4.61426 1.6113,0 0,-5.34667 6.3965,0 0,5.34667 1.8554,0 0,4.61426 -1.8554,0 0,17.50489 q 0,1.34276 0.3174,1.70898 0.3417,0.3418 1.3183,0.3418 l 0.2197,0 0,4.63867 -4.0039,0 q -2.3193,0 -3.2959,-1.04981 -0.9521,-1.07421 -0.9521,-4.0039 l 0,-19.14063 -1.6113,0 z"
       id="path22-6" /><path
       style="fill:#000000"
       d="m 1759.0291,-374.35594 0,-36.01075 6.3476,0 0,36.01075 -6.3476,0 z"
       id="path24-1" /><path
       style="fill:#000000"
       d="m 1776.1189,-380.85008 0,-7.64161 q -0.1465,0.0976 -0.3906,0.29298 -1.9043,1.46483 -1.9043,2.58788 l 0,4.76075 q 0,0.97657 0.2441,1.34277 0.2686,0.3418 0.9034,0.3418 0.5859,0 0.8544,-0.39063 0.293,-0.41504 0.293,-1.29394 z m -8.6914,-16.40625 q 0,-3.27148 1.8799,-4.93165 1.9043,-1.66015 5.6152,-1.66015 4.0528,0 5.7617,1.85547 1.7334,1.83106 1.7334,6.34766 l 0,17.5293 q 0,1.14745 0.098,2.05077 0.1221,0.87892 0.3662,1.70899 l -6.4453,0 q -0.1221,-0.5127 -0.1953,-1.02539 -0.073,-0.53711 -0.073,-0.97656 l 0,-0.43946 -0.098,0 q -0.6836,1.41602 -1.8555,2.17285 -1.1474,0.75684 -2.6855,0.75684 -2.0264,0 -3.0762,-1.2207 -1.0254,-1.2207 -1.0254,-3.61328 l 0,-6.10352 q 0,-2.2705 0.8057,-3.68653 0.8301,-1.44042 2.6367,-2.41699 0.5859,-0.31738 1.6601,-0.85448 3.5889,-1.83107 3.5889,-3.49122 l 0,-2.05078 q 0,-0.92773 -0.293,-1.34278 -0.2685,-0.41504 -0.9033,-0.41504 -0.5859,0 -0.8545,0.41504 -0.2441,0.41505 -0.2441,1.34278 l 0,4.19922 -6.3965,0 0,-4.15039 z"
       id="path26-1" /><path
       style="fill:#000000"
       d="m 1784.5174,-374.35594 0,-28.8086 6.25,0 0,2.417 0.098,0 q 0.8057,-1.51367 1.9287,-2.22169 1.1231,-0.73241 2.6123,-0.73241 2.0752,0 3.1006,1.24511 1.0498,1.2207 1.0498,3.66212 l 0,24.43847 -6.3965,0 0,-22.33887 q 0,-1.00098 -0.2685,-1.34277 -0.2442,-0.36621 -0.8789,-0.36621 -0.586,0 -0.8789,0.41504 -0.2686,0.41504 -0.2686,1.29394 l 0,22.33887 -6.3476,0 z"
       id="path28-3" /><path
       style="fill:#000000"
       d="m 1816.4998,-374.35594 -6.25,0 0,-2.49024 -0.098,0 q -0.6348,1.58692 -1.7823,2.39258 -1.123,0.80566 -2.7587,0.80566 -2.0752,0 -3.1006,-1.19629 -1.001,-1.2207 -1.001,-3.6621 l 0,-20.28808 q 0,-2.46583 1.0254,-3.68653 1.0254,-1.2207 3.0762,-1.2207 1.5136,0 2.6123,0.73241 1.0986,0.73243 1.831,2.22169 l 0.098,0 0,-9.61915 6.3477,0 0,36.01075 z m -8.6426,-6.29882 q 0,1.00097 0.2441,1.3916 0.2686,0.36621 0.9034,0.36621 0.5859,0 0.8544,-0.43946 0.293,-0.43945 0.293,-1.31835 l 0,-16.04005 q 0,-0.8789 -0.293,-1.29394 -0.2685,-0.41504 -0.8544,-0.41504 -0.6348,0 -0.9034,0.36621 -0.2441,0.34179 -0.2441,1.34277 l 0,16.04005 z"
       id="path30-2" /><path
       style="fill:#000000"
       d="m 1818.99,-374.35594 0,-7.34864 6.6162,0 0,7.34864 -6.6162,0 z"
       id="path32-1" /><path
       style="fill:#000000"
       d="m 1829.073,-374.35594 0,-24.24316 -1.5625,0 0,-4.56544 1.5625,0 0,-2.73437 q 0,-2.0996 1.2695,-3.27148 1.2696,-1.1963 3.5401,-1.1963 l 3.5888,0 0,4.51661 q -1.123,0 -1.5869,0.26855 -0.4638,0.24414 -0.4638,0.8789 l 0,1.53809 2.0507,0 0,4.56544 -2.0507,0 0,24.24316 -6.3477,0 z"
       id="path34-9" /><path
       style="fill:#000000"
       d="m 1838.6189,-374.35594 0,-28.8086 6.25,0 0,2.417 0.098,0 q 0.8057,-1.51367 1.9287,-2.22169 1.1231,-0.73241 2.6123,-0.73241 2.0752,0 3.1006,1.24511 1.0498,1.2207 1.0498,3.66212 l 0,11.13281 -6.3965,0 0,-9.03321 q 0,-1.00098 -0.2685,-1.34277 -0.2442,-0.36621 -0.8789,-0.36621 -0.586,0 -0.8789,0.41504 -0.2686,0.41504 -0.2686,1.29394 l 0,22.33887 -6.3477,0 z"
       id="path36-6" /><path
       style="fill:#000000"
       d="m 1862.447,-397.59813 0,5.44434 2.295,0 0,-5.44434 q 0,-0.95215 -0.2686,-1.34277 -0.2686,-0.41504 -0.8789,-0.41504 -0.6104,0 -0.8789,0.41504 -0.2686,0.39062 -0.2686,1.34277 z m 0,17.43164 q 0,0.95215 0.2686,1.36719 0.2685,0.39062 0.8789,0.39062 0.6103,0 0.8789,-0.39062 0.2686,-0.41504 0.2686,-1.36719 l 0,-5.39551 6.3476,0 0,5.34669 q 0,3.125 -1.9775,4.8584 -1.9532,1.70897 -5.5176,1.70897 -4.0283,0 -5.7617,-1.85546 -1.7334,-1.85548 -1.7334,-6.34766 l 0,-13.79394 q 0,-4.54101 1.709,-6.37208 1.7089,-1.83105 5.7373,-1.83105 3.54,0 5.542,1.66015 2.0019,1.63575 2.0019,4.54103 l 0,9.79004 -8.6426,0 0,7.69042 z"
       id="path38" /><path
       style="fill:#000000"
       d="m 1873.0916,-374.35594 0,-28.8086 6.3476,0 0,28.8086 -6.3476,0 z m 0,-30.542 0,-5.46875 6.3476,0 0,5.46875 -6.3476,0 z"
       id="path40" /><path
       style="fill:#000000"
       d="m 1882.5886,-374.35594 0,-24.24316 -1.5625,0 0,-4.56544 1.5625,0 0,-2.73437 q 0,-2.0996 1.2696,-3.27148 1.2695,-1.1963 3.54,-1.1963 l 3.5889,0 0,4.51661 q -1.1231,0 -1.5869,0.26855 -0.4639,0.24414 -0.4639,0.8789 l 0,1.53809 2.0508,0 0,4.56544 -2.0508,0 0,24.24316 -6.3477,0 z"
       id="path42" /><path
       style="fill:#000000"
       d="m 1907.1736,-403.16454 0,28.8086 -6.25,0 0,-2.39257 -0.1465,0 q -0.8057,1.48925 -1.9043,2.19726 -1.0742,0.68359 -2.5879,0.68359 -2.0752,0 -3.125,-1.19629 -1.0254,-1.2207 -1.0254,-3.63769 l 0,-24.4629 6.3477,0 0,22.36329 q 0,0.95215 0.2685,1.31836 0.293,0.3662 0.9278,0.3662 0.5859,0 0.8301,-0.39062 0.2685,-0.39063 0.2685,-1.29394 l 0,-22.36329 6.3965,0 z"
       id="path44" /><path
       style="fill:#000000"
       d="m 1909.2244,-374.35594 0,-28.8086 6.25,0 0,2.417 0.098,0 q 0.8056,-1.51367 1.9287,-2.22169 1.123,-0.73241 2.6123,-0.73241 2.0752,0 3.1006,1.24511 1.0498,1.2207 1.0498,3.66212 l 0,24.43847 -6.3965,0 0,-22.33887 q 0,-1.00098 -0.2686,-1.34277 -0.2441,-0.36621 -0.8789,-0.36621 -0.5859,0 -0.8789,0.41504 -0.2685,0.41504 -0.2685,1.29394 l 0,22.33887 -6.3476,0 z"
       id="path46" /><path
       style="fill:#000000"
       d="m 1926.3142,-374.35594 0,-36.01075 6.3477,0 0,19.75099 0.098,0 2.7099,-12.54884 6.4942,0 -3.1494,12.45118 3.1494,16.35742 -6.6895,0 -2.5146,-15.08789 -0.098,0 0,15.08789 -6.3477,0 z"
       id="path48" /><path
       style="fill:#000000"
       d="m 1943.2087,-374.35594 0,-7.34864 6.6163,0 0,7.34864 -6.6163,0 z"
       id="path50" /><path
       style="fill:#000000"
       d="m 1952.2908,-374.35594 0,-28.8086 6.25,0 0,2.417 0.098,0 q 0.8057,-1.51367 1.9287,-2.22169 1.1231,-0.73241 2.6123,-0.73241 2.0752,0 3.1006,1.24511 1.0498,1.2207 1.0498,3.66212 l 0,24.43847 -6.3965,0 0,-22.33887 q 0,-1.00098 -0.2685,-1.34277 -0.2442,-0.36621 -0.8789,-0.36621 -0.586,0 -0.8789,0.41504 -0.2686,0.41504 -0.2686,1.29394 l 0,22.33887 -6.3477,0 z"
       id="path52" /><path
       style="fill:#000000"
       d="m 1975.6306,-397.59813 0,5.44434 2.2949,0 0,-5.44434 q 0,-0.95215 -0.2685,-1.34277 -0.2686,-0.41504 -0.8789,-0.41504 -0.6104,0 -0.8789,0.41504 -0.2686,0.39062 -0.2686,1.34277 z m 0,17.43164 q 0,0.95215 0.2686,1.36719 0.2685,0.39062 0.8789,0.39062 0.6103,0 0.8789,-0.39062 0.2685,-0.41504 0.2685,-1.36719 l 0,-5.39551 6.3477,0 0,5.34669 q 0,3.125 -1.9775,4.8584 -1.9532,1.70897 -5.5176,1.70897 -4.0283,0 -5.7617,-1.85546 -1.7334,-1.85548 -1.7334,-6.34766 l 0,-13.79394 q 0,-4.54101 1.709,-6.37208 1.7089,-1.83105 5.7373,-1.83105 3.54,0 5.5419,1.66015 2.002,1.63575 2.002,4.54103 l 0,9.79004 -8.6426,0 0,7.69042 z"
       id="path54" /><path
       style="fill:#000000"
       d="m 1985.2742,-398.55028 0,-4.61426 1.6113,0 0,-5.34667 6.3965,0 0,5.34667 1.8555,0 0,4.61426 -1.8555,0 0,17.50489 q 0,1.34276 0.3174,1.70898 0.3418,0.3418 1.3183,0.3418 l 0.2198,0 0,4.63867 -4.0039,0 q -2.3194,0 -3.2959,-1.04981 -0.9522,-1.07421 -0.9522,-4.0039 l 0,-19.14063 -1.6113,0 z"
       id="path56" /></g></svg>